<svg xmlns="http://www.w3.org/2000/svg" xmlns:xlink="http://www.w3.org/1999/xlink" width="500" zoomAndPan="magnify" viewBox="0 0 375 374.999991" height="500" preserveAspectRatio="xMidYMid meet" version="1.0"><defs><clipPath id="176960da13"><path d="M 154 87 L 337.359375 87 L 337.359375 321.753906 L 154 321.753906 Z M 154 87 " clip-rule="nonzero"/></clipPath><clipPath id="6141fc93bc"><path d="M 50.109375 138 L 173 138 L 173 321.753906 L 50.109375 321.753906 Z M 50.109375 138 " clip-rule="nonzero"/></clipPath><clipPath id="e302b40023"><path d="M 263 61.503906 L 280 61.503906 L 280 77 L 263 77 Z M 263 61.503906 " clip-rule="nonzero"/></clipPath><clipPath id="962d4f053f"><path d="M 212 61.503906 L 228 61.503906 L 228 77 L 212 77 Z M 212 61.503906 " clip-rule="nonzero"/></clipPath></defs><g clip-path="url(#176960da13)"><path fill="#000000" d="M 329.949219 194.601562 C 325.332031 183.726562 318.78125 173.917969 310.355469 165.535156 C 301.980469 157.148438 292.183594 150.542969 281.320312 145.917969 C 272.488281 142.160156 263.25 139.871094 253.707031 139.058594 L 282.03125 108.875 C 282.640625 108.214844 282.996094 107.351562 283.046875 106.4375 C 283.046875 105.675781 282.84375 105.011719 282.488281 104.453125 L 282.4375 104.402344 L 272.640625 89.058594 C 272.285156 88.5 271.78125 87.992188 271.121094 87.6875 C 270.613281 87.433594 270.105469 87.332031 269.597656 87.332031 L 222.085938 87.332031 C 221.578125 87.332031 221.070312 87.433594 220.5625 87.6875 C 219.953125 87.992188 219.445312 88.449219 219.089844 88.957031 L 209.292969 103.589844 L 209.292969 103.640625 C 208.886719 104.199219 208.683594 104.910156 208.683594 105.625 C 208.683594 106.589844 209.039062 107.453125 209.648438 108.113281 L 238.074219 139.058594 C 228.53125 139.871094 219.242188 142.160156 210.359375 145.917969 C 199.496094 150.542969 189.699219 157.097656 181.324219 165.535156 C 172.949219 173.917969 166.351562 183.726562 161.730469 194.601562 C 156.960938 205.878906 154.523438 217.871094 154.523438 230.222656 C 154.523438 242.570312 156.960938 254.5625 161.730469 265.84375 C 166.351562 276.714844 172.898438 286.523438 181.324219 294.90625 C 189.699219 303.292969 199.496094 309.898438 210.359375 314.523438 C 221.628906 319.300781 233.609375 321.738281 245.941406 321.738281 C 258.277344 321.738281 270.257812 319.300781 281.523438 314.523438 C 292.386719 309.898438 302.183594 303.34375 310.558594 294.90625 C 318.933594 286.523438 325.535156 276.714844 330.152344 265.84375 C 334.925781 254.5625 337.359375 242.570312 337.359375 230.222656 C 337.105469 217.871094 334.671875 205.878906 329.949219 194.601562 Z M 270.003906 98.558594 L 272.589844 102.675781 L 268.125 102.625 Z M 270.96875 109.941406 L 258.582031 123.15625 L 264.722656 109.890625 Z M 263.808594 94.648438 L 261.375 99.882812 L 255.433594 94.648438 Z M 245.738281 95.816406 L 253.253906 102.421875 L 238.429688 102.269531 Z M 236.042969 94.648438 L 230.105469 99.882812 L 227.667969 94.648438 Z M 221.375 98.40625 L 223.101562 102.117188 L 218.9375 102.066406 Z M 220.5625 109.382812 L 226.550781 109.433594 L 232.59375 122.441406 Z M 256.753906 109.789062 L 245.738281 133.519531 L 234.625 109.535156 Z M 245.738281 312.539062 C 200.410156 312.539062 163.507812 275.597656 163.507812 230.222656 C 163.507812 184.84375 200.410156 147.902344 245.738281 147.902344 C 291.066406 147.902344 327.96875 184.84375 327.96875 230.222656 C 327.96875 275.597656 291.066406 312.539062 245.738281 312.539062 Z M 245.738281 312.539062 " fill-opacity="1" fill-rule="nonzero"/></g><g clip-path="url(#6141fc93bc)"><path fill="#000000" d="M 166.605469 308.628906 C 158.535156 311.21875 150.058594 312.539062 141.53125 312.539062 C 96.199219 312.539062 59.296875 275.597656 59.296875 230.222656 C 59.296875 184.84375 96.199219 147.902344 141.53125 147.902344 C 149.855469 147.902344 158.078125 149.171875 165.996094 151.609375 C 168.382812 152.371094 170.96875 151 171.730469 148.613281 C 172.492188 146.222656 171.121094 143.632812 168.738281 142.871094 C 159.957031 140.125 150.820312 138.753906 141.582031 138.753906 C 129.246094 138.753906 117.265625 141.195312 105.996094 145.96875 C 95.136719 150.59375 85.339844 157.148438 76.964844 165.585938 C 68.585938 173.96875 61.988281 183.777344 57.371094 194.652344 C 52.546875 205.878906 50.109375 217.871094 50.109375 230.222656 C 50.109375 242.570312 52.546875 254.5625 57.320312 265.84375 C 61.9375 276.714844 68.484375 286.523438 76.914062 294.90625 C 85.289062 303.292969 95.085938 309.898438 105.945312 314.523438 C 117.214844 319.300781 129.195312 321.738281 141.53125 321.738281 C 151.023438 321.738281 160.414062 320.265625 169.398438 317.417969 C 171.78125 316.65625 173.101562 314.066406 172.339844 311.675781 C 171.578125 309.1875 168.992188 307.867188 166.605469 308.628906 Z M 166.605469 308.628906 " fill-opacity="1" fill-rule="nonzero"/></g><path fill="#000000" d="M 211.984375 171.988281 C 210.359375 170.054688 207.515625 169.75 205.539062 171.378906 C 203.609375 173.003906 203.304688 175.847656 204.929688 177.832031 C 217.058594 192.515625 223.710938 211.113281 223.710938 230.222656 C 223.710938 249.328125 217.058594 267.925781 204.929688 282.609375 C 203.304688 284.542969 203.609375 287.4375 205.539062 289.0625 C 206.402344 289.777344 207.414062 290.132812 208.429688 290.132812 C 209.75 290.132812 211.070312 289.574219 211.933594 288.453125 C 218.53125 280.425781 223.710938 271.429688 227.261719 261.726562 C 230.96875 251.664062 232.796875 241.09375 232.796875 230.273438 C 232.796875 219.449219 230.917969 208.878906 227.261719 198.816406 C 223.761719 189.011719 218.582031 180.015625 211.984375 171.988281 Z M 211.984375 171.988281 " fill-opacity="1" fill-rule="nonzero"/><path fill="#000000" d="M 297.667969 93.121094 C 298.988281 94.445312 299.796875 96.171875 299.949219 98.050781 L 300.40625 103.234375 L 300.863281 98.050781 C 301.015625 96.222656 301.828125 94.445312 303.148438 93.121094 C 304.46875 91.800781 306.195312 90.988281 308.074219 90.835938 L 313.25 90.378906 L 308.023438 89.972656 C 306.195312 89.820312 304.417969 89.007812 303.097656 87.6875 C 301.777344 86.363281 300.964844 84.636719 300.8125 82.757812 L 300.355469 77.574219 L 299.898438 82.757812 C 299.75 84.585938 298.9375 86.363281 297.617188 87.6875 C 296.296875 89.007812 294.570312 89.820312 292.691406 89.972656 L 287.515625 90.429688 L 292.691406 90.886719 C 294.621094 91.039062 296.347656 91.851562 297.667969 93.121094 Z M 297.667969 93.121094 " fill-opacity="1" fill-rule="nonzero"/><path fill="#000000" d="M 281.121094 122.035156 L 280.867188 119.34375 L 280.613281 122.035156 C 280.511719 123.003906 280.105469 123.917969 279.445312 124.578125 C 278.785156 125.238281 277.871094 125.695312 276.90625 125.746094 L 274.214844 126 L 276.90625 126.253906 C 277.871094 126.355469 278.785156 126.761719 279.445312 127.421875 C 280.105469 128.082031 280.5625 129 280.613281 129.964844 L 280.867188 132.65625 L 281.121094 129.964844 C 281.222656 129 281.625 128.082031 282.285156 127.421875 C 282.945312 126.761719 283.859375 126.304688 284.824219 126.253906 L 287.515625 126 L 284.824219 125.746094 C 283.859375 125.644531 282.945312 125.238281 282.285156 124.578125 C 281.625 123.917969 281.21875 123.003906 281.121094 122.035156 Z M 281.121094 122.035156 " fill-opacity="1" fill-rule="nonzero"/><g clip-path="url(#e302b40023)"><path fill="#000000" d="M 269.800781 70.816406 C 270.5625 71.578125 271.070312 72.644531 271.171875 73.761719 L 271.425781 76.863281 L 271.679688 73.761719 C 271.78125 72.644531 272.234375 71.628906 273.046875 70.816406 C 273.808594 70.054688 274.875 69.546875 275.992188 69.441406 L 279.089844 69.1875 L 275.992188 68.933594 C 274.875 68.832031 273.859375 68.375 273.046875 67.5625 C 272.285156 66.800781 271.78125 65.734375 271.679688 64.617188 L 271.425781 61.515625 L 271.171875 64.617188 C 271.070312 65.734375 270.613281 66.75 269.800781 67.5625 C 269.039062 68.324219 267.972656 68.832031 266.855469 68.933594 L 263.757812 69.1875 L 266.855469 69.441406 C 267.972656 69.546875 269.039062 70.003906 269.800781 70.816406 Z M 269.800781 70.816406 " fill-opacity="1" fill-rule="nonzero"/></g><path fill="#000000" d="M 188.382812 93.121094 C 189.699219 94.445312 190.511719 96.171875 190.664062 98.050781 L 191.121094 103.234375 L 191.578125 98.050781 C 191.730469 96.222656 192.542969 94.445312 193.863281 93.121094 C 195.183594 91.800781 196.910156 90.988281 198.785156 90.835938 L 203.964844 90.378906 L 198.683594 89.972656 C 196.859375 89.820312 195.082031 89.007812 193.761719 87.6875 C 192.441406 86.363281 191.628906 84.636719 191.476562 82.757812 L 191.019531 77.574219 L 190.5625 82.757812 C 190.410156 84.585938 189.597656 86.363281 188.28125 87.6875 C 186.960938 89.007812 185.234375 89.820312 183.355469 89.972656 L 178.179688 90.429688 L 183.355469 90.886719 C 185.335938 91.039062 187.0625 91.851562 188.382812 93.121094 Z M 188.382812 93.121094 " fill-opacity="1" fill-rule="nonzero"/><path fill="#000000" d="M 206.605469 126.203125 C 207.566406 126.304688 208.480469 126.710938 209.140625 127.371094 C 209.800781 128.03125 210.257812 128.949219 210.308594 129.914062 L 210.5625 132.605469 L 210.816406 129.914062 C 210.917969 128.949219 211.324219 128.03125 211.984375 127.371094 C 212.644531 126.710938 213.558594 126.253906 214.523438 126.203125 L 217.210938 125.949219 L 214.523438 125.695312 C 213.558594 125.59375 212.644531 125.1875 211.984375 124.527344 C 211.324219 123.867188 210.867188 122.953125 210.816406 121.984375 L 210.5625 119.292969 L 210.308594 121.984375 C 210.207031 122.953125 209.800781 123.867188 209.140625 124.527344 C 208.480469 125.1875 207.566406 125.644531 206.605469 125.695312 L 203.914062 125.949219 Z M 206.605469 126.203125 " fill-opacity="1" fill-rule="nonzero"/><g clip-path="url(#962d4f053f)"><path fill="#000000" d="M 218.429688 70.816406 C 219.191406 71.578125 219.699219 72.644531 219.800781 73.761719 L 220.054688 76.863281 L 220.308594 73.761719 C 220.410156 72.644531 220.867188 71.628906 221.679688 70.816406 C 222.441406 70.054688 223.507812 69.546875 224.625 69.441406 L 227.71875 69.1875 L 224.625 68.933594 C 223.507812 68.832031 222.492188 68.375 221.679688 67.5625 C 220.917969 66.800781 220.410156 65.734375 220.308594 64.617188 L 220.054688 61.515625 L 219.800781 64.617188 C 219.699219 65.734375 219.242188 66.75 218.429688 67.5625 C 217.667969 68.324219 216.601562 68.832031 215.488281 68.933594 L 212.390625 69.1875 L 215.488281 69.441406 C 216.601562 69.546875 217.617188 70.003906 218.429688 70.816406 Z M 218.429688 70.816406 " fill-opacity="1" fill-rule="nonzero"/></g></svg>