<svg xmlns="http://www.w3.org/2000/svg" xmlns:xlink="http://www.w3.org/1999/xlink" width="500" zoomAndPan="magnify" viewBox="0 0 375 374.999991" height="500" preserveAspectRatio="xMidYMid meet" version="1.0"><defs><clipPath id="dfbbb7e062"><path d="M 125 71.300781 L 157 71.300781 L 157 127 L 125 127 Z M 125 71.300781 " clip-rule="nonzero"/></clipPath><clipPath id="e7ff9c231d"><path d="M 222 71.300781 L 254 71.300781 L 254 127 L 222 127 Z M 222 71.300781 " clip-rule="nonzero"/></clipPath><clipPath id="c5a7798141"><path d="M 221 223 L 290 223 L 290 296.300781 L 221 296.300781 Z M 221 223 " clip-rule="nonzero"/></clipPath><clipPath id="c3b34bc0ac"><path d="M 84 95 L 290 95 L 290 296.300781 L 84 296.300781 Z M 84 95 " clip-rule="nonzero"/></clipPath></defs><path fill="#000000" d="M 261.503906 143.929688 L 88.269531 143.929688 C 85.9375 143.929688 84.042969 142.039062 84.042969 139.703125 C 84.042969 137.367188 85.9375 135.476562 88.269531 135.476562 L 261.5 135.476562 C 263.835938 135.476562 265.726562 137.367188 265.726562 139.703125 C 265.730469 142.039062 263.835938 143.929688 261.503906 143.929688 Z M 261.503906 143.929688 " fill-opacity="1" fill-rule="nonzero"/><g clip-path="url(#dfbbb7e062)"><path fill="#000000" d="M 142.980469 126.605469 L 139.273438 126.605469 C 131.605469 126.605469 125.363281 120.367188 125.363281 112.703125 L 125.363281 85.285156 C 125.363281 77.617188 131.605469 71.378906 139.273438 71.378906 L 142.980469 71.378906 C 150.648438 71.378906 156.886719 77.617188 156.886719 85.285156 L 156.886719 112.703125 C 156.886719 120.367188 150.648438 126.605469 142.980469 126.605469 Z M 139.273438 79.832031 C 136.265625 79.832031 133.816406 82.277344 133.816406 85.285156 L 133.816406 112.703125 C 133.816406 115.710938 136.265625 118.152344 139.273438 118.152344 L 142.980469 118.152344 C 145.988281 118.152344 148.433594 115.707031 148.433594 112.703125 L 148.433594 85.285156 C 148.433594 82.277344 145.984375 79.832031 142.980469 79.832031 Z M 139.273438 79.832031 " fill-opacity="1" fill-rule="nonzero"/></g><g clip-path="url(#e7ff9c231d)"><path fill="#000000" d="M 239.820312 126.605469 L 236.09375 126.605469 C 228.429688 126.605469 222.195312 120.367188 222.195312 112.703125 L 222.195312 85.285156 C 222.195312 77.617188 228.429688 71.378906 236.09375 71.378906 L 239.820312 71.378906 C 247.484375 71.378906 253.722656 77.617188 253.722656 85.285156 L 253.722656 112.703125 C 253.722656 120.367188 247.484375 126.605469 239.820312 126.605469 Z M 236.097656 79.832031 C 233.09375 79.832031 230.652344 82.277344 230.652344 85.285156 L 230.652344 112.703125 C 230.652344 115.710938 233.09375 118.152344 236.097656 118.152344 L 239.820312 118.152344 C 242.828125 118.152344 245.269531 115.707031 245.269531 112.703125 L 245.269531 85.285156 C 245.269531 82.277344 242.824219 79.832031 239.820312 79.832031 Z M 236.097656 79.832031 " fill-opacity="1" fill-rule="nonzero"/></g><path fill="#000000" d="M 209.980469 103.460938 L 170.363281 103.460938 C 168.03125 103.460938 166.136719 101.570312 166.136719 99.234375 C 166.136719 96.902344 168.03125 95.007812 170.363281 95.007812 L 209.980469 95.007812 C 212.316406 95.007812 214.207031 96.902344 214.207031 99.234375 C 214.207031 101.570312 212.316406 103.460938 209.980469 103.460938 Z M 209.980469 103.460938 " fill-opacity="1" fill-rule="nonzero"/><g clip-path="url(#c5a7798141)"><path fill="#000000" d="M 225.886719 296.484375 C 224.132812 296.484375 222.550781 295.394531 221.929688 293.734375 C 221.292969 292.015625 221.832031 290.082031 223.269531 288.941406 C 224.058594 288.308594 241.929688 273.675781 232.605469 250.535156 C 231.941406 248.894531 232.375 247.007812 233.691406 245.820312 C 235.007812 244.632812 236.917969 244.390625 238.492188 245.214844 C 238.550781 245.25 245.714844 248.914062 254.367188 248.914062 C 266.96875 248.914062 276.183594 241.261719 281.75 226.175781 C 282.445312 224.289062 284.378906 223.148438 286.355469 223.460938 C 288.335938 223.761719 289.835938 225.417969 289.9375 227.425781 C 289.996094 228.597656 291.175781 256.425781 272.867188 276.617188 C 261.773438 288.851562 246.035156 295.535156 226.085938 296.480469 C 226.023438 296.480469 225.957031 296.484375 225.886719 296.484375 Z M 242.972656 255.816406 C 245.601562 269.277344 240.9375 279.976562 236.222656 286.871094 C 248.878906 284.59375 259.070312 279.253906 266.609375 270.945312 C 273.378906 263.476562 277.089844 254.644531 279.113281 246.925781 C 271.195312 255.207031 261.902344 257.367188 254.371094 257.367188 C 250.109375 257.367188 246.1875 256.671875 242.972656 255.816406 Z M 242.972656 255.816406 " fill-opacity="1" fill-rule="nonzero"/></g><g clip-path="url(#c3b34bc0ac)"><path fill="#000000" d="M 276.652344 296.484375 L 97.335938 296.484375 C 90.007812 296.484375 84.042969 290.523438 84.042969 283.195312 L 84.042969 108.304688 C 84.042969 100.976562 90.003906 95.007812 97.335938 95.007812 L 111.039062 95.007812 C 113.371094 95.007812 115.265625 96.902344 115.265625 99.234375 C 115.265625 101.570312 113.371094 103.460938 111.039062 103.460938 L 97.335938 103.460938 C 94.664062 103.460938 92.496094 105.632812 92.496094 108.304688 L 92.496094 283.195312 C 92.496094 285.863281 94.664062 288.03125 97.335938 288.03125 L 276.652344 288.03125 C 279.324219 288.03125 281.496094 285.863281 281.496094 283.195312 L 281.496094 108.304688 C 281.496094 105.632812 279.324219 103.460938 276.652344 103.460938 L 265.078125 103.460938 C 262.742188 103.460938 260.851562 101.570312 260.851562 99.234375 C 260.851562 96.902344 262.742188 95.007812 265.078125 95.007812 L 276.652344 95.007812 C 283.980469 95.007812 289.949219 100.972656 289.949219 108.304688 L 289.949219 283.195312 C 289.949219 290.523438 283.980469 296.484375 276.652344 296.484375 Z M 276.652344 296.484375 " fill-opacity="1" fill-rule="nonzero"/></g><path fill="#000000" d="M 186.316406 262.839844 C 185.269531 262.839844 184.25 262.527344 183.285156 261.910156 C 168.105469 251.058594 156.578125 241.238281 146.839844 230.882812 C 141.390625 225.015625 137.386719 219.683594 134.210938 214.082031 C 128.214844 203.507812 128.789062 192.207031 135.925781 180.484375 C 141.011719 172.179688 148.242188 167.121094 157.433594 165.441406 C 168.457031 163.433594 179.5625 167.921875 186.320312 176.695312 C 187.132812 175.636719 188.003906 174.648438 188.941406 173.707031 C 194.417969 168.183594 202.140625 165.007812 210.117188 165.007812 C 217.027344 165.007812 223.699219 167.375 228.902344 171.679688 C 237.652344 178.902344 242.238281 188.410156 242.539062 199.941406 C 242.664062 205.265625 240.664062 209.800781 238.691406 213.527344 C 234.339844 221.710938 228.449219 228.222656 223.261719 233.511719 C 214.015625 242.914062 203.058594 252.085938 189.761719 261.566406 C 189.257812 261.953125 188.074219 262.839844 186.316406 262.839844 Z M 162.820312 173.40625 C 161.535156 173.40625 160.230469 173.527344 158.941406 173.757812 C 152.132812 175.003906 146.960938 178.644531 143.136719 184.890625 C 137.570312 194.039062 137.070312 201.996094 141.558594 209.914062 C 144.402344 214.929688 148.042969 219.761719 153.011719 225.117188 C 161.972656 234.636719 172.585938 243.746094 186.28125 253.660156 C 198.53125 244.835938 208.664062 236.296875 217.226562 227.59375 C 221.984375 222.738281 227.375 216.792969 231.214844 209.570312 C 232.679688 206.8125 234.164062 203.527344 234.082031 200.15625 C 233.84375 191.0625 230.390625 183.875 223.507812 178.199219 C 219.820312 175.144531 215.0625 173.460938 210.109375 173.460938 C 204.375 173.460938 198.839844 175.726562 194.925781 179.675781 C 193.035156 181.5625 191.503906 183.769531 190.097656 186.636719 C 189.402344 188.058594 187.96875 188.96875 186.390625 189 C 184.804688 188.992188 183.34375 188.179688 182.589844 186.792969 C 182.332031 186.324219 182.15625 185.976562 181.992188 185.660156 L 181.777344 185.242188 C 177.890625 177.828125 170.808594 173.40625 162.820312 173.40625 Z M 162.820312 173.40625 " fill-opacity="1" fill-rule="nonzero"/><path fill="#000000" d="M 218.503906 208.21875 C 217.605469 208.21875 216.707031 207.941406 215.9375 207.351562 C 214.082031 205.933594 213.726562 203.28125 215.148438 201.429688 C 216.75 199.335938 217.121094 196.128906 216.082031 193.457031 C 215.59375 192.207031 214.363281 190.03125 211.632812 189.546875 C 209.332031 189.140625 207.800781 186.949219 208.203125 184.644531 C 208.613281 182.347656 210.800781 180.808594 213.105469 181.21875 C 218.074219 182.101562 222.027344 185.441406 223.953125 190.386719 C 226.058594 195.789062 225.238281 202.140625 221.863281 206.558594 C 221.035156 207.652344 219.773438 208.21875 218.503906 208.21875 Z M 218.503906 208.21875 " fill-opacity="1" fill-rule="nonzero"/><path fill="#000000" d="M 211.734375 220.542969 C 211.628906 220.542969 211.519531 220.539062 211.414062 220.535156 C 209.082031 220.414062 207.289062 218.425781 207.410156 216.097656 C 207.480469 214.703125 208.21875 213.507812 209.296875 212.792969 C 209.871094 212.195312 210.625 211.761719 211.5 211.585938 C 213.769531 211.125 216.011719 212.605469 216.476562 214.898438 C 216.769531 216.355469 216.398438 217.816406 215.460938 218.90625 C 214.921875 219.53125 213.738281 220.542969 211.734375 220.542969 Z M 211.734375 220.542969 " fill-opacity="1" fill-rule="nonzero"/></svg>