<svg xmlns="http://www.w3.org/2000/svg" xmlns:xlink="http://www.w3.org/1999/xlink" width="500" zoomAndPan="magnify" viewBox="0 0 375 374.999991" height="500" preserveAspectRatio="xMidYMid meet" version="1.0"><defs><clipPath id="f02576bf12"><path d="M 59.273438 23.148438 L 333.773438 23.148438 L 333.773438 362.148438 L 59.273438 362.148438 Z M 59.273438 23.148438 " clip-rule="nonzero"/></clipPath></defs><g clip-path="url(#f02576bf12)"><path fill="#92af97" d="M 172.464844 47.382812 L 172.464844 338.238281 C 172.464844 339.03125 172.425781 339.824219 172.347656 340.613281 C 172.273438 341.402344 172.15625 342.1875 172 342.964844 C 171.84375 343.746094 171.652344 344.511719 171.421875 345.273438 C 171.191406 346.03125 170.925781 346.777344 170.621094 347.511719 C 170.316406 348.246094 169.976562 348.960938 169.605469 349.664062 C 169.230469 350.363281 168.824219 351.042969 168.382812 351.703125 C 167.941406 352.363281 167.46875 353 166.964844 353.613281 C 166.460938 354.226562 165.929688 354.8125 165.367188 355.375 C 164.804688 355.9375 164.21875 356.46875 163.605469 356.972656 C 162.992188 357.476562 162.355469 357.949219 161.695312 358.390625 C 161.035156 358.832031 160.355469 359.238281 159.652344 359.613281 C 158.953125 359.988281 158.238281 360.324219 157.503906 360.628906 C 156.769531 360.933594 156.023438 361.199219 155.265625 361.429688 C 154.503906 361.660156 153.734375 361.855469 152.957031 362.007812 C 152.179688 362.164062 151.394531 362.28125 150.605469 362.359375 C 149.8125 362.4375 149.023438 362.476562 148.226562 362.476562 L 83.59375 362.476562 C 82.800781 362.476562 82.007812 362.4375 81.21875 362.359375 C 80.429688 362.28125 79.644531 362.164062 78.867188 362.007812 C 78.085938 361.855469 77.316406 361.660156 76.558594 361.429688 C 75.800781 361.199219 75.050781 360.933594 74.320312 360.628906 C 73.585938 360.324219 72.867188 359.988281 72.167969 359.613281 C 71.46875 359.238281 70.789062 358.832031 70.128906 358.390625 C 69.46875 357.949219 68.832031 357.476562 68.21875 356.972656 C 67.605469 356.46875 67.015625 355.9375 66.457031 355.375 C 65.894531 354.8125 65.363281 354.226562 64.859375 353.613281 C 64.355469 353 63.882812 352.363281 63.441406 351.703125 C 63 351.042969 62.59375 350.363281 62.21875 349.664062 C 61.84375 348.960938 61.503906 348.246094 61.203125 347.511719 C 60.898438 346.777344 60.628906 346.03125 60.402344 345.273438 C 60.171875 344.511719 59.976562 343.746094 59.824219 342.964844 C 59.667969 342.1875 59.550781 341.402344 59.472656 340.613281 C 59.394531 339.824219 59.355469 339.03125 59.355469 338.238281 L 59.355469 47.382812 C 59.355469 46.589844 59.394531 45.796875 59.472656 45.007812 C 59.550781 44.21875 59.667969 43.433594 59.824219 42.65625 C 59.976562 41.878906 60.171875 41.109375 60.402344 40.347656 C 60.628906 39.589844 60.898438 38.84375 61.203125 38.109375 C 61.503906 37.375 61.84375 36.660156 62.21875 35.957031 C 62.59375 35.257812 63 34.578125 63.441406 33.917969 C 63.882812 33.257812 64.355469 32.621094 64.859375 32.007812 C 65.363281 31.394531 65.894531 30.808594 66.457031 30.246094 C 67.015625 29.683594 67.605469 29.152344 68.21875 28.648438 C 68.832031 28.144531 69.46875 27.671875 70.128906 27.230469 C 70.789062 26.789062 71.46875 26.382812 72.167969 26.007812 C 72.867188 25.632812 73.585938 25.296875 74.320312 24.992188 C 75.050781 24.6875 75.800781 24.421875 76.558594 24.191406 C 77.316406 23.960938 78.085938 23.765625 78.867188 23.613281 C 79.644531 23.457031 80.429688 23.339844 81.21875 23.261719 C 82.007812 23.1875 82.800781 23.148438 83.59375 23.148438 L 148.226562 23.148438 C 149.023438 23.148438 149.8125 23.1875 150.605469 23.261719 C 151.394531 23.339844 152.179688 23.457031 152.957031 23.613281 C 153.734375 23.765625 154.503906 23.960938 155.265625 24.191406 C 156.023438 24.421875 156.769531 24.6875 157.503906 24.992188 C 158.238281 25.296875 158.953125 25.632812 159.652344 26.007812 C 160.355469 26.382812 161.035156 26.789062 161.695312 27.230469 C 162.355469 27.671875 162.992188 28.144531 163.605469 28.648438 C 164.21875 29.152344 164.804688 29.683594 165.367188 30.246094 C 165.929688 30.808594 166.460938 31.394531 166.964844 32.007812 C 167.46875 32.621094 167.941406 33.257812 168.382812 33.917969 C 168.824219 34.578125 169.230469 35.257812 169.605469 35.957031 C 169.976562 36.660156 170.316406 37.375 170.621094 38.109375 C 170.925781 38.84375 171.191406 39.589844 171.421875 40.347656 C 171.652344 41.109375 171.84375 41.878906 172 42.65625 C 172.15625 43.433594 172.273438 44.21875 172.347656 45.007812 C 172.425781 45.796875 172.464844 46.589844 172.464844 47.382812 Z M 309.8125 23.148438 L 245.179688 23.148438 C 244.386719 23.148438 243.59375 23.1875 242.804688 23.261719 C 242.011719 23.339844 241.230469 23.457031 240.449219 23.613281 C 239.671875 23.765625 238.902344 23.960938 238.144531 24.191406 C 237.382812 24.421875 236.636719 24.6875 235.902344 24.992188 C 235.171875 25.296875 234.453125 25.632812 233.753906 26.007812 C 233.054688 26.382812 232.375 26.789062 231.714844 27.230469 C 231.054688 27.671875 230.417969 28.144531 229.804688 28.648438 C 229.1875 29.152344 228.601562 29.683594 228.039062 30.246094 C 227.480469 30.808594 226.945312 31.394531 226.441406 32.007812 C 225.941406 32.621094 225.46875 33.257812 225.027344 33.917969 C 224.585938 34.578125 224.175781 35.257812 223.804688 35.957031 C 223.429688 36.660156 223.089844 37.375 222.785156 38.109375 C 222.484375 38.84375 222.214844 39.589844 221.984375 40.347656 C 221.753906 41.109375 221.5625 41.878906 221.40625 42.65625 C 221.253906 43.433594 221.136719 44.21875 221.058594 45.007812 C 220.980469 45.796875 220.941406 46.589844 220.941406 47.382812 L 220.941406 338.238281 C 220.941406 339.03125 220.980469 339.824219 221.058594 340.613281 C 221.136719 341.402344 221.253906 342.1875 221.40625 342.964844 C 221.5625 343.746094 221.753906 344.511719 221.984375 345.273438 C 222.214844 346.03125 222.484375 346.777344 222.785156 347.511719 C 223.089844 348.246094 223.429688 348.960938 223.804688 349.664062 C 224.175781 350.363281 224.585938 351.042969 225.027344 351.703125 C 225.46875 352.363281 225.941406 353 226.441406 353.613281 C 226.945312 354.226562 227.480469 354.8125 228.039062 355.375 C 228.601562 355.9375 229.1875 356.46875 229.804688 356.972656 C 230.417969 357.476562 231.054688 357.949219 231.714844 358.390625 C 232.375 358.832031 233.054688 359.238281 233.753906 359.613281 C 234.453125 359.988281 235.171875 360.324219 235.902344 360.628906 C 236.636719 360.933594 237.382812 361.199219 238.144531 361.429688 C 238.902344 361.660156 239.671875 361.855469 240.449219 362.007812 C 241.230469 362.164062 242.011719 362.28125 242.804688 362.359375 C 243.59375 362.4375 244.386719 362.476562 245.179688 362.476562 L 309.8125 362.476562 C 310.605469 362.476562 311.398438 362.4375 312.1875 362.359375 C 312.980469 362.28125 313.761719 362.164062 314.542969 362.007812 C 315.320312 361.855469 316.089844 361.660156 316.847656 361.429688 C 317.609375 361.199219 318.355469 360.933594 319.089844 360.628906 C 319.820312 360.324219 320.539062 359.988281 321.238281 359.613281 C 321.9375 359.238281 322.617188 358.832031 323.277344 358.390625 C 323.9375 357.949219 324.574219 357.476562 325.191406 356.972656 C 325.804688 356.46875 326.390625 355.9375 326.953125 355.375 C 327.511719 354.8125 328.046875 354.226562 328.550781 353.613281 C 329.054688 353 329.523438 352.363281 329.964844 351.703125 C 330.40625 351.042969 330.816406 350.363281 331.1875 349.664062 C 331.5625 348.960938 331.902344 348.246094 332.207031 347.511719 C 332.507812 346.777344 332.777344 346.03125 333.007812 345.273438 C 333.238281 344.511719 333.429688 343.746094 333.585938 342.964844 C 333.738281 342.1875 333.855469 341.402344 333.933594 340.613281 C 334.011719 339.824219 334.050781 339.03125 334.050781 338.238281 L 334.050781 47.382812 C 334.050781 46.589844 334.011719 45.796875 333.933594 45.007812 C 333.855469 44.21875 333.738281 43.433594 333.585938 42.65625 C 333.429688 41.878906 333.238281 41.109375 333.007812 40.347656 C 332.777344 39.589844 332.507812 38.84375 332.207031 38.109375 C 331.902344 37.375 331.5625 36.660156 331.1875 35.957031 C 330.816406 35.257812 330.40625 34.578125 329.964844 33.917969 C 329.523438 33.257812 329.054688 32.621094 328.550781 32.007812 C 328.046875 31.394531 327.511719 30.808594 326.953125 30.246094 C 326.390625 29.683594 325.804688 29.152344 325.191406 28.648438 C 324.574219 28.144531 323.9375 27.671875 323.277344 27.230469 C 322.617188 26.789062 321.9375 26.382812 321.238281 26.007812 C 320.539062 25.632812 319.820312 25.296875 319.089844 24.992188 C 318.355469 24.6875 317.609375 24.421875 316.847656 24.191406 C 316.089844 23.960938 315.320312 23.765625 314.542969 23.613281 C 313.761719 23.457031 312.980469 23.339844 312.1875 23.261719 C 311.398438 23.1875 310.605469 23.148438 309.8125 23.148438 Z M 309.8125 23.148438 " fill-opacity="1" fill-rule="nonzero"/></g></svg>