<svg xmlns="http://www.w3.org/2000/svg" xmlns:xlink="http://www.w3.org/1999/xlink" width="500" zoomAndPan="magnify" viewBox="0 0 375 374.999991" height="500" preserveAspectRatio="xMidYMid meet" version="1.0"><defs><clipPath id="692d883b10"><path d="M 92.40625 71 L 282.90625 71 L 282.90625 304.984375 L 92.40625 304.984375 Z M 92.40625 71 " clip-rule="nonzero"/></clipPath></defs><g clip-path="url(#692d883b10)"><path fill="#ffffff" d="M 239.460938 91.34375 C 242.078125 91.671875 243.878906 92.164062 245.84375 92.164062 C 253.046875 92.164062 259.589844 94.453125 266.136719 96.582031 C 269.085938 97.5625 270.558594 99.363281 271.210938 102.148438 C 272.683594 108.367188 274.15625 114.585938 275.304688 120.804688 C 276.613281 127.515625 277.921875 134.222656 278.902344 140.933594 C 279.722656 146.828125 280.214844 152.71875 280.703125 158.609375 C 281.195312 163.519531 281.6875 168.265625 282.175781 173.175781 C 282.339844 174.976562 282.503906 176.777344 282.503906 178.578125 C 282.175781 183.324219 279.558594 185.777344 274.8125 186.105469 C 273.339844 186.269531 271.867188 186.269531 270.394531 186.269531 C 269.085938 186.269531 267.773438 186.269531 266.136719 186.269531 C 265.320312 190.359375 266.957031 195.597656 261.066406 196.414062 C 261.554688 202.796875 262.375 208.855469 262.539062 214.910156 C 262.863281 221.945312 262.703125 228.820312 262.863281 235.859375 C 263.027344 243.222656 263.355469 250.589844 263.355469 258.117188 C 263.355469 267.609375 263.027344 277.101562 262.703125 286.429688 C 262.703125 288.230469 262.046875 290.195312 261.226562 291.996094 C 259.753906 295.429688 256.320312 297.230469 252.0625 296.902344 C 249.609375 296.742188 246.988281 296.25 244.535156 295.757812 C 241.261719 294.941406 237.988281 294.121094 234.550781 295.105469 C 232.75 295.59375 230.460938 294.777344 228.496094 294.449219 C 227.839844 294.285156 227.351562 293.957031 226.859375 293.792969 C 224.894531 293.304688 222.277344 294.285156 221.132812 292.15625 C 219.820312 289.539062 218.675781 286.757812 218.023438 283.976562 C 217.367188 281.191406 217.367188 278.410156 217.367188 275.628906 C 217.039062 253.859375 216.710938 231.929688 216.386719 210.164062 C 216.386719 207.21875 216.710938 204.273438 216.710938 201.324219 C 216.710938 198.378906 215.402344 194.125 214.09375 191.832031 C 212.949219 189.871094 211.3125 189.050781 209.019531 189.214844 C 206.730469 189.378906 204.273438 189.542969 201.984375 189.378906 C 197.5625 188.886719 195.109375 186.269531 195.601562 181.851562 C 196.089844 175.632812 197.074219 169.574219 197.890625 163.355469 C 198.546875 157.792969 199.035156 152.226562 199.691406 146.5 C 200.671875 137.496094 201.328125 128.496094 202.472656 119.496094 C 203.128906 114.421875 204.765625 109.347656 208.203125 105.257812 C 209.511719 103.621094 211.3125 101.820312 213.113281 100.835938 C 219.003906 97.890625 224.078125 92.980469 231.277344 93.472656 C 231.933594 93.472656 232.585938 92.980469 233.40625 92.492188 C 233.734375 87.253906 236.515625 83.324219 240.117188 79.234375 C 238.480469 78.253906 237.171875 77.433594 235.859375 76.777344 C 234.714844 76.289062 233.570312 76.289062 232.425781 75.960938 C 230.789062 75.304688 230.460938 73.667969 231.933594 72.523438 C 232.261719 72.195312 232.585938 72.03125 233.078125 71.871094 C 237.171875 70.234375 245.351562 73.179688 246.171875 78.742188 C 246.5 81.363281 245.84375 83.324219 244.207031 85.289062 C 242.570312 86.761719 241.261719 88.890625 239.460938 91.34375 Z M 226.042969 287.574219 C 230.625 288.394531 234.222656 289.703125 237.660156 288.066406 C 237.660156 286.101562 237.660156 284.628906 237.660156 283.15625 C 237.824219 274.644531 237.988281 266.300781 237.988281 257.789062 C 238.152344 241.421875 238.152344 224.894531 238.152344 208.363281 C 238.152344 206.234375 238.480469 204.273438 238.96875 202.144531 C 239.132812 201.488281 240.117188 200.671875 240.769531 200.507812 C 241.425781 200.34375 242.570312 201 242.898438 201.488281 C 243.390625 202.472656 243.714844 203.78125 243.714844 204.925781 C 244.042969 211.308594 244.207031 217.691406 244.371094 224.074219 C 244.535156 234.386719 244.699219 244.859375 244.863281 255.171875 C 244.863281 260.242188 245.027344 265.480469 244.863281 270.554688 C 244.699219 276.609375 244.207031 282.664062 243.878906 288.886719 C 245.351562 289.046875 246.824219 289.375 248.300781 289.539062 C 255.335938 290.195312 255.828125 289.867188 255.992188 282.664062 C 256.320312 267.9375 256.644531 253.371094 256.644531 238.640625 C 256.644531 226.855469 256.15625 214.910156 255.992188 203.125 C 255.992188 200.835938 255.828125 198.378906 255.664062 196.253906 C 252.226562 194.941406 248.789062 194.125 246.007812 192.324219 C 243.226562 190.523438 241.097656 187.578125 238.644531 184.960938 C 234.386719 189.707031 229.96875 194.125 223.421875 194.941406 C 223.421875 198.050781 223.421875 200.835938 223.421875 203.453125 C 223.421875 213.4375 223.421875 223.257812 223.75 233.238281 C 224.078125 247.804688 224.566406 262.371094 225.058594 276.773438 C 224.894531 280.539062 225.550781 283.976562 226.042969 287.574219 Z M 265.972656 179.886719 C 268.757812 179.886719 271.046875 180.050781 273.175781 179.886719 C 275.628906 179.722656 276.449219 178.578125 276.121094 175.957031 C 275.957031 174.15625 275.628906 172.519531 275.46875 170.722656 C 274.976562 164.992188 274.484375 159.265625 273.832031 153.535156 C 273.011719 147.152344 272.355469 140.933594 271.210938 134.714844 C 269.574219 125.386719 267.773438 116.058594 265.8125 106.894531 C 264.664062 101.820312 262.375 100.511719 256.808594 101.164062 C 256.480469 103.621094 256.808594 105.910156 258.609375 108.039062 C 260.902344 110.820312 260.738281 114.09375 259.101562 117.203125 C 255.828125 123.09375 252.390625 128.988281 248.953125 134.878906 C 246.988281 138.152344 245.191406 141.589844 241.261719 143.554688 C 241.753906 152.71875 241.917969 161.71875 242.734375 170.722656 C 243.0625 174.8125 244.042969 178.902344 245.515625 182.832031 C 247.480469 188.234375 253.371094 190.851562 259.429688 189.214844 C 259.429688 187.742188 259.429688 186.105469 259.429688 184.46875 C 259.101562 175.792969 258.773438 167.285156 258.609375 158.609375 C 258.445312 151.574219 258.609375 144.371094 258.773438 137.171875 C 258.773438 135.699219 258.773438 133.734375 261.226562 133.570312 C 263.191406 133.570312 264.175781 135.042969 264.5 136.679688 C 264.828125 138.316406 264.828125 139.953125 264.828125 141.589844 C 265.15625 153.371094 265.484375 164.992188 265.648438 176.777344 C 265.8125 177.59375 265.972656 178.578125 265.972656 179.886719 Z M 237.007812 177.757812 C 237.007812 177.105469 237.007812 176.941406 237.007812 176.613281 C 235.207031 165.8125 234.058594 154.847656 235.207031 143.878906 C 235.207031 143.390625 235.042969 142.734375 234.714844 142.242188 C 233.242188 140.605469 231.933594 138.808594 230.296875 137.335938 C 224.242188 132.097656 218.347656 126.695312 214.585938 119.496094 C 212.949219 116.386719 213.4375 114.09375 214.910156 111.640625 C 215.566406 110.492188 216.710938 109.675781 217.695312 108.53125 C 217.367188 107.382812 216.875 106.238281 216.546875 104.929688 C 211.964844 108.855469 210.820312 113.929688 210.003906 119.003906 C 208.691406 128.332031 208.039062 137.496094 207.054688 146.664062 C 206.238281 154.519531 205.09375 162.210938 204.4375 170.066406 C 204.109375 174.15625 202.308594 178.085938 203.457031 182.503906 C 205.746094 182.503906 207.875 182.503906 210.328125 182.503906 C 210.65625 181.523438 211.148438 180.539062 211.3125 179.558594 C 213.4375 167.285156 214.421875 154.847656 214.257812 142.40625 C 214.257812 141.097656 214.421875 139.625 215.074219 138.644531 C 216.222656 136.679688 218.183594 136.84375 219.167969 138.96875 C 219.820312 140.28125 220.3125 141.753906 220.3125 143.226562 C 220.96875 154.847656 220.640625 166.300781 218.347656 177.757812 C 217.53125 182.175781 217.859375 185.941406 219.984375 189.707031 C 228.167969 189.542969 231.933594 182.832031 237.007812 177.757812 Z M 236.679688 127.515625 C 238.644531 117.367188 240.441406 107.382812 242.40625 96.746094 C 240.28125 96.910156 238.316406 97.074219 236.023438 97.238281 C 235.207031 107.546875 234.714844 117.53125 236.679688 127.515625 Z M 228.496094 99.199219 C 223.75 101.164062 223.09375 101.984375 224.078125 105.421875 C 225.222656 109.019531 224.730469 111.640625 222.113281 114.421875 C 221.457031 115.074219 221.132812 116.710938 221.457031 117.53125 C 223.257812 120.804688 225.058594 124.078125 228.824219 126.203125 C 227.675781 116.875 228.496094 108.039062 228.496094 99.199219 Z M 244.207031 126.53125 C 244.535156 126.695312 244.863281 126.695312 245.191406 126.859375 C 247.972656 121.949219 250.753906 117.039062 253.863281 111.804688 C 248.789062 109.511719 251.410156 103.945312 248.136719 100.019531 C 246.664062 109.347656 245.351562 118.023438 244.207031 126.53125 Z M 123.425781 106.402344 C 121.460938 106.730469 119.660156 107.21875 117.859375 107.058594 C 116.878906 107.058594 115.40625 106.238281 115.078125 105.421875 C 114.75 104.765625 115.570312 102.964844 116.386719 102.636719 C 119.007812 101.328125 121.789062 100.183594 124.570312 99.363281 C 132.097656 97.074219 139.628906 95.109375 147.648438 92.816406 C 147.8125 91.671875 148.300781 89.707031 148.628906 87.910156 C 149.121094 85.125 148.628906 84.472656 145.847656 84.308594 C 144.375 84.144531 143.066406 83.816406 142.738281 82.34375 C 142.410156 80.707031 143.71875 80.050781 144.863281 79.398438 C 148.300781 77.597656 152.230469 78.742188 154.03125 82.179688 C 155.339844 84.472656 155.339844 87.089844 154.847656 89.542969 C 154.355469 91.835938 155.339844 92.816406 157.304688 93.472656 C 163.523438 95.601562 169.085938 99.039062 175.796875 99.691406 C 177.597656 99.855469 178.742188 101 179.070312 102.964844 C 177.597656 105.910156 174.816406 104.929688 172.523438 105.257812 C 167.613281 113.601562 164.996094 122.277344 166.140625 131.933594 C 166.140625 132.425781 166.304688 132.914062 166.140625 133.242188 C 164.503906 139.132812 167.613281 143.554688 170.230469 148.464844 C 174.324219 155.664062 177.761719 163.191406 181.199219 170.722656 C 186.269531 181.523438 190.199219 192.980469 192.816406 204.597656 C 194.945312 213.929688 196.582031 223.421875 198.054688 232.914062 C 199.363281 241.421875 200.671875 249.933594 201.65625 258.445312 C 202.472656 264.828125 202.964844 271.046875 203.292969 277.429688 C 203.457031 279.71875 203.128906 282.175781 202.308594 284.464844 C 201.820312 286.101562 200.511719 287.738281 199.199219 288.558594 C 192.652344 292.8125 186.109375 297.394531 178.089844 298.539062 C 169.578125 299.851562 161.230469 301.8125 152.882812 303.613281 C 147.8125 304.761719 142.574219 303.941406 137.5 302.304688 C 131.445312 300.503906 125.226562 299.195312 118.679688 299.03125 C 114.914062 298.867188 111.152344 297.722656 107.550781 296.085938 C 103.621094 294.449219 100.023438 291.832031 96.257812 289.703125 C 94.128906 288.558594 92.984375 286.757812 92.984375 284.300781 C 92.820312 279.066406 92.492188 273.992188 92.492188 268.753906 C 92.492188 258.28125 93.964844 247.804688 95.113281 237.332031 C 96.421875 223.910156 99.859375 210.980469 103.621094 198.378906 C 107.714844 184.632812 112.460938 170.882812 119.496094 158.28125 C 122.441406 153.046875 125.878906 147.972656 129.152344 142.898438 C 129.644531 142.082031 129.972656 140.933594 129.972656 140.117188 C 129.808594 135.699219 129.316406 131.277344 129.152344 126.859375 C 128.664062 117.039062 128.664062 114.914062 123.425781 106.402344 Z M 114.75 292.8125 C 114.421875 287.574219 114.261719 283.15625 113.769531 278.902344 C 112.789062 266.464844 112.460938 254.023438 112.949219 241.585938 C 113.277344 234.386719 113.113281 227.019531 113.605469 219.820312 C 113.933594 216.382812 113.277344 212.617188 115.570312 209.507812 C 118.351562 209.507812 119.171875 210.980469 119.171875 213.4375 C 119.007812 225.382812 118.84375 237.332031 118.84375 249.277344 C 119.007812 261.71875 119.496094 274.15625 119.988281 286.59375 C 119.988281 288.722656 120.316406 290.847656 120.480469 293.140625 C 125.878906 292.976562 130.625 293.957031 135.371094 295.59375 C 140.609375 297.230469 146.011719 298.703125 151.574219 297.558594 C 157.957031 296.25 164.175781 294.777344 170.722656 293.304688 C 170.070312 286.921875 169.414062 280.375 168.757812 273.664062 C 168.597656 271.371094 168.433594 268.917969 168.597656 266.625 C 168.597656 265.808594 169.578125 264.335938 170.070312 264.335938 C 171.050781 264.335938 172.195312 264.988281 173.015625 265.808594 C 173.503906 266.136719 173.667969 267.117188 173.667969 267.9375 C 173.996094 271.210938 174.488281 274.484375 174.816406 277.59375 C 175.304688 282.664062 175.632812 287.902344 175.960938 292.8125 C 182.835938 291.667969 188.070312 287.574219 193.964844 284.300781 C 195.601562 283.484375 196.089844 282.011719 195.925781 280.210938 C 195.4375 273.5 195.4375 266.625 194.617188 259.917969 C 192.980469 247.476562 190.855469 235.039062 189.054688 222.601562 C 187.417969 210.816406 184.472656 199.363281 180.542969 188.070312 C 178.414062 181.851562 175.632812 175.632812 173.179688 169.410156 C 169.742188 160.738281 165.8125 152.390625 161.066406 144.042969 C 151.902344 146.007812 142.574219 146.828125 133.734375 144.863281 C 108.859375 188.234375 99.859375 235.53125 99.695312 284.792969 C 104.929688 287.574219 109.675781 290.03125 114.75 292.8125 Z M 165.648438 103.785156 C 161.722656 102.148438 157.792969 100.511719 153.867188 99.039062 C 152.71875 98.546875 151.246094 98.21875 149.9375 98.546875 C 142.738281 99.855469 135.535156 101.65625 128.5 104.601562 C 130.136719 107.21875 131.773438 109.511719 133.410156 112.128906 C 137.992188 110.003906 142.410156 110.003906 146.5 112.621094 C 150.757812 110.328125 154.847656 109.347656 159.429688 109.511719 C 164.175781 109.511719 164.832031 108.855469 165.648438 103.785156 Z M 135.863281 139.460938 C 143.882812 139.625 151.246094 140.605469 158.613281 138.808594 C 158.613281 134.550781 158.613281 130.625 158.613281 127.1875 C 155.667969 126.859375 153.046875 126.695312 150.429688 126.53125 C 148.957031 126.367188 147.15625 125.878906 146.175781 126.53125 C 142.902344 128.660156 139.464844 128.496094 135.863281 127.679688 C 135.863281 131.277344 135.863281 135.042969 135.863281 139.460938 Z M 160.25 115.566406 C 159.265625 115.402344 158.449219 115.238281 157.792969 115.402344 C 152.230469 116.875 146.335938 116.550781 140.609375 116.710938 C 138.808594 116.710938 136.84375 117.367188 134.882812 117.695312 C 135.207031 119.332031 135.535156 120.476562 135.699219 121.621094 C 138.644531 122.441406 141.589844 123.421875 144.210938 121.621094 C 146.5 119.984375 148.792969 120.148438 151.410156 120.476562 C 154.03125 120.804688 156.648438 120.476562 159.265625 120.476562 C 159.59375 118.675781 159.757812 117.367188 160.25 115.566406 Z M 139.464844 206.726562 C 139.300781 198.050781 139.464844 189.214844 139.300781 180.539062 C 139.300781 176.285156 139.136719 172.03125 138.972656 167.773438 C 138.972656 166.300781 138.15625 164.828125 136.355469 164.828125 C 134.390625 164.828125 134.0625 166.464844 133.898438 167.9375 C 133.570312 171.539062 133.082031 174.976562 132.917969 178.578125 C 132.589844 186.269531 132.097656 193.960938 132.261719 201.652344 C 132.589844 217.363281 133.246094 233.078125 133.898438 248.789062 C 134.0625 253.042969 134.554688 257.296875 135.207031 261.554688 C 135.371094 263.191406 135.699219 265.480469 138.320312 265.152344 C 140.445312 264.828125 140.117188 262.699219 140.117188 261.226562 C 140.117188 253.042969 140.117188 244.859375 140.117188 235.367188 C 139.792969 226.695312 139.628906 216.710938 139.464844 206.726562 Z M 180.378906 234.710938 C 178.90625 224.238281 177.269531 213.601562 175.632812 203.125 C 173.667969 191.179688 170.394531 179.394531 166.304688 167.9375 C 165.484375 165.648438 164.339844 163.355469 161.722656 162.539062 C 159.429688 163.519531 159.757812 164.992188 160.25 166.628906 C 162.703125 176.121094 165.324219 185.449219 167.285156 195.105469 C 169.742188 206.890625 171.707031 219 173.832031 230.785156 C 174.324219 233.566406 174.816406 236.347656 175.632812 238.96875 C 176.125 240.605469 176.941406 242.078125 180.050781 241.421875 C 180.214844 239.296875 180.707031 236.839844 180.378906 234.710938 Z M 163.847656 243.878906 C 163.359375 237.167969 162.867188 230.621094 162.050781 223.910156 C 161.066406 215.074219 160.902344 206.234375 158.941406 197.398438 C 157.628906 191.34375 156.976562 185.125 155.832031 179.066406 C 155.339844 176.613281 154.847656 173.996094 151.738281 173.175781 C 148.957031 174.320312 149.609375 176.777344 149.9375 178.902344 C 151.246094 189.871094 152.71875 201 154.03125 211.964844 C 155.339844 222.4375 156.484375 232.914062 157.792969 243.386719 C 158.121094 245.351562 158.777344 247.316406 159.429688 249.441406 C 159.757812 250.75 160.578125 251.570312 162.214844 251.078125 C 164.175781 248.789062 164.175781 246.332031 163.847656 243.878906 Z M 163.847656 243.878906 " fill-opacity="1" fill-rule="nonzero"/></g></svg>