<svg xmlns="http://www.w3.org/2000/svg" xmlns:xlink="http://www.w3.org/1999/xlink" width="500" zoomAndPan="magnify" viewBox="0 0 375 374.999991" height="500" preserveAspectRatio="xMidYMid meet" version="1.0"><defs><clipPath id="51a18da963"><path d="M 73.136719 45.746094 L 312.226562 45.746094 L 312.226562 329.246094 L 73.136719 329.246094 Z M 73.136719 45.746094 " clip-rule="nonzero"/></clipPath></defs><g clip-path="url(#51a18da963)"><path fill="#000000" d="M 229.988281 54.207031 C 228.964844 53.265625 227.230469 53.34375 226.292969 54.363281 L 207.816406 74.46875 C 207.34375 74.984375 207.101562 75.652344 207.128906 76.347656 C 207.160156 77.046875 207.457031 77.691406 207.972656 78.164062 C 208.457031 78.609375 209.085938 78.851562 209.742188 78.851562 C 210.46875 78.851562 211.171875 78.542969 211.664062 78.007812 L 230.144531 57.898438 C 231.117188 56.835938 231.046875 55.179688 229.988281 54.207031 Z M 158.109375 54.363281 C 157.171875 53.339844 155.4375 53.265625 154.417969 54.207031 C 153.355469 55.179688 153.285156 56.835938 154.261719 57.898438 L 172.738281 78.007812 C 173.230469 78.542969 173.933594 78.851562 174.664062 78.851562 C 175.320312 78.851562 175.949219 78.609375 176.433594 78.164062 C 176.945312 77.691406 177.246094 77.046875 177.273438 76.347656 C 177.304688 75.652344 177.0625 74.984375 176.589844 74.46875 Z M 192.203125 45.746094 C 190.761719 45.746094 189.589844 46.917969 189.589844 48.359375 L 189.589844 71.449219 C 189.589844 72.890625 190.761719 74.0625 192.203125 74.0625 C 193.644531 74.0625 194.816406 72.890625 194.816406 71.449219 L 194.816406 48.359375 C 194.816406 46.917969 193.644531 45.746094 192.203125 45.746094 Z M 234.503906 161.523438 C 226.175781 160.824219 218.796875 158.492188 214.730469 156.984375 C 217.765625 171.355469 222.808594 183.078125 229.777344 191.785156 C 232.78125 195.535156 241.132812 204.878906 247.363281 203.367188 C 253.632812 201.84375 256.792969 189.402344 257.679688 185.007812 C 259.195312 177.449219 259.222656 169.023438 257.824219 159.875 C 254.257812 160.535156 243.613281 162.285156 234.503906 161.523438 Z M 269 298.425781 C 272.132812 309.117188 266.347656 312.164062 261.238281 314.855469 C 260.488281 315.253906 259.707031 315.664062 258.914062 316.117188 C 255.257812 318.191406 251.839844 319.621094 245.363281 321.773438 C 243.425781 322.421875 242.945312 323.28125 242.820312 323.910156 L 306.714844 308.390625 C 306.332031 307.914062 305.742188 307.5625 304.585938 307.5625 C 304.25 307.5625 303.878906 307.59375 303.484375 307.65625 C 297.820312 308.542969 294.324219 308.890625 291.023438 308.890625 C 290.296875 308.890625 289.578125 308.871094 288.847656 308.84375 C 287.9375 308.804688 287.054688 308.800781 286.203125 308.792969 C 280.433594 308.746094 273.886719 308.691406 271.769531 297.753906 L 255.105469 229.175781 C 252.628906 218.984375 252.738281 211.726562 255.4375 206.984375 C 259.179688 200.414062 261.570312 195.898438 263.523438 186.179688 C 266.019531 173.769531 264.917969 159.398438 260.253906 143.472656 C 253.226562 119.496094 244.207031 97.6875 241.414062 91.117188 L 201.140625 100.898438 C 201.671875 108.019531 203.667969 131.535156 208.429688 156.0625 C 211.59375 172.351562 217.207031 185.625 225.125 195.507812 C 231.316406 203.246094 235.515625 206.164062 241.851562 210.285156 C 246.429688 213.257812 249.855469 219.65625 252.332031 229.847656 Z M 242.398438 329.246094 C 241.042969 329.246094 239.75 328.71875 238.855469 327.796875 C 238.234375 327.15625 237.5 326.023438 237.546875 324.269531 C 237.605469 322.234375 238.484375 318.554688 243.710938 316.816406 C 250.621094 314.515625 253.382812 313.242188 256.332031 311.570312 C 257.175781 311.089844 258.003906 310.65625 258.800781 310.234375 C 263.84375 307.578125 265.929688 306.476562 263.96875 299.84375 C 263.957031 299.800781 263.945312 299.761719 263.933594 299.71875 L 247.253906 231.082031 C 245.136719 222.371094 242.363281 216.847656 239.003906 214.664062 C 232.207031 210.246094 227.601562 206.972656 221.042969 198.773438 C 212.59375 188.222656 206.625 174.1875 203.296875 157.058594 C 197.550781 127.464844 195.789062 99.324219 195.769531 99.042969 C 195.695312 97.777344 196.535156 96.644531 197.761719 96.34375 L 242.324219 85.519531 C 243.554688 85.226562 244.820312 85.84375 245.332031 87.003906 C 245.445312 87.261719 256.792969 113.070312 265.269531 142.003906 C 270.175781 158.75 271.3125 173.960938 268.648438 187.210938 C 266.578125 197.5 263.992188 202.523438 259.980469 209.570312 C 258 213.050781 258.066406 219.230469 260.183594 227.941406 L 276.863281 296.582031 C 276.875 296.621094 276.882812 296.664062 276.890625 296.703125 C 278.191406 303.5 280.550781 303.519531 286.25 303.566406 C 287.152344 303.574219 288.085938 303.582031 289.054688 303.621094 C 292.753906 303.765625 296.128906 303.519531 302.675781 302.492188 C 306.710938 301.859375 309.890625 303.242188 311.574219 306.289062 C 312.339844 307.675781 312.4375 309.179688 311.84375 310.53125 C 311.238281 311.90625 309.933594 312.988281 308.441406 313.351562 L 243.574219 329.105469 C 243.199219 329.199219 242.800781 329.246094 242.398438 329.246094 Z M 127.539062 159.875 C 126.140625 169.023438 126.164062 177.449219 127.683594 185.007812 C 128.570312 189.402344 131.730469 201.84375 138 203.367188 C 144.230469 204.878906 152.582031 195.535156 155.585938 191.785156 C 162.554688 183.078125 167.597656 171.355469 170.632812 156.984375 C 166.566406 158.492188 159.1875 160.824219 150.859375 161.523438 C 141.75 162.285156 131.105469 160.535156 127.539062 159.875 Z M 78.640625 308.394531 L 142.539062 323.910156 C 142.40625 323.261719 141.917969 322.414062 140 321.773438 C 133.523438 319.621094 130.105469 318.191406 126.449219 316.117188 C 125.65625 315.664062 124.875 315.253906 124.125 314.855469 C 119.015625 312.164062 113.226562 309.117188 116.363281 298.425781 L 133.03125 229.847656 C 135.503906 219.65625 138.933594 213.257812 143.511719 210.285156 C 149.847656 206.164062 154.046875 203.246094 160.242188 195.507812 C 168.152344 185.625 173.769531 172.351562 176.933594 156.0625 C 181.699219 131.535156 183.691406 108.019531 184.222656 100.898438 L 143.949219 91.117188 C 141.15625 97.6875 132.136719 119.496094 125.109375 143.472656 C 120.445312 159.398438 119.34375 173.765625 121.839844 186.179688 C 123.792969 195.898438 126.183594 200.414062 129.925781 206.984375 C 132.625 211.726562 132.734375 218.984375 130.257812 229.175781 L 113.59375 297.753906 C 111.472656 308.691406 104.933594 308.746094 99.15625 308.792969 C 98.308594 308.800781 97.425781 308.804688 96.515625 308.84375 C 92.453125 309.007812 88.789062 308.738281 81.878906 307.65625 C 81.484375 307.59375 81.113281 307.5625 80.777344 307.5625 C 79.601562 307.5625 79.011719 307.925781 78.640625 308.394531 Z M 142.964844 329.246094 C 142.5625 329.246094 142.164062 329.199219 141.789062 329.105469 L 76.925781 313.351562 C 75.429688 312.988281 74.125 311.90625 73.519531 310.53125 C 72.925781 309.183594 73.023438 307.675781 73.789062 306.289062 C 75.46875 303.242188 78.648438 301.859375 82.6875 302.492188 C 89.234375 303.519531 92.613281 303.769531 96.308594 303.621094 C 97.273438 303.582031 98.210938 303.574219 99.113281 303.566406 C 104.8125 303.519531 107.171875 303.5 108.472656 296.703125 C 108.480469 296.664062 108.488281 296.621094 108.5 296.582031 L 125.179688 227.941406 C 127.296875 219.230469 127.363281 213.050781 125.382812 209.570312 C 121.367188 202.523438 118.78125 197.5 116.714844 187.210938 C 114.050781 173.957031 115.1875 158.75 120.09375 142.003906 C 128.570312 113.070312 139.917969 87.261719 140.03125 87.003906 C 140.542969 85.84375 141.8125 85.226562 143.039062 85.519531 L 187.601562 96.34375 C 188.828125 96.644531 189.667969 97.777344 189.59375 99.039062 C 189.574219 99.324219 187.8125 127.464844 182.066406 157.058594 C 178.738281 174.191406 172.769531 188.222656 164.320312 198.773438 C 157.761719 206.972656 153.15625 210.246094 146.359375 214.664062 C 143 216.847656 140.222656 222.371094 138.109375 231.082031 L 121.429688 299.71875 C 121.417969 299.761719 121.40625 299.800781 121.394531 299.84375 C 119.433594 306.476562 121.519531 307.578125 126.5625 310.234375 C 127.359375 310.65625 128.1875 311.089844 129.03125 311.570312 C 131.980469 313.242188 134.742188 314.515625 141.652344 316.816406 C 146.878906 318.554688 147.757812 322.234375 147.816406 324.269531 C 147.863281 326.023438 147.132812 327.15625 146.507812 327.796875 C 145.613281 328.71875 144.320312 329.246094 142.964844 329.246094 " fill-opacity="1" fill-rule="nonzero"/></g></svg>