<svg xmlns="http://www.w3.org/2000/svg" xmlns:xlink="http://www.w3.org/1999/xlink" width="794" zoomAndPan="magnify" viewBox="0 0 595.5 842.249979" height="1123" preserveAspectRatio="xMidYMid meet" version="1.0"><defs><g/><clipPath id="3cdde91851"><path d="M 226.601562 85.683594 L 377.964844 85.683594 L 377.964844 103.667969 L 226.601562 103.667969 Z M 226.601562 85.683594 " clip-rule="nonzero"/></clipPath><clipPath id="0ee48d076e"><path d="M 222 749.148438 L 373 749.148438 L 373 766.792969 L 222 766.792969 Z M 222 749.148438 " clip-rule="nonzero"/></clipPath></defs><g clip-path="url(#3cdde91851)"><path fill="#ffb961" d="M 296.140625 100.804688 C 296.207031 101.363281 295.949219 101.796875 295.824219 102 C 295.101562 103.175781 293.601562 103.46875 293.230469 103.539062 C 290.832031 104.003906 288.671875 102.710938 287.125 101.78125 C 285.964844 101.085938 286.359375 101.128906 284.007812 99.519531 C 281.925781 98.09375 280.621094 97.375 279.0625 97.320312 C 278.820312 97.308594 277.445312 97.261719 277.1875 97.867188 C 277.105469 98.082031 277.097656 98.300781 277.160156 98.519531 C 277.632812 100.148438 280.039062 98.5625 280.039062 98.5625 C 279.824219 100.449219 278.277344 100.921875 276.863281 100.535156 C 275.449219 100.152344 274.207031 97.492188 276.863281 95.988281 C 279.519531 94.488281 283.425781 96.632812 284.753906 97.835938 C 286.085938 99.035156 288.914062 101.480469 290.503906 101.824219 C 292.089844 102.167969 294.234375 102.039062 294.40625 101.050781 C 294.578125 100.066406 292.863281 99.808594 292.863281 99.808594 C 293.582031 99.226562 294.523438 99.101562 295.222656 99.492188 C 295.285156 99.53125 296.039062 99.964844 296.140625 100.804688 Z M 292.277344 99.027344 C 292.277344 99.027344 289.785156 97.117188 291.28125 96.269531 C 292.777344 95.425781 293.128906 98.546875 293.128906 98.546875 C 294.019531 96.640625 292.363281 93.714844 290.449219 94.796875 C 288.53125 95.882812 290.1875 98.808594 292.277344 99.027344 Z M 291.804688 97.5625 C 291.714844 97.660156 291.671875 97.773438 291.675781 97.90625 C 291.679688 98.039062 291.730469 98.148438 291.828125 98.238281 C 291.925781 98.332031 292.039062 98.371094 292.171875 98.367188 C 292.304688 98.363281 292.414062 98.3125 292.507812 98.214844 C 292.597656 98.117188 292.640625 98.003906 292.632812 97.871094 C 292.628906 97.738281 292.578125 97.628906 292.480469 97.539062 C 292.382812 97.449219 292.269531 97.40625 292.136719 97.410156 C 292.003906 97.414062 291.894531 97.464844 291.804688 97.5625 Z M 296.003906 95.753906 C 297.617188 96.359375 295.449219 98.632812 295.449219 98.632812 C 297.480469 98.089844 298.65625 94.941406 296.597656 94.167969 C 294.535156 93.398438 293.355469 96.546875 294.535156 98.289062 C 294.535156 98.292969 294.394531 95.152344 296.003906 95.753906 Z M 295.351562 96.988281 C 295.21875 96.980469 295.101562 97.019531 295.003906 97.109375 C 294.90625 97.199219 294.855469 97.308594 294.847656 97.441406 C 294.839844 97.574219 294.882812 97.6875 294.96875 97.785156 C 295.058594 97.886719 295.167969 97.9375 295.300781 97.945312 C 295.433594 97.949219 295.550781 97.910156 295.648438 97.820312 C 295.746094 97.734375 295.796875 97.621094 295.804688 97.488281 C 295.8125 97.359375 295.769531 97.242188 295.683594 97.144531 C 295.59375 97.046875 295.480469 96.992188 295.351562 96.988281 Z M 296.546875 99.546875 C 296.546875 99.546875 298.859375 97.421875 299.433594 99.042969 C 300.007812 100.664062 296.875 100.46875 296.875 100.46875 C 298.59375 101.675781 301.765625 100.554688 301.027344 98.476562 C 300.292969 96.402344 297.121094 97.523438 296.546875 99.546875 Z M 297.976562 100.003906 C 298.082031 99.925781 298.144531 99.820312 298.164062 99.6875 C 298.179688 99.558594 298.148438 99.4375 298.070312 99.332031 C 297.992188 99.226562 297.886719 99.164062 297.753906 99.148438 C 297.621094 99.128906 297.503906 99.160156 297.398438 99.242188 C 297.292969 99.320312 297.230469 99.425781 297.214844 99.558594 C 297.195312 99.6875 297.226562 99.804688 297.304688 99.910156 C 297.386719 100.015625 297.492188 100.078125 297.621094 100.097656 C 297.753906 100.117188 297.871094 100.085938 297.976562 100.003906 Z M 327.613281 95.988281 C 324.957031 94.488281 321.050781 96.632812 319.722656 97.835938 C 318.390625 99.035156 315.5625 101.480469 313.972656 101.824219 C 312.386719 102.164062 310.242188 102.039062 310.070312 101.050781 C 309.898438 100.0625 311.613281 99.808594 311.613281 99.808594 C 310.894531 99.226562 309.957031 99.101562 309.253906 99.492188 C 309.1875 99.53125 308.433594 99.964844 308.335938 100.804688 C 308.269531 101.363281 308.527344 101.796875 308.652344 102 C 309.375 103.175781 310.875 103.46875 311.242188 103.539062 C 313.644531 104.003906 315.800781 102.710938 317.347656 101.78125 C 318.511719 101.085938 318.117188 101.128906 320.464844 99.519531 C 322.546875 98.09375 323.851562 97.375 325.410156 97.320312 C 325.65625 97.308594 327.027344 97.261719 327.289062 97.867188 C 327.371094 98.082031 327.378906 98.300781 327.3125 98.519531 C 326.839844 100.148438 324.441406 98.5625 324.441406 98.5625 C 324.652344 100.449219 326.199219 100.921875 327.613281 100.535156 C 329.027344 100.152344 330.273438 97.492188 327.613281 95.988281 Z M 313.195312 96.273438 C 314.691406 97.121094 312.195312 99.027344 312.195312 99.027344 C 314.289062 98.808594 315.945312 95.882812 314.027344 94.800781 C 312.109375 93.71875 310.453125 96.644531 311.34375 98.546875 C 311.34375 98.546875 311.695312 95.425781 313.195312 96.273438 Z M 312.671875 97.5625 C 312.582031 97.46875 312.46875 97.417969 312.335938 97.410156 C 312.207031 97.40625 312.089844 97.449219 311.992188 97.539062 C 311.898438 97.628906 311.847656 97.742188 311.839844 97.871094 C 311.835938 98.003906 311.878906 98.121094 311.96875 98.214844 C 312.058594 98.3125 312.167969 98.363281 312.300781 98.371094 C 312.433594 98.375 312.550781 98.332031 312.644531 98.242188 C 312.742188 98.152344 312.792969 98.039062 312.800781 97.90625 C 312.804688 97.773438 312.761719 97.660156 312.671875 97.5625 Z M 309.027344 98.636719 C 309.027344 98.636719 306.859375 96.359375 308.472656 95.757812 C 310.082031 95.15625 309.941406 98.292969 309.941406 98.292969 C 311.117188 96.550781 309.941406 93.402344 307.878906 94.175781 C 305.816406 94.945312 306.996094 98.09375 309.027344 98.632812 Z M 308.671875 97.492188 C 308.675781 97.625 308.730469 97.734375 308.828125 97.824219 C 308.925781 97.910156 309.039062 97.953125 309.171875 97.945312 C 309.304688 97.9375 309.414062 97.886719 309.503906 97.789062 C 309.59375 97.691406 309.632812 97.574219 309.628906 97.441406 C 309.621094 97.3125 309.570312 97.199219 309.46875 97.113281 C 309.371094 97.023438 309.257812 96.980469 309.125 96.988281 C 308.992188 96.996094 308.882812 97.046875 308.792969 97.144531 C 308.703125 97.242188 308.664062 97.359375 308.671875 97.488281 Z M 303.445312 98.480469 C 302.710938 100.554688 305.882812 101.675781 307.601562 100.46875 C 307.601562 100.46875 304.46875 100.664062 305.042969 99.042969 C 305.613281 97.421875 307.929688 99.546875 307.929688 99.546875 C 307.351562 97.523438 304.179688 96.402344 303.445312 98.476562 Z M 306.402344 99.335938 C 306.324219 99.441406 306.292969 99.558594 306.3125 99.691406 C 306.332031 99.820312 306.390625 99.925781 306.496094 100.007812 C 306.601562 100.085938 306.722656 100.117188 306.851562 100.097656 C 306.984375 100.082031 307.089844 100.019531 307.167969 99.914062 C 307.25 99.808594 307.28125 99.6875 307.261719 99.558594 C 307.242188 99.425781 307.179688 99.320312 307.074219 99.242188 C 306.96875 99.160156 306.851562 99.128906 306.722656 99.148438 C 306.589844 99.164062 306.484375 99.226562 306.402344 99.332031 Z M 273.332031 97.28125 L 229.84375 98.097656 C 229.667969 98.101562 229.578125 98.195312 229.578125 98.371094 C 229.578125 98.546875 229.667969 98.636719 229.84375 98.644531 L 273.332031 99.460938 L 273.371094 99.460938 C 273.515625 99.457031 273.652344 99.425781 273.785156 99.367188 C 273.917969 99.3125 274.035156 99.230469 274.136719 99.125 C 274.234375 99.023438 274.3125 98.902344 274.363281 98.769531 C 274.417969 98.632812 274.441406 98.492188 274.441406 98.351562 C 274.4375 98.207031 274.40625 98.066406 274.347656 97.933594 C 274.292969 97.800781 274.210938 97.683594 274.105469 97.585938 C 274.003906 97.484375 273.882812 97.410156 273.75 97.355469 C 273.613281 97.304688 273.476562 97.277344 273.332031 97.28125 Z M 227.914062 97.402344 C 227.648438 97.402344 227.417969 97.496094 227.230469 97.683594 C 227.042969 97.875 226.949219 98.101562 226.949219 98.367188 C 226.949219 98.636719 227.042969 98.863281 227.230469 99.050781 C 227.417969 99.242188 227.648438 99.335938 227.914062 99.335938 C 228.183594 99.335938 228.410156 99.242188 228.597656 99.050781 C 228.789062 98.863281 228.882812 98.636719 228.882812 98.367188 C 228.882812 98.101562 228.785156 97.875 228.597656 97.683594 C 228.410156 97.496094 228.179688 97.402344 227.914062 97.402344 Z M 374.632812 98.09375 L 331.144531 97.277344 L 331.105469 97.277344 C 330.960938 97.28125 330.820312 97.3125 330.6875 97.371094 C 330.558594 97.429688 330.441406 97.507812 330.339844 97.613281 C 330.242188 97.71875 330.164062 97.835938 330.113281 97.96875 C 330.058594 98.105469 330.035156 98.246094 330.035156 98.390625 C 330.039062 98.53125 330.070312 98.671875 330.128906 98.804688 C 330.183594 98.9375 330.265625 99.050781 330.371094 99.152344 C 330.472656 99.253906 330.59375 99.328125 330.726562 99.382812 C 330.859375 99.433594 331 99.460938 331.144531 99.457031 L 374.632812 98.640625 C 374.808594 98.636719 374.898438 98.542969 374.898438 98.367188 C 374.898438 98.191406 374.808594 98.101562 374.632812 98.09375 Z M 376.558594 97.402344 C 376.292969 97.402344 376.066406 97.496094 375.875 97.683594 C 375.6875 97.875 375.59375 98.101562 375.59375 98.367188 C 375.59375 98.636719 375.6875 98.863281 375.875 99.050781 C 376.066406 99.242188 376.292969 99.335938 376.558594 99.335938 C 376.828125 99.335938 377.054688 99.242188 377.242188 99.050781 C 377.433594 98.863281 377.527344 98.636719 377.527344 98.367188 C 377.527344 98.101562 377.433594 97.875 377.242188 97.683594 C 377.054688 97.496094 376.828125 97.402344 376.558594 97.402344 Z M 302.238281 85.683594 C 299.691406 89.261719 302.238281 92.953125 302.238281 92.953125 C 302.238281 92.953125 304.785156 89.261719 302.238281 85.683594 Z M 302.238281 97.945312 C 302.238281 97.945312 303.589844 95.984375 302.238281 94.085938 C 300.886719 95.984375 302.238281 97.945312 302.238281 97.945312 Z M 300.636719 94.554688 C 300.636719 94.554688 300.660156 90.070312 296.539062 88.550781 C 296.453125 92.941406 300.636719 94.554688 300.636719 94.554688 Z M 307.933594 88.550781 C 303.8125 90.070312 303.839844 94.554688 303.839844 94.554688 C 303.839844 94.554688 308.023438 92.941406 307.933594 88.550781 Z M 307.933594 88.550781 " fill-opacity="1" fill-rule="nonzero"/></g><g clip-path="url(#0ee48d076e)"><path fill="#ffb961" d="M 291.324219 752.011719 C 291.390625 751.453125 291.128906 751.019531 291.003906 750.816406 C 290.28125 749.640625 288.78125 749.347656 288.414062 749.273438 C 286.011719 748.808594 283.855469 750.101562 282.308594 751.035156 C 281.144531 751.730469 281.542969 751.683594 279.191406 753.292969 C 277.109375 754.722656 275.804688 755.4375 274.246094 755.496094 C 274.003906 755.503906 272.628906 755.554688 272.367188 754.949219 C 272.289062 754.734375 272.28125 754.515625 272.34375 754.296875 C 272.816406 752.664062 275.21875 754.25 275.21875 754.25 C 275.003906 752.363281 273.460938 751.890625 272.046875 752.277344 C 270.628906 752.664062 269.386719 755.324219 272.046875 756.824219 C 274.703125 758.328125 278.609375 756.179688 279.9375 754.980469 C 281.269531 753.78125 284.097656 751.335938 285.683594 750.992188 C 287.273438 750.648438 289.417969 750.777344 289.589844 751.765625 C 289.761719 752.75 288.042969 753.007812 288.042969 753.007812 C 288.765625 753.589844 289.703125 753.710938 290.402344 753.320312 C 290.46875 753.285156 291.222656 752.847656 291.324219 752.011719 Z M 287.460938 753.789062 C 287.460938 753.789062 284.964844 755.699219 286.464844 756.542969 C 287.960938 757.390625 288.3125 754.269531 288.3125 754.269531 C 289.203125 756.171875 287.546875 759.101562 285.632812 758.015625 C 283.714844 756.933594 285.371094 754.003906 287.460938 753.789062 Z M 286.984375 755.253906 C 286.894531 755.15625 286.851562 755.039062 286.859375 754.910156 C 286.863281 754.777344 286.914062 754.664062 287.011719 754.574219 C 287.109375 754.484375 287.222656 754.441406 287.355469 754.449219 C 287.488281 754.453125 287.597656 754.503906 287.6875 754.601562 C 287.777344 754.695312 287.820312 754.8125 287.816406 754.945312 C 287.8125 755.074219 287.761719 755.1875 287.664062 755.277344 C 287.566406 755.367188 287.453125 755.410156 287.320312 755.40625 C 287.1875 755.402344 287.074219 755.351562 286.984375 755.253906 Z M 291.1875 757.058594 C 292.796875 756.457031 290.632812 754.183594 290.632812 754.183594 C 292.660156 754.722656 293.839844 757.875 291.777344 758.644531 C 289.714844 759.417969 288.539062 756.265625 289.714844 754.527344 C 289.714844 754.523438 289.574219 757.660156 291.1875 757.058594 Z M 290.53125 755.828125 C 290.398438 755.835938 290.285156 755.792969 290.1875 755.707031 C 290.089844 755.617188 290.035156 755.507812 290.03125 755.375 C 290.023438 755.242188 290.0625 755.125 290.152344 755.027344 C 290.242188 754.929688 290.351562 754.878906 290.484375 754.871094 C 290.617188 754.863281 290.730469 754.90625 290.828125 754.996094 C 290.929688 755.082031 290.980469 755.191406 290.988281 755.324219 C 290.992188 755.457031 290.953125 755.574219 290.863281 755.671875 C 290.773438 755.769531 290.664062 755.820312 290.53125 755.828125 Z M 291.730469 753.269531 C 291.730469 753.269531 294.042969 755.394531 294.617188 753.773438 C 295.191406 752.152344 292.054688 752.347656 292.054688 752.347656 C 293.773438 751.140625 296.945312 752.261719 296.210938 754.339844 C 295.476562 756.414062 292.304688 755.289062 291.730469 753.269531 Z M 293.160156 752.8125 C 293.265625 752.890625 293.328125 752.996094 293.34375 753.128906 C 293.363281 753.257812 293.332031 753.375 293.253906 753.480469 C 293.171875 753.585938 293.066406 753.648438 292.9375 753.667969 C 292.804688 753.683594 292.6875 753.65625 292.582031 753.574219 C 292.476562 753.496094 292.414062 753.390625 292.394531 753.257812 C 292.378906 753.128906 292.410156 753.007812 292.488281 752.902344 C 292.566406 752.796875 292.671875 752.734375 292.804688 752.71875 C 292.9375 752.699219 293.054688 752.730469 293.160156 752.8125 Z M 322.796875 756.824219 C 320.136719 758.328125 316.234375 756.183594 314.902344 754.980469 C 313.574219 753.78125 310.742188 751.335938 309.15625 750.992188 C 307.570312 750.648438 305.425781 750.777344 305.253906 751.765625 C 305.082031 752.75 306.796875 753.007812 306.796875 753.007812 C 306.074219 753.589844 305.136719 753.714844 304.4375 753.324219 C 304.371094 753.285156 303.617188 752.847656 303.515625 752.011719 C 303.449219 751.453125 303.707031 751.019531 303.835938 750.816406 C 304.558594 749.640625 306.054688 749.347656 306.425781 749.273438 C 308.828125 748.808594 310.984375 750.101562 312.53125 751.035156 C 313.695312 751.730469 313.296875 751.683594 315.648438 753.292969 C 317.730469 754.722656 319.035156 755.4375 320.59375 755.496094 C 320.835938 755.503906 322.210938 755.554688 322.472656 754.949219 C 322.550781 754.734375 322.558594 754.515625 322.496094 754.296875 C 322.023438 752.664062 319.621094 754.25 319.621094 754.25 C 319.835938 752.363281 321.378906 751.890625 322.796875 752.277344 C 324.210938 752.664062 325.457031 755.324219 322.796875 756.824219 Z M 308.375 756.542969 C 309.875 755.695312 307.378906 753.789062 307.378906 753.789062 C 309.46875 754.003906 311.125 756.929688 309.207031 758.015625 C 307.292969 759.097656 305.636719 756.167969 306.527344 754.265625 C 306.527344 754.269531 306.878906 757.390625 308.375 756.542969 Z M 307.851562 755.25 C 307.761719 755.347656 307.652344 755.398438 307.519531 755.402344 C 307.386719 755.410156 307.273438 755.367188 307.175781 755.277344 C 307.078125 755.1875 307.027344 755.074219 307.023438 754.941406 C 307.019531 754.808594 307.0625 754.695312 307.152344 754.597656 C 307.242188 754.5 307.351562 754.449219 307.484375 754.445312 C 307.617188 754.441406 307.730469 754.484375 307.828125 754.574219 C 307.925781 754.664062 307.976562 754.773438 307.980469 754.90625 C 307.988281 755.039062 307.945312 755.15625 307.851562 755.253906 Z M 304.207031 754.179688 C 304.207031 754.179688 302.042969 756.457031 303.652344 757.054688 C 305.265625 757.65625 305.121094 754.519531 305.121094 754.519531 C 306.300781 756.261719 305.121094 759.414062 303.0625 758.640625 C 301 757.871094 302.175781 754.722656 304.207031 754.183594 Z M 303.851562 755.324219 C 303.859375 755.191406 303.910156 755.082031 304.011719 754.992188 C 304.109375 754.902344 304.222656 754.863281 304.355469 754.871094 C 304.488281 754.875 304.597656 754.929688 304.6875 755.027344 C 304.773438 755.125 304.816406 755.238281 304.808594 755.371094 C 304.804688 755.503906 304.75 755.613281 304.652344 755.703125 C 304.554688 755.792969 304.4375 755.832031 304.308594 755.828125 C 304.175781 755.820312 304.066406 755.769531 303.976562 755.671875 C 303.886719 755.574219 303.847656 755.457031 303.851562 755.324219 Z M 298.628906 754.335938 C 297.894531 752.261719 301.0625 751.136719 302.785156 752.347656 C 302.785156 752.347656 299.648438 752.148438 300.222656 753.769531 C 300.796875 755.390625 303.109375 753.265625 303.109375 753.265625 C 302.535156 755.289062 299.363281 756.410156 298.628906 754.339844 Z M 301.585938 753.480469 C 301.507812 753.375 301.476562 753.257812 301.496094 753.125 C 301.511719 752.996094 301.574219 752.890625 301.679688 752.808594 C 301.785156 752.730469 301.902344 752.699219 302.035156 752.714844 C 302.164062 752.734375 302.269531 752.796875 302.351562 752.902344 C 302.429688 753.007812 302.460938 753.125 302.445312 753.257812 C 302.425781 753.386719 302.363281 753.492188 302.257812 753.574219 C 302.152344 753.652344 302.035156 753.683594 301.902344 753.667969 C 301.773438 753.648438 301.667969 753.585938 301.585938 753.480469 Z M 268.511719 755.535156 L 225.023438 754.71875 C 224.847656 754.710938 224.761719 754.621094 224.761719 754.445312 C 224.761719 754.269531 224.847656 754.179688 225.023438 754.171875 L 268.511719 753.355469 L 268.554688 753.355469 C 268.699219 753.359375 268.835938 753.390625 268.96875 753.445312 C 269.101562 753.503906 269.21875 753.585938 269.316406 753.6875 C 269.417969 753.792969 269.496094 753.914062 269.546875 754.046875 C 269.601562 754.183594 269.625 754.320312 269.621094 754.464844 C 269.621094 754.609375 269.589844 754.75 269.53125 754.882812 C 269.472656 755.011719 269.394531 755.128906 269.289062 755.230469 C 269.183594 755.332031 269.066406 755.40625 268.929688 755.460938 C 268.796875 755.511719 268.65625 755.539062 268.511719 755.535156 Z M 223.097656 755.414062 C 222.828125 755.414062 222.601562 755.320312 222.414062 755.128906 C 222.222656 754.941406 222.128906 754.714844 222.128906 754.445312 C 222.128906 754.179688 222.222656 753.953125 222.414062 753.761719 C 222.601562 753.574219 222.828125 753.480469 223.097656 753.480469 C 223.363281 753.480469 223.59375 753.574219 223.78125 753.761719 C 223.96875 753.953125 224.0625 754.179688 224.0625 754.445312 C 224.0625 754.714844 223.96875 754.941406 223.78125 755.128906 C 223.589844 755.320312 223.363281 755.414062 223.097656 755.414062 Z M 369.816406 754.71875 L 326.328125 755.535156 L 326.285156 755.535156 C 326.140625 755.535156 326.003906 755.503906 325.871094 755.445312 C 325.738281 755.386719 325.621094 755.304688 325.523438 755.203125 C 325.421875 755.097656 325.347656 754.980469 325.292969 754.84375 C 325.242188 754.710938 325.214844 754.570312 325.21875 754.425781 C 325.222656 754.28125 325.25 754.144531 325.308594 754.011719 C 325.367188 753.878906 325.449219 753.761719 325.550781 753.664062 C 325.65625 753.5625 325.773438 753.484375 325.910156 753.433594 C 326.042969 753.378906 326.183594 753.355469 326.328125 753.359375 L 369.816406 754.171875 C 369.992188 754.179688 370.078125 754.269531 370.078125 754.445312 C 370.078125 754.621094 369.992188 754.714844 369.816406 754.71875 Z M 371.742188 755.414062 C 371.476562 755.414062 371.246094 755.320312 371.058594 755.128906 C 370.871094 754.941406 370.773438 754.714844 370.773438 754.445312 C 370.773438 754.179688 370.871094 753.953125 371.058594 753.761719 C 371.246094 753.574219 371.476562 753.480469 371.742188 753.480469 C 372.007812 753.480469 372.238281 753.574219 372.425781 753.761719 C 372.613281 753.953125 372.710938 754.179688 372.710938 754.445312 C 372.707031 754.714844 372.613281 754.941406 372.425781 755.128906 C 372.238281 755.320312 372.007812 755.414062 371.742188 755.414062 Z M 297.417969 767.132812 C 294.871094 763.554688 297.417969 759.863281 297.417969 759.863281 C 297.417969 759.863281 299.964844 763.554688 297.417969 767.132812 Z M 297.417969 754.867188 C 297.417969 754.867188 298.769531 756.828125 297.417969 758.730469 C 296.070312 756.832031 297.417969 754.871094 297.417969 754.871094 Z M 295.816406 758.257812 C 295.816406 758.257812 295.84375 762.742188 291.722656 764.265625 C 291.636719 759.875 295.816406 758.261719 295.816406 758.261719 Z M 303.117188 764.265625 C 298.996094 762.742188 299.019531 758.257812 299.019531 758.257812 C 299.019531 758.257812 303.203125 759.875 303.117188 764.265625 Z M 303.117188 764.265625 " fill-opacity="1" fill-rule="nonzero"/></g><g fill="#8d3c58" fill-opacity="1"><g transform="translate(217.496206, 271.607985)"><g><path d="M 46.203125 0 L 27.90625 0 L 27.90625 -1.25 C 30.445312 -1.425781 32.046875 -1.882812 32.703125 -2.625 C 33.367188 -3.375 33.703125 -5.128906 33.703125 -7.890625 L 33.703125 -20.734375 L 13.75 -20.734375 L 13.75 -7.171875 C 13.75 -4.847656 14.097656 -3.332031 14.796875 -2.625 C 15.503906 -1.925781 17.085938 -1.46875 19.546875 -1.25 L 19.546875 0 L 1.25 0 L 1.25 -1.25 C 3.789062 -1.425781 5.390625 -1.882812 6.046875 -2.625 C 6.710938 -3.375 7.046875 -5.128906 7.046875 -7.890625 L 7.046875 -36.390625 C 7.046875 -38.765625 6.710938 -40.289062 6.046875 -40.96875 C 5.390625 -41.644531 3.789062 -42.09375 1.25 -42.3125 L 1.25 -43.5625 L 19.546875 -43.5625 L 19.546875 -42.3125 C 17.003906 -42.09375 15.398438 -41.644531 14.734375 -40.96875 C 14.078125 -40.289062 13.75 -38.765625 13.75 -36.390625 L 13.75 -23.625 L 33.703125 -23.625 L 33.703125 -36.390625 C 33.703125 -38.765625 33.367188 -40.289062 32.703125 -40.96875 C 32.046875 -41.644531 30.445312 -42.09375 27.90625 -42.3125 L 27.90625 -43.5625 L 46.203125 -43.5625 L 46.203125 -42.3125 C 43.660156 -42.09375 42.054688 -41.644531 41.390625 -40.96875 C 40.734375 -40.289062 40.40625 -38.765625 40.40625 -36.390625 L 40.40625 -7.171875 C 40.40625 -4.847656 40.753906 -3.332031 41.453125 -2.625 C 42.160156 -1.925781 43.742188 -1.46875 46.203125 -1.25 Z M 46.203125 0 "/></g></g></g><g fill="#8d3c58" fill-opacity="1"><g transform="translate(262.240267, 271.607985)"><g><path d="M 27.90625 -10.328125 C 25.050781 -3.003906 20.398438 0.65625 13.953125 0.65625 C 10.179688 0.65625 7.1875 -0.671875 4.96875 -3.328125 C 2.75 -5.984375 1.640625 -9.566406 1.640625 -14.078125 C 1.640625 -18.859375 2.910156 -22.753906 5.453125 -25.765625 C 8.003906 -28.773438 11.320312 -30.28125 15.40625 -30.28125 C 18.914062 -30.28125 21.722656 -29.023438 23.828125 -26.515625 C 25.273438 -24.679688 26.21875 -21.921875 26.65625 -18.234375 L 6.390625 -18.234375 C 6.515625 -14.503906 7.171875 -11.472656 8.359375 -9.140625 C 10.242188 -5.640625 13.007812 -3.890625 16.65625 -3.890625 C 18.757812 -3.890625 20.585938 -4.414062 22.140625 -5.46875 C 23.703125 -6.519531 25.269531 -8.296875 26.84375 -10.796875 Z M 19.9375 -20.34375 C 19.5 -23.1875 18.816406 -25.15625 17.890625 -26.25 C 16.972656 -27.351562 15.503906 -27.90625 13.484375 -27.90625 C 9.535156 -27.90625 7.210938 -25.382812 6.515625 -20.34375 Z M 19.9375 -20.34375 "/></g></g></g><g fill="#8d3c58" fill-opacity="1"><g transform="translate(288.691731, 271.607985)"><g><path d="M 16.90625 0 L 1.375 0 L 1.375 -0.984375 C 3.4375 -1.160156 4.796875 -1.554688 5.453125 -2.171875 C 6.117188 -2.785156 6.453125 -3.96875 6.453125 -5.71875 L 6.453125 -37.125 C 6.453125 -38.65625 6.253906 -39.707031 5.859375 -40.28125 C 5.460938 -40.851562 4.738281 -41.140625 3.6875 -41.140625 C 3.289062 -41.140625 2.609375 -41.09375 1.640625 -41 L 1.25 -41 L 1.25 -42.046875 C 5.59375 -43.109375 9.082031 -44.078125 11.71875 -44.953125 L 11.984375 -44.8125 L 11.984375 -5.53125 C 11.984375 -3.726562 12.273438 -2.550781 12.859375 -2 C 13.453125 -1.457031 14.800781 -1.117188 16.90625 -0.984375 Z M 16.90625 0 "/></g></g></g><g fill="#8d3c58" fill-opacity="1"><g transform="translate(304.220266, 271.607985)"><g><path d="M 27.90625 -10.328125 C 25.050781 -3.003906 20.398438 0.65625 13.953125 0.65625 C 10.179688 0.65625 7.1875 -0.671875 4.96875 -3.328125 C 2.75 -5.984375 1.640625 -9.566406 1.640625 -14.078125 C 1.640625 -18.859375 2.910156 -22.753906 5.453125 -25.765625 C 8.003906 -28.773438 11.320312 -30.28125 15.40625 -30.28125 C 18.914062 -30.28125 21.722656 -29.023438 23.828125 -26.515625 C 25.273438 -24.679688 26.21875 -21.921875 26.65625 -18.234375 L 6.390625 -18.234375 C 6.515625 -14.503906 7.171875 -11.472656 8.359375 -9.140625 C 10.242188 -5.640625 13.007812 -3.890625 16.65625 -3.890625 C 18.757812 -3.890625 20.585938 -4.414062 22.140625 -5.46875 C 23.703125 -6.519531 25.269531 -8.296875 26.84375 -10.796875 Z M 19.9375 -20.34375 C 19.5 -23.1875 18.816406 -25.15625 17.890625 -26.25 C 16.972656 -27.351562 15.503906 -27.90625 13.484375 -27.90625 C 9.535156 -27.90625 7.210938 -25.382812 6.515625 -20.34375 Z M 25.34375 -42.3125 C 25.34375 -41.300781 24.679688 -40.378906 23.359375 -39.546875 L 13.234375 -33.171875 L 10.59375 -33.171875 L 20.265625 -42.90625 C 21.273438 -43.914062 22.195312 -44.421875 23.03125 -44.421875 C 24.570312 -44.421875 25.34375 -43.71875 25.34375 -42.3125 Z M 25.34375 -42.3125 "/></g></g></g><g fill="#8d3c58" fill-opacity="1"><g transform="translate(330.671729, 271.607985)"><g><path d="M 31.921875 0 L 18.234375 0 L 18.234375 -0.984375 C 19.898438 -1.117188 21.003906 -1.554688 21.546875 -2.296875 C 22.097656 -3.046875 22.375 -4.453125 22.375 -6.515625 L 22.375 -20.265625 C 22.375 -24.523438 20.773438 -26.65625 17.578125 -26.65625 C 16.472656 -26.65625 15.457031 -26.398438 14.53125 -25.890625 C 13.613281 -25.390625 12.367188 -24.394531 10.796875 -22.90625 L 10.796875 -4.40625 C 10.796875 -3.21875 11.101562 -2.382812 11.71875 -1.90625 C 12.332031 -1.425781 13.472656 -1.117188 15.140625 -0.984375 L 15.140625 0 L 1.1875 0 L 1.1875 -0.984375 C 2.851562 -1.117188 3.945312 -1.503906 4.46875 -2.140625 C 5 -2.773438 5.265625 -4.035156 5.265625 -5.921875 L 5.265625 -22.25 C 5.265625 -23.875 5.085938 -24.976562 4.734375 -25.5625 C 4.390625 -26.15625 3.753906 -26.453125 2.828125 -26.453125 C 1.992188 -26.453125 1.398438 -26.363281 1.046875 -26.1875 L 1.046875 -27.3125 C 4.296875 -28.28125 7.328125 -29.269531 10.140625 -30.28125 L 10.59375 -30.140625 L 10.59375 -24.9375 C 12.832031 -27.050781 14.597656 -28.46875 15.890625 -29.1875 C 17.179688 -29.914062 18.597656 -30.28125 20.140625 -30.28125 C 22.554688 -30.28125 24.453125 -29.410156 25.828125 -27.671875 C 27.210938 -25.941406 27.90625 -23.519531 27.90625 -20.40625 L 27.90625 -5.328125 C 27.90625 -3.703125 28.164062 -2.613281 28.6875 -2.0625 C 29.21875 -1.519531 30.296875 -1.160156 31.921875 -0.984375 Z M 31.921875 0 "/></g></g></g><g fill="#8d3c58" fill-opacity="1"><g transform="translate(360.817795, 271.607985)"><g/></g></g><g fill="#8d3c58" fill-opacity="1"><g transform="translate(264.938332, 352.535915)"><g><path d="M 49.359375 -6.578125 C 48.390625 -4.253906 47.015625 -2.429688 45.234375 -1.109375 C 43.460938 0.203125 41.523438 0.859375 39.421875 0.859375 C 35.828125 0.859375 32.097656 -1.140625 28.234375 -5.140625 C 25.773438 -2.984375 23.457031 -1.441406 21.28125 -0.515625 C 19.113281 0.398438 16.691406 0.859375 14.015625 0.859375 C 10.503906 0.859375 7.75 -0.0234375 5.75 -1.796875 C 3.757812 -3.578125 2.765625 -6.023438 2.765625 -9.140625 C 2.765625 -14.671875 6.207031 -19.410156 13.09375 -23.359375 L 15.59375 -24.8125 C 14.0625 -29.0625 13.296875 -32.242188 13.296875 -34.359375 C 13.296875 -37.160156 14.28125 -39.546875 16.25 -41.515625 C 18.226562 -43.492188 20.617188 -44.484375 23.421875 -44.484375 C 26.015625 -44.484375 28.144531 -43.738281 29.8125 -42.25 C 31.476562 -40.757812 32.3125 -38.851562 32.3125 -36.53125 C 32.3125 -34.15625 31.566406 -32.15625 30.078125 -30.53125 C 28.492188 -28.78125 25.835938 -27.023438 22.109375 -25.265625 C 24.742188 -20.140625 27.640625 -15.625 30.796875 -11.71875 C 34.796875 -17.019531 36.796875 -21.007812 36.796875 -23.6875 C 36.796875 -24.695312 36.5 -25.398438 35.90625 -25.796875 C 35.3125 -26.191406 34.203125 -26.476562 32.578125 -26.65625 L 32.578125 -28.03125 L 46.796875 -28.03125 L 46.796875 -26.65625 C 45.128906 -26.4375 43.878906 -26.070312 43.046875 -25.5625 C 42.210938 -25.0625 41.398438 -24.128906 40.609375 -22.765625 L 38.890625 -19.75 C 37.140625 -16.71875 34.945312 -13.425781 32.3125 -9.875 C 35.34375 -5.832031 38.722656 -3.8125 42.453125 -3.8125 C 43.628906 -3.8125 44.644531 -4.0625 45.5 -4.5625 C 46.363281 -5.070312 47.320312 -5.988281 48.375 -7.3125 Z M 28.828125 -36.796875 C 28.828125 -38.410156 28.332031 -39.742188 27.34375 -40.796875 C 26.351562 -41.859375 25.09375 -42.390625 23.5625 -42.390625 C 22.070312 -42.390625 20.851562 -41.882812 19.90625 -40.875 C 18.96875 -39.863281 18.5 -38.566406 18.5 -36.984375 C 18.5 -34.265625 19.375 -31.0625 21.125 -27.375 C 23.800781 -28.820312 25.753906 -30.289062 26.984375 -31.78125 C 28.210938 -33.28125 28.828125 -34.953125 28.828125 -36.796875 Z M 26.59375 -6.84375 C 23.34375 -10.832031 20.003906 -16.078125 16.578125 -22.578125 C 13.734375 -20.734375 11.726562 -19.007812 10.5625 -17.40625 C 9.394531 -15.800781 8.8125 -13.945312 8.8125 -11.84375 C 8.8125 -9.300781 9.644531 -7.117188 11.3125 -5.296875 C 12.988281 -3.472656 14.988281 -2.5625 17.3125 -2.5625 C 19.894531 -2.5625 22.988281 -3.988281 26.59375 -6.84375 Z M 26.59375 -6.84375 "/></g></g></g><g fill="#8d3c58" fill-opacity="1"><g transform="translate(313.37567, 352.535915)"><g/></g></g><g fill="#8d3c58" fill-opacity="1"><g transform="translate(209.241838, 433.463846)"><g><path d="M 56.796875 0 L 38.375 0 L 38.375 -1.25 C 40.957031 -1.425781 42.597656 -1.894531 43.296875 -2.65625 C 44.003906 -3.425781 44.359375 -5.171875 44.359375 -7.890625 L 44.359375 -37.703125 L 27.515625 0 L 26.59375 0 L 10.0625 -36.203125 L 10.0625 -9.671875 C 10.0625 -6.335938 10.457031 -4.132812 11.25 -3.0625 C 12.039062 -1.988281 13.707031 -1.382812 16.25 -1.25 L 16.25 0 L 0.796875 0 L 0.796875 -1.25 C 3.515625 -1.425781 5.253906 -2.03125 6.015625 -3.0625 C 6.785156 -4.09375 7.171875 -6.296875 7.171875 -9.671875 L 7.171875 -36.390625 C 7.171875 -38.804688 6.804688 -40.351562 6.078125 -41.03125 C 5.359375 -41.707031 3.640625 -42.132812 0.921875 -42.3125 L 0.921875 -43.5625 L 13.953125 -43.5625 L 29.15625 -10.328125 L 43.703125 -43.5625 L 56.796875 -43.5625 L 56.796875 -42.3125 C 54.335938 -42.09375 52.769531 -41.628906 52.09375 -40.921875 C 51.414062 -40.222656 51.078125 -38.710938 51.078125 -36.390625 L 51.078125 -7.171875 C 51.078125 -4.847656 51.425781 -3.320312 52.125 -2.59375 C 52.820312 -1.875 54.378906 -1.425781 56.796875 -1.25 Z M 56.796875 0 "/></g></g></g><g fill="#8d3c58" fill-opacity="1"><g transform="translate(264.974618, 433.463846)"><g><path d="M 16.65625 0 L 1.046875 0 L 1.046875 -0.984375 C 3.328125 -1.117188 4.765625 -1.515625 5.359375 -2.171875 C 5.953125 -2.828125 6.25 -4.34375 6.25 -6.71875 L 6.25 -21.984375 C 6.25 -23.429688 6.082031 -24.453125 5.75 -25.046875 C 5.425781 -25.640625 4.867188 -25.9375 4.078125 -25.9375 C 3.378906 -25.9375 2.632812 -25.867188 1.84375 -25.734375 L 1.3125 -25.671875 L 1.3125 -26.65625 L 11.515625 -30.28125 L 11.78125 -30.078125 L 11.78125 -6.71875 C 11.78125 -4.34375 12.050781 -2.835938 12.59375 -2.203125 C 13.144531 -1.566406 14.5 -1.160156 16.65625 -0.984375 Z M 12.375 -38.828125 C 12.375 -37.859375 12.054688 -37.054688 11.421875 -36.421875 C 10.785156 -35.785156 9.984375 -35.46875 9.015625 -35.46875 C 8.097656 -35.46875 7.304688 -35.785156 6.640625 -36.421875 C 5.984375 -37.054688 5.65625 -37.859375 5.65625 -38.828125 C 5.65625 -39.753906 5.984375 -40.546875 6.640625 -41.203125 C 7.304688 -41.859375 8.097656 -42.1875 9.015625 -42.1875 C 9.984375 -42.1875 10.785156 -41.859375 11.421875 -41.203125 C 12.054688 -40.546875 12.375 -39.753906 12.375 -38.828125 Z M 12.375 -38.828125 "/></g></g></g><g fill="#8d3c58" fill-opacity="1"><g transform="translate(280.503153, 433.463846)"><g><path d="M 30.9375 -25.53125 L 25.46875 -25.53125 C 26.300781 -23.644531 26.71875 -21.800781 26.71875 -20 C 26.71875 -16.84375 25.664062 -14.363281 23.5625 -12.5625 C 21.457031 -10.726562 19.085938 -9.8125 16.453125 -9.8125 C 16.015625 -9.8125 15.179688 -9.875 13.953125 -10 C 13.910156 -10 13.492188 -10.046875 12.703125 -10.140625 C 11.828125 -9.867188 10.945312 -9.269531 10.0625 -8.34375 C 9.1875 -7.425781 8.75 -6.640625 8.75 -5.984375 C 8.75 -4.929688 10.460938 -4.34375 13.890625 -4.21875 L 22.375 -3.8125 C 24.789062 -3.726562 26.722656 -3.050781 28.171875 -1.78125 C 29.617188 -0.507812 30.34375 1.15625 30.34375 3.21875 C 30.34375 5.675781 29.132812 7.894531 26.71875 9.875 C 23.03125 12.851562 18.535156 14.34375 13.234375 14.34375 C 10.117188 14.34375 7.441406 13.71875 5.203125 12.46875 C 2.960938 11.21875 1.84375 9.71875 1.84375 7.96875 C 1.84375 6.738281 2.332031 5.519531 3.3125 4.3125 C 4.300781 3.101562 5.960938 1.644531 8.296875 -0.0625 C 6.929688 -0.71875 6.003906 -1.285156 5.515625 -1.765625 C 5.035156 -2.253906 4.796875 -2.847656 4.796875 -3.546875 C 4.796875 -4.828125 5.804688 -6.34375 7.828125 -8.09375 L 10.65625 -10.734375 C 8.46875 -11.828125 6.898438 -13.050781 5.953125 -14.40625 C 5.015625 -15.769531 4.546875 -17.484375 4.546875 -19.546875 C 4.546875 -22.523438 5.609375 -25.054688 7.734375 -27.140625 C 9.859375 -29.234375 12.457031 -30.28125 15.53125 -30.28125 C 17.289062 -30.28125 19.046875 -29.945312 20.796875 -29.28125 L 22.25 -28.765625 C 23.519531 -28.328125 24.722656 -28.109375 25.859375 -28.109375 L 30.9375 -28.109375 Z M 28.5 4.21875 C 28.5 3.03125 27.882812 2.191406 26.65625 1.703125 C 25.425781 1.222656 23.320312 0.984375 20.34375 0.984375 C 15.90625 0.984375 12.347656 0.695312 9.671875 0.125 C 8.316406 1.75 7.441406 2.910156 7.046875 3.609375 C 6.648438 4.316406 6.453125 5.046875 6.453125 5.796875 C 6.453125 7.242188 7.328125 8.40625 9.078125 9.28125 C 10.835938 10.15625 13.164062 10.59375 16.0625 10.59375 C 19.789062 10.59375 22.796875 10 25.078125 8.8125 C 27.359375 7.632812 28.5 6.101562 28.5 4.21875 Z M 21.65625 -17.4375 C 21.65625 -20.15625 20.992188 -22.789062 19.671875 -25.34375 C 18.578125 -27.40625 16.976562 -28.4375 14.875 -28.4375 C 13.332031 -28.4375 12.132812 -27.882812 11.28125 -26.78125 C 10.425781 -25.6875 10 -24.175781 10 -22.25 L 10 -22.046875 C 10 -18.890625 10.625 -16.332031 11.875 -14.375 C 13.125 -12.425781 14.738281 -11.453125 16.71875 -11.453125 C 18.25 -11.453125 19.453125 -11.988281 20.328125 -13.0625 C 21.210938 -14.132812 21.65625 -15.59375 21.65625 -17.4375 Z M 21.65625 -17.4375 "/></g></g></g><g fill="#8d3c58" fill-opacity="1"><g transform="translate(310.639462, 433.463846)"><g><path d="M 31.53125 -2.375 C 28.101562 -1.445312 25.097656 -0.457031 22.515625 0.59375 L 22.25 0.453125 L 22.25 -5 L 19.421875 -2.171875 C 17.523438 -0.285156 15.265625 0.65625 12.640625 0.65625 C 10.222656 0.65625 8.289062 -0.117188 6.84375 -1.671875 C 5.394531 -3.234375 4.671875 -5.304688 4.671875 -7.890625 L 4.671875 -24.484375 C 4.671875 -26.015625 4.382812 -27.078125 3.8125 -27.671875 C 3.25 -28.265625 2.175781 -28.601562 0.59375 -28.6875 L 0.59375 -29.609375 L 10.203125 -29.609375 L 10.203125 -8.15625 C 10.203125 -6.800781 10.660156 -5.628906 11.578125 -4.640625 C 12.503906 -3.648438 13.601562 -3.15625 14.875 -3.15625 C 16.976562 -3.15625 18.953125 -3.945312 20.796875 -5.53125 C 21.546875 -6.101562 21.921875 -7.222656 21.921875 -8.890625 L 21.921875 -24.34375 C 21.921875 -25.96875 21.625 -27.039062 21.03125 -27.5625 C 20.4375 -28.09375 19.109375 -28.40625 17.046875 -28.5 L 17.046875 -29.609375 L 27.4375 -29.609375 L 27.4375 -7.046875 C 27.4375 -5.503906 27.6875 -4.492188 28.1875 -4.015625 C 28.695312 -3.535156 29.695312 -3.296875 31.1875 -3.296875 L 31.53125 -3.296875 Z M 31.53125 -2.375 "/></g></g></g><g fill="#8d3c58" fill-opacity="1"><g transform="translate(340.775772, 433.463846)"><g><path d="M 27.90625 -10.328125 C 25.050781 -3.003906 20.398438 0.65625 13.953125 0.65625 C 10.179688 0.65625 7.1875 -0.671875 4.96875 -3.328125 C 2.75 -5.984375 1.640625 -9.566406 1.640625 -14.078125 C 1.640625 -18.859375 2.910156 -22.753906 5.453125 -25.765625 C 8.003906 -28.773438 11.320312 -30.28125 15.40625 -30.28125 C 18.914062 -30.28125 21.722656 -29.023438 23.828125 -26.515625 C 25.273438 -24.679688 26.21875 -21.921875 26.65625 -18.234375 L 6.390625 -18.234375 C 6.515625 -14.503906 7.171875 -11.472656 8.359375 -9.140625 C 10.242188 -5.640625 13.007812 -3.890625 16.65625 -3.890625 C 18.757812 -3.890625 20.585938 -4.414062 22.140625 -5.46875 C 23.703125 -6.519531 25.269531 -8.296875 26.84375 -10.796875 Z M 19.9375 -20.34375 C 19.5 -23.1875 18.816406 -25.15625 17.890625 -26.25 C 16.972656 -27.351562 15.503906 -27.90625 13.484375 -27.90625 C 9.535156 -27.90625 7.210938 -25.382812 6.515625 -20.34375 Z M 19.9375 -20.34375 "/></g></g></g><g fill="#8d3c58" fill-opacity="1"><g transform="translate(367.227229, 433.463846)"><g><path d="M 16.90625 0 L 1.375 0 L 1.375 -0.984375 C 3.4375 -1.160156 4.796875 -1.554688 5.453125 -2.171875 C 6.117188 -2.785156 6.453125 -3.96875 6.453125 -5.71875 L 6.453125 -37.125 C 6.453125 -38.65625 6.253906 -39.707031 5.859375 -40.28125 C 5.460938 -40.851562 4.738281 -41.140625 3.6875 -41.140625 C 3.289062 -41.140625 2.609375 -41.09375 1.640625 -41 L 1.25 -41 L 1.25 -42.046875 C 5.59375 -43.109375 9.082031 -44.078125 11.71875 -44.953125 L 11.984375 -44.8125 L 11.984375 -5.53125 C 11.984375 -3.726562 12.273438 -2.550781 12.859375 -2 C 13.453125 -1.457031 14.800781 -1.117188 16.90625 -0.984375 Z M 16.90625 0 "/></g></g></g><g fill="#2a2214" fill-opacity="1"><g transform="translate(264.148816, 634.193332)"><g><path d="M 9.28125 -20.5 C 9.28125 -21.894531 9.144531 -22.90625 8.875 -23.53125 C 8.601562 -24.15625 8.078125 -24.578125 7.296875 -24.796875 C 6.515625 -25.023438 5.25 -25.140625 3.5 -25.140625 C 3.363281 -25.140625 3.296875 -25.273438 3.296875 -25.546875 C 3.296875 -25.816406 3.363281 -25.953125 3.5 -25.953125 C 4.800781 -25.953125 5.832031 -25.929688 6.59375 -25.890625 L 11.15625 -25.8125 L 15.671875 -25.890625 C 16.429688 -25.929688 17.484375 -25.953125 18.828125 -25.953125 C 18.960938 -25.953125 19.03125 -25.816406 19.03125 -25.546875 C 19.03125 -25.273438 18.960938 -25.140625 18.828125 -25.140625 C 17.171875 -25.140625 15.945312 -25.015625 15.15625 -24.765625 C 14.375 -24.523438 13.828125 -24.09375 13.515625 -23.46875 C 13.203125 -22.84375 13.046875 -21.851562 13.046875 -20.5 L 13.046875 -5.453125 C 13.046875 -4.054688 13.175781 -3.046875 13.4375 -2.421875 C 13.707031 -1.796875 14.234375 -1.367188 15.015625 -1.140625 C 15.804688 -0.921875 17.078125 -0.8125 18.828125 -0.8125 C 18.960938 -0.8125 19.03125 -0.675781 19.03125 -0.40625 C 19.03125 -0.132812 18.960938 0 18.828125 0 C 17.523438 0 16.492188 -0.0195312 15.734375 -0.0625 L 11.15625 -0.140625 L 6.65625 -0.0625 C 5.894531 -0.0195312 4.84375 0 3.5 0 C 3.363281 0 3.296875 -0.132812 3.296875 -0.40625 C 3.296875 -0.675781 3.363281 -0.8125 3.5 -0.8125 C 5.15625 -0.8125 6.375 -0.929688 7.15625 -1.171875 C 7.945312 -1.421875 8.5 -1.859375 8.8125 -2.484375 C 9.125 -3.109375 9.28125 -4.097656 9.28125 -5.453125 Z M 9.28125 -20.5 "/></g></g></g><g fill="#2a2214" fill-opacity="1"><g transform="translate(286.469374, 634.193332)"><g><path d="M 8 -21.84375 C 7.414062 -21.84375 7.082031 -21.53125 7 -20.90625 L 5.578125 -13.171875 C 11.765625 -13.128906 16.3125 -12 19.21875 -9.78125 C 22.132812 -7.5625 23.59375 -4.503906 23.59375 -0.609375 C 23.59375 1.953125 22.941406 4.273438 21.640625 6.359375 C 20.347656 8.441406 18.320312 10.457031 15.5625 12.40625 C 12.8125 14.351562 9.148438 16.378906 4.578125 18.484375 L 4.5 18.484375 C 4.320312 18.484375 4.175781 18.382812 4.0625 18.1875 C 3.957031 17.988281 3.992188 17.84375 4.171875 17.75 C 9.679688 15.019531 13.554688 12.253906 15.796875 9.453125 C 18.035156 6.648438 19.15625 3.675781 19.15625 0.53125 C 19.15625 -3.1875 17.898438 -6.078125 15.390625 -8.140625 C 12.878906 -10.203125 9.273438 -11.234375 4.578125 -11.234375 C 4.347656 -11.234375 4.164062 -11.3125 4.03125 -11.46875 C 3.894531 -11.625 3.851562 -11.8125 3.90625 -12.03125 L 6.046875 -24 C 6.097656 -24.3125 6.164062 -24.5 6.25 -24.5625 C 6.34375 -24.632812 6.566406 -24.695312 6.921875 -24.75 C 12.566406 -25.414062 16.351562 -25.882812 18.28125 -26.15625 C 20.207031 -26.425781 21.453125 -26.707031 22.015625 -27 C 22.578125 -27.289062 22.972656 -27.769531 23.203125 -28.4375 C 23.242188 -28.570312 23.382812 -28.628906 23.625 -28.609375 C 23.875 -28.585938 23.976562 -28.488281 23.9375 -28.3125 L 22.59375 -23.328125 C 22.414062 -22.835938 22.203125 -22.515625 21.953125 -22.359375 C 21.703125 -22.203125 21.285156 -22.125 20.703125 -22.125 Z M 8 -21.84375 "/></g></g></g><g fill="#2a2214" fill-opacity="1"><g transform="translate(252.079848, 591.76354)"><g><path d="M 10.484375 -8.546875 L 10.046875 -8.546875 C 9.835938 -9.523438 9.554688 -10.210938 9.203125 -10.609375 C 8.648438 -11.234375 7.5625 -11.546875 5.9375 -11.546875 C 5.476562 -11.546875 5.171875 -11.488281 5.015625 -11.375 C 4.859375 -11.257812 4.78125 -11.035156 4.78125 -10.703125 L 4.78125 -6.53125 C 5.675781 -6.53125 6.316406 -6.71875 6.703125 -7.09375 C 7.085938 -7.46875 7.363281 -8.171875 7.53125 -9.203125 L 7.984375 -9.203125 L 7.984375 -3.125 L 7.53125 -3.125 C 7.414062 -4.164062 7.160156 -4.882812 6.765625 -5.28125 C 6.367188 -5.675781 5.707031 -5.890625 4.78125 -5.921875 L 4.78125 -1.71875 C 4.78125 -1.226562 4.898438 -0.898438 5.140625 -0.734375 C 5.390625 -0.578125 5.929688 -0.484375 6.765625 -0.453125 L 6.765625 0 L 0.28125 0 L 0.28125 -0.453125 C 0.957031 -0.523438 1.390625 -0.640625 1.578125 -0.796875 C 1.773438 -0.953125 1.875 -1.257812 1.875 -1.71875 L 1.875 -10.4375 C 1.875 -10.894531 1.765625 -11.210938 1.546875 -11.390625 C 1.328125 -11.566406 0.90625 -11.671875 0.28125 -11.703125 L 0.28125 -12.15625 L 10.484375 -12.15625 Z M 10.484375 -8.546875 "/></g></g></g><g fill="#2a2214" fill-opacity="1"><g transform="translate(262.042943, 591.76354)"><g><path d="M 11.53125 -3.734375 L 10.8125 0 L 0.28125 0 L 0.28125 -0.453125 C 0.957031 -0.523438 1.390625 -0.640625 1.578125 -0.796875 C 1.773438 -0.953125 1.875 -1.257812 1.875 -1.71875 L 1.875 -10.4375 C 1.875 -10.882812 1.765625 -11.195312 1.546875 -11.375 C 1.328125 -11.5625 0.90625 -11.671875 0.28125 -11.703125 L 0.28125 -12.15625 L 10.671875 -12.15625 L 10.671875 -8.546875 L 10.21875 -8.546875 C 9.988281 -9.742188 9.582031 -10.539062 9 -10.9375 C 8.425781 -11.34375 7.410156 -11.546875 5.953125 -11.546875 C 5.484375 -11.546875 5.171875 -11.488281 5.015625 -11.375 C 4.859375 -11.257812 4.78125 -11.035156 4.78125 -10.703125 L 4.78125 -6.53125 C 5.75 -6.519531 6.441406 -6.703125 6.859375 -7.078125 C 7.285156 -7.460938 7.566406 -8.171875 7.703125 -9.203125 L 8.171875 -9.203125 L 8.171875 -3.125 L 7.703125 -3.125 C 7.585938 -4.164062 7.316406 -4.890625 6.890625 -5.296875 C 6.472656 -5.710938 5.769531 -5.921875 4.78125 -5.921875 L 4.78125 -1.5625 C 4.78125 -1.175781 4.882812 -0.910156 5.09375 -0.765625 C 5.300781 -0.628906 5.695312 -0.5625 6.28125 -0.5625 C 7.625 -0.5625 8.703125 -0.890625 9.515625 -1.546875 C 10.066406 -2.015625 10.570312 -2.742188 11.03125 -3.734375 Z M 11.53125 -3.734375 "/></g></g></g><g fill="#2a2214" fill-opacity="1"><g transform="translate(273.013136, 591.76354)"><g><path d="M 11.125 -3.375 C 11.125 -2.363281 10.660156 -1.546875 9.734375 -0.921875 C 8.816406 -0.304688 7.597656 0 6.078125 0 L 0.28125 0 L 0.28125 -0.453125 C 0.945312 -0.523438 1.378906 -0.640625 1.578125 -0.796875 C 1.773438 -0.960938 1.875 -1.269531 1.875 -1.71875 L 1.875 -10.4375 C 1.875 -10.882812 1.765625 -11.195312 1.546875 -11.375 C 1.328125 -11.5625 0.90625 -11.671875 0.28125 -11.703125 L 0.28125 -12.15625 L 5.84375 -12.15625 C 7.34375 -12.15625 8.492188 -11.90625 9.296875 -11.40625 C 10.109375 -10.914062 10.515625 -10.207031 10.515625 -9.28125 C 10.515625 -8.59375 10.296875 -8.039062 9.859375 -7.625 C 9.429688 -7.21875 8.695312 -6.863281 7.65625 -6.5625 C 8.757812 -6.320312 9.59375 -5.960938 10.15625 -5.484375 C 10.800781 -4.910156 11.125 -4.207031 11.125 -3.375 Z M 8.03125 -3.21875 C 8.03125 -5.1875 7.113281 -6.171875 5.28125 -6.171875 L 4.75 -6.171875 L 4.75 -1.671875 C 4.75 -1.273438 4.832031 -0.992188 5 -0.828125 C 5.164062 -0.660156 5.445312 -0.578125 5.84375 -0.578125 C 7.300781 -0.578125 8.03125 -1.457031 8.03125 -3.21875 Z M 7.546875 -9.15625 C 7.546875 -10.007812 7.394531 -10.632812 7.09375 -11.03125 C 6.800781 -11.425781 6.34375 -11.625 5.71875 -11.625 C 5.375 -11.625 5.125 -11.554688 4.96875 -11.421875 C 4.820312 -11.285156 4.75 -11.054688 4.75 -10.734375 L 4.75 -6.703125 C 5.851562 -6.734375 6.59375 -6.910156 6.96875 -7.234375 C 7.351562 -7.566406 7.546875 -8.207031 7.546875 -9.15625 Z M 7.546875 -9.15625 "/></g></g></g><g fill="#2a2214" fill-opacity="1"><g transform="translate(283.983329, 591.76354)"><g><path d="M 12.859375 0 L 9.171875 0 L 5.453125 -5.625 L 4.96875 -5.625 L 4.96875 -2.109375 C 4.96875 -1.472656 5.054688 -1.054688 5.234375 -0.859375 C 5.410156 -0.671875 5.847656 -0.535156 6.546875 -0.453125 L 6.546875 0 L 0.46875 0 L 0.46875 -0.453125 C 1.175781 -0.535156 1.613281 -0.664062 1.78125 -0.84375 C 1.957031 -1.019531 2.046875 -1.441406 2.046875 -2.109375 L 2.046875 -10.046875 C 2.046875 -10.703125 1.945312 -11.128906 1.75 -11.328125 C 1.550781 -11.535156 1.125 -11.660156 0.46875 -11.703125 L 0.46875 -12.15625 L 6.265625 -12.15625 C 7.898438 -12.15625 9.148438 -11.878906 10.015625 -11.328125 C 10.890625 -10.773438 11.328125 -9.984375 11.328125 -8.953125 C 11.328125 -8.117188 11.054688 -7.445312 10.515625 -6.9375 C 10.078125 -6.539062 9.40625 -6.203125 8.5 -5.921875 L 12.125 -0.796875 C 12.300781 -0.566406 12.546875 -0.453125 12.859375 -0.453125 Z M 8.25 -8.890625 C 8.25 -9.835938 8.066406 -10.515625 7.703125 -10.921875 C 7.347656 -11.335938 6.757812 -11.546875 5.9375 -11.546875 C 5.476562 -11.546875 5.195312 -11.457031 5.09375 -11.28125 C 5.007812 -11.113281 4.96875 -10.953125 4.96875 -10.796875 L 4.96875 -6.203125 C 6.164062 -6.210938 6.976562 -6.363281 7.40625 -6.65625 C 7.96875 -7.03125 8.25 -7.773438 8.25 -8.890625 Z M 8.25 -8.890625 "/></g></g></g><g fill="#2a2214" fill-opacity="1"><g transform="translate(295.942635, 591.76354)"><g><path d="M 11.53125 -3.734375 L 10.8125 0 L 0.28125 0 L 0.28125 -0.453125 C 0.957031 -0.523438 1.390625 -0.640625 1.578125 -0.796875 C 1.773438 -0.953125 1.875 -1.257812 1.875 -1.71875 L 1.875 -10.4375 C 1.875 -10.882812 1.765625 -11.195312 1.546875 -11.375 C 1.328125 -11.5625 0.90625 -11.671875 0.28125 -11.703125 L 0.28125 -12.15625 L 10.671875 -12.15625 L 10.671875 -8.546875 L 10.21875 -8.546875 C 9.988281 -9.742188 9.582031 -10.539062 9 -10.9375 C 8.425781 -11.34375 7.410156 -11.546875 5.953125 -11.546875 C 5.484375 -11.546875 5.171875 -11.488281 5.015625 -11.375 C 4.859375 -11.257812 4.78125 -11.035156 4.78125 -10.703125 L 4.78125 -6.53125 C 5.75 -6.519531 6.441406 -6.703125 6.859375 -7.078125 C 7.285156 -7.460938 7.566406 -8.171875 7.703125 -9.203125 L 8.171875 -9.203125 L 8.171875 -3.125 L 7.703125 -3.125 C 7.585938 -4.164062 7.316406 -4.890625 6.890625 -5.296875 C 6.472656 -5.710938 5.769531 -5.921875 4.78125 -5.921875 L 4.78125 -1.5625 C 4.78125 -1.175781 4.882812 -0.910156 5.09375 -0.765625 C 5.300781 -0.628906 5.695312 -0.5625 6.28125 -0.5625 C 7.625 -0.5625 8.703125 -0.890625 9.515625 -1.546875 C 10.066406 -2.015625 10.570312 -2.742188 11.03125 -3.734375 Z M 11.53125 -3.734375 "/></g></g></g><g fill="#2a2214" fill-opacity="1"><g transform="translate(306.912831, 591.76354)"><g><path d="M 12.859375 0 L 9.171875 0 L 5.453125 -5.625 L 4.96875 -5.625 L 4.96875 -2.109375 C 4.96875 -1.472656 5.054688 -1.054688 5.234375 -0.859375 C 5.410156 -0.671875 5.847656 -0.535156 6.546875 -0.453125 L 6.546875 0 L 0.46875 0 L 0.46875 -0.453125 C 1.175781 -0.535156 1.613281 -0.664062 1.78125 -0.84375 C 1.957031 -1.019531 2.046875 -1.441406 2.046875 -2.109375 L 2.046875 -10.046875 C 2.046875 -10.703125 1.945312 -11.128906 1.75 -11.328125 C 1.550781 -11.535156 1.125 -11.660156 0.46875 -11.703125 L 0.46875 -12.15625 L 6.265625 -12.15625 C 7.898438 -12.15625 9.148438 -11.878906 10.015625 -11.328125 C 10.890625 -10.773438 11.328125 -9.984375 11.328125 -8.953125 C 11.328125 -8.117188 11.054688 -7.445312 10.515625 -6.9375 C 10.078125 -6.539062 9.40625 -6.203125 8.5 -5.921875 L 12.125 -0.796875 C 12.300781 -0.566406 12.546875 -0.453125 12.859375 -0.453125 Z M 8.25 -8.890625 C 8.25 -9.835938 8.066406 -10.515625 7.703125 -10.921875 C 7.347656 -11.335938 6.757812 -11.546875 5.9375 -11.546875 C 5.476562 -11.546875 5.195312 -11.457031 5.09375 -11.28125 C 5.007812 -11.113281 4.96875 -10.953125 4.96875 -10.796875 L 4.96875 -6.203125 C 6.164062 -6.210938 6.976562 -6.363281 7.40625 -6.65625 C 7.96875 -7.03125 8.25 -7.773438 8.25 -8.890625 Z M 8.25 -8.890625 "/></g></g></g><g fill="#2a2214" fill-opacity="1"><g transform="translate(318.87214, 591.76354)"><g><path d="M 13.359375 -6.046875 C 13.359375 -4.179688 12.757812 -2.648438 11.5625 -1.453125 C 10.375 -0.253906 8.847656 0.34375 6.984375 0.34375 C 5.128906 0.34375 3.601562 -0.25 2.40625 -1.4375 C 1.21875 -2.632812 0.625 -4.164062 0.625 -6.03125 C 0.625 -7.894531 1.226562 -9.425781 2.4375 -10.625 C 3.644531 -11.820312 5.1875 -12.421875 7.0625 -12.421875 C 8.875 -12.421875 10.375 -11.816406 11.5625 -10.609375 C 12.757812 -9.398438 13.359375 -7.878906 13.359375 -6.046875 Z M 10.171875 -5.921875 C 10.171875 -7.785156 9.898438 -9.234375 9.359375 -10.265625 C 8.816406 -11.304688 8.046875 -11.828125 7.046875 -11.828125 C 5.992188 -11.828125 5.191406 -11.316406 4.640625 -10.296875 C 4.085938 -9.285156 3.8125 -7.804688 3.8125 -5.859375 C 3.8125 -4.035156 4.082031 -2.644531 4.625 -1.6875 C 5.175781 -0.726562 5.96875 -0.25 7 -0.25 C 8.03125 -0.25 8.816406 -0.726562 9.359375 -1.6875 C 9.898438 -2.65625 10.171875 -4.066406 10.171875 -5.921875 Z M 10.171875 -5.921875 "/></g></g></g><path stroke-linecap="butt" transform="matrix(0.749333, 0, 0, 0.749333, 108.7867, 606.316228)" fill="none" stroke-linejoin="miter" d="M -0.00205959 1.001129 L 162.44456 1.001129 " stroke="#ffb961" stroke-width="2" stroke-opacity="1" stroke-miterlimit="4"/><path stroke-linecap="butt" transform="matrix(0.749333, 0, 0, 0.749333, 108.937458, 638.423203)" fill="none" stroke-linejoin="miter" d="M 0.0000559042 0.999118 L 162.441463 0.999118 " stroke="#ffb961" stroke-width="2" stroke-opacity="1" stroke-miterlimit="4"/><path stroke-linecap="butt" transform="matrix(0.749333, 0, 0, 0.749333, 353.932074, 606.316228)" fill="none" stroke-linejoin="miter" d="M 0.00202859 1.001129 L 162.443435 1.001129 " stroke="#ffb961" stroke-width="2" stroke-opacity="1" stroke-miterlimit="4"/><path stroke-linecap="butt" transform="matrix(0.749333, 0, 0, 0.749333, 353.932074, 638.423203)" fill="none" stroke-linejoin="miter" d="M 0.00202859 0.999118 L 162.443435 0.999118 " stroke="#ffb961" stroke-width="2" stroke-opacity="1" stroke-miterlimit="4"/><path stroke-linecap="butt" transform="matrix(-0.00529453, -0.749314, 0.749314, -0.00529453, 242.459938, 664.053475)" fill="none" stroke-linejoin="miter" d="M 0.00172558 1.002262 L 109.497735 0.999191 " stroke="#ffb961" stroke-width="2" stroke-opacity="1" stroke-miterlimit="4"/><path stroke-linecap="butt" transform="matrix(-0.00529453, -0.749314, 0.749314, -0.00529453, 341.585735, 664.138119)" fill="none" stroke-linejoin="miter" d="M 0.00000776297 1.001186 L 109.50123 0.998152 " stroke="#ffb961" stroke-width="2" stroke-opacity="1" stroke-miterlimit="4"/><g fill="#2a2214" fill-opacity="1"><g transform="translate(265.185574, 673.607071)"><g><path d="M 12.96875 -3.734375 L 11.46875 0 L 0.8125 0 L 0.8125 -0.328125 L 5.671875 -5.484375 C 8.035156 -7.992188 9.21875 -10.359375 9.21875 -12.578125 C 9.21875 -13.722656 8.863281 -14.648438 8.15625 -15.359375 C 7.445312 -16.078125 6.519531 -16.4375 5.375 -16.4375 C 4.425781 -16.4375 3.664062 -16.175781 3.09375 -15.65625 C 2.519531 -15.132812 1.960938 -14.210938 1.421875 -12.890625 L 0.84375 -13.015625 C 1.25 -14.710938 1.832031 -15.960938 2.59375 -16.765625 C 3.632812 -17.890625 4.945312 -18.453125 6.53125 -18.453125 C 7.945312 -18.453125 9.140625 -17.988281 10.109375 -17.0625 C 11.085938 -16.132812 11.578125 -14.988281 11.578125 -13.625 C 11.578125 -11.5625 10.410156 -9.3125 8.078125 -6.875 L 3.5 -2.078125 L 10.015625 -2.078125 C 10.640625 -2.078125 11.097656 -2.179688 11.390625 -2.390625 C 11.691406 -2.597656 12.097656 -3.09375 12.609375 -3.875 Z M 12.96875 -3.734375 "/></g></g></g><g fill="#2a2214" fill-opacity="1"><g transform="translate(278.831591, 673.607071)"><g><path d="M 13 -9.015625 C 13 -7.359375 12.753906 -5.800781 12.265625 -4.34375 C 11.785156 -2.882812 11.15625 -1.78125 10.375 -1.03125 C 9.40625 -0.09375 8.222656 0.375 6.828125 0.375 C 5.203125 0.375 3.875 -0.238281 2.84375 -1.46875 C 2.207031 -2.238281 1.679688 -3.34375 1.265625 -4.78125 C 0.859375 -6.21875 0.65625 -7.679688 0.65625 -9.171875 C 0.65625 -10.773438 0.894531 -12.296875 1.375 -13.734375 C 1.863281 -15.171875 2.5 -16.269531 3.28125 -17.03125 C 4.28125 -17.976562 5.5 -18.453125 6.9375 -18.453125 C 8.71875 -18.453125 10.171875 -17.578125 11.296875 -15.828125 C 12.429688 -14.085938 13 -11.816406 13 -9.015625 Z M 10.375 -8.953125 C 10.375 -11.804688 10.070312 -13.984375 9.46875 -15.484375 C 8.875 -16.992188 8 -17.75 6.84375 -17.75 C 4.46875 -17.75 3.28125 -14.804688 3.28125 -8.921875 C 3.28125 -3.191406 4.460938 -0.328125 6.828125 -0.328125 C 9.191406 -0.328125 10.375 -3.203125 10.375 -8.953125 Z M 10.375 -8.953125 "/></g></g></g><g fill="#2a2214" fill-opacity="1"><g transform="translate(292.477608, 673.607071)"><g><path d="M 12.96875 -3.734375 L 11.46875 0 L 0.8125 0 L 0.8125 -0.328125 L 5.671875 -5.484375 C 8.035156 -7.992188 9.21875 -10.359375 9.21875 -12.578125 C 9.21875 -13.722656 8.863281 -14.648438 8.15625 -15.359375 C 7.445312 -16.078125 6.519531 -16.4375 5.375 -16.4375 C 4.425781 -16.4375 3.664062 -16.175781 3.09375 -15.65625 C 2.519531 -15.132812 1.960938 -14.210938 1.421875 -12.890625 L 0.84375 -13.015625 C 1.25 -14.710938 1.832031 -15.960938 2.59375 -16.765625 C 3.632812 -17.890625 4.945312 -18.453125 6.53125 -18.453125 C 7.945312 -18.453125 9.140625 -17.988281 10.109375 -17.0625 C 11.085938 -16.132812 11.578125 -14.988281 11.578125 -13.625 C 11.578125 -11.5625 10.410156 -9.3125 8.078125 -6.875 L 3.5 -2.078125 L 10.015625 -2.078125 C 10.640625 -2.078125 11.097656 -2.179688 11.390625 -2.390625 C 11.691406 -2.597656 12.097656 -3.09375 12.609375 -3.875 Z M 12.96875 -3.734375 "/></g></g></g><g fill="#2a2214" fill-opacity="1"><g transform="translate(306.123624, 673.607071)"><g><path d="M 11.953125 -18.59375 L 10.921875 -16.15625 C 10.847656 -15.988281 10.640625 -15.90625 10.296875 -15.90625 L 4.9375 -15.90625 L 3.796875 -13.59375 C 5.398438 -13.300781 6.644531 -12.976562 7.53125 -12.625 C 8.425781 -12.269531 9.171875 -11.789062 9.765625 -11.1875 C 10.460938 -10.5 10.953125 -9.804688 11.234375 -9.109375 C 11.515625 -8.421875 11.65625 -7.585938 11.65625 -6.609375 C 11.65625 -4.566406 11.046875 -2.945312 9.828125 -1.75 C 8.441406 -0.332031 6.566406 0.375 4.203125 0.375 C 3.179688 0.375 2.367188 0.226562 1.765625 -0.0625 C 1.171875 -0.363281 0.875 -0.78125 0.875 -1.3125 C 0.875 -1.976562 1.265625 -2.3125 2.046875 -2.3125 C 2.585938 -2.3125 3.28125 -2.015625 4.125 -1.421875 C 4.851562 -0.890625 5.460938 -0.625 5.953125 -0.625 C 7.023438 -0.625 7.925781 -1.070312 8.65625 -1.96875 C 9.382812 -2.875 9.75 -3.984375 9.75 -5.296875 C 9.75 -6.640625 9.375 -7.75 8.625 -8.625 C 7.875 -9.5 6.71875 -10.191406 5.15625 -10.703125 C 4.007812 -11.066406 2.984375 -11.25 2.078125 -11.25 C 1.859375 -11.25 1.75 -11.320312 1.75 -11.46875 C 1.75 -11.519531 1.757812 -11.5625 1.78125 -11.59375 L 4.75 -18.078125 L 10.453125 -18.078125 C 10.742188 -18.078125 10.972656 -18.117188 11.140625 -18.203125 C 11.316406 -18.296875 11.503906 -18.488281 11.703125 -18.78125 Z M 11.953125 -18.59375 "/></g></g></g><g fill="#2a2214" fill-opacity="1"><g transform="translate(135.77663, 629.154665)"><g><path d="M 9.21875 -3.453125 C 9.21875 -2.328125 8.804688 -1.410156 7.984375 -0.703125 C 7.171875 -0.00390625 6.097656 0.34375 4.765625 0.34375 C 4.035156 0.34375 3.253906 0.195312 2.421875 -0.09375 C 2.054688 -0.207031 1.8125 -0.265625 1.6875 -0.265625 C 1.539062 -0.265625 1.425781 -0.21875 1.34375 -0.125 C 1.257812 -0.0390625 1.195312 0.113281 1.15625 0.34375 L 0.625 0.34375 L 0.625 -4.09375 L 1.15625 -4.09375 C 1.3125 -3.445312 1.460938 -2.941406 1.609375 -2.578125 C 1.753906 -2.222656 1.960938 -1.878906 2.234375 -1.546875 C 2.910156 -0.679688 3.769531 -0.25 4.8125 -0.25 C 5.507812 -0.25 6.0625 -0.429688 6.46875 -0.796875 C 6.875 -1.160156 7.078125 -1.65625 7.078125 -2.28125 C 7.078125 -2.757812 6.941406 -3.148438 6.671875 -3.453125 C 6.398438 -3.753906 5.867188 -4.085938 5.078125 -4.453125 L 3.859375 -5.03125 C 2.316406 -5.78125 1.359375 -6.628906 0.984375 -7.578125 C 0.859375 -7.941406 0.796875 -8.335938 0.796875 -8.765625 C 0.796875 -9.898438 1.144531 -10.789062 1.84375 -11.4375 C 2.539062 -12.09375 3.503906 -12.421875 4.734375 -12.421875 C 5.390625 -12.421875 6.085938 -12.285156 6.828125 -12.015625 C 7.191406 -11.890625 7.445312 -11.828125 7.59375 -11.828125 C 7.757812 -11.828125 7.878906 -11.867188 7.953125 -11.953125 C 8.035156 -12.035156 8.109375 -12.195312 8.171875 -12.4375 L 8.703125 -12.4375 L 8.703125 -8.546875 L 8.203125 -8.546875 C 8.023438 -9.128906 7.847656 -9.582031 7.671875 -9.90625 C 7.492188 -10.226562 7.25 -10.546875 6.9375 -10.859375 C 6.289062 -11.535156 5.554688 -11.875 4.734375 -11.875 C 4.117188 -11.875 3.632812 -11.710938 3.28125 -11.390625 C 2.925781 -11.066406 2.75 -10.628906 2.75 -10.078125 C 2.75 -9.628906 2.875 -9.265625 3.125 -8.984375 C 3.375 -8.710938 3.867188 -8.394531 4.609375 -8.03125 L 7.25 -6.71875 C 7.832031 -6.4375 8.304688 -5.988281 8.671875 -5.375 C 9.035156 -4.757812 9.21875 -4.117188 9.21875 -3.453125 Z M 9.21875 -3.453125 "/></g></g></g><g fill="#2a2214" fill-opacity="1"><g transform="translate(144.750612, 629.154665)"><g><path d="M 12.390625 0 L 6.5625 0 L 6.5625 -0.453125 L 7.140625 -0.5 C 7.453125 -0.507812 7.671875 -0.5625 7.796875 -0.65625 C 7.929688 -0.75 8 -0.894531 8 -1.09375 C 8 -1.445312 7.722656 -2.265625 7.171875 -3.546875 L 3.125 -3.546875 L 2.859375 -2.828125 C 2.515625 -1.960938 2.34375 -1.414062 2.34375 -1.1875 C 2.34375 -0.957031 2.453125 -0.785156 2.671875 -0.671875 C 2.898438 -0.554688 3.28125 -0.484375 3.8125 -0.453125 L 3.8125 0 L 0.15625 0 L 0.15625 -0.453125 C 0.59375 -0.535156 0.910156 -0.695312 1.109375 -0.9375 C 1.316406 -1.175781 1.585938 -1.710938 1.921875 -2.546875 L 5.921875 -12.40625 L 6.421875 -12.40625 L 10.4375 -2.953125 C 10.914062 -1.828125 11.257812 -1.128906 11.46875 -0.859375 C 11.6875 -0.585938 11.992188 -0.453125 12.390625 -0.453125 Z M 6.90625 -4.25 L 5.09375 -8.609375 L 3.40625 -4.25 Z M 6.90625 -4.25 "/></g></g></g><g fill="#2a2214" fill-opacity="1"><g transform="translate(156.709918, 629.154665)"><g><path d="M 11.125 -3.375 C 11.125 -2.363281 10.660156 -1.546875 9.734375 -0.921875 C 8.816406 -0.304688 7.597656 0 6.078125 0 L 0.28125 0 L 0.28125 -0.453125 C 0.945312 -0.523438 1.378906 -0.640625 1.578125 -0.796875 C 1.773438 -0.960938 1.875 -1.269531 1.875 -1.71875 L 1.875 -10.4375 C 1.875 -10.882812 1.765625 -11.195312 1.546875 -11.375 C 1.328125 -11.5625 0.90625 -11.671875 0.28125 -11.703125 L 0.28125 -12.15625 L 5.84375 -12.15625 C 7.34375 -12.15625 8.492188 -11.90625 9.296875 -11.40625 C 10.109375 -10.914062 10.515625 -10.207031 10.515625 -9.28125 C 10.515625 -8.59375 10.296875 -8.039062 9.859375 -7.625 C 9.429688 -7.21875 8.695312 -6.863281 7.65625 -6.5625 C 8.757812 -6.320312 9.59375 -5.960938 10.15625 -5.484375 C 10.800781 -4.910156 11.125 -4.207031 11.125 -3.375 Z M 8.03125 -3.21875 C 8.03125 -5.1875 7.113281 -6.171875 5.28125 -6.171875 L 4.75 -6.171875 L 4.75 -1.671875 C 4.75 -1.273438 4.832031 -0.992188 5 -0.828125 C 5.164062 -0.660156 5.445312 -0.578125 5.84375 -0.578125 C 7.300781 -0.578125 8.03125 -1.457031 8.03125 -3.21875 Z M 7.546875 -9.15625 C 7.546875 -10.007812 7.394531 -10.632812 7.09375 -11.03125 C 6.800781 -11.425781 6.34375 -11.625 5.71875 -11.625 C 5.375 -11.625 5.125 -11.554688 4.96875 -11.421875 C 4.820312 -11.285156 4.75 -11.054688 4.75 -10.734375 L 4.75 -6.703125 C 5.851562 -6.734375 6.59375 -6.910156 6.96875 -7.234375 C 7.351562 -7.566406 7.546875 -8.207031 7.546875 -9.15625 Z M 7.546875 -9.15625 "/></g></g></g><g fill="#2a2214" fill-opacity="1"><g transform="translate(167.680111, 629.154665)"><g><path d="M 12.390625 0 L 6.5625 0 L 6.5625 -0.453125 L 7.140625 -0.5 C 7.453125 -0.507812 7.671875 -0.5625 7.796875 -0.65625 C 7.929688 -0.75 8 -0.894531 8 -1.09375 C 8 -1.445312 7.722656 -2.265625 7.171875 -3.546875 L 3.125 -3.546875 L 2.859375 -2.828125 C 2.515625 -1.960938 2.34375 -1.414062 2.34375 -1.1875 C 2.34375 -0.957031 2.453125 -0.785156 2.671875 -0.671875 C 2.898438 -0.554688 3.28125 -0.484375 3.8125 -0.453125 L 3.8125 0 L 0.15625 0 L 0.15625 -0.453125 C 0.59375 -0.535156 0.910156 -0.695312 1.109375 -0.9375 C 1.316406 -1.175781 1.585938 -1.710938 1.921875 -2.546875 L 5.921875 -12.40625 L 6.421875 -12.40625 L 10.4375 -2.953125 C 10.914062 -1.828125 11.257812 -1.128906 11.46875 -0.859375 C 11.6875 -0.585938 11.992188 -0.453125 12.390625 -0.453125 Z M 6.90625 -4.25 L 5.09375 -8.609375 L 3.40625 -4.25 Z M 6.90625 -4.25 "/></g></g></g><g fill="#2a2214" fill-opacity="1"><g transform="translate(179.639417, 629.154665)"><g><path d="M 10.625 -10.578125 C 11.8125 -9.523438 12.40625 -8.066406 12.40625 -6.203125 C 12.40625 -4.347656 11.8125 -2.847656 10.625 -1.703125 C 9.4375 -0.566406 7.875 0 5.9375 0 L 0.25 0 L 0.25 -0.453125 C 0.769531 -0.460938 1.148438 -0.5625 1.390625 -0.75 C 1.628906 -0.945312 1.75 -1.242188 1.75 -1.640625 L 1.75 -10.5 C 1.75 -10.90625 1.640625 -11.191406 1.421875 -11.359375 C 1.210938 -11.535156 0.820312 -11.648438 0.25 -11.703125 L 0.25 -12.15625 L 5.734375 -12.15625 C 7.804688 -12.15625 9.4375 -11.628906 10.625 -10.578125 Z M 9.28125 -5.9375 C 9.28125 -7.488281 9.035156 -8.75 8.546875 -9.71875 C 7.941406 -10.9375 7 -11.546875 5.71875 -11.546875 C 5.007812 -11.546875 4.65625 -11.335938 4.65625 -10.921875 L 4.65625 -1.671875 C 4.65625 -1.265625 4.726562 -0.988281 4.875 -0.84375 C 5.019531 -0.695312 5.296875 -0.625 5.703125 -0.625 C 6.847656 -0.625 7.726562 -1.039062 8.34375 -1.875 C 8.96875 -2.75 9.28125 -4.101562 9.28125 -5.9375 Z M 9.28125 -5.9375 "/></g></g></g><g fill="#2a2214" fill-opacity="1"><g transform="translate(191.598726, 629.154665)"><g><path d="M 13.359375 -6.046875 C 13.359375 -4.179688 12.757812 -2.648438 11.5625 -1.453125 C 10.375 -0.253906 8.847656 0.34375 6.984375 0.34375 C 5.128906 0.34375 3.601562 -0.25 2.40625 -1.4375 C 1.21875 -2.632812 0.625 -4.164062 0.625 -6.03125 C 0.625 -7.894531 1.226562 -9.425781 2.4375 -10.625 C 3.644531 -11.820312 5.1875 -12.421875 7.0625 -12.421875 C 8.875 -12.421875 10.375 -11.816406 11.5625 -10.609375 C 12.757812 -9.398438 13.359375 -7.878906 13.359375 -6.046875 Z M 10.171875 -5.921875 C 10.171875 -7.785156 9.898438 -9.234375 9.359375 -10.265625 C 8.816406 -11.304688 8.046875 -11.828125 7.046875 -11.828125 C 5.992188 -11.828125 5.191406 -11.316406 4.640625 -10.296875 C 4.085938 -9.285156 3.8125 -7.804688 3.8125 -5.859375 C 3.8125 -4.035156 4.082031 -2.644531 4.625 -1.6875 C 5.175781 -0.726562 5.96875 -0.25 7 -0.25 C 8.03125 -0.25 8.816406 -0.726562 9.359375 -1.6875 C 9.898438 -2.65625 10.171875 -4.066406 10.171875 -5.921875 Z M 10.171875 -5.921875 "/></g></g></g><g fill="#2a2214" fill-opacity="1"><g transform="translate(380.711673, 629.154665)"><g><path d="M 8.59375 -3.796875 L 7.78125 0 L 0.3125 0 L 0.3125 -0.40625 C 1.613281 -1.800781 2.519531 -2.800781 3.03125 -3.40625 C 3.539062 -4.007812 4.023438 -4.664062 4.484375 -5.375 C 5.085938 -6.3125 5.390625 -7.195312 5.390625 -8.03125 C 5.390625 -8.476562 5.269531 -8.910156 5.03125 -9.328125 C 4.625 -9.992188 4.03125 -10.328125 3.25 -10.328125 C 2.332031 -10.328125 1.601562 -9.785156 1.0625 -8.703125 L 0.5625 -8.703125 C 0.8125 -9.378906 1.046875 -9.90625 1.265625 -10.28125 C 1.484375 -10.65625 1.769531 -11.015625 2.125 -11.359375 C 2.769531 -12.035156 3.566406 -12.375 4.515625 -12.375 C 5.484375 -12.375 6.28125 -12.0625 6.90625 -11.4375 C 7.53125 -10.820312 7.84375 -10.035156 7.84375 -9.078125 C 7.84375 -7.765625 7.160156 -6.457031 5.796875 -5.15625 L 2.875 -2.390625 L 5.59375 -2.390625 C 6.519531 -2.390625 7.113281 -2.460938 7.375 -2.609375 C 7.632812 -2.753906 7.898438 -3.148438 8.171875 -3.796875 Z M 8.59375 -3.796875 "/></g></g></g><g fill="#2a2214" fill-opacity="1"><g transform="translate(388.678556, 629.154665)"><g><path d="M 7.953125 0 L 1.203125 0 L 1.203125 -0.4375 C 2.085938 -0.445312 2.664062 -0.5625 2.9375 -0.78125 C 3.207031 -1 3.34375 -1.484375 3.34375 -2.234375 L 3.34375 -9.15625 C 3.34375 -9.976562 3.128906 -10.390625 2.703125 -10.390625 C 2.472656 -10.390625 2.082031 -10.289062 1.53125 -10.09375 C 1.476562 -10.050781 1.359375 -10.003906 1.171875 -9.953125 L 1.171875 -10.40625 L 5.703125 -12.375 L 6 -12.375 L 6 -2.125 C 6 -1.425781 6.117188 -0.972656 6.359375 -0.765625 C 6.597656 -0.554688 7.128906 -0.445312 7.953125 -0.4375 Z M 7.953125 0 "/></g></g></g><g fill="#2a2214" fill-opacity="1"><g transform="translate(396.645438, 629.154665)"><g><path d="M 4.0625 -2.34375 C 4.363281 -2.039062 4.515625 -1.675781 4.515625 -1.25 C 4.515625 -0.832031 4.363281 -0.476562 4.0625 -0.1875 C 3.757812 0.09375 3.394531 0.234375 2.96875 0.234375 C 2.550781 0.234375 2.195312 0.0859375 1.90625 -0.203125 C 1.613281 -0.492188 1.46875 -0.859375 1.46875 -1.296875 C 1.46875 -1.703125 1.617188 -2.054688 1.921875 -2.359375 C 2.222656 -2.660156 2.578125 -2.8125 2.984375 -2.8125 C 3.398438 -2.8125 3.757812 -2.65625 4.0625 -2.34375 Z M 4.0625 -8.03125 C 4.363281 -7.738281 4.515625 -7.378906 4.515625 -6.953125 C 4.515625 -6.535156 4.363281 -6.179688 4.0625 -5.890625 C 3.757812 -5.597656 3.398438 -5.453125 2.984375 -5.453125 C 2.554688 -5.453125 2.195312 -5.597656 1.90625 -5.890625 C 1.613281 -6.179688 1.46875 -6.550781 1.46875 -7 C 1.46875 -7.40625 1.617188 -7.753906 1.921875 -8.046875 C 2.222656 -8.335938 2.578125 -8.484375 2.984375 -8.484375 C 3.398438 -8.484375 3.757812 -8.332031 4.0625 -8.03125 Z M 4.0625 -8.03125 "/></g></g></g><g fill="#2a2214" fill-opacity="1"><g transform="translate(401.608998, 629.154665)"><g><path d="M 8.5625 -6.0625 C 8.5625 -4.25 8.175781 -2.742188 7.40625 -1.546875 C 6.644531 -0.359375 5.679688 0.234375 4.515625 0.234375 C 3.316406 0.234375 2.335938 -0.359375 1.578125 -1.546875 C 0.816406 -2.734375 0.4375 -4.253906 0.4375 -6.109375 C 0.4375 -6.859375 0.523438 -7.617188 0.703125 -8.390625 C 0.878906 -9.160156 1.113281 -9.789062 1.40625 -10.28125 C 1.769531 -10.9375 2.226562 -11.445312 2.78125 -11.8125 C 3.332031 -12.1875 3.90625 -12.375 4.5 -12.375 C 5.65625 -12.375 6.617188 -11.769531 7.390625 -10.5625 C 8.171875 -9.363281 8.5625 -7.863281 8.5625 -6.0625 Z M 5.71875 -4 L 5.71875 -8.109375 C 5.71875 -9.441406 5.617188 -10.398438 5.421875 -10.984375 C 5.234375 -11.578125 4.921875 -11.875 4.484375 -11.875 C 4.046875 -11.875 3.734375 -11.582031 3.546875 -11 C 3.359375 -10.425781 3.265625 -9.460938 3.265625 -8.109375 L 3.265625 -4 C 3.265625 -2.664062 3.359375 -1.707031 3.546875 -1.125 C 3.742188 -0.550781 4.066406 -0.265625 4.515625 -0.265625 C 4.921875 -0.265625 5.21875 -0.523438 5.40625 -1.046875 C 5.613281 -1.648438 5.71875 -2.632812 5.71875 -4 Z M 5.71875 -4 "/></g></g></g><g fill="#2a2214" fill-opacity="1"><g transform="translate(409.57588, 629.154665)"><g><path d="M 8.5625 -6.0625 C 8.5625 -4.25 8.175781 -2.742188 7.40625 -1.546875 C 6.644531 -0.359375 5.679688 0.234375 4.515625 0.234375 C 3.316406 0.234375 2.335938 -0.359375 1.578125 -1.546875 C 0.816406 -2.734375 0.4375 -4.253906 0.4375 -6.109375 C 0.4375 -6.859375 0.523438 -7.617188 0.703125 -8.390625 C 0.878906 -9.160156 1.113281 -9.789062 1.40625 -10.28125 C 1.769531 -10.9375 2.226562 -11.445312 2.78125 -11.8125 C 3.332031 -12.1875 3.90625 -12.375 4.5 -12.375 C 5.65625 -12.375 6.617188 -11.769531 7.390625 -10.5625 C 8.171875 -9.363281 8.5625 -7.863281 8.5625 -6.0625 Z M 5.71875 -4 L 5.71875 -8.109375 C 5.71875 -9.441406 5.617188 -10.398438 5.421875 -10.984375 C 5.234375 -11.578125 4.921875 -11.875 4.484375 -11.875 C 4.046875 -11.875 3.734375 -11.582031 3.546875 -11 C 3.359375 -10.425781 3.265625 -9.460938 3.265625 -8.109375 L 3.265625 -4 C 3.265625 -2.664062 3.359375 -1.707031 3.546875 -1.125 C 3.742188 -0.550781 4.066406 -0.265625 4.515625 -0.265625 C 4.921875 -0.265625 5.21875 -0.523438 5.40625 -1.046875 C 5.613281 -1.648438 5.71875 -2.632812 5.71875 -4 Z M 5.71875 -4 "/></g></g></g><g fill="#2a2214" fill-opacity="1"><g transform="translate(417.542763, 629.154665)"><g><path d="M 13.65625 0 L 7.53125 0 L 7.53125 -0.453125 C 8.195312 -0.523438 8.632812 -0.644531 8.84375 -0.8125 C 9.050781 -0.976562 9.15625 -1.28125 9.15625 -1.71875 L 9.15625 -5.859375 L 4.8125 -5.859375 L 4.8125 -1.71875 C 4.8125 -1.28125 4.914062 -0.976562 5.125 -0.8125 C 5.34375 -0.644531 5.78125 -0.523438 6.4375 -0.453125 L 6.4375 0 L 0.375 0 L 0.375 -0.453125 C 1 -0.535156 1.410156 -0.65625 1.609375 -0.8125 C 1.804688 -0.976562 1.90625 -1.28125 1.90625 -1.71875 L 1.90625 -10.4375 C 1.90625 -10.875 1.800781 -11.179688 1.59375 -11.359375 C 1.382812 -11.535156 0.976562 -11.648438 0.375 -11.703125 L 0.375 -12.15625 L 6.4375 -12.15625 L 6.4375 -11.703125 C 5.8125 -11.660156 5.382812 -11.550781 5.15625 -11.375 C 4.925781 -11.195312 4.8125 -10.882812 4.8125 -10.4375 L 4.8125 -6.703125 L 9.15625 -6.703125 L 9.15625 -10.4375 C 9.15625 -10.882812 9.039062 -11.195312 8.8125 -11.375 C 8.582031 -11.550781 8.15625 -11.660156 7.53125 -11.703125 L 7.53125 -12.15625 L 13.65625 -12.15625 L 13.65625 -11.703125 C 13.039062 -11.660156 12.617188 -11.546875 12.390625 -11.359375 C 12.171875 -11.179688 12.0625 -10.875 12.0625 -10.4375 L 12.0625 -1.71875 C 12.0625 -1.28125 12.160156 -0.976562 12.359375 -0.8125 C 12.566406 -0.65625 13 -0.535156 13.65625 -0.453125 Z M 13.65625 0 "/></g></g></g><g fill="#2a2214" fill-opacity="1"><g transform="translate(430.509179, 629.154665)"><g><path d="M 12.859375 0 L 9.171875 0 L 5.453125 -5.625 L 4.96875 -5.625 L 4.96875 -2.109375 C 4.96875 -1.472656 5.054688 -1.054688 5.234375 -0.859375 C 5.410156 -0.671875 5.847656 -0.535156 6.546875 -0.453125 L 6.546875 0 L 0.46875 0 L 0.46875 -0.453125 C 1.175781 -0.535156 1.613281 -0.664062 1.78125 -0.84375 C 1.957031 -1.019531 2.046875 -1.441406 2.046875 -2.109375 L 2.046875 -10.046875 C 2.046875 -10.703125 1.945312 -11.128906 1.75 -11.328125 C 1.550781 -11.535156 1.125 -11.660156 0.46875 -11.703125 L 0.46875 -12.15625 L 6.265625 -12.15625 C 7.898438 -12.15625 9.148438 -11.878906 10.015625 -11.328125 C 10.890625 -10.773438 11.328125 -9.984375 11.328125 -8.953125 C 11.328125 -8.117188 11.054688 -7.445312 10.515625 -6.9375 C 10.078125 -6.539062 9.40625 -6.203125 8.5 -5.921875 L 12.125 -0.796875 C 12.300781 -0.566406 12.546875 -0.453125 12.859375 -0.453125 Z M 8.25 -8.890625 C 8.25 -9.835938 8.066406 -10.515625 7.703125 -10.921875 C 7.347656 -11.335938 6.757812 -11.546875 5.9375 -11.546875 C 5.476562 -11.546875 5.195312 -11.457031 5.09375 -11.28125 C 5.007812 -11.113281 4.96875 -10.953125 4.96875 -10.796875 L 4.96875 -6.203125 C 6.164062 -6.210938 6.976562 -6.363281 7.40625 -6.65625 C 7.96875 -7.03125 8.25 -7.773438 8.25 -8.890625 Z M 8.25 -8.890625 "/></g></g></g><g fill="#2a2214" fill-opacity="1"><g transform="translate(442.468482, 629.154665)"><g><path d="M 9.21875 -3.453125 C 9.21875 -2.328125 8.804688 -1.410156 7.984375 -0.703125 C 7.171875 -0.00390625 6.097656 0.34375 4.765625 0.34375 C 4.035156 0.34375 3.253906 0.195312 2.421875 -0.09375 C 2.054688 -0.207031 1.8125 -0.265625 1.6875 -0.265625 C 1.539062 -0.265625 1.425781 -0.21875 1.34375 -0.125 C 1.257812 -0.0390625 1.195312 0.113281 1.15625 0.34375 L 0.625 0.34375 L 0.625 -4.09375 L 1.15625 -4.09375 C 1.3125 -3.445312 1.460938 -2.941406 1.609375 -2.578125 C 1.753906 -2.222656 1.960938 -1.878906 2.234375 -1.546875 C 2.910156 -0.679688 3.769531 -0.25 4.8125 -0.25 C 5.507812 -0.25 6.0625 -0.429688 6.46875 -0.796875 C 6.875 -1.160156 7.078125 -1.65625 7.078125 -2.28125 C 7.078125 -2.757812 6.941406 -3.148438 6.671875 -3.453125 C 6.398438 -3.753906 5.867188 -4.085938 5.078125 -4.453125 L 3.859375 -5.03125 C 2.316406 -5.78125 1.359375 -6.628906 0.984375 -7.578125 C 0.859375 -7.941406 0.796875 -8.335938 0.796875 -8.765625 C 0.796875 -9.898438 1.144531 -10.789062 1.84375 -11.4375 C 2.539062 -12.09375 3.503906 -12.421875 4.734375 -12.421875 C 5.390625 -12.421875 6.085938 -12.285156 6.828125 -12.015625 C 7.191406 -11.890625 7.445312 -11.828125 7.59375 -11.828125 C 7.757812 -11.828125 7.878906 -11.867188 7.953125 -11.953125 C 8.035156 -12.035156 8.109375 -12.195312 8.171875 -12.4375 L 8.703125 -12.4375 L 8.703125 -8.546875 L 8.203125 -8.546875 C 8.023438 -9.128906 7.847656 -9.582031 7.671875 -9.90625 C 7.492188 -10.226562 7.25 -10.546875 6.9375 -10.859375 C 6.289062 -11.535156 5.554688 -11.875 4.734375 -11.875 C 4.117188 -11.875 3.632812 -11.710938 3.28125 -11.390625 C 2.925781 -11.066406 2.75 -10.628906 2.75 -10.078125 C 2.75 -9.628906 2.875 -9.265625 3.125 -8.984375 C 3.375 -8.710938 3.867188 -8.394531 4.609375 -8.03125 L 7.25 -6.71875 C 7.832031 -6.4375 8.304688 -5.988281 8.671875 -5.375 C 9.035156 -4.757812 9.21875 -4.117188 9.21875 -3.453125 Z M 9.21875 -3.453125 "/></g></g></g></svg>