<svg xmlns="http://www.w3.org/2000/svg" xmlns:xlink="http://www.w3.org/1999/xlink" width="794" zoomAndPan="magnify" viewBox="0 0 595.5 842.249979" height="1123" preserveAspectRatio="xMidYMid meet" version="1.0"><defs><g/><clipPath id="21597b2298"><path d="M 227 59.472656 L 378 59.472656 L 378 77.457031 L 227 77.457031 Z M 227 59.472656 " clip-rule="nonzero"/></clipPath><clipPath id="a762ed2559"><path d="M 222 722.9375 L 373 722.9375 L 373 740.582031 L 222 740.582031 Z M 222 722.9375 " clip-rule="nonzero"/></clipPath></defs><g clip-path="url(#21597b2298)"><path fill="#ffb961" d="M 296.222656 74.59375 C 296.289062 75.152344 296.03125 75.585938 295.90625 75.789062 C 295.179688 76.96875 293.683594 77.257812 293.3125 77.332031 C 290.910156 77.796875 288.753906 76.503906 287.207031 75.574219 C 286.042969 74.875 286.441406 74.921875 284.089844 73.3125 C 282.007812 71.882812 280.703125 71.167969 279.144531 71.109375 C 278.902344 71.101562 277.527344 71.050781 277.265625 71.65625 C 277.1875 71.871094 277.179688 72.089844 277.242188 72.3125 C 277.714844 73.941406 280.117188 72.355469 280.117188 72.355469 C 279.902344 74.242188 278.359375 74.714844 276.945312 74.328125 C 275.527344 73.941406 274.285156 71.28125 276.945312 69.78125 C 279.601562 68.28125 283.507812 70.425781 284.835938 71.625 C 286.167969 72.824219 288.996094 75.269531 290.585938 75.613281 C 292.171875 75.957031 294.316406 75.828125 294.488281 74.84375 C 294.660156 73.855469 292.941406 73.597656 292.941406 73.597656 C 293.664062 73.015625 294.601562 72.894531 295.300781 73.285156 C 295.367188 73.320312 296.121094 73.757812 296.222656 74.59375 Z M 292.359375 72.816406 C 292.359375 72.816406 289.863281 70.910156 291.363281 70.0625 C 292.859375 69.214844 293.210938 72.335938 293.210938 72.335938 C 294.101562 70.433594 292.445312 67.503906 290.53125 68.589844 C 288.613281 69.671875 290.269531 72.601562 292.359375 72.816406 Z M 291.886719 71.351562 C 291.792969 71.449219 291.753906 71.566406 291.757812 71.695312 C 291.761719 71.828125 291.8125 71.941406 291.910156 72.03125 C 292.007812 72.121094 292.121094 72.164062 292.253906 72.160156 C 292.386719 72.152344 292.496094 72.101562 292.585938 72.003906 C 292.675781 71.910156 292.71875 71.792969 292.714844 71.660156 C 292.710938 71.53125 292.660156 71.417969 292.5625 71.328125 C 292.464844 71.238281 292.351562 71.195312 292.21875 71.199219 C 292.085938 71.207031 291.976562 71.257812 291.886719 71.351562 Z M 296.085938 69.546875 C 297.695312 70.148438 295.53125 72.421875 295.53125 72.421875 C 297.5625 71.882812 298.738281 68.730469 296.675781 67.960938 C 294.617188 67.1875 293.4375 70.339844 294.617188 72.082031 C 294.617188 72.082031 294.476562 68.945312 296.085938 69.546875 Z M 295.429688 70.777344 C 295.300781 70.769531 295.183594 70.8125 295.085938 70.902344 C 294.988281 70.988281 294.933594 71.101562 294.929688 71.230469 C 294.921875 71.363281 294.964844 71.480469 295.050781 71.578125 C 295.140625 71.675781 295.25 71.726562 295.382812 71.734375 C 295.515625 71.742188 295.628906 71.699219 295.730469 71.613281 C 295.828125 71.523438 295.878906 71.414062 295.886719 71.28125 C 295.894531 71.148438 295.851562 71.03125 295.761719 70.933594 C 295.675781 70.835938 295.5625 70.785156 295.429688 70.777344 Z M 296.628906 73.335938 C 296.628906 73.335938 298.941406 71.210938 299.515625 72.832031 C 300.089844 74.453125 296.953125 74.257812 296.953125 74.257812 C 298.675781 75.464844 301.84375 74.34375 301.109375 72.269531 C 300.375 70.191406 297.203125 71.316406 296.628906 73.335938 Z M 298.058594 73.796875 C 298.164062 73.714844 298.226562 73.609375 298.246094 73.480469 C 298.261719 73.347656 298.230469 73.230469 298.152344 73.125 C 298.070312 73.019531 297.964844 72.957031 297.835938 72.9375 C 297.703125 72.921875 297.585938 72.953125 297.480469 73.03125 C 297.375 73.109375 297.3125 73.214844 297.292969 73.347656 C 297.277344 73.480469 297.308594 73.597656 297.386719 73.703125 C 297.46875 73.808594 297.574219 73.871094 297.703125 73.886719 C 297.835938 73.90625 297.953125 73.875 298.058594 73.796875 Z M 327.695312 69.78125 C 325.035156 68.277344 321.132812 70.421875 319.800781 71.625 C 318.472656 72.824219 315.640625 75.269531 314.054688 75.613281 C 312.46875 75.957031 310.324219 75.828125 310.152344 74.839844 C 309.980469 73.855469 311.695312 73.597656 311.695312 73.597656 C 310.972656 73.015625 310.035156 72.894531 309.335938 73.285156 C 309.269531 73.320312 308.515625 73.757812 308.414062 74.59375 C 308.347656 75.152344 308.609375 75.585938 308.734375 75.789062 C 309.457031 76.96875 310.957031 77.257812 311.324219 77.332031 C 313.726562 77.796875 315.882812 76.503906 317.429688 75.574219 C 318.59375 74.875 318.195312 74.921875 320.546875 73.3125 C 322.628906 71.882812 323.933594 71.167969 325.492188 71.109375 C 325.734375 71.101562 327.109375 71.050781 327.371094 71.65625 C 327.449219 71.871094 327.457031 72.089844 327.394531 72.3125 C 326.921875 73.941406 324.519531 72.355469 324.519531 72.355469 C 324.734375 74.242188 326.28125 74.714844 327.695312 74.328125 C 329.109375 73.941406 330.355469 71.285156 327.695312 69.78125 Z M 313.273438 70.0625 C 314.773438 70.910156 312.277344 72.820312 312.277344 72.820312 C 314.367188 72.601562 316.023438 69.675781 314.109375 68.59375 C 312.191406 67.507812 310.535156 70.4375 311.425781 72.339844 C 311.425781 72.335938 311.777344 69.214844 313.273438 70.0625 Z M 312.753906 71.355469 C 312.664062 71.257812 312.550781 71.207031 312.417969 71.203125 C 312.285156 71.199219 312.171875 71.238281 312.074219 71.328125 C 311.976562 71.421875 311.925781 71.53125 311.921875 71.664062 C 311.917969 71.796875 311.960938 71.910156 312.050781 72.007812 C 312.140625 72.105469 312.25 72.15625 312.382812 72.160156 C 312.515625 72.164062 312.628906 72.121094 312.726562 72.03125 C 312.824219 71.941406 312.875 71.832031 312.882812 71.699219 C 312.886719 71.566406 312.84375 71.449219 312.753906 71.351562 Z M 309.105469 72.425781 C 309.105469 72.425781 306.941406 70.152344 308.550781 69.550781 C 310.164062 68.949219 310.023438 72.085938 310.023438 72.085938 C 311.199219 70.34375 310.023438 67.195312 307.960938 67.964844 C 305.898438 68.734375 307.078125 71.882812 309.105469 72.425781 Z M 308.75 71.28125 C 308.757812 71.414062 308.808594 71.523438 308.910156 71.613281 C 309.007812 71.703125 309.121094 71.742188 309.253906 71.738281 C 309.386719 71.730469 309.496094 71.675781 309.585938 71.578125 C 309.675781 71.480469 309.714844 71.367188 309.707031 71.234375 C 309.703125 71.101562 309.648438 70.992188 309.550781 70.902344 C 309.453125 70.8125 309.339844 70.773438 309.207031 70.777344 C 309.074219 70.785156 308.964844 70.835938 308.875 70.9375 C 308.785156 71.035156 308.746094 71.148438 308.75 71.28125 Z M 303.527344 72.269531 C 302.792969 74.34375 305.964844 75.46875 307.683594 74.257812 C 307.683594 74.257812 304.546875 74.457031 305.121094 72.835938 C 305.695312 71.214844 308.007812 73.339844 308.007812 73.339844 C 307.433594 71.316406 304.261719 70.195312 303.527344 72.269531 Z M 306.484375 73.125 C 306.40625 73.230469 306.375 73.347656 306.394531 73.480469 C 306.410156 73.613281 306.472656 73.71875 306.578125 73.796875 C 306.683594 73.875 306.800781 73.90625 306.933594 73.890625 C 307.066406 73.871094 307.171875 73.808594 307.25 73.703125 C 307.328125 73.597656 307.359375 73.480469 307.34375 73.347656 C 307.324219 73.21875 307.261719 73.113281 307.15625 73.03125 C 307.050781 72.953125 306.933594 72.921875 306.800781 72.9375 C 306.671875 72.957031 306.566406 73.019531 306.484375 73.125 Z M 273.410156 71.070312 L 229.921875 71.886719 C 229.746094 71.894531 229.660156 71.984375 229.660156 72.160156 C 229.660156 72.335938 229.746094 72.429688 229.921875 72.433594 L 273.410156 73.25 L 273.453125 73.25 C 273.597656 73.246094 273.734375 73.21875 273.867188 73.160156 C 274 73.101562 274.117188 73.019531 274.214844 72.917969 C 274.316406 72.8125 274.394531 72.691406 274.445312 72.558594 C 274.5 72.425781 274.523438 72.285156 274.519531 72.140625 C 274.519531 71.996094 274.488281 71.855469 274.429688 71.726562 C 274.371094 71.59375 274.292969 71.476562 274.1875 71.375 C 274.082031 71.277344 273.964844 71.199219 273.828125 71.144531 C 273.695312 71.09375 273.554688 71.070312 273.410156 71.070312 Z M 227.996094 71.191406 C 227.730469 71.191406 227.5 71.285156 227.3125 71.476562 C 227.125 71.664062 227.027344 71.890625 227.027344 72.160156 C 227.027344 72.425781 227.125 72.65625 227.3125 72.84375 C 227.5 73.03125 227.730469 73.125 227.996094 73.125 C 228.261719 73.125 228.492188 73.03125 228.679688 72.84375 C 228.867188 72.652344 228.960938 72.425781 228.960938 72.160156 C 228.960938 71.890625 228.867188 71.664062 228.679688 71.476562 C 228.492188 71.285156 228.261719 71.191406 227.996094 71.191406 Z M 374.714844 71.886719 L 331.226562 71.070312 L 331.183594 71.070312 C 331.039062 71.074219 330.902344 71.101562 330.769531 71.160156 C 330.636719 71.21875 330.523438 71.300781 330.421875 71.402344 C 330.320312 71.507812 330.246094 71.625 330.191406 71.761719 C 330.140625 71.894531 330.113281 72.035156 330.117188 72.179688 C 330.121094 72.324219 330.152344 72.460938 330.207031 72.59375 C 330.265625 72.726562 330.347656 72.84375 330.449219 72.941406 C 330.554688 73.042969 330.671875 73.121094 330.808594 73.171875 C 330.941406 73.226562 331.082031 73.25 331.226562 73.25 L 374.714844 72.433594 C 374.890625 72.425781 374.976562 72.335938 374.976562 72.160156 C 374.976562 71.984375 374.890625 71.890625 374.714844 71.886719 Z M 376.640625 71.191406 C 376.375 71.191406 376.144531 71.285156 375.957031 71.476562 C 375.769531 71.664062 375.675781 71.890625 375.675781 72.160156 C 375.675781 72.425781 375.769531 72.65625 375.957031 72.84375 C 376.144531 73.03125 376.375 73.125 376.640625 73.125 C 376.910156 73.125 377.136719 73.03125 377.324219 72.84375 C 377.515625 72.652344 377.609375 72.425781 377.609375 72.160156 C 377.609375 71.890625 377.511719 71.664062 377.324219 71.476562 C 377.136719 71.285156 376.910156 71.191406 376.640625 71.191406 Z M 302.320312 59.472656 C 299.773438 63.050781 302.320312 66.742188 302.320312 66.742188 C 302.320312 66.742188 304.867188 63.050781 302.320312 59.472656 Z M 302.320312 71.738281 C 302.320312 71.738281 303.667969 69.777344 302.320312 67.875 C 300.96875 69.773438 302.320312 71.734375 302.320312 71.734375 Z M 300.71875 68.347656 C 300.71875 68.347656 300.742188 63.863281 296.621094 62.34375 C 296.535156 66.730469 300.71875 68.347656 300.71875 68.347656 Z M 308.015625 62.34375 C 303.894531 63.863281 303.917969 68.347656 303.917969 68.347656 C 303.917969 68.347656 308.101562 66.730469 308.015625 62.339844 Z M 308.015625 62.34375 " fill-opacity="1" fill-rule="nonzero"/></g><g clip-path="url(#a762ed2559)"><path fill="#ffb961" d="M 291.402344 725.800781 C 291.46875 725.242188 291.210938 724.808594 291.085938 724.605469 C 290.363281 723.429688 288.863281 723.136719 288.496094 723.066406 C 286.09375 722.601562 283.9375 723.894531 282.390625 724.824219 C 281.226562 725.523438 281.621094 725.476562 279.273438 727.085938 C 277.191406 728.511719 275.886719 729.230469 274.328125 729.285156 C 274.082031 729.296875 272.710938 729.347656 272.449219 728.738281 C 272.367188 728.523438 272.359375 728.304688 272.425781 728.085938 C 272.898438 726.457031 275.300781 728.042969 275.300781 728.042969 C 275.085938 726.15625 273.542969 725.683594 272.125 726.070312 C 270.710938 726.457031 269.46875 729.113281 272.125 730.617188 C 274.785156 732.117188 278.6875 729.972656 280.019531 728.769531 C 281.347656 727.570312 284.179688 725.125 285.765625 724.78125 C 287.351562 724.441406 289.5 724.566406 289.671875 725.554688 C 289.839844 726.542969 288.125 726.796875 288.125 726.796875 C 288.847656 727.378906 289.785156 727.503906 290.484375 727.113281 C 290.550781 727.074219 291.304688 726.640625 291.402344 725.800781 Z M 287.542969 727.578125 C 287.542969 727.578125 285.046875 729.488281 286.542969 730.335938 C 288.042969 731.179688 288.394531 728.0625 288.394531 728.0625 C 289.285156 729.964844 287.628906 732.890625 285.710938 731.808594 C 283.796875 730.722656 285.453125 727.796875 287.542969 727.578125 Z M 287.066406 729.042969 C 286.976562 728.945312 286.933594 728.832031 286.9375 728.699219 C 286.945312 728.566406 286.996094 728.457031 287.09375 728.367188 C 287.1875 728.277344 287.304688 728.234375 287.4375 728.238281 C 287.566406 728.242188 287.679688 728.292969 287.769531 728.390625 C 287.859375 728.488281 287.902344 728.601562 287.898438 728.734375 C 287.890625 728.867188 287.839844 728.976562 287.746094 729.066406 C 287.648438 729.160156 287.53125 729.199219 287.402344 729.195312 C 287.269531 729.191406 287.15625 729.140625 287.066406 729.042969 Z M 291.265625 730.851562 C 292.878906 730.246094 290.710938 727.972656 290.710938 727.972656 C 292.742188 728.515625 293.921875 731.667969 291.859375 732.4375 C 289.796875 733.207031 288.621094 730.058594 289.796875 728.316406 C 289.796875 728.316406 289.65625 731.453125 291.265625 730.851562 Z M 290.613281 729.621094 C 290.480469 729.625 290.367188 729.585938 290.269531 729.496094 C 290.167969 729.40625 290.117188 729.296875 290.109375 729.164062 C 290.105469 729.03125 290.144531 728.917969 290.234375 728.820312 C 290.324219 728.722656 290.433594 728.667969 290.566406 728.660156 C 290.699219 728.65625 290.8125 728.695312 290.910156 728.785156 C 291.007812 728.875 291.0625 728.984375 291.066406 729.117188 C 291.074219 729.25 291.035156 729.363281 290.945312 729.460938 C 290.855469 729.558594 290.746094 729.613281 290.613281 729.621094 Z M 291.808594 727.058594 C 291.808594 727.058594 294.121094 729.183594 294.695312 727.5625 C 295.273438 725.941406 292.136719 726.140625 292.136719 726.140625 C 293.855469 724.929688 297.027344 726.050781 296.292969 728.128906 C 295.558594 730.207031 292.386719 729.082031 291.808594 727.058594 Z M 293.242188 726.601562 C 293.347656 726.679688 293.410156 726.785156 293.425781 726.917969 C 293.445312 727.050781 293.414062 727.167969 293.332031 727.273438 C 293.253906 727.378906 293.148438 727.441406 293.015625 727.457031 C 292.886719 727.476562 292.769531 727.445312 292.664062 727.367188 C 292.558594 727.285156 292.496094 727.179688 292.476562 727.050781 C 292.457031 726.917969 292.488281 726.800781 292.570312 726.695312 C 292.648438 726.589844 292.753906 726.527344 292.886719 726.507812 C 293.015625 726.492188 293.136719 726.519531 293.242188 726.601562 Z M 322.878906 730.617188 C 320.21875 732.117188 316.316406 729.972656 314.984375 728.773438 C 313.65625 727.570312 310.824219 725.125 309.238281 724.78125 C 307.652344 724.441406 305.503906 724.570312 305.335938 725.554688 C 305.164062 726.542969 306.878906 726.796875 306.878906 726.796875 C 306.15625 727.378906 305.21875 727.503906 304.519531 727.113281 C 304.453125 727.074219 303.699219 726.640625 303.597656 725.800781 C 303.53125 725.242188 303.789062 724.808594 303.914062 724.605469 C 304.636719 723.429688 306.136719 723.136719 306.507812 723.066406 C 308.90625 722.601562 311.066406 723.894531 312.613281 724.824219 C 313.773438 725.523438 313.378906 725.476562 315.730469 727.085938 C 317.8125 728.511719 319.117188 729.230469 320.675781 729.285156 C 320.917969 729.296875 322.292969 729.347656 322.550781 728.738281 C 322.632812 728.523438 322.640625 728.304688 322.578125 728.085938 C 322.105469 726.457031 319.703125 728.042969 319.703125 728.042969 C 319.917969 726.15625 321.460938 725.683594 322.878906 726.070312 C 324.292969 726.457031 325.535156 729.113281 322.878906 730.617188 Z M 308.457031 730.332031 C 309.953125 729.488281 307.460938 727.578125 307.460938 727.578125 C 309.550781 727.796875 311.207031 730.722656 309.289062 731.804688 C 307.371094 732.886719 305.714844 729.960938 306.609375 728.058594 C 306.609375 728.0625 306.960938 731.183594 308.457031 730.332031 Z M 307.933594 729.042969 C 307.84375 729.136719 307.734375 729.191406 307.601562 729.195312 C 307.46875 729.199219 307.355469 729.15625 307.257812 729.066406 C 307.160156 728.976562 307.109375 728.867188 307.105469 728.734375 C 307.097656 728.601562 307.140625 728.488281 307.230469 728.390625 C 307.320312 728.292969 307.433594 728.242188 307.566406 728.238281 C 307.699219 728.230469 307.8125 728.273438 307.910156 728.363281 C 308.007812 728.453125 308.058594 728.566406 308.0625 728.699219 C 308.066406 728.832031 308.023438 728.945312 307.933594 729.042969 Z M 304.289062 727.972656 C 304.289062 727.972656 302.125 730.246094 303.734375 730.847656 C 305.347656 731.449219 305.203125 728.3125 305.203125 728.3125 C 306.378906 730.054688 305.203125 733.203125 303.140625 732.433594 C 301.082031 731.660156 302.257812 728.511719 304.289062 727.972656 Z M 303.933594 729.113281 C 303.941406 728.980469 303.992188 728.871094 304.089844 728.78125 C 304.1875 728.695312 304.304688 728.652344 304.4375 728.660156 C 304.570312 728.667969 304.679688 728.71875 304.769531 728.816406 C 304.855469 728.914062 304.898438 729.03125 304.890625 729.164062 C 304.882812 729.296875 304.832031 729.40625 304.734375 729.496094 C 304.636719 729.582031 304.519531 729.625 304.386719 729.617188 C 304.257812 729.609375 304.144531 729.558594 304.058594 729.460938 C 303.96875 729.363281 303.925781 729.25 303.933594 729.117188 Z M 298.710938 728.125 C 297.972656 726.050781 301.144531 724.929688 302.863281 726.136719 C 302.863281 726.136719 299.730469 725.941406 300.304688 727.5625 C 300.878906 729.183594 303.191406 727.058594 303.191406 727.058594 C 302.617188 729.082031 299.445312 730.203125 298.710938 728.128906 Z M 301.667969 727.269531 C 301.585938 727.164062 301.558594 727.046875 301.574219 726.917969 C 301.59375 726.785156 301.65625 726.679688 301.761719 726.601562 C 301.867188 726.519531 301.984375 726.488281 302.117188 726.507812 C 302.246094 726.527344 302.351562 726.585938 302.433594 726.691406 C 302.511719 726.796875 302.542969 726.917969 302.523438 727.046875 C 302.507812 727.179688 302.445312 727.285156 302.339844 727.363281 C 302.234375 727.445312 302.117188 727.476562 301.984375 727.457031 C 301.851562 727.441406 301.746094 727.378906 301.667969 727.273438 Z M 268.59375 729.324219 L 225.105469 728.507812 C 224.929688 728.503906 224.84375 728.410156 224.84375 728.234375 C 224.84375 728.058594 224.929688 727.96875 225.105469 727.960938 L 268.59375 727.144531 L 268.632812 727.144531 C 268.777344 727.148438 268.917969 727.179688 269.050781 727.238281 C 269.183594 727.296875 269.296875 727.375 269.398438 727.480469 C 269.5 727.585938 269.574219 727.703125 269.628906 727.835938 C 269.679688 727.972656 269.707031 728.113281 269.703125 728.257812 C 269.699219 728.402344 269.671875 728.539062 269.613281 728.671875 C 269.554688 728.804688 269.472656 728.921875 269.371094 729.019531 C 269.265625 729.121094 269.148438 729.199219 269.011719 729.25 C 268.878906 729.304688 268.738281 729.328125 268.59375 729.324219 Z M 223.179688 729.203125 C 222.910156 729.203125 222.683594 729.109375 222.496094 728.921875 C 222.304688 728.730469 222.210938 728.503906 222.210938 728.238281 C 222.210938 727.96875 222.304688 727.742188 222.496094 727.554688 C 222.683594 727.363281 222.910156 727.269531 223.179688 727.269531 C 223.445312 727.269531 223.671875 727.363281 223.863281 727.554688 C 224.050781 727.742188 224.144531 727.96875 224.144531 728.238281 C 224.144531 728.503906 224.050781 728.730469 223.863281 728.921875 C 223.671875 729.109375 223.445312 729.203125 223.179688 729.203125 Z M 369.898438 728.511719 L 326.410156 729.328125 L 326.367188 729.328125 C 326.222656 729.324219 326.085938 729.292969 325.953125 729.234375 C 325.820312 729.179688 325.703125 729.097656 325.605469 728.992188 C 325.503906 728.890625 325.425781 728.769531 325.375 728.636719 C 325.320312 728.5 325.296875 728.363281 325.300781 728.21875 C 325.300781 728.074219 325.332031 727.933594 325.390625 727.800781 C 325.449219 727.667969 325.527344 727.554688 325.632812 727.453125 C 325.738281 727.351562 325.855469 727.277344 325.992188 727.222656 C 326.125 727.171875 326.265625 727.144531 326.410156 727.148438 L 369.898438 727.964844 C 370.074219 727.96875 370.160156 728.0625 370.160156 728.238281 C 370.160156 728.414062 370.074219 728.503906 369.898438 728.511719 Z M 371.824219 729.203125 C 371.554688 729.203125 371.328125 729.109375 371.140625 728.921875 C 370.949219 728.730469 370.855469 728.503906 370.855469 728.238281 C 370.855469 727.96875 370.949219 727.742188 371.140625 727.554688 C 371.328125 727.363281 371.558594 727.269531 371.824219 727.269531 C 372.089844 727.269531 372.320312 727.363281 372.507812 727.554688 C 372.695312 727.742188 372.789062 727.96875 372.789062 728.238281 C 372.789062 728.503906 372.695312 728.730469 372.507812 728.921875 C 372.320312 729.109375 372.089844 729.203125 371.824219 729.203125 Z M 297.5 740.921875 C 294.953125 737.34375 297.5 733.652344 297.5 733.652344 C 297.5 733.652344 300.046875 737.34375 297.5 740.921875 Z M 297.5 728.660156 C 297.5 728.660156 298.851562 730.621094 297.5 732.523438 C 296.148438 730.621094 297.5 728.660156 297.5 728.660156 Z M 295.898438 732.050781 C 295.898438 732.050781 295.925781 736.535156 291.804688 738.054688 C 291.714844 733.664062 295.898438 732.050781 295.898438 732.050781 Z M 303.199219 738.054688 C 299.078125 736.535156 299.101562 732.050781 299.101562 732.050781 C 299.101562 732.050781 303.285156 733.664062 303.199219 738.054688 Z M 303.199219 738.054688 " fill-opacity="1" fill-rule="nonzero"/></g><g fill="#8d3c58" fill-opacity="1"><g transform="translate(217.577446, 245.398641)"><g><path d="M 46.203125 0 L 27.90625 0 L 27.90625 -1.25 C 30.445312 -1.425781 32.046875 -1.882812 32.703125 -2.625 C 33.367188 -3.375 33.703125 -5.128906 33.703125 -7.890625 L 33.703125 -20.734375 L 13.75 -20.734375 L 13.75 -7.171875 C 13.75 -4.847656 14.097656 -3.332031 14.796875 -2.625 C 15.503906 -1.925781 17.085938 -1.46875 19.546875 -1.25 L 19.546875 0 L 1.25 0 L 1.25 -1.25 C 3.789062 -1.425781 5.390625 -1.882812 6.046875 -2.625 C 6.710938 -3.375 7.046875 -5.128906 7.046875 -7.890625 L 7.046875 -36.390625 C 7.046875 -38.765625 6.710938 -40.289062 6.046875 -40.96875 C 5.390625 -41.644531 3.789062 -42.09375 1.25 -42.3125 L 1.25 -43.5625 L 19.546875 -43.5625 L 19.546875 -42.3125 C 17.003906 -42.09375 15.398438 -41.644531 14.734375 -40.96875 C 14.078125 -40.289062 13.75 -38.765625 13.75 -36.390625 L 13.75 -23.625 L 33.703125 -23.625 L 33.703125 -36.390625 C 33.703125 -38.765625 33.367188 -40.289062 32.703125 -40.96875 C 32.046875 -41.644531 30.445312 -42.09375 27.90625 -42.3125 L 27.90625 -43.5625 L 46.203125 -43.5625 L 46.203125 -42.3125 C 43.660156 -42.09375 42.054688 -41.644531 41.390625 -40.96875 C 40.734375 -40.289062 40.40625 -38.765625 40.40625 -36.390625 L 40.40625 -7.171875 C 40.40625 -4.847656 40.753906 -3.332031 41.453125 -2.625 C 42.160156 -1.925781 43.742188 -1.46875 46.203125 -1.25 Z M 46.203125 0 "/></g></g></g><g fill="#8d3c58" fill-opacity="1"><g transform="translate(262.321507, 245.398641)"><g><path d="M 27.90625 -10.328125 C 25.050781 -3.003906 20.398438 0.65625 13.953125 0.65625 C 10.179688 0.65625 7.1875 -0.671875 4.96875 -3.328125 C 2.75 -5.984375 1.640625 -9.566406 1.640625 -14.078125 C 1.640625 -18.859375 2.910156 -22.753906 5.453125 -25.765625 C 8.003906 -28.773438 11.320312 -30.28125 15.40625 -30.28125 C 18.914062 -30.28125 21.722656 -29.023438 23.828125 -26.515625 C 25.273438 -24.679688 26.21875 -21.921875 26.65625 -18.234375 L 6.390625 -18.234375 C 6.515625 -14.503906 7.171875 -11.472656 8.359375 -9.140625 C 10.242188 -5.640625 13.007812 -3.890625 16.65625 -3.890625 C 18.757812 -3.890625 20.585938 -4.414062 22.140625 -5.46875 C 23.703125 -6.519531 25.269531 -8.296875 26.84375 -10.796875 Z M 19.9375 -20.34375 C 19.5 -23.1875 18.816406 -25.15625 17.890625 -26.25 C 16.972656 -27.351562 15.503906 -27.90625 13.484375 -27.90625 C 9.535156 -27.90625 7.210938 -25.382812 6.515625 -20.34375 Z M 19.9375 -20.34375 "/></g></g></g><g fill="#8d3c58" fill-opacity="1"><g transform="translate(288.77297, 245.398641)"><g><path d="M 16.90625 0 L 1.375 0 L 1.375 -0.984375 C 3.4375 -1.160156 4.796875 -1.554688 5.453125 -2.171875 C 6.117188 -2.785156 6.453125 -3.96875 6.453125 -5.71875 L 6.453125 -37.125 C 6.453125 -38.65625 6.253906 -39.707031 5.859375 -40.28125 C 5.460938 -40.851562 4.738281 -41.140625 3.6875 -41.140625 C 3.289062 -41.140625 2.609375 -41.09375 1.640625 -41 L 1.25 -41 L 1.25 -42.046875 C 5.59375 -43.109375 9.082031 -44.078125 11.71875 -44.953125 L 11.984375 -44.8125 L 11.984375 -5.53125 C 11.984375 -3.726562 12.273438 -2.550781 12.859375 -2 C 13.453125 -1.457031 14.800781 -1.117188 16.90625 -0.984375 Z M 16.90625 0 "/></g></g></g><g fill="#8d3c58" fill-opacity="1"><g transform="translate(304.301505, 245.398641)"><g><path d="M 27.90625 -10.328125 C 25.050781 -3.003906 20.398438 0.65625 13.953125 0.65625 C 10.179688 0.65625 7.1875 -0.671875 4.96875 -3.328125 C 2.75 -5.984375 1.640625 -9.566406 1.640625 -14.078125 C 1.640625 -18.859375 2.910156 -22.753906 5.453125 -25.765625 C 8.003906 -28.773438 11.320312 -30.28125 15.40625 -30.28125 C 18.914062 -30.28125 21.722656 -29.023438 23.828125 -26.515625 C 25.273438 -24.679688 26.21875 -21.921875 26.65625 -18.234375 L 6.390625 -18.234375 C 6.515625 -14.503906 7.171875 -11.472656 8.359375 -9.140625 C 10.242188 -5.640625 13.007812 -3.890625 16.65625 -3.890625 C 18.757812 -3.890625 20.585938 -4.414062 22.140625 -5.46875 C 23.703125 -6.519531 25.269531 -8.296875 26.84375 -10.796875 Z M 19.9375 -20.34375 C 19.5 -23.1875 18.816406 -25.15625 17.890625 -26.25 C 16.972656 -27.351562 15.503906 -27.90625 13.484375 -27.90625 C 9.535156 -27.90625 7.210938 -25.382812 6.515625 -20.34375 Z M 19.9375 -20.34375 "/></g></g></g><g fill="#8d3c58" fill-opacity="1"><g transform="translate(330.752969, 245.398641)"><g><path d="M 31.921875 0 L 18.234375 0 L 18.234375 -0.984375 C 19.898438 -1.117188 21.003906 -1.554688 21.546875 -2.296875 C 22.097656 -3.046875 22.375 -4.453125 22.375 -6.515625 L 22.375 -20.265625 C 22.375 -24.523438 20.773438 -26.65625 17.578125 -26.65625 C 16.472656 -26.65625 15.457031 -26.398438 14.53125 -25.890625 C 13.613281 -25.390625 12.367188 -24.394531 10.796875 -22.90625 L 10.796875 -4.40625 C 10.796875 -3.21875 11.101562 -2.382812 11.71875 -1.90625 C 12.332031 -1.425781 13.472656 -1.117188 15.140625 -0.984375 L 15.140625 0 L 1.1875 0 L 1.1875 -0.984375 C 2.851562 -1.117188 3.945312 -1.503906 4.46875 -2.140625 C 5 -2.773438 5.265625 -4.035156 5.265625 -5.921875 L 5.265625 -22.25 C 5.265625 -23.875 5.085938 -24.976562 4.734375 -25.5625 C 4.390625 -26.15625 3.753906 -26.453125 2.828125 -26.453125 C 1.992188 -26.453125 1.398438 -26.363281 1.046875 -26.1875 L 1.046875 -27.3125 C 4.296875 -28.28125 7.328125 -29.269531 10.140625 -30.28125 L 10.59375 -30.140625 L 10.59375 -24.9375 C 12.832031 -27.050781 14.597656 -28.46875 15.890625 -29.1875 C 17.179688 -29.914062 18.597656 -30.28125 20.140625 -30.28125 C 22.554688 -30.28125 24.453125 -29.410156 25.828125 -27.671875 C 27.210938 -25.941406 27.90625 -23.519531 27.90625 -20.40625 L 27.90625 -5.328125 C 27.90625 -3.703125 28.164062 -2.613281 28.6875 -2.0625 C 29.21875 -1.519531 30.296875 -1.160156 31.921875 -0.984375 Z M 31.921875 0 "/></g></g></g><g fill="#8d3c58" fill-opacity="1"><g transform="translate(360.899035, 245.398641)"><g/></g></g><g fill="#8d3c58" fill-opacity="1"><g transform="translate(265.019572, 326.326572)"><g><path d="M 49.359375 -6.578125 C 48.390625 -4.253906 47.015625 -2.429688 45.234375 -1.109375 C 43.460938 0.203125 41.523438 0.859375 39.421875 0.859375 C 35.828125 0.859375 32.097656 -1.140625 28.234375 -5.140625 C 25.773438 -2.984375 23.457031 -1.441406 21.28125 -0.515625 C 19.113281 0.398438 16.691406 0.859375 14.015625 0.859375 C 10.503906 0.859375 7.75 -0.0234375 5.75 -1.796875 C 3.757812 -3.578125 2.765625 -6.023438 2.765625 -9.140625 C 2.765625 -14.671875 6.207031 -19.410156 13.09375 -23.359375 L 15.59375 -24.8125 C 14.0625 -29.0625 13.296875 -32.242188 13.296875 -34.359375 C 13.296875 -37.160156 14.28125 -39.546875 16.25 -41.515625 C 18.226562 -43.492188 20.617188 -44.484375 23.421875 -44.484375 C 26.015625 -44.484375 28.144531 -43.738281 29.8125 -42.25 C 31.476562 -40.757812 32.3125 -38.851562 32.3125 -36.53125 C 32.3125 -34.15625 31.566406 -32.15625 30.078125 -30.53125 C 28.492188 -28.78125 25.835938 -27.023438 22.109375 -25.265625 C 24.742188 -20.140625 27.640625 -15.625 30.796875 -11.71875 C 34.796875 -17.019531 36.796875 -21.007812 36.796875 -23.6875 C 36.796875 -24.695312 36.5 -25.398438 35.90625 -25.796875 C 35.3125 -26.191406 34.203125 -26.476562 32.578125 -26.65625 L 32.578125 -28.03125 L 46.796875 -28.03125 L 46.796875 -26.65625 C 45.128906 -26.4375 43.878906 -26.070312 43.046875 -25.5625 C 42.210938 -25.0625 41.398438 -24.128906 40.609375 -22.765625 L 38.890625 -19.75 C 37.140625 -16.71875 34.945312 -13.425781 32.3125 -9.875 C 35.34375 -5.832031 38.722656 -3.8125 42.453125 -3.8125 C 43.628906 -3.8125 44.644531 -4.0625 45.5 -4.5625 C 46.363281 -5.070312 47.320312 -5.988281 48.375 -7.3125 Z M 28.828125 -36.796875 C 28.828125 -38.410156 28.332031 -39.742188 27.34375 -40.796875 C 26.351562 -41.859375 25.09375 -42.390625 23.5625 -42.390625 C 22.070312 -42.390625 20.851562 -41.882812 19.90625 -40.875 C 18.96875 -39.863281 18.5 -38.566406 18.5 -36.984375 C 18.5 -34.265625 19.375 -31.0625 21.125 -27.375 C 23.800781 -28.820312 25.753906 -30.289062 26.984375 -31.78125 C 28.210938 -33.28125 28.828125 -34.953125 28.828125 -36.796875 Z M 26.59375 -6.84375 C 23.34375 -10.832031 20.003906 -16.078125 16.578125 -22.578125 C 13.734375 -20.734375 11.726562 -19.007812 10.5625 -17.40625 C 9.394531 -15.800781 8.8125 -13.945312 8.8125 -11.84375 C 8.8125 -9.300781 9.644531 -7.117188 11.3125 -5.296875 C 12.988281 -3.472656 14.988281 -2.5625 17.3125 -2.5625 C 19.894531 -2.5625 22.988281 -3.988281 26.59375 -6.84375 Z M 26.59375 -6.84375 "/></g></g></g><g fill="#8d3c58" fill-opacity="1"><g transform="translate(313.456909, 326.326572)"><g/></g></g><g fill="#8d3c58" fill-opacity="1"><g transform="translate(209.323078, 407.254502)"><g><path d="M 56.796875 0 L 38.375 0 L 38.375 -1.25 C 40.957031 -1.425781 42.597656 -1.894531 43.296875 -2.65625 C 44.003906 -3.425781 44.359375 -5.171875 44.359375 -7.890625 L 44.359375 -37.703125 L 27.515625 0 L 26.59375 0 L 10.0625 -36.203125 L 10.0625 -9.671875 C 10.0625 -6.335938 10.457031 -4.132812 11.25 -3.0625 C 12.039062 -1.988281 13.707031 -1.382812 16.25 -1.25 L 16.25 0 L 0.796875 0 L 0.796875 -1.25 C 3.515625 -1.425781 5.253906 -2.03125 6.015625 -3.0625 C 6.785156 -4.09375 7.171875 -6.296875 7.171875 -9.671875 L 7.171875 -36.390625 C 7.171875 -38.804688 6.804688 -40.351562 6.078125 -41.03125 C 5.359375 -41.707031 3.640625 -42.132812 0.921875 -42.3125 L 0.921875 -43.5625 L 13.953125 -43.5625 L 29.15625 -10.328125 L 43.703125 -43.5625 L 56.796875 -43.5625 L 56.796875 -42.3125 C 54.335938 -42.09375 52.769531 -41.628906 52.09375 -40.921875 C 51.414062 -40.222656 51.078125 -38.710938 51.078125 -36.390625 L 51.078125 -7.171875 C 51.078125 -4.847656 51.425781 -3.320312 52.125 -2.59375 C 52.820312 -1.875 54.378906 -1.425781 56.796875 -1.25 Z M 56.796875 0 "/></g></g></g><g fill="#8d3c58" fill-opacity="1"><g transform="translate(265.055858, 407.254502)"><g><path d="M 16.65625 0 L 1.046875 0 L 1.046875 -0.984375 C 3.328125 -1.117188 4.765625 -1.515625 5.359375 -2.171875 C 5.953125 -2.828125 6.25 -4.34375 6.25 -6.71875 L 6.25 -21.984375 C 6.25 -23.429688 6.082031 -24.453125 5.75 -25.046875 C 5.425781 -25.640625 4.867188 -25.9375 4.078125 -25.9375 C 3.378906 -25.9375 2.632812 -25.867188 1.84375 -25.734375 L 1.3125 -25.671875 L 1.3125 -26.65625 L 11.515625 -30.28125 L 11.78125 -30.078125 L 11.78125 -6.71875 C 11.78125 -4.34375 12.050781 -2.835938 12.59375 -2.203125 C 13.144531 -1.566406 14.5 -1.160156 16.65625 -0.984375 Z M 12.375 -38.828125 C 12.375 -37.859375 12.054688 -37.054688 11.421875 -36.421875 C 10.785156 -35.785156 9.984375 -35.46875 9.015625 -35.46875 C 8.097656 -35.46875 7.304688 -35.785156 6.640625 -36.421875 C 5.984375 -37.054688 5.65625 -37.859375 5.65625 -38.828125 C 5.65625 -39.753906 5.984375 -40.546875 6.640625 -41.203125 C 7.304688 -41.859375 8.097656 -42.1875 9.015625 -42.1875 C 9.984375 -42.1875 10.785156 -41.859375 11.421875 -41.203125 C 12.054688 -40.546875 12.375 -39.753906 12.375 -38.828125 Z M 12.375 -38.828125 "/></g></g></g><g fill="#8d3c58" fill-opacity="1"><g transform="translate(280.584393, 407.254502)"><g><path d="M 30.9375 -25.53125 L 25.46875 -25.53125 C 26.300781 -23.644531 26.71875 -21.800781 26.71875 -20 C 26.71875 -16.84375 25.664062 -14.363281 23.5625 -12.5625 C 21.457031 -10.726562 19.085938 -9.8125 16.453125 -9.8125 C 16.015625 -9.8125 15.179688 -9.875 13.953125 -10 C 13.910156 -10 13.492188 -10.046875 12.703125 -10.140625 C 11.828125 -9.867188 10.945312 -9.269531 10.0625 -8.34375 C 9.1875 -7.425781 8.75 -6.640625 8.75 -5.984375 C 8.75 -4.929688 10.460938 -4.34375 13.890625 -4.21875 L 22.375 -3.8125 C 24.789062 -3.726562 26.722656 -3.050781 28.171875 -1.78125 C 29.617188 -0.507812 30.34375 1.15625 30.34375 3.21875 C 30.34375 5.675781 29.132812 7.894531 26.71875 9.875 C 23.03125 12.851562 18.535156 14.34375 13.234375 14.34375 C 10.117188 14.34375 7.441406 13.71875 5.203125 12.46875 C 2.960938 11.21875 1.84375 9.71875 1.84375 7.96875 C 1.84375 6.738281 2.332031 5.519531 3.3125 4.3125 C 4.300781 3.101562 5.960938 1.644531 8.296875 -0.0625 C 6.929688 -0.71875 6.003906 -1.285156 5.515625 -1.765625 C 5.035156 -2.253906 4.796875 -2.847656 4.796875 -3.546875 C 4.796875 -4.828125 5.804688 -6.34375 7.828125 -8.09375 L 10.65625 -10.734375 C 8.46875 -11.828125 6.898438 -13.050781 5.953125 -14.40625 C 5.015625 -15.769531 4.546875 -17.484375 4.546875 -19.546875 C 4.546875 -22.523438 5.609375 -25.054688 7.734375 -27.140625 C 9.859375 -29.234375 12.457031 -30.28125 15.53125 -30.28125 C 17.289062 -30.28125 19.046875 -29.945312 20.796875 -29.28125 L 22.25 -28.765625 C 23.519531 -28.328125 24.722656 -28.109375 25.859375 -28.109375 L 30.9375 -28.109375 Z M 28.5 4.21875 C 28.5 3.03125 27.882812 2.191406 26.65625 1.703125 C 25.425781 1.222656 23.320312 0.984375 20.34375 0.984375 C 15.90625 0.984375 12.347656 0.695312 9.671875 0.125 C 8.316406 1.75 7.441406 2.910156 7.046875 3.609375 C 6.648438 4.316406 6.453125 5.046875 6.453125 5.796875 C 6.453125 7.242188 7.328125 8.40625 9.078125 9.28125 C 10.835938 10.15625 13.164062 10.59375 16.0625 10.59375 C 19.789062 10.59375 22.796875 10 25.078125 8.8125 C 27.359375 7.632812 28.5 6.101562 28.5 4.21875 Z M 21.65625 -17.4375 C 21.65625 -20.15625 20.992188 -22.789062 19.671875 -25.34375 C 18.578125 -27.40625 16.976562 -28.4375 14.875 -28.4375 C 13.332031 -28.4375 12.132812 -27.882812 11.28125 -26.78125 C 10.425781 -25.6875 10 -24.175781 10 -22.25 L 10 -22.046875 C 10 -18.890625 10.625 -16.332031 11.875 -14.375 C 13.125 -12.425781 14.738281 -11.453125 16.71875 -11.453125 C 18.25 -11.453125 19.453125 -11.988281 20.328125 -13.0625 C 21.210938 -14.132812 21.65625 -15.59375 21.65625 -17.4375 Z M 21.65625 -17.4375 "/></g></g></g><g fill="#8d3c58" fill-opacity="1"><g transform="translate(310.720702, 407.254502)"><g><path d="M 31.53125 -2.375 C 28.101562 -1.445312 25.097656 -0.457031 22.515625 0.59375 L 22.25 0.453125 L 22.25 -5 L 19.421875 -2.171875 C 17.523438 -0.285156 15.265625 0.65625 12.640625 0.65625 C 10.222656 0.65625 8.289062 -0.117188 6.84375 -1.671875 C 5.394531 -3.234375 4.671875 -5.304688 4.671875 -7.890625 L 4.671875 -24.484375 C 4.671875 -26.015625 4.382812 -27.078125 3.8125 -27.671875 C 3.25 -28.265625 2.175781 -28.601562 0.59375 -28.6875 L 0.59375 -29.609375 L 10.203125 -29.609375 L 10.203125 -8.15625 C 10.203125 -6.800781 10.660156 -5.628906 11.578125 -4.640625 C 12.503906 -3.648438 13.601562 -3.15625 14.875 -3.15625 C 16.976562 -3.15625 18.953125 -3.945312 20.796875 -5.53125 C 21.546875 -6.101562 21.921875 -7.222656 21.921875 -8.890625 L 21.921875 -24.34375 C 21.921875 -25.96875 21.625 -27.039062 21.03125 -27.5625 C 20.4375 -28.09375 19.109375 -28.40625 17.046875 -28.5 L 17.046875 -29.609375 L 27.4375 -29.609375 L 27.4375 -7.046875 C 27.4375 -5.503906 27.6875 -4.492188 28.1875 -4.015625 C 28.695312 -3.535156 29.695312 -3.296875 31.1875 -3.296875 L 31.53125 -3.296875 Z M 31.53125 -2.375 "/></g></g></g><g fill="#8d3c58" fill-opacity="1"><g transform="translate(340.857011, 407.254502)"><g><path d="M 27.90625 -10.328125 C 25.050781 -3.003906 20.398438 0.65625 13.953125 0.65625 C 10.179688 0.65625 7.1875 -0.671875 4.96875 -3.328125 C 2.75 -5.984375 1.640625 -9.566406 1.640625 -14.078125 C 1.640625 -18.859375 2.910156 -22.753906 5.453125 -25.765625 C 8.003906 -28.773438 11.320312 -30.28125 15.40625 -30.28125 C 18.914062 -30.28125 21.722656 -29.023438 23.828125 -26.515625 C 25.273438 -24.679688 26.21875 -21.921875 26.65625 -18.234375 L 6.390625 -18.234375 C 6.515625 -14.503906 7.171875 -11.472656 8.359375 -9.140625 C 10.242188 -5.640625 13.007812 -3.890625 16.65625 -3.890625 C 18.757812 -3.890625 20.585938 -4.414062 22.140625 -5.46875 C 23.703125 -6.519531 25.269531 -8.296875 26.84375 -10.796875 Z M 19.9375 -20.34375 C 19.5 -23.1875 18.816406 -25.15625 17.890625 -26.25 C 16.972656 -27.351562 15.503906 -27.90625 13.484375 -27.90625 C 9.535156 -27.90625 7.210938 -25.382812 6.515625 -20.34375 Z M 19.9375 -20.34375 "/></g></g></g><g fill="#8d3c58" fill-opacity="1"><g transform="translate(367.308469, 407.254502)"><g><path d="M 16.90625 0 L 1.375 0 L 1.375 -0.984375 C 3.4375 -1.160156 4.796875 -1.554688 5.453125 -2.171875 C 6.117188 -2.785156 6.453125 -3.96875 6.453125 -5.71875 L 6.453125 -37.125 C 6.453125 -38.65625 6.253906 -39.707031 5.859375 -40.28125 C 5.460938 -40.851562 4.738281 -41.140625 3.6875 -41.140625 C 3.289062 -41.140625 2.609375 -41.09375 1.640625 -41 L 1.25 -41 L 1.25 -42.046875 C 5.59375 -43.109375 9.082031 -44.078125 11.71875 -44.953125 L 11.984375 -44.8125 L 11.984375 -5.53125 C 11.984375 -3.726562 12.273438 -2.550781 12.859375 -2 C 13.453125 -1.457031 14.800781 -1.117188 16.90625 -0.984375 Z M 16.90625 0 "/></g></g></g><g fill="#2a2214" fill-opacity="1"><g transform="translate(264.230043, 607.983881)"><g><path d="M 9.28125 -20.5 C 9.28125 -21.894531 9.144531 -22.90625 8.875 -23.53125 C 8.601562 -24.15625 8.078125 -24.578125 7.296875 -24.796875 C 6.515625 -25.023438 5.25 -25.140625 3.5 -25.140625 C 3.363281 -25.140625 3.296875 -25.273438 3.296875 -25.546875 C 3.296875 -25.816406 3.363281 -25.953125 3.5 -25.953125 C 4.800781 -25.953125 5.832031 -25.929688 6.59375 -25.890625 L 11.15625 -25.8125 L 15.671875 -25.890625 C 16.429688 -25.929688 17.484375 -25.953125 18.828125 -25.953125 C 18.960938 -25.953125 19.03125 -25.816406 19.03125 -25.546875 C 19.03125 -25.273438 18.960938 -25.140625 18.828125 -25.140625 C 17.171875 -25.140625 15.945312 -25.015625 15.15625 -24.765625 C 14.375 -24.523438 13.828125 -24.09375 13.515625 -23.46875 C 13.203125 -22.84375 13.046875 -21.851562 13.046875 -20.5 L 13.046875 -5.453125 C 13.046875 -4.054688 13.175781 -3.046875 13.4375 -2.421875 C 13.707031 -1.796875 14.234375 -1.367188 15.015625 -1.140625 C 15.804688 -0.921875 17.078125 -0.8125 18.828125 -0.8125 C 18.960938 -0.8125 19.03125 -0.675781 19.03125 -0.40625 C 19.03125 -0.132812 18.960938 0 18.828125 0 C 17.523438 0 16.492188 -0.0195312 15.734375 -0.0625 L 11.15625 -0.140625 L 6.65625 -0.0625 C 5.894531 -0.0195312 4.84375 0 3.5 0 C 3.363281 0 3.296875 -0.132812 3.296875 -0.40625 C 3.296875 -0.675781 3.363281 -0.8125 3.5 -0.8125 C 5.15625 -0.8125 6.375 -0.929688 7.15625 -1.171875 C 7.945312 -1.421875 8.5 -1.859375 8.8125 -2.484375 C 9.125 -3.109375 9.28125 -4.097656 9.28125 -5.453125 Z M 9.28125 -20.5 "/></g></g></g><g fill="#2a2214" fill-opacity="1"><g transform="translate(286.550602, 607.983881)"><g><path d="M 8 -21.84375 C 7.414062 -21.84375 7.082031 -21.53125 7 -20.90625 L 5.578125 -13.171875 C 11.765625 -13.128906 16.3125 -12 19.21875 -9.78125 C 22.132812 -7.5625 23.59375 -4.503906 23.59375 -0.609375 C 23.59375 1.953125 22.941406 4.273438 21.640625 6.359375 C 20.347656 8.441406 18.320312 10.457031 15.5625 12.40625 C 12.8125 14.351562 9.148438 16.378906 4.578125 18.484375 L 4.5 18.484375 C 4.320312 18.484375 4.175781 18.382812 4.0625 18.1875 C 3.957031 17.988281 3.992188 17.84375 4.171875 17.75 C 9.679688 15.019531 13.554688 12.253906 15.796875 9.453125 C 18.035156 6.648438 19.15625 3.675781 19.15625 0.53125 C 19.15625 -3.1875 17.898438 -6.078125 15.390625 -8.140625 C 12.878906 -10.203125 9.273438 -11.234375 4.578125 -11.234375 C 4.347656 -11.234375 4.164062 -11.3125 4.03125 -11.46875 C 3.894531 -11.625 3.851562 -11.8125 3.90625 -12.03125 L 6.046875 -24 C 6.097656 -24.3125 6.164062 -24.5 6.25 -24.5625 C 6.34375 -24.632812 6.566406 -24.695312 6.921875 -24.75 C 12.566406 -25.414062 16.351562 -25.882812 18.28125 -26.15625 C 20.207031 -26.425781 21.453125 -26.707031 22.015625 -27 C 22.578125 -27.289062 22.972656 -27.769531 23.203125 -28.4375 C 23.242188 -28.570312 23.382812 -28.628906 23.625 -28.609375 C 23.875 -28.585938 23.976562 -28.488281 23.9375 -28.3125 L 22.59375 -23.328125 C 22.414062 -22.835938 22.203125 -22.515625 21.953125 -22.359375 C 21.703125 -22.203125 21.285156 -22.125 20.703125 -22.125 Z M 8 -21.84375 "/></g></g></g><g fill="#2a2214" fill-opacity="1"><g transform="translate(252.161074, 565.55416)"><g><path d="M 10.484375 -8.546875 L 10.046875 -8.546875 C 9.835938 -9.523438 9.554688 -10.210938 9.203125 -10.609375 C 8.648438 -11.234375 7.5625 -11.546875 5.9375 -11.546875 C 5.476562 -11.546875 5.171875 -11.488281 5.015625 -11.375 C 4.859375 -11.257812 4.78125 -11.035156 4.78125 -10.703125 L 4.78125 -6.53125 C 5.675781 -6.53125 6.316406 -6.71875 6.703125 -7.09375 C 7.085938 -7.46875 7.363281 -8.171875 7.53125 -9.203125 L 7.984375 -9.203125 L 7.984375 -3.125 L 7.53125 -3.125 C 7.414062 -4.164062 7.160156 -4.882812 6.765625 -5.28125 C 6.367188 -5.675781 5.707031 -5.890625 4.78125 -5.921875 L 4.78125 -1.71875 C 4.78125 -1.226562 4.898438 -0.898438 5.140625 -0.734375 C 5.390625 -0.578125 5.929688 -0.484375 6.765625 -0.453125 L 6.765625 0 L 0.28125 0 L 0.28125 -0.453125 C 0.957031 -0.523438 1.390625 -0.640625 1.578125 -0.796875 C 1.773438 -0.953125 1.875 -1.257812 1.875 -1.71875 L 1.875 -10.4375 C 1.875 -10.894531 1.765625 -11.210938 1.546875 -11.390625 C 1.328125 -11.566406 0.90625 -11.671875 0.28125 -11.703125 L 0.28125 -12.15625 L 10.484375 -12.15625 Z M 10.484375 -8.546875 "/></g></g></g><g fill="#2a2214" fill-opacity="1"><g transform="translate(262.124168, 565.55416)"><g><path d="M 11.53125 -3.734375 L 10.8125 0 L 0.28125 0 L 0.28125 -0.453125 C 0.957031 -0.523438 1.390625 -0.640625 1.578125 -0.796875 C 1.773438 -0.953125 1.875 -1.257812 1.875 -1.71875 L 1.875 -10.4375 C 1.875 -10.882812 1.765625 -11.195312 1.546875 -11.375 C 1.328125 -11.5625 0.90625 -11.671875 0.28125 -11.703125 L 0.28125 -12.15625 L 10.671875 -12.15625 L 10.671875 -8.546875 L 10.21875 -8.546875 C 9.988281 -9.742188 9.582031 -10.539062 9 -10.9375 C 8.425781 -11.34375 7.410156 -11.546875 5.953125 -11.546875 C 5.484375 -11.546875 5.171875 -11.488281 5.015625 -11.375 C 4.859375 -11.257812 4.78125 -11.035156 4.78125 -10.703125 L 4.78125 -6.53125 C 5.75 -6.519531 6.441406 -6.703125 6.859375 -7.078125 C 7.285156 -7.460938 7.566406 -8.171875 7.703125 -9.203125 L 8.171875 -9.203125 L 8.171875 -3.125 L 7.703125 -3.125 C 7.585938 -4.164062 7.316406 -4.890625 6.890625 -5.296875 C 6.472656 -5.710938 5.769531 -5.921875 4.78125 -5.921875 L 4.78125 -1.5625 C 4.78125 -1.175781 4.882812 -0.910156 5.09375 -0.765625 C 5.300781 -0.628906 5.695312 -0.5625 6.28125 -0.5625 C 7.625 -0.5625 8.703125 -0.890625 9.515625 -1.546875 C 10.066406 -2.015625 10.570312 -2.742188 11.03125 -3.734375 Z M 11.53125 -3.734375 "/></g></g></g><g fill="#2a2214" fill-opacity="1"><g transform="translate(273.094361, 565.55416)"><g><path d="M 11.125 -3.375 C 11.125 -2.363281 10.660156 -1.546875 9.734375 -0.921875 C 8.816406 -0.304688 7.597656 0 6.078125 0 L 0.28125 0 L 0.28125 -0.453125 C 0.945312 -0.523438 1.378906 -0.640625 1.578125 -0.796875 C 1.773438 -0.960938 1.875 -1.269531 1.875 -1.71875 L 1.875 -10.4375 C 1.875 -10.882812 1.765625 -11.195312 1.546875 -11.375 C 1.328125 -11.5625 0.90625 -11.671875 0.28125 -11.703125 L 0.28125 -12.15625 L 5.84375 -12.15625 C 7.34375 -12.15625 8.492188 -11.90625 9.296875 -11.40625 C 10.109375 -10.914062 10.515625 -10.207031 10.515625 -9.28125 C 10.515625 -8.59375 10.296875 -8.039062 9.859375 -7.625 C 9.429688 -7.21875 8.695312 -6.863281 7.65625 -6.5625 C 8.757812 -6.320312 9.59375 -5.960938 10.15625 -5.484375 C 10.800781 -4.910156 11.125 -4.207031 11.125 -3.375 Z M 8.03125 -3.21875 C 8.03125 -5.1875 7.113281 -6.171875 5.28125 -6.171875 L 4.75 -6.171875 L 4.75 -1.671875 C 4.75 -1.273438 4.832031 -0.992188 5 -0.828125 C 5.164062 -0.660156 5.445312 -0.578125 5.84375 -0.578125 C 7.300781 -0.578125 8.03125 -1.457031 8.03125 -3.21875 Z M 7.546875 -9.15625 C 7.546875 -10.007812 7.394531 -10.632812 7.09375 -11.03125 C 6.800781 -11.425781 6.34375 -11.625 5.71875 -11.625 C 5.375 -11.625 5.125 -11.554688 4.96875 -11.421875 C 4.820312 -11.285156 4.75 -11.054688 4.75 -10.734375 L 4.75 -6.703125 C 5.851562 -6.734375 6.59375 -6.910156 6.96875 -7.234375 C 7.351562 -7.566406 7.546875 -8.207031 7.546875 -9.15625 Z M 7.546875 -9.15625 "/></g></g></g><g fill="#2a2214" fill-opacity="1"><g transform="translate(284.064554, 565.55416)"><g><path d="M 12.859375 0 L 9.171875 0 L 5.453125 -5.625 L 4.96875 -5.625 L 4.96875 -2.109375 C 4.96875 -1.472656 5.054688 -1.054688 5.234375 -0.859375 C 5.410156 -0.671875 5.847656 -0.535156 6.546875 -0.453125 L 6.546875 0 L 0.46875 0 L 0.46875 -0.453125 C 1.175781 -0.535156 1.613281 -0.664062 1.78125 -0.84375 C 1.957031 -1.019531 2.046875 -1.441406 2.046875 -2.109375 L 2.046875 -10.046875 C 2.046875 -10.703125 1.945312 -11.128906 1.75 -11.328125 C 1.550781 -11.535156 1.125 -11.660156 0.46875 -11.703125 L 0.46875 -12.15625 L 6.265625 -12.15625 C 7.898438 -12.15625 9.148438 -11.878906 10.015625 -11.328125 C 10.890625 -10.773438 11.328125 -9.984375 11.328125 -8.953125 C 11.328125 -8.117188 11.054688 -7.445312 10.515625 -6.9375 C 10.078125 -6.539062 9.40625 -6.203125 8.5 -5.921875 L 12.125 -0.796875 C 12.300781 -0.566406 12.546875 -0.453125 12.859375 -0.453125 Z M 8.25 -8.890625 C 8.25 -9.835938 8.066406 -10.515625 7.703125 -10.921875 C 7.347656 -11.335938 6.757812 -11.546875 5.9375 -11.546875 C 5.476562 -11.546875 5.195312 -11.457031 5.09375 -11.28125 C 5.007812 -11.113281 4.96875 -10.953125 4.96875 -10.796875 L 4.96875 -6.203125 C 6.164062 -6.210938 6.976562 -6.363281 7.40625 -6.65625 C 7.96875 -7.03125 8.25 -7.773438 8.25 -8.890625 Z M 8.25 -8.890625 "/></g></g></g><g fill="#2a2214" fill-opacity="1"><g transform="translate(296.02386, 565.55416)"><g><path d="M 11.53125 -3.734375 L 10.8125 0 L 0.28125 0 L 0.28125 -0.453125 C 0.957031 -0.523438 1.390625 -0.640625 1.578125 -0.796875 C 1.773438 -0.953125 1.875 -1.257812 1.875 -1.71875 L 1.875 -10.4375 C 1.875 -10.882812 1.765625 -11.195312 1.546875 -11.375 C 1.328125 -11.5625 0.90625 -11.671875 0.28125 -11.703125 L 0.28125 -12.15625 L 10.671875 -12.15625 L 10.671875 -8.546875 L 10.21875 -8.546875 C 9.988281 -9.742188 9.582031 -10.539062 9 -10.9375 C 8.425781 -11.34375 7.410156 -11.546875 5.953125 -11.546875 C 5.484375 -11.546875 5.171875 -11.488281 5.015625 -11.375 C 4.859375 -11.257812 4.78125 -11.035156 4.78125 -10.703125 L 4.78125 -6.53125 C 5.75 -6.519531 6.441406 -6.703125 6.859375 -7.078125 C 7.285156 -7.460938 7.566406 -8.171875 7.703125 -9.203125 L 8.171875 -9.203125 L 8.171875 -3.125 L 7.703125 -3.125 C 7.585938 -4.164062 7.316406 -4.890625 6.890625 -5.296875 C 6.472656 -5.710938 5.769531 -5.921875 4.78125 -5.921875 L 4.78125 -1.5625 C 4.78125 -1.175781 4.882812 -0.910156 5.09375 -0.765625 C 5.300781 -0.628906 5.695312 -0.5625 6.28125 -0.5625 C 7.625 -0.5625 8.703125 -0.890625 9.515625 -1.546875 C 10.066406 -2.015625 10.570312 -2.742188 11.03125 -3.734375 Z M 11.53125 -3.734375 "/></g></g></g><g fill="#2a2214" fill-opacity="1"><g transform="translate(306.994056, 565.55416)"><g><path d="M 12.859375 0 L 9.171875 0 L 5.453125 -5.625 L 4.96875 -5.625 L 4.96875 -2.109375 C 4.96875 -1.472656 5.054688 -1.054688 5.234375 -0.859375 C 5.410156 -0.671875 5.847656 -0.535156 6.546875 -0.453125 L 6.546875 0 L 0.46875 0 L 0.46875 -0.453125 C 1.175781 -0.535156 1.613281 -0.664062 1.78125 -0.84375 C 1.957031 -1.019531 2.046875 -1.441406 2.046875 -2.109375 L 2.046875 -10.046875 C 2.046875 -10.703125 1.945312 -11.128906 1.75 -11.328125 C 1.550781 -11.535156 1.125 -11.660156 0.46875 -11.703125 L 0.46875 -12.15625 L 6.265625 -12.15625 C 7.898438 -12.15625 9.148438 -11.878906 10.015625 -11.328125 C 10.890625 -10.773438 11.328125 -9.984375 11.328125 -8.953125 C 11.328125 -8.117188 11.054688 -7.445312 10.515625 -6.9375 C 10.078125 -6.539062 9.40625 -6.203125 8.5 -5.921875 L 12.125 -0.796875 C 12.300781 -0.566406 12.546875 -0.453125 12.859375 -0.453125 Z M 8.25 -8.890625 C 8.25 -9.835938 8.066406 -10.515625 7.703125 -10.921875 C 7.347656 -11.335938 6.757812 -11.546875 5.9375 -11.546875 C 5.476562 -11.546875 5.195312 -11.457031 5.09375 -11.28125 C 5.007812 -11.113281 4.96875 -10.953125 4.96875 -10.796875 L 4.96875 -6.203125 C 6.164062 -6.210938 6.976562 -6.363281 7.40625 -6.65625 C 7.96875 -7.03125 8.25 -7.773438 8.25 -8.890625 Z M 8.25 -8.890625 "/></g></g></g><g fill="#2a2214" fill-opacity="1"><g transform="translate(318.953365, 565.55416)"><g><path d="M 13.359375 -6.046875 C 13.359375 -4.179688 12.757812 -2.648438 11.5625 -1.453125 C 10.375 -0.253906 8.847656 0.34375 6.984375 0.34375 C 5.128906 0.34375 3.601562 -0.25 2.40625 -1.4375 C 1.21875 -2.632812 0.625 -4.164062 0.625 -6.03125 C 0.625 -7.894531 1.226562 -9.425781 2.4375 -10.625 C 3.644531 -11.820312 5.1875 -12.421875 7.0625 -12.421875 C 8.875 -12.421875 10.375 -11.816406 11.5625 -10.609375 C 12.757812 -9.398438 13.359375 -7.878906 13.359375 -6.046875 Z M 10.171875 -5.921875 C 10.171875 -7.785156 9.898438 -9.234375 9.359375 -10.265625 C 8.816406 -11.304688 8.046875 -11.828125 7.046875 -11.828125 C 5.992188 -11.828125 5.191406 -11.316406 4.640625 -10.296875 C 4.085938 -9.285156 3.8125 -7.804688 3.8125 -5.859375 C 3.8125 -4.035156 4.082031 -2.644531 4.625 -1.6875 C 5.175781 -0.726562 5.96875 -0.25 7 -0.25 C 8.03125 -0.25 8.816406 -0.726562 9.359375 -1.6875 C 9.898438 -2.65625 10.171875 -4.066406 10.171875 -5.921875 Z M 10.171875 -5.921875 "/></g></g></g><path stroke-linecap="butt" transform="matrix(0.749333, 0, 0, 0.749333, 108.867942, 580.106848)" fill="none" stroke-linejoin="miter" d="M -0.00100638 0.99905 L 162.445613 0.99905 " stroke="#ffb961" stroke-width="2" stroke-opacity="1" stroke-miterlimit="4"/><path stroke-linecap="butt" transform="matrix(0.749333, 0, 0, 0.749333, 109.018693, 612.213872)" fill="none" stroke-linejoin="miter" d="M 0.00111871 1.002188 L 162.442525 1.002188 " stroke="#ffb961" stroke-width="2" stroke-opacity="1" stroke-miterlimit="4"/><path stroke-linecap="butt" transform="matrix(0.749333, 0, 0, 0.749333, 354.013301, 580.106848)" fill="none" stroke-linejoin="miter" d="M -0.00211197 0.99905 L 162.444508 0.99905 " stroke="#ffb961" stroke-width="2" stroke-opacity="1" stroke-miterlimit="4"/><path stroke-linecap="butt" transform="matrix(0.749333, 0, 0, 0.749333, 354.013301, 612.213872)" fill="none" stroke-linejoin="miter" d="M -0.00211197 1.002188 L 162.444508 1.002188 " stroke="#ffb961" stroke-width="2" stroke-opacity="1" stroke-miterlimit="4"/><path stroke-linecap="butt" transform="matrix(-0.00529453, -0.749314, 0.749314, -0.00529453, 242.541165, 637.844095)" fill="none" stroke-linejoin="miter" d="M -0.00137891 0.9981 L 109.499806 1.000278 " stroke="#ffb961" stroke-width="2" stroke-opacity="1" stroke-miterlimit="4"/><path stroke-linecap="butt" transform="matrix(-0.00529453, -0.749314, 0.749314, -0.00529453, 341.666963, 637.928764)" fill="none" stroke-linejoin="miter" d="M 0.00211128 1.002273 L 109.498121 0.999202 " stroke="#ffb961" stroke-width="2" stroke-opacity="1" stroke-miterlimit="4"/><g fill="#2a2214" fill-opacity="1"><g transform="translate(265.266831, 647.397691)"><g><path d="M 12.96875 -3.734375 L 11.46875 0 L 0.8125 0 L 0.8125 -0.328125 L 5.671875 -5.484375 C 8.035156 -7.992188 9.21875 -10.359375 9.21875 -12.578125 C 9.21875 -13.722656 8.863281 -14.648438 8.15625 -15.359375 C 7.445312 -16.078125 6.519531 -16.4375 5.375 -16.4375 C 4.425781 -16.4375 3.664062 -16.175781 3.09375 -15.65625 C 2.519531 -15.132812 1.960938 -14.210938 1.421875 -12.890625 L 0.84375 -13.015625 C 1.25 -14.710938 1.832031 -15.960938 2.59375 -16.765625 C 3.632812 -17.890625 4.945312 -18.453125 6.53125 -18.453125 C 7.945312 -18.453125 9.140625 -17.988281 10.109375 -17.0625 C 11.085938 -16.132812 11.578125 -14.988281 11.578125 -13.625 C 11.578125 -11.5625 10.410156 -9.3125 8.078125 -6.875 L 3.5 -2.078125 L 10.015625 -2.078125 C 10.640625 -2.078125 11.097656 -2.179688 11.390625 -2.390625 C 11.691406 -2.597656 12.097656 -3.09375 12.609375 -3.875 Z M 12.96875 -3.734375 "/></g></g></g><g fill="#2a2214" fill-opacity="1"><g transform="translate(278.912848, 647.397691)"><g><path d="M 13 -9.015625 C 13 -7.359375 12.753906 -5.800781 12.265625 -4.34375 C 11.785156 -2.882812 11.15625 -1.78125 10.375 -1.03125 C 9.40625 -0.09375 8.222656 0.375 6.828125 0.375 C 5.203125 0.375 3.875 -0.238281 2.84375 -1.46875 C 2.207031 -2.238281 1.679688 -3.34375 1.265625 -4.78125 C 0.859375 -6.21875 0.65625 -7.679688 0.65625 -9.171875 C 0.65625 -10.773438 0.894531 -12.296875 1.375 -13.734375 C 1.863281 -15.171875 2.5 -16.269531 3.28125 -17.03125 C 4.28125 -17.976562 5.5 -18.453125 6.9375 -18.453125 C 8.71875 -18.453125 10.171875 -17.578125 11.296875 -15.828125 C 12.429688 -14.085938 13 -11.816406 13 -9.015625 Z M 10.375 -8.953125 C 10.375 -11.804688 10.070312 -13.984375 9.46875 -15.484375 C 8.875 -16.992188 8 -17.75 6.84375 -17.75 C 4.46875 -17.75 3.28125 -14.804688 3.28125 -8.921875 C 3.28125 -3.191406 4.460938 -0.328125 6.828125 -0.328125 C 9.191406 -0.328125 10.375 -3.203125 10.375 -8.953125 Z M 10.375 -8.953125 "/></g></g></g><g fill="#2a2214" fill-opacity="1"><g transform="translate(292.558864, 647.397691)"><g><path d="M 12.96875 -3.734375 L 11.46875 0 L 0.8125 0 L 0.8125 -0.328125 L 5.671875 -5.484375 C 8.035156 -7.992188 9.21875 -10.359375 9.21875 -12.578125 C 9.21875 -13.722656 8.863281 -14.648438 8.15625 -15.359375 C 7.445312 -16.078125 6.519531 -16.4375 5.375 -16.4375 C 4.425781 -16.4375 3.664062 -16.175781 3.09375 -15.65625 C 2.519531 -15.132812 1.960938 -14.210938 1.421875 -12.890625 L 0.84375 -13.015625 C 1.25 -14.710938 1.832031 -15.960938 2.59375 -16.765625 C 3.632812 -17.890625 4.945312 -18.453125 6.53125 -18.453125 C 7.945312 -18.453125 9.140625 -17.988281 10.109375 -17.0625 C 11.085938 -16.132812 11.578125 -14.988281 11.578125 -13.625 C 11.578125 -11.5625 10.410156 -9.3125 8.078125 -6.875 L 3.5 -2.078125 L 10.015625 -2.078125 C 10.640625 -2.078125 11.097656 -2.179688 11.390625 -2.390625 C 11.691406 -2.597656 12.097656 -3.09375 12.609375 -3.875 Z M 12.96875 -3.734375 "/></g></g></g><g fill="#2a2214" fill-opacity="1"><g transform="translate(306.204881, 647.397691)"><g><path d="M 11.953125 -18.59375 L 10.921875 -16.15625 C 10.847656 -15.988281 10.640625 -15.90625 10.296875 -15.90625 L 4.9375 -15.90625 L 3.796875 -13.59375 C 5.398438 -13.300781 6.644531 -12.976562 7.53125 -12.625 C 8.425781 -12.269531 9.171875 -11.789062 9.765625 -11.1875 C 10.460938 -10.5 10.953125 -9.804688 11.234375 -9.109375 C 11.515625 -8.421875 11.65625 -7.585938 11.65625 -6.609375 C 11.65625 -4.566406 11.046875 -2.945312 9.828125 -1.75 C 8.441406 -0.332031 6.566406 0.375 4.203125 0.375 C 3.179688 0.375 2.367188 0.226562 1.765625 -0.0625 C 1.171875 -0.363281 0.875 -0.78125 0.875 -1.3125 C 0.875 -1.976562 1.265625 -2.3125 2.046875 -2.3125 C 2.585938 -2.3125 3.28125 -2.015625 4.125 -1.421875 C 4.851562 -0.890625 5.460938 -0.625 5.953125 -0.625 C 7.023438 -0.625 7.925781 -1.070312 8.65625 -1.96875 C 9.382812 -2.875 9.75 -3.984375 9.75 -5.296875 C 9.75 -6.640625 9.375 -7.75 8.625 -8.625 C 7.875 -9.5 6.71875 -10.191406 5.15625 -10.703125 C 4.007812 -11.066406 2.984375 -11.25 2.078125 -11.25 C 1.859375 -11.25 1.75 -11.320312 1.75 -11.46875 C 1.75 -11.519531 1.757812 -11.5625 1.78125 -11.59375 L 4.75 -18.078125 L 10.453125 -18.078125 C 10.742188 -18.078125 10.972656 -18.117188 11.140625 -18.203125 C 11.316406 -18.296875 11.503906 -18.488281 11.703125 -18.78125 Z M 11.953125 -18.59375 "/></g></g></g><g fill="#2a2214" fill-opacity="1"><g transform="translate(135.857865, 602.945286)"><g><path d="M 9.21875 -3.453125 C 9.21875 -2.328125 8.804688 -1.410156 7.984375 -0.703125 C 7.171875 -0.00390625 6.097656 0.34375 4.765625 0.34375 C 4.035156 0.34375 3.253906 0.195312 2.421875 -0.09375 C 2.054688 -0.207031 1.8125 -0.265625 1.6875 -0.265625 C 1.539062 -0.265625 1.425781 -0.21875 1.34375 -0.125 C 1.257812 -0.0390625 1.195312 0.113281 1.15625 0.34375 L 0.625 0.34375 L 0.625 -4.09375 L 1.15625 -4.09375 C 1.3125 -3.445312 1.460938 -2.941406 1.609375 -2.578125 C 1.753906 -2.222656 1.960938 -1.878906 2.234375 -1.546875 C 2.910156 -0.679688 3.769531 -0.25 4.8125 -0.25 C 5.507812 -0.25 6.0625 -0.429688 6.46875 -0.796875 C 6.875 -1.160156 7.078125 -1.65625 7.078125 -2.28125 C 7.078125 -2.757812 6.941406 -3.148438 6.671875 -3.453125 C 6.398438 -3.753906 5.867188 -4.085938 5.078125 -4.453125 L 3.859375 -5.03125 C 2.316406 -5.78125 1.359375 -6.628906 0.984375 -7.578125 C 0.859375 -7.941406 0.796875 -8.335938 0.796875 -8.765625 C 0.796875 -9.898438 1.144531 -10.789062 1.84375 -11.4375 C 2.539062 -12.09375 3.503906 -12.421875 4.734375 -12.421875 C 5.390625 -12.421875 6.085938 -12.285156 6.828125 -12.015625 C 7.191406 -11.890625 7.445312 -11.828125 7.59375 -11.828125 C 7.757812 -11.828125 7.878906 -11.867188 7.953125 -11.953125 C 8.035156 -12.035156 8.109375 -12.195312 8.171875 -12.4375 L 8.703125 -12.4375 L 8.703125 -8.546875 L 8.203125 -8.546875 C 8.023438 -9.128906 7.847656 -9.582031 7.671875 -9.90625 C 7.492188 -10.226562 7.25 -10.546875 6.9375 -10.859375 C 6.289062 -11.535156 5.554688 -11.875 4.734375 -11.875 C 4.117188 -11.875 3.632812 -11.710938 3.28125 -11.390625 C 2.925781 -11.066406 2.75 -10.628906 2.75 -10.078125 C 2.75 -9.628906 2.875 -9.265625 3.125 -8.984375 C 3.375 -8.710938 3.867188 -8.394531 4.609375 -8.03125 L 7.25 -6.71875 C 7.832031 -6.4375 8.304688 -5.988281 8.671875 -5.375 C 9.035156 -4.757812 9.21875 -4.117188 9.21875 -3.453125 Z M 9.21875 -3.453125 "/></g></g></g><g fill="#2a2214" fill-opacity="1"><g transform="translate(144.831846, 602.945286)"><g><path d="M 12.390625 0 L 6.5625 0 L 6.5625 -0.453125 L 7.140625 -0.5 C 7.453125 -0.507812 7.671875 -0.5625 7.796875 -0.65625 C 7.929688 -0.75 8 -0.894531 8 -1.09375 C 8 -1.445312 7.722656 -2.265625 7.171875 -3.546875 L 3.125 -3.546875 L 2.859375 -2.828125 C 2.515625 -1.960938 2.34375 -1.414062 2.34375 -1.1875 C 2.34375 -0.957031 2.453125 -0.785156 2.671875 -0.671875 C 2.898438 -0.554688 3.28125 -0.484375 3.8125 -0.453125 L 3.8125 0 L 0.15625 0 L 0.15625 -0.453125 C 0.59375 -0.535156 0.910156 -0.695312 1.109375 -0.9375 C 1.316406 -1.175781 1.585938 -1.710938 1.921875 -2.546875 L 5.921875 -12.40625 L 6.421875 -12.40625 L 10.4375 -2.953125 C 10.914062 -1.828125 11.257812 -1.128906 11.46875 -0.859375 C 11.6875 -0.585938 11.992188 -0.453125 12.390625 -0.453125 Z M 6.90625 -4.25 L 5.09375 -8.609375 L 3.40625 -4.25 Z M 6.90625 -4.25 "/></g></g></g><g fill="#2a2214" fill-opacity="1"><g transform="translate(156.791153, 602.945286)"><g><path d="M 11.125 -3.375 C 11.125 -2.363281 10.660156 -1.546875 9.734375 -0.921875 C 8.816406 -0.304688 7.597656 0 6.078125 0 L 0.28125 0 L 0.28125 -0.453125 C 0.945312 -0.523438 1.378906 -0.640625 1.578125 -0.796875 C 1.773438 -0.960938 1.875 -1.269531 1.875 -1.71875 L 1.875 -10.4375 C 1.875 -10.882812 1.765625 -11.195312 1.546875 -11.375 C 1.328125 -11.5625 0.90625 -11.671875 0.28125 -11.703125 L 0.28125 -12.15625 L 5.84375 -12.15625 C 7.34375 -12.15625 8.492188 -11.90625 9.296875 -11.40625 C 10.109375 -10.914062 10.515625 -10.207031 10.515625 -9.28125 C 10.515625 -8.59375 10.296875 -8.039062 9.859375 -7.625 C 9.429688 -7.21875 8.695312 -6.863281 7.65625 -6.5625 C 8.757812 -6.320312 9.59375 -5.960938 10.15625 -5.484375 C 10.800781 -4.910156 11.125 -4.207031 11.125 -3.375 Z M 8.03125 -3.21875 C 8.03125 -5.1875 7.113281 -6.171875 5.28125 -6.171875 L 4.75 -6.171875 L 4.75 -1.671875 C 4.75 -1.273438 4.832031 -0.992188 5 -0.828125 C 5.164062 -0.660156 5.445312 -0.578125 5.84375 -0.578125 C 7.300781 -0.578125 8.03125 -1.457031 8.03125 -3.21875 Z M 7.546875 -9.15625 C 7.546875 -10.007812 7.394531 -10.632812 7.09375 -11.03125 C 6.800781 -11.425781 6.34375 -11.625 5.71875 -11.625 C 5.375 -11.625 5.125 -11.554688 4.96875 -11.421875 C 4.820312 -11.285156 4.75 -11.054688 4.75 -10.734375 L 4.75 -6.703125 C 5.851562 -6.734375 6.59375 -6.910156 6.96875 -7.234375 C 7.351562 -7.566406 7.546875 -8.207031 7.546875 -9.15625 Z M 7.546875 -9.15625 "/></g></g></g><g fill="#2a2214" fill-opacity="1"><g transform="translate(167.761346, 602.945286)"><g><path d="M 12.390625 0 L 6.5625 0 L 6.5625 -0.453125 L 7.140625 -0.5 C 7.453125 -0.507812 7.671875 -0.5625 7.796875 -0.65625 C 7.929688 -0.75 8 -0.894531 8 -1.09375 C 8 -1.445312 7.722656 -2.265625 7.171875 -3.546875 L 3.125 -3.546875 L 2.859375 -2.828125 C 2.515625 -1.960938 2.34375 -1.414062 2.34375 -1.1875 C 2.34375 -0.957031 2.453125 -0.785156 2.671875 -0.671875 C 2.898438 -0.554688 3.28125 -0.484375 3.8125 -0.453125 L 3.8125 0 L 0.15625 0 L 0.15625 -0.453125 C 0.59375 -0.535156 0.910156 -0.695312 1.109375 -0.9375 C 1.316406 -1.175781 1.585938 -1.710938 1.921875 -2.546875 L 5.921875 -12.40625 L 6.421875 -12.40625 L 10.4375 -2.953125 C 10.914062 -1.828125 11.257812 -1.128906 11.46875 -0.859375 C 11.6875 -0.585938 11.992188 -0.453125 12.390625 -0.453125 Z M 6.90625 -4.25 L 5.09375 -8.609375 L 3.40625 -4.25 Z M 6.90625 -4.25 "/></g></g></g><g fill="#2a2214" fill-opacity="1"><g transform="translate(179.720652, 602.945286)"><g><path d="M 10.625 -10.578125 C 11.8125 -9.523438 12.40625 -8.066406 12.40625 -6.203125 C 12.40625 -4.347656 11.8125 -2.847656 10.625 -1.703125 C 9.4375 -0.566406 7.875 0 5.9375 0 L 0.25 0 L 0.25 -0.453125 C 0.769531 -0.460938 1.148438 -0.5625 1.390625 -0.75 C 1.628906 -0.945312 1.75 -1.242188 1.75 -1.640625 L 1.75 -10.5 C 1.75 -10.90625 1.640625 -11.191406 1.421875 -11.359375 C 1.210938 -11.535156 0.820312 -11.648438 0.25 -11.703125 L 0.25 -12.15625 L 5.734375 -12.15625 C 7.804688 -12.15625 9.4375 -11.628906 10.625 -10.578125 Z M 9.28125 -5.9375 C 9.28125 -7.488281 9.035156 -8.75 8.546875 -9.71875 C 7.941406 -10.9375 7 -11.546875 5.71875 -11.546875 C 5.007812 -11.546875 4.65625 -11.335938 4.65625 -10.921875 L 4.65625 -1.671875 C 4.65625 -1.265625 4.726562 -0.988281 4.875 -0.84375 C 5.019531 -0.695312 5.296875 -0.625 5.703125 -0.625 C 6.847656 -0.625 7.726562 -1.039062 8.34375 -1.875 C 8.96875 -2.75 9.28125 -4.101562 9.28125 -5.9375 Z M 9.28125 -5.9375 "/></g></g></g><g fill="#2a2214" fill-opacity="1"><g transform="translate(191.679961, 602.945286)"><g><path d="M 13.359375 -6.046875 C 13.359375 -4.179688 12.757812 -2.648438 11.5625 -1.453125 C 10.375 -0.253906 8.847656 0.34375 6.984375 0.34375 C 5.128906 0.34375 3.601562 -0.25 2.40625 -1.4375 C 1.21875 -2.632812 0.625 -4.164062 0.625 -6.03125 C 0.625 -7.894531 1.226562 -9.425781 2.4375 -10.625 C 3.644531 -11.820312 5.1875 -12.421875 7.0625 -12.421875 C 8.875 -12.421875 10.375 -11.816406 11.5625 -10.609375 C 12.757812 -9.398438 13.359375 -7.878906 13.359375 -6.046875 Z M 10.171875 -5.921875 C 10.171875 -7.785156 9.898438 -9.234375 9.359375 -10.265625 C 8.816406 -11.304688 8.046875 -11.828125 7.046875 -11.828125 C 5.992188 -11.828125 5.191406 -11.316406 4.640625 -10.296875 C 4.085938 -9.285156 3.8125 -7.804688 3.8125 -5.859375 C 3.8125 -4.035156 4.082031 -2.644531 4.625 -1.6875 C 5.175781 -0.726562 5.96875 -0.25 7 -0.25 C 8.03125 -0.25 8.816406 -0.726562 9.359375 -1.6875 C 9.898438 -2.65625 10.171875 -4.066406 10.171875 -5.921875 Z M 10.171875 -5.921875 "/></g></g></g><g fill="#2a2214" fill-opacity="1"><g transform="translate(380.792901, 602.945286)"><g><path d="M 8.59375 -3.796875 L 7.78125 0 L 0.3125 0 L 0.3125 -0.40625 C 1.613281 -1.800781 2.519531 -2.800781 3.03125 -3.40625 C 3.539062 -4.007812 4.023438 -4.664062 4.484375 -5.375 C 5.085938 -6.3125 5.390625 -7.195312 5.390625 -8.03125 C 5.390625 -8.476562 5.269531 -8.910156 5.03125 -9.328125 C 4.625 -9.992188 4.03125 -10.328125 3.25 -10.328125 C 2.332031 -10.328125 1.601562 -9.785156 1.0625 -8.703125 L 0.5625 -8.703125 C 0.8125 -9.378906 1.046875 -9.90625 1.265625 -10.28125 C 1.484375 -10.65625 1.769531 -11.015625 2.125 -11.359375 C 2.769531 -12.035156 3.566406 -12.375 4.515625 -12.375 C 5.484375 -12.375 6.28125 -12.0625 6.90625 -11.4375 C 7.53125 -10.820312 7.84375 -10.035156 7.84375 -9.078125 C 7.84375 -7.765625 7.160156 -6.457031 5.796875 -5.15625 L 2.875 -2.390625 L 5.59375 -2.390625 C 6.519531 -2.390625 7.113281 -2.460938 7.375 -2.609375 C 7.632812 -2.753906 7.898438 -3.148438 8.171875 -3.796875 Z M 8.59375 -3.796875 "/></g></g></g><g fill="#2a2214" fill-opacity="1"><g transform="translate(388.759783, 602.945286)"><g><path d="M 7.953125 0 L 1.203125 0 L 1.203125 -0.4375 C 2.085938 -0.445312 2.664062 -0.5625 2.9375 -0.78125 C 3.207031 -1 3.34375 -1.484375 3.34375 -2.234375 L 3.34375 -9.15625 C 3.34375 -9.976562 3.128906 -10.390625 2.703125 -10.390625 C 2.472656 -10.390625 2.082031 -10.289062 1.53125 -10.09375 C 1.476562 -10.050781 1.359375 -10.003906 1.171875 -9.953125 L 1.171875 -10.40625 L 5.703125 -12.375 L 6 -12.375 L 6 -2.125 C 6 -1.425781 6.117188 -0.972656 6.359375 -0.765625 C 6.597656 -0.554688 7.128906 -0.445312 7.953125 -0.4375 Z M 7.953125 0 "/></g></g></g><g fill="#2a2214" fill-opacity="1"><g transform="translate(396.726666, 602.945286)"><g><path d="M 4.0625 -2.34375 C 4.363281 -2.039062 4.515625 -1.675781 4.515625 -1.25 C 4.515625 -0.832031 4.363281 -0.476562 4.0625 -0.1875 C 3.757812 0.09375 3.394531 0.234375 2.96875 0.234375 C 2.550781 0.234375 2.195312 0.0859375 1.90625 -0.203125 C 1.613281 -0.492188 1.46875 -0.859375 1.46875 -1.296875 C 1.46875 -1.703125 1.617188 -2.054688 1.921875 -2.359375 C 2.222656 -2.660156 2.578125 -2.8125 2.984375 -2.8125 C 3.398438 -2.8125 3.757812 -2.65625 4.0625 -2.34375 Z M 4.0625 -8.03125 C 4.363281 -7.738281 4.515625 -7.378906 4.515625 -6.953125 C 4.515625 -6.535156 4.363281 -6.179688 4.0625 -5.890625 C 3.757812 -5.597656 3.398438 -5.453125 2.984375 -5.453125 C 2.554688 -5.453125 2.195312 -5.597656 1.90625 -5.890625 C 1.613281 -6.179688 1.46875 -6.550781 1.46875 -7 C 1.46875 -7.40625 1.617188 -7.753906 1.921875 -8.046875 C 2.222656 -8.335938 2.578125 -8.484375 2.984375 -8.484375 C 3.398438 -8.484375 3.757812 -8.332031 4.0625 -8.03125 Z M 4.0625 -8.03125 "/></g></g></g><g fill="#2a2214" fill-opacity="1"><g transform="translate(401.690226, 602.945286)"><g><path d="M 8.5625 -6.0625 C 8.5625 -4.25 8.175781 -2.742188 7.40625 -1.546875 C 6.644531 -0.359375 5.679688 0.234375 4.515625 0.234375 C 3.316406 0.234375 2.335938 -0.359375 1.578125 -1.546875 C 0.816406 -2.734375 0.4375 -4.253906 0.4375 -6.109375 C 0.4375 -6.859375 0.523438 -7.617188 0.703125 -8.390625 C 0.878906 -9.160156 1.113281 -9.789062 1.40625 -10.28125 C 1.769531 -10.9375 2.226562 -11.445312 2.78125 -11.8125 C 3.332031 -12.1875 3.90625 -12.375 4.5 -12.375 C 5.65625 -12.375 6.617188 -11.769531 7.390625 -10.5625 C 8.171875 -9.363281 8.5625 -7.863281 8.5625 -6.0625 Z M 5.71875 -4 L 5.71875 -8.109375 C 5.71875 -9.441406 5.617188 -10.398438 5.421875 -10.984375 C 5.234375 -11.578125 4.921875 -11.875 4.484375 -11.875 C 4.046875 -11.875 3.734375 -11.582031 3.546875 -11 C 3.359375 -10.425781 3.265625 -9.460938 3.265625 -8.109375 L 3.265625 -4 C 3.265625 -2.664062 3.359375 -1.707031 3.546875 -1.125 C 3.742188 -0.550781 4.066406 -0.265625 4.515625 -0.265625 C 4.921875 -0.265625 5.21875 -0.523438 5.40625 -1.046875 C 5.613281 -1.648438 5.71875 -2.632812 5.71875 -4 Z M 5.71875 -4 "/></g></g></g><g fill="#2a2214" fill-opacity="1"><g transform="translate(409.657108, 602.945286)"><g><path d="M 8.5625 -6.0625 C 8.5625 -4.25 8.175781 -2.742188 7.40625 -1.546875 C 6.644531 -0.359375 5.679688 0.234375 4.515625 0.234375 C 3.316406 0.234375 2.335938 -0.359375 1.578125 -1.546875 C 0.816406 -2.734375 0.4375 -4.253906 0.4375 -6.109375 C 0.4375 -6.859375 0.523438 -7.617188 0.703125 -8.390625 C 0.878906 -9.160156 1.113281 -9.789062 1.40625 -10.28125 C 1.769531 -10.9375 2.226562 -11.445312 2.78125 -11.8125 C 3.332031 -12.1875 3.90625 -12.375 4.5 -12.375 C 5.65625 -12.375 6.617188 -11.769531 7.390625 -10.5625 C 8.171875 -9.363281 8.5625 -7.863281 8.5625 -6.0625 Z M 5.71875 -4 L 5.71875 -8.109375 C 5.71875 -9.441406 5.617188 -10.398438 5.421875 -10.984375 C 5.234375 -11.578125 4.921875 -11.875 4.484375 -11.875 C 4.046875 -11.875 3.734375 -11.582031 3.546875 -11 C 3.359375 -10.425781 3.265625 -9.460938 3.265625 -8.109375 L 3.265625 -4 C 3.265625 -2.664062 3.359375 -1.707031 3.546875 -1.125 C 3.742188 -0.550781 4.066406 -0.265625 4.515625 -0.265625 C 4.921875 -0.265625 5.21875 -0.523438 5.40625 -1.046875 C 5.613281 -1.648438 5.71875 -2.632812 5.71875 -4 Z M 5.71875 -4 "/></g></g></g><g fill="#2a2214" fill-opacity="1"><g transform="translate(417.62399, 602.945286)"><g><path d="M 13.65625 0 L 7.53125 0 L 7.53125 -0.453125 C 8.195312 -0.523438 8.632812 -0.644531 8.84375 -0.8125 C 9.050781 -0.976562 9.15625 -1.28125 9.15625 -1.71875 L 9.15625 -5.859375 L 4.8125 -5.859375 L 4.8125 -1.71875 C 4.8125 -1.28125 4.914062 -0.976562 5.125 -0.8125 C 5.34375 -0.644531 5.78125 -0.523438 6.4375 -0.453125 L 6.4375 0 L 0.375 0 L 0.375 -0.453125 C 1 -0.535156 1.410156 -0.65625 1.609375 -0.8125 C 1.804688 -0.976562 1.90625 -1.28125 1.90625 -1.71875 L 1.90625 -10.4375 C 1.90625 -10.875 1.800781 -11.179688 1.59375 -11.359375 C 1.382812 -11.535156 0.976562 -11.648438 0.375 -11.703125 L 0.375 -12.15625 L 6.4375 -12.15625 L 6.4375 -11.703125 C 5.8125 -11.660156 5.382812 -11.550781 5.15625 -11.375 C 4.925781 -11.195312 4.8125 -10.882812 4.8125 -10.4375 L 4.8125 -6.703125 L 9.15625 -6.703125 L 9.15625 -10.4375 C 9.15625 -10.882812 9.039062 -11.195312 8.8125 -11.375 C 8.582031 -11.550781 8.15625 -11.660156 7.53125 -11.703125 L 7.53125 -12.15625 L 13.65625 -12.15625 L 13.65625 -11.703125 C 13.039062 -11.660156 12.617188 -11.546875 12.390625 -11.359375 C 12.171875 -11.179688 12.0625 -10.875 12.0625 -10.4375 L 12.0625 -1.71875 C 12.0625 -1.28125 12.160156 -0.976562 12.359375 -0.8125 C 12.566406 -0.65625 13 -0.535156 13.65625 -0.453125 Z M 13.65625 0 "/></g></g></g><g fill="#2a2214" fill-opacity="1"><g transform="translate(430.590406, 602.945286)"><g><path d="M 12.859375 0 L 9.171875 0 L 5.453125 -5.625 L 4.96875 -5.625 L 4.96875 -2.109375 C 4.96875 -1.472656 5.054688 -1.054688 5.234375 -0.859375 C 5.410156 -0.671875 5.847656 -0.535156 6.546875 -0.453125 L 6.546875 0 L 0.46875 0 L 0.46875 -0.453125 C 1.175781 -0.535156 1.613281 -0.664062 1.78125 -0.84375 C 1.957031 -1.019531 2.046875 -1.441406 2.046875 -2.109375 L 2.046875 -10.046875 C 2.046875 -10.703125 1.945312 -11.128906 1.75 -11.328125 C 1.550781 -11.535156 1.125 -11.660156 0.46875 -11.703125 L 0.46875 -12.15625 L 6.265625 -12.15625 C 7.898438 -12.15625 9.148438 -11.878906 10.015625 -11.328125 C 10.890625 -10.773438 11.328125 -9.984375 11.328125 -8.953125 C 11.328125 -8.117188 11.054688 -7.445312 10.515625 -6.9375 C 10.078125 -6.539062 9.40625 -6.203125 8.5 -5.921875 L 12.125 -0.796875 C 12.300781 -0.566406 12.546875 -0.453125 12.859375 -0.453125 Z M 8.25 -8.890625 C 8.25 -9.835938 8.066406 -10.515625 7.703125 -10.921875 C 7.347656 -11.335938 6.757812 -11.546875 5.9375 -11.546875 C 5.476562 -11.546875 5.195312 -11.457031 5.09375 -11.28125 C 5.007812 -11.113281 4.96875 -10.953125 4.96875 -10.796875 L 4.96875 -6.203125 C 6.164062 -6.210938 6.976562 -6.363281 7.40625 -6.65625 C 7.96875 -7.03125 8.25 -7.773438 8.25 -8.890625 Z M 8.25 -8.890625 "/></g></g></g><g fill="#2a2214" fill-opacity="1"><g transform="translate(442.54971, 602.945286)"><g><path d="M 9.21875 -3.453125 C 9.21875 -2.328125 8.804688 -1.410156 7.984375 -0.703125 C 7.171875 -0.00390625 6.097656 0.34375 4.765625 0.34375 C 4.035156 0.34375 3.253906 0.195312 2.421875 -0.09375 C 2.054688 -0.207031 1.8125 -0.265625 1.6875 -0.265625 C 1.539062 -0.265625 1.425781 -0.21875 1.34375 -0.125 C 1.257812 -0.0390625 1.195312 0.113281 1.15625 0.34375 L 0.625 0.34375 L 0.625 -4.09375 L 1.15625 -4.09375 C 1.3125 -3.445312 1.460938 -2.941406 1.609375 -2.578125 C 1.753906 -2.222656 1.960938 -1.878906 2.234375 -1.546875 C 2.910156 -0.679688 3.769531 -0.25 4.8125 -0.25 C 5.507812 -0.25 6.0625 -0.429688 6.46875 -0.796875 C 6.875 -1.160156 7.078125 -1.65625 7.078125 -2.28125 C 7.078125 -2.757812 6.941406 -3.148438 6.671875 -3.453125 C 6.398438 -3.753906 5.867188 -4.085938 5.078125 -4.453125 L 3.859375 -5.03125 C 2.316406 -5.78125 1.359375 -6.628906 0.984375 -7.578125 C 0.859375 -7.941406 0.796875 -8.335938 0.796875 -8.765625 C 0.796875 -9.898438 1.144531 -10.789062 1.84375 -11.4375 C 2.539062 -12.09375 3.503906 -12.421875 4.734375 -12.421875 C 5.390625 -12.421875 6.085938 -12.285156 6.828125 -12.015625 C 7.191406 -11.890625 7.445312 -11.828125 7.59375 -11.828125 C 7.757812 -11.828125 7.878906 -11.867188 7.953125 -11.953125 C 8.035156 -12.035156 8.109375 -12.195312 8.171875 -12.4375 L 8.703125 -12.4375 L 8.703125 -8.546875 L 8.203125 -8.546875 C 8.023438 -9.128906 7.847656 -9.582031 7.671875 -9.90625 C 7.492188 -10.226562 7.25 -10.546875 6.9375 -10.859375 C 6.289062 -11.535156 5.554688 -11.875 4.734375 -11.875 C 4.117188 -11.875 3.632812 -11.710938 3.28125 -11.390625 C 2.925781 -11.066406 2.75 -10.628906 2.75 -10.078125 C 2.75 -9.628906 2.875 -9.265625 3.125 -8.984375 C 3.375 -8.710938 3.867188 -8.394531 4.609375 -8.03125 L 7.25 -6.71875 C 7.832031 -6.4375 8.304688 -5.988281 8.671875 -5.375 C 9.035156 -4.757812 9.21875 -4.117188 9.21875 -3.453125 Z M 9.21875 -3.453125 "/></g></g></g></svg>