<svg xmlns="http://www.w3.org/2000/svg" xmlns:xlink="http://www.w3.org/1999/xlink" width="500" zoomAndPan="magnify" viewBox="0 0 375 374.999991" height="500" preserveAspectRatio="xMidYMid meet" version="1.0"><defs><clipPath id="7c30dc7efd"><path d="M 90.183594 80.386719 L 285 80.386719 L 285 320.386719 L 90.183594 320.386719 Z M 90.183594 80.386719 " clip-rule="nonzero"/></clipPath></defs><g clip-path="url(#7c30dc7efd)"><path fill="#f89d76" d="M 170.335938 97.550781 L 170.335938 303.507812 C 170.335938 304.070312 170.304688 304.628906 170.25 305.1875 C 170.195312 305.75 170.113281 306.304688 170.003906 306.855469 C 169.894531 307.40625 169.757812 307.949219 169.59375 308.488281 C 169.433594 309.027344 169.242188 309.554688 169.027344 310.074219 C 168.8125 310.59375 168.574219 311.101562 168.308594 311.597656 C 168.042969 312.09375 167.753906 312.574219 167.441406 313.042969 C 167.128906 313.507812 166.792969 313.960938 166.4375 314.394531 C 166.082031 314.828125 165.703125 315.246094 165.308594 315.640625 C 164.910156 316.039062 164.492188 316.417969 164.058594 316.773438 C 163.625 317.128906 163.171875 317.464844 162.707031 317.777344 C 162.238281 318.089844 161.757812 318.378906 161.261719 318.644531 C 160.765625 318.90625 160.257812 319.148438 159.738281 319.363281 C 159.21875 319.578125 158.691406 319.765625 158.152344 319.929688 C 157.617188 320.09375 157.070312 320.230469 156.519531 320.339844 C 155.96875 320.449219 155.414062 320.53125 154.851562 320.585938 C 154.292969 320.640625 153.734375 320.667969 153.171875 320.667969 L 107.402344 320.667969 C 106.839844 320.667969 106.28125 320.640625 105.722656 320.585938 C 105.160156 320.53125 104.605469 320.449219 104.054688 320.339844 C 103.503906 320.230469 102.960938 320.09375 102.421875 319.929688 C 101.882812 319.765625 101.355469 319.578125 100.835938 319.363281 C 100.316406 319.148438 99.808594 318.90625 99.3125 318.644531 C 98.816406 318.378906 98.335938 318.089844 97.867188 317.777344 C 97.402344 317.464844 96.949219 317.128906 96.515625 316.773438 C 96.082031 316.417969 95.664062 316.039062 95.265625 315.640625 C 94.871094 315.246094 94.492188 314.828125 94.136719 314.394531 C 93.78125 313.960938 93.445312 313.507812 93.132812 313.042969 C 92.820312 312.574219 92.53125 312.09375 92.265625 311.597656 C 92.003906 311.101562 91.761719 310.59375 91.546875 310.074219 C 91.332031 309.554688 91.140625 309.027344 90.980469 308.488281 C 90.816406 307.949219 90.679688 307.40625 90.570312 306.855469 C 90.460938 306.304688 90.378906 305.75 90.324219 305.1875 C 90.269531 304.628906 90.242188 304.070312 90.242188 303.507812 L 90.242188 97.550781 C 90.242188 96.988281 90.269531 96.429688 90.324219 95.867188 C 90.378906 95.308594 90.460938 94.753906 90.570312 94.203125 C 90.679688 93.652344 90.816406 93.105469 90.980469 92.570312 C 91.140625 92.03125 91.332031 91.503906 91.546875 90.984375 C 91.761719 90.464844 92.003906 89.957031 92.265625 89.460938 C 92.53125 88.964844 92.820312 88.484375 93.132812 88.015625 C 93.445312 87.546875 93.78125 87.097656 94.136719 86.664062 C 94.492188 86.230469 94.871094 85.8125 95.265625 85.414062 C 95.664062 85.019531 96.082031 84.640625 96.515625 84.285156 C 96.949219 83.925781 97.402344 83.59375 97.867188 83.28125 C 98.335938 82.96875 98.816406 82.679688 99.3125 82.414062 C 99.808594 82.148438 100.316406 81.910156 100.835938 81.695312 C 101.355469 81.480469 101.882812 81.289062 102.421875 81.128906 C 102.960938 80.964844 103.503906 80.828125 104.054688 80.71875 C 104.605469 80.609375 105.160156 80.527344 105.722656 80.472656 C 106.28125 80.414062 106.839844 80.386719 107.402344 80.386719 L 153.171875 80.386719 C 153.734375 80.386719 154.292969 80.414062 154.851562 80.472656 C 155.414062 80.527344 155.96875 80.609375 156.519531 80.71875 C 157.070312 80.828125 157.617188 80.964844 158.152344 81.128906 C 158.691406 81.289062 159.21875 81.480469 159.738281 81.695312 C 160.257812 81.910156 160.765625 82.148438 161.261719 82.414062 C 161.757812 82.679688 162.238281 82.96875 162.707031 83.28125 C 163.171875 83.59375 163.625 83.925781 164.058594 84.285156 C 164.492188 84.640625 164.910156 85.019531 165.308594 85.414062 C 165.703125 85.8125 166.082031 86.230469 166.4375 86.664062 C 166.792969 87.097656 167.128906 87.546875 167.441406 88.015625 C 167.753906 88.484375 168.042969 88.964844 168.308594 89.460938 C 168.574219 89.957031 168.8125 90.464844 169.027344 90.984375 C 169.242188 91.503906 169.433594 92.03125 169.59375 92.570312 C 169.757812 93.105469 169.894531 93.652344 170.003906 94.203125 C 170.113281 94.753906 170.195312 95.308594 170.25 95.867188 C 170.304688 96.429688 170.335938 96.988281 170.335938 97.550781 Z M 267.589844 80.386719 L 221.824219 80.386719 C 221.261719 80.386719 220.699219 80.414062 220.140625 80.472656 C 219.582031 80.527344 219.027344 80.609375 218.476562 80.71875 C 217.921875 80.828125 217.378906 80.964844 216.839844 81.128906 C 216.304688 81.289062 215.773438 81.480469 215.253906 81.695312 C 214.734375 81.910156 214.226562 82.148438 213.730469 82.414062 C 213.238281 82.679688 212.753906 82.96875 212.289062 83.28125 C 211.820312 83.59375 211.371094 83.925781 210.933594 84.285156 C 210.5 84.640625 210.085938 85.019531 209.6875 85.414062 C 209.289062 85.8125 208.914062 86.230469 208.554688 86.664062 C 208.199219 87.097656 207.863281 87.546875 207.550781 88.015625 C 207.238281 88.484375 206.953125 88.964844 206.6875 89.460938 C 206.421875 89.957031 206.179688 90.464844 205.964844 90.984375 C 205.75 91.503906 205.5625 92.03125 205.398438 92.570312 C 205.234375 93.105469 205.097656 93.652344 204.988281 94.203125 C 204.878906 94.753906 204.796875 95.308594 204.742188 95.867188 C 204.6875 96.429688 204.660156 96.988281 204.660156 97.550781 L 204.660156 303.507812 C 204.660156 304.070312 204.6875 304.628906 204.742188 305.1875 C 204.796875 305.75 204.878906 306.304688 204.988281 306.855469 C 205.097656 307.40625 205.234375 307.949219 205.398438 308.488281 C 205.5625 309.027344 205.75 309.554688 205.964844 310.074219 C 206.179688 310.59375 206.421875 311.101562 206.6875 311.597656 C 206.953125 312.09375 207.238281 312.574219 207.550781 313.042969 C 207.863281 313.507812 208.199219 313.960938 208.554688 314.394531 C 208.914062 314.828125 209.289062 315.246094 209.6875 315.640625 C 210.085938 316.039062 210.5 316.417969 210.933594 316.773438 C 211.371094 317.128906 211.820312 317.464844 212.289062 317.777344 C 212.753906 318.089844 213.238281 318.378906 213.730469 318.644531 C 214.226562 318.90625 214.734375 319.148438 215.253906 319.363281 C 215.773438 319.578125 216.304688 319.765625 216.839844 319.929688 C 217.378906 320.09375 217.921875 320.230469 218.472656 320.339844 C 219.027344 320.449219 219.582031 320.53125 220.140625 320.585938 C 220.699219 320.640625 221.261719 320.667969 221.824219 320.667969 L 267.589844 320.667969 C 268.152344 320.667969 268.714844 320.640625 269.273438 320.585938 C 269.832031 320.53125 270.386719 320.449219 270.9375 320.339844 C 271.492188 320.230469 272.035156 320.09375 272.574219 319.929688 C 273.109375 319.765625 273.640625 319.578125 274.160156 319.363281 C 274.679688 319.148438 275.1875 318.90625 275.679688 318.644531 C 276.175781 318.378906 276.660156 318.089844 277.125 317.777344 C 277.59375 317.464844 278.042969 317.128906 278.480469 316.773438 C 278.914062 316.417969 279.328125 316.039062 279.726562 315.640625 C 280.125 315.246094 280.5 314.828125 280.859375 314.394531 C 281.214844 313.960938 281.550781 313.507812 281.859375 313.042969 C 282.171875 312.574219 282.460938 312.09375 282.726562 311.597656 C 282.992188 311.101562 283.230469 310.59375 283.449219 310.074219 C 283.664062 309.554688 283.851562 309.027344 284.015625 308.488281 C 284.179688 307.949219 284.3125 307.40625 284.425781 306.855469 C 284.535156 306.304688 284.617188 305.75 284.671875 305.1875 C 284.726562 304.628906 284.753906 304.070312 284.753906 303.507812 L 284.753906 97.550781 C 284.753906 96.988281 284.726562 96.429688 284.671875 95.867188 C 284.617188 95.308594 284.535156 94.753906 284.425781 94.203125 C 284.3125 93.652344 284.179688 93.105469 284.015625 92.570312 C 283.851562 92.03125 283.664062 91.503906 283.449219 90.984375 C 283.230469 90.464844 282.992188 89.957031 282.726562 89.460938 C 282.460938 88.964844 282.171875 88.484375 281.859375 88.015625 C 281.550781 87.546875 281.214844 87.097656 280.859375 86.664062 C 280.5 86.230469 280.125 85.8125 279.726562 85.414062 C 279.328125 85.019531 278.914062 84.640625 278.480469 84.285156 C 278.042969 83.925781 277.59375 83.59375 277.125 83.28125 C 276.660156 82.96875 276.175781 82.679688 275.679688 82.414062 C 275.1875 82.148438 274.679688 81.910156 274.160156 81.695312 C 273.640625 81.480469 273.109375 81.289062 272.574219 81.128906 C 272.035156 80.964844 271.492188 80.828125 270.9375 80.71875 C 270.386719 80.609375 269.832031 80.527344 269.273438 80.472656 C 268.714844 80.414062 268.152344 80.386719 267.589844 80.386719 Z M 267.589844 80.386719 " fill-opacity="1" fill-rule="nonzero"/></g></svg>