<svg xmlns="http://www.w3.org/2000/svg" xmlns:xlink="http://www.w3.org/1999/xlink" width="500" zoomAndPan="magnify" viewBox="0 0 375 374.999991" height="500" preserveAspectRatio="xMidYMid meet" version="1.0"><defs><clipPath id="16e81abc3e"><path d="M 74.011719 38 L 301.261719 38 L 301.261719 317 L 74.011719 317 Z M 74.011719 38 " clip-rule="nonzero"/></clipPath></defs><rect x="-37.5" width="450" fill="#ffffff" y="-37.499999" height="449.999989" fill-opacity="1"/><rect x="-37.5" width="450" fill="#ffffff" y="-37.499999" height="449.999989" fill-opacity="1"/><g clip-path="url(#16e81abc3e)"><path fill="#000000" d="M 249.730469 62.683594 C 252.859375 63.074219 255.011719 63.660156 257.355469 63.660156 C 265.960938 63.660156 273.785156 66.390625 281.609375 68.929688 C 285.128906 70.101562 286.886719 72.25 287.671875 75.566406 C 289.429688 82.984375 291.191406 90.40625 292.558594 97.824219 C 294.125 105.828125 295.6875 113.832031 296.863281 121.835938 C 297.839844 128.863281 298.425781 135.890625 299.011719 142.917969 C 299.601562 148.773438 300.1875 154.4375 300.773438 160.292969 C 300.96875 162.441406 301.164062 164.589844 301.164062 166.734375 C 300.773438 172.398438 297.644531 175.324219 291.972656 175.714844 C 290.210938 175.910156 288.453125 175.910156 286.691406 175.910156 C 285.128906 175.910156 283.5625 175.910156 281.609375 175.910156 C 280.628906 180.792969 282.585938 187.039062 275.542969 188.015625 C 276.132812 195.628906 277.109375 202.851562 277.304688 210.074219 C 277.695312 218.46875 277.5 226.667969 277.695312 235.0625 C 277.890625 243.847656 278.28125 252.632812 278.28125 261.613281 C 278.28125 272.933594 277.890625 284.257812 277.5 295.386719 C 277.5 297.53125 276.71875 299.875 275.742188 302.023438 C 273.980469 306.121094 269.875 308.269531 264.789062 307.878906 C 261.855469 307.683594 258.726562 307.097656 255.792969 306.511719 C 251.882812 305.535156 247.96875 304.5625 243.863281 305.730469 C 241.710938 306.316406 238.972656 305.339844 236.625 304.949219 C 235.84375 304.757812 235.257812 304.367188 234.671875 304.171875 C 232.324219 303.585938 229.195312 304.757812 227.828125 302.21875 C 226.261719 299.09375 224.894531 295.777344 224.109375 292.457031 C 223.328125 289.136719 223.328125 285.820312 223.328125 282.5 C 222.9375 256.535156 222.546875 230.378906 222.15625 204.414062 C 222.15625 200.898438 222.546875 197.386719 222.546875 193.871094 C 222.546875 190.355469 220.980469 185.28125 219.417969 182.546875 C 218.046875 180.207031 216.09375 179.230469 213.355469 179.425781 C 210.617188 179.621094 207.683594 179.816406 204.945312 179.621094 C 199.664062 179.035156 196.730469 175.910156 197.316406 170.640625 C 197.902344 163.222656 199.078125 156 200.054688 148.582031 C 200.835938 141.941406 201.425781 135.304688 202.207031 128.472656 C 203.378906 117.734375 204.164062 107 205.53125 96.261719 C 206.3125 90.210938 208.269531 84.15625 212.375 79.277344 C 213.941406 77.324219 216.09375 75.175781 218.242188 74.007812 C 225.285156 70.492188 231.347656 64.636719 239.953125 65.222656 C 240.734375 65.222656 241.515625 64.636719 242.492188 64.050781 C 242.886719 57.804688 246.210938 53.117188 250.511719 48.238281 C 248.554688 47.066406 246.992188 46.089844 245.425781 45.308594 C 244.058594 44.722656 242.6875 44.722656 241.320312 44.332031 C 239.363281 43.550781 238.972656 41.601562 240.734375 40.234375 C 241.125 39.84375 241.515625 39.648438 242.101562 39.453125 C 246.992188 37.5 256.769531 41.015625 257.75 47.652344 C 258.140625 50.773438 257.355469 53.117188 255.402344 55.460938 C 253.445312 57.21875 251.882812 59.753906 249.730469 62.683594 Z M 233.691406 296.75 C 239.167969 297.726562 243.472656 299.289062 247.578125 297.335938 C 247.578125 294.996094 247.578125 293.238281 247.578125 291.480469 C 247.773438 281.328125 247.96875 271.375 247.96875 261.222656 C 248.164062 241.699219 248.164062 221.984375 248.164062 202.265625 C 248.164062 199.726562 248.554688 197.386719 249.144531 194.847656 C 249.339844 194.066406 250.511719 193.089844 251.292969 192.894531 C 252.078125 192.699219 253.445312 193.480469 253.835938 194.066406 C 254.421875 195.238281 254.816406 196.800781 254.816406 198.164062 C 255.207031 205.78125 255.402344 213.394531 255.597656 221.007812 C 255.792969 233.304688 255.988281 245.800781 256.183594 258.097656 C 256.183594 264.148438 256.378906 270.398438 256.183594 276.449219 C 255.988281 283.671875 255.402344 290.894531 255.011719 298.3125 C 256.769531 298.507812 258.53125 298.898438 260.289062 299.09375 C 268.699219 299.875 269.285156 299.484375 269.480469 290.894531 C 269.875 273.324219 270.265625 255.949219 270.265625 238.382812 C 270.265625 224.324219 269.679688 210.074219 269.480469 196.019531 C 269.480469 193.285156 269.285156 190.355469 269.089844 187.820312 C 264.984375 186.257812 260.878906 185.28125 257.550781 183.132812 C 254.226562 180.988281 251.683594 177.472656 248.753906 174.347656 C 243.667969 180.011719 238.386719 185.28125 230.5625 186.257812 C 230.5625 189.964844 230.5625 193.285156 230.5625 196.410156 C 230.5625 208.316406 230.5625 220.03125 230.957031 231.9375 C 231.347656 249.3125 231.933594 266.6875 232.519531 283.867188 C 232.324219 288.359375 233.105469 292.457031 233.691406 296.75 Z M 281.410156 168.296875 C 284.738281 168.296875 287.472656 168.492188 290.015625 168.296875 C 292.949219 168.101562 293.929688 166.734375 293.535156 163.613281 C 293.339844 161.464844 292.949219 159.511719 292.753906 157.363281 C 292.167969 150.53125 291.582031 143.699219 290.800781 136.867188 C 289.820312 129.253906 289.039062 121.835938 287.671875 114.417969 C 285.714844 103.289062 283.5625 92.160156 281.214844 81.230469 C 279.847656 75.175781 277.109375 73.617188 270.460938 74.398438 C 270.070312 77.324219 270.460938 80.058594 272.609375 82.597656 C 275.347656 85.914062 275.152344 89.820312 273.199219 93.527344 C 269.285156 100.554688 265.179688 107.582031 261.074219 114.613281 C 258.726562 118.515625 256.574219 122.617188 251.882812 124.957031 C 252.46875 135.890625 252.664062 146.628906 253.640625 157.363281 C 254.03125 162.246094 255.207031 167.125 256.964844 171.8125 C 259.3125 178.253906 266.351562 181.378906 273.589844 179.425781 C 273.589844 177.667969 273.589844 175.714844 273.589844 173.761719 C 273.199219 163.417969 272.808594 153.265625 272.609375 142.917969 C 272.414062 134.523438 272.609375 125.933594 272.808594 117.34375 C 272.808594 115.589844 272.808594 113.246094 275.742188 113.050781 C 278.085938 113.050781 279.261719 114.808594 279.652344 116.757812 C 280.042969 118.710938 280.042969 120.664062 280.042969 122.617188 C 280.433594 136.671875 280.824219 150.53125 281.019531 164.589844 C 281.214844 165.5625 281.410156 166.734375 281.410156 168.296875 Z M 246.796875 165.757812 C 246.796875 164.980469 246.796875 164.785156 246.796875 164.394531 C 244.644531 151.507812 243.277344 138.429688 244.644531 125.347656 C 244.644531 124.761719 244.449219 123.980469 244.058594 123.398438 C 242.296875 121.445312 240.734375 119.296875 238.777344 117.539062 C 231.542969 111.292969 224.5 104.851562 220.003906 96.261719 C 218.046875 92.550781 218.632812 89.820312 220.394531 86.890625 C 221.175781 85.523438 222.546875 84.546875 223.71875 83.179688 C 223.328125 81.816406 222.742188 80.449219 222.351562 78.886719 C 216.875 83.570312 215.503906 89.625 214.527344 95.675781 C 212.964844 106.804688 212.179688 117.734375 211.007812 128.667969 C 210.03125 138.039062 208.660156 147.214844 207.878906 156.585938 C 207.488281 161.464844 205.335938 166.148438 206.703125 171.421875 C 209.441406 171.421875 211.984375 171.421875 214.917969 171.421875 C 215.308594 170.25 215.898438 169.078125 216.09375 167.90625 C 218.632812 153.265625 219.808594 138.429688 219.613281 123.59375 C 219.613281 122.03125 219.808594 120.273438 220.589844 119.101562 C 221.960938 116.757812 224.304688 116.953125 225.480469 119.492188 C 226.261719 121.054688 226.847656 122.8125 226.847656 124.566406 C 227.628906 138.429688 227.238281 152.09375 224.5 165.757812 C 223.523438 171.03125 223.914062 175.519531 226.457031 180.011719 C 236.234375 179.816406 240.734375 171.8125 246.796875 165.757812 Z M 246.40625 105.828125 C 248.753906 93.722656 250.902344 81.816406 253.25 69.125 C 250.707031 69.320312 248.359375 69.515625 245.621094 69.710938 C 244.644531 82.011719 244.058594 93.917969 246.40625 105.828125 Z M 236.625 72.054688 C 230.957031 74.398438 230.171875 75.371094 231.347656 79.472656 C 232.714844 83.765625 232.128906 86.890625 229 90.210938 C 228.21875 90.988281 227.828125 92.941406 228.21875 93.917969 C 230.367188 97.824219 232.519531 101.726562 237.019531 104.265625 C 235.648438 93.136719 236.625 82.597656 236.625 72.054688 Z M 255.402344 104.65625 C 255.792969 104.851562 256.183594 104.851562 256.574219 105.046875 C 259.898438 99.191406 263.222656 93.332031 266.941406 87.085938 C 260.878906 84.351562 264.007812 77.714844 260.09375 73.03125 C 258.335938 84.15625 256.769531 94.503906 255.402344 104.65625 Z M 111.070312 80.644531 C 108.726562 81.035156 106.574219 81.621094 104.421875 81.425781 C 103.25 81.425781 101.488281 80.449219 101.097656 79.472656 C 100.707031 78.691406 101.683594 76.542969 102.664062 76.152344 C 105.792969 74.589844 109.117188 73.226562 112.441406 72.25 C 121.4375 69.515625 130.433594 67.171875 140.015625 64.441406 C 140.210938 63.074219 140.796875 60.730469 141.191406 58.582031 C 141.777344 55.265625 141.191406 54.484375 137.863281 54.289062 C 136.105469 54.09375 134.539062 53.703125 134.148438 51.945312 C 133.757812 49.992188 135.324219 49.214844 136.691406 48.433594 C 140.796875 46.285156 145.492188 47.652344 147.644531 51.75 C 149.207031 54.484375 149.207031 57.609375 148.621094 60.535156 C 148.035156 63.269531 149.207031 64.441406 151.554688 65.222656 C 158.984375 67.757812 165.636719 71.859375 173.652344 72.640625 C 175.804688 72.835938 177.175781 74.203125 177.566406 76.542969 C 175.804688 80.058594 172.480469 78.886719 169.742188 79.277344 C 163.875 89.234375 160.746094 99.578125 162.117188 111.097656 C 162.117188 111.683594 162.3125 112.269531 162.117188 112.660156 C 160.160156 119.6875 163.875 124.957031 167.003906 130.816406 C 171.894531 139.40625 176 148.386719 180.109375 157.363281 C 186.171875 170.25 190.863281 183.914062 193.992188 197.777344 C 196.535156 208.902344 198.492188 220.226562 200.25 231.546875 C 201.816406 241.699219 203.378906 251.851562 204.554688 262.003906 C 205.53125 269.617188 206.117188 277.035156 206.507812 284.648438 C 206.703125 287.382812 206.3125 290.308594 205.335938 293.042969 C 204.75 294.996094 203.183594 296.945312 201.621094 297.921875 C 193.796875 303 185.972656 308.464844 176.390625 309.832031 C 166.222656 311.394531 156.25 313.734375 146.273438 315.882812 C 140.210938 317.25 133.953125 316.273438 127.890625 314.320312 C 120.65625 312.175781 113.222656 310.613281 105.402344 310.417969 C 100.902344 310.222656 96.40625 308.855469 92.101562 306.902344 C 87.410156 304.949219 83.105469 301.828125 78.609375 299.289062 C 76.066406 297.921875 74.695312 295.777344 74.695312 292.847656 C 74.5 286.601562 74.109375 280.546875 74.109375 274.300781 C 74.109375 261.808594 75.871094 249.3125 77.238281 236.820312 C 78.804688 220.8125 82.910156 205.390625 87.410156 190.355469 C 92.296875 173.957031 97.96875 157.558594 106.378906 142.527344 C 109.898438 136.28125 114.003906 130.230469 117.917969 124.175781 C 118.503906 123.203125 118.894531 121.835938 118.894531 120.859375 C 118.699219 115.589844 118.113281 110.316406 117.917969 105.046875 C 117.332031 93.332031 117.332031 90.796875 111.070312 80.644531 Z M 100.707031 303 C 100.316406 296.75 100.121094 291.480469 99.535156 286.40625 C 98.359375 271.570312 97.96875 256.730469 98.554688 241.894531 C 98.945312 233.304688 98.75 224.519531 99.339844 215.929688 C 99.730469 211.832031 98.945312 207.339844 101.683594 203.632812 C 105.007812 203.632812 105.988281 205.390625 105.988281 208.316406 C 105.792969 222.570312 105.597656 236.820312 105.597656 251.070312 C 105.792969 265.90625 106.378906 280.742188 106.964844 295.582031 C 106.964844 298.117188 107.355469 300.65625 107.550781 303.390625 C 114.003906 303.195312 119.675781 304.367188 125.347656 306.316406 C 131.605469 308.269531 138.058594 310.027344 144.710938 308.660156 C 152.335938 307.097656 159.769531 305.339844 167.589844 303.585938 C 166.808594 295.972656 166.027344 288.164062 165.246094 280.160156 C 165.046875 277.425781 164.851562 274.496094 165.046875 271.765625 C 165.046875 270.789062 166.222656 269.03125 166.808594 269.03125 C 167.980469 269.03125 169.351562 269.8125 170.328125 270.789062 C 170.914062 271.179688 171.113281 272.347656 171.113281 273.324219 C 171.503906 277.230469 172.089844 281.132812 172.480469 284.84375 C 173.066406 290.894531 173.457031 297.140625 173.847656 303 C 182.0625 301.632812 188.320312 296.75 195.363281 292.847656 C 197.316406 291.871094 197.902344 290.113281 197.707031 287.96875 C 197.121094 279.964844 197.121094 271.765625 196.144531 263.757812 C 194.1875 248.921875 191.644531 234.085938 189.496094 219.25 C 187.539062 205.195312 184.019531 191.527344 179.324219 178.058594 C 176.78125 170.640625 173.457031 163.222656 170.523438 155.804688 C 166.417969 145.457031 161.722656 135.5 156.050781 125.542969 C 145.101562 127.886719 133.953125 128.863281 123.394531 126.519531 C 93.667969 178.253906 82.910156 234.671875 82.714844 293.433594 C 88.972656 296.75 94.644531 299.679688 100.707031 303 Z M 161.527344 77.519531 C 156.835938 75.566406 152.140625 73.617188 147.449219 71.859375 C 146.078125 71.273438 144.320312 70.882812 142.753906 71.273438 C 134.148438 72.835938 125.542969 74.980469 117.132812 78.496094 C 119.089844 81.621094 121.046875 84.351562 123 87.476562 C 128.476562 84.9375 133.757812 84.9375 138.648438 88.0625 C 143.730469 85.328125 148.621094 84.15625 154.097656 84.351562 C 159.769531 84.351562 160.550781 83.570312 161.527344 77.519531 Z M 125.933594 120.078125 C 135.519531 120.273438 144.320312 121.445312 153.121094 119.296875 C 153.121094 114.222656 153.121094 109.535156 153.121094 105.4375 C 149.597656 105.046875 146.46875 104.851562 143.339844 104.65625 C 141.582031 104.460938 139.429688 103.875 138.257812 104.65625 C 134.34375 107.195312 130.238281 107 125.933594 106.023438 C 125.933594 110.316406 125.933594 114.808594 125.933594 120.078125 Z M 155.074219 91.574219 C 153.902344 91.378906 152.921875 91.183594 152.140625 91.378906 C 145.492188 93.136719 138.453125 92.746094 131.605469 92.941406 C 129.457031 92.941406 127.109375 93.722656 124.761719 94.113281 C 125.152344 96.066406 125.542969 97.433594 125.738281 98.800781 C 129.261719 99.773438 132.78125 100.945312 135.910156 98.800781 C 138.648438 96.847656 141.386719 97.042969 144.515625 97.433594 C 147.644531 97.824219 150.773438 97.433594 153.902344 97.433594 C 154.292969 95.285156 154.488281 93.722656 155.074219 91.574219 Z M 130.238281 200.3125 C 130.042969 189.964844 130.238281 179.425781 130.042969 169.078125 C 130.042969 164.003906 129.847656 158.925781 129.652344 153.851562 C 129.652344 152.09375 128.671875 150.335938 126.523438 150.335938 C 124.175781 150.335938 123.785156 152.289062 123.589844 154.046875 C 123.195312 158.339844 122.609375 162.441406 122.414062 166.734375 C 122.023438 175.910156 121.4375 185.085938 121.632812 194.261719 C 122.023438 213.003906 122.804688 231.742188 123.589844 250.484375 C 123.785156 255.558594 124.371094 260.636719 125.152344 265.710938 C 125.347656 267.664062 125.738281 270.398438 128.867188 270.007812 C 131.410156 269.617188 131.019531 267.078125 131.019531 265.320312 C 131.019531 255.558594 131.019531 245.800781 131.019531 234.476562 C 130.628906 224.128906 130.433594 212.222656 130.238281 200.3125 Z M 179.128906 233.695312 C 177.371094 221.203125 175.414062 208.511719 173.457031 196.019531 C 171.113281 181.765625 167.199219 167.710938 162.3125 154.046875 C 161.332031 151.3125 159.964844 148.578125 156.835938 147.605469 C 154.097656 148.773438 154.488281 150.53125 155.074219 152.484375 C 158.007812 163.808594 161.136719 174.933594 163.484375 186.453125 C 166.417969 200.507812 168.765625 214.953125 171.308594 229.011719 C 171.894531 232.328125 172.480469 235.648438 173.457031 238.773438 C 174.046875 240.722656 175.023438 242.480469 178.738281 241.699219 C 178.933594 239.160156 179.519531 236.234375 179.128906 233.695312 Z M 159.378906 244.628906 C 158.789062 236.625 158.203125 228.816406 157.226562 220.8125 C 156.050781 210.269531 155.855469 199.726562 153.511719 189.1875 C 151.945312 181.960938 151.164062 174.542969 149.792969 167.320312 C 149.207031 164.394531 148.621094 161.269531 144.90625 160.292969 C 141.582031 161.660156 142.363281 164.589844 142.753906 167.125 C 144.320312 180.207031 146.078125 193.480469 147.644531 206.558594 C 149.207031 219.054688 150.578125 231.546875 152.140625 244.042969 C 152.53125 246.386719 153.316406 248.726562 154.097656 251.265625 C 154.488281 252.828125 155.464844 253.804688 157.421875 253.21875 C 159.769531 250.484375 159.769531 247.554688 159.378906 244.628906 Z M 159.378906 244.628906 " fill-opacity="1" fill-rule="nonzero"/></g></svg>