<svg xmlns="http://www.w3.org/2000/svg" xmlns:xlink="http://www.w3.org/1999/xlink" width="500" zoomAndPan="magnify" viewBox="0 0 375 374.999991" height="500" preserveAspectRatio="xMidYMid meet" version="1.0"><defs><clipPath id="f2ac298675"><path d="M 76.375 59 L 308.875 59 L 308.875 316.972656 L 76.375 316.972656 Z M 76.375 59 " clip-rule="nonzero"/></clipPath></defs><g clip-path="url(#f2ac298675)"><path fill="#ffffff" d="M 304.417969 126.285156 L 240.046875 126.285156 C 255.351562 120.132812 271.351562 109.535156 283.070312 91.238281 C 284.300781 89.308594 283.710938 86.742188 281.785156 85.511719 C 279.859375 84.28125 277.289062 84.871094 276.058594 86.796875 C 259.472656 112.800781 232.558594 121.734375 213.828125 124.785156 C 227.636719 116.972656 243.902344 105.042969 246.148438 90.914062 C 247.484375 82.460938 243.847656 74.542969 235.234375 67.371094 C 226.617188 60.148438 218.59375 58.222656 211.476562 61.59375 C 201.414062 66.300781 195.742188 81.230469 192.535156 96 C 189.324219 81.230469 183.652344 66.300781 173.589844 61.59375 C 166.476562 58.277344 158.503906 60.203125 149.835938 67.371094 C 141.21875 74.542969 137.582031 82.40625 138.917969 90.914062 C 141.21875 105.09375 157.484375 117.027344 171.289062 124.839844 C 152.5625 121.84375 125.648438 112.90625 108.953125 86.796875 C 107.722656 84.871094 105.15625 84.28125 103.230469 85.511719 C 101.300781 86.742188 100.714844 89.308594 101.945312 91.238281 C 113.609375 109.589844 129.609375 120.132812 144.964844 126.285156 L 80.703125 126.285156 C 78.402344 126.285156 76.582031 128.15625 76.582031 130.40625 L 76.582031 188.40625 C 76.582031 190.707031 78.453125 192.527344 80.703125 192.527344 L 88.996094 192.527344 L 88.996094 312.652344 C 88.996094 314.953125 90.867188 316.773438 93.117188 316.773438 L 291.953125 316.773438 C 294.253906 316.773438 296.070312 314.898438 296.070312 312.652344 L 296.070312 192.582031 L 304.367188 192.582031 C 306.667969 192.582031 308.484375 190.707031 308.484375 188.460938 L 308.484375 130.40625 C 308.539062 128.15625 306.71875 126.285156 304.417969 126.285156 Z M 215.007812 69.085938 C 216.078125 68.601562 217.253906 68.335938 218.484375 68.335938 C 221.800781 68.335938 225.601562 70.15625 229.9375 73.738281 C 236.195312 78.929688 238.816406 84.121094 237.960938 89.578125 C 235.714844 103.597656 211.367188 117.457031 196.976562 124.035156 C 198.097656 107.609375 203.019531 74.703125 215.007812 69.085938 Z M 147.160156 89.578125 C 146.300781 84.121094 148.925781 78.984375 155.183594 73.738281 C 159.519531 70.15625 163.371094 68.335938 166.636719 68.335938 C 167.867188 68.335938 169.042969 68.601562 170.113281 69.085938 C 182.152344 74.703125 187.023438 107.664062 188.144531 124.035156 C 173.753906 117.457031 149.40625 103.597656 147.160156 89.578125 Z M 84.875 184.285156 L 84.875 134.578125 L 167.707031 134.578125 L 167.707031 184.285156 Z M 97.289062 192.582031 L 167.707031 192.582031 L 167.707031 308.585938 L 97.289062 308.585938 Z M 176 308.53125 L 176 134.578125 L 187.023438 134.578125 C 187.449219 134.578125 187.933594 134.578125 188.359375 134.578125 C 189.054688 134.578125 189.699219 134.578125 190.234375 134.578125 L 194.941406 134.578125 C 195.476562 134.578125 196.117188 134.578125 196.8125 134.578125 C 197.1875 134.578125 197.722656 134.578125 198.152344 134.578125 L 209.175781 134.578125 L 209.175781 308.53125 Z M 217.414062 308.53125 L 217.414062 192.582031 L 287.832031 192.582031 L 287.832031 308.585938 L 217.414062 308.585938 Z M 300.246094 184.285156 L 217.414062 184.285156 L 217.414062 134.578125 L 300.246094 134.578125 Z M 300.246094 184.285156 " fill-opacity="1" fill-rule="nonzero"/></g></svg>