<svg xmlns="http://www.w3.org/2000/svg" xmlns:xlink="http://www.w3.org/1999/xlink" width="500" zoomAndPan="magnify" viewBox="0 0 375 374.999991" height="500" preserveAspectRatio="xMidYMid meet" version="1.0"><defs><clipPath id="709205fa48"><path d="M 57 46 L 329.902344 46 L 329.902344 330.945312 L 57 330.945312 Z M 57 46 " clip-rule="nonzero"/></clipPath></defs><g clip-path="url(#709205fa48)"><path fill="#000000" d="M 314.367188 108.332031 L 288.53125 108.332031 C 293.230469 99.976562 290.050781 76.945312 285.773438 64.132812 C 271.753906 22.921875 216.496094 67.734375 206.925781 76.21875 C 202.792969 72.902344 192.589844 74.476562 187.6875 74.125 C 185.058594 74.136719 182.628906 74.832031 180.390625 76.214844 C 170.902344 67.792969 115.574219 22.933594 101.5625 64.085938 C 97.28125 76.902344 94.070312 99.964844 98.789062 108.332031 L 72.941406 108.332031 C 71.941406 108.332031 70.949219 108.429688 69.96875 108.625 C 68.988281 108.820312 68.035156 109.113281 67.109375 109.496094 C 66.1875 109.878906 65.308594 110.347656 64.476562 110.902344 C 63.644531 111.460938 62.875 112.089844 62.167969 112.796875 C 61.457031 113.503906 60.828125 114.273438 60.269531 115.105469 C 59.714844 115.9375 59.246094 116.8125 58.859375 117.738281 C 58.476562 118.660156 58.1875 119.613281 57.992188 120.59375 C 57.796875 121.574219 57.699219 122.566406 57.695312 123.566406 L 57.695312 177.261719 C 57.695312 177.59375 57.730469 177.925781 57.792969 178.253906 C 57.859375 178.578125 57.957031 178.898438 58.082031 179.207031 C 58.210938 179.511719 58.367188 179.804688 58.554688 180.082031 C 58.738281 180.359375 58.949219 180.617188 59.183594 180.851562 C 59.421875 181.089844 59.675781 181.300781 59.953125 181.484375 C 60.230469 181.667969 60.523438 181.824219 60.832031 181.953125 C 61.140625 182.082031 61.460938 182.175781 61.785156 182.242188 C 62.113281 182.308594 62.445312 182.339844 62.777344 182.339844 L 72.738281 182.339844 L 72.738281 315.710938 C 72.738281 316.710938 72.839844 317.703125 73.035156 318.683594 C 73.230469 319.664062 73.519531 320.613281 73.902344 321.539062 C 74.289062 322.460938 74.757812 323.339844 75.3125 324.171875 C 75.871094 325.003906 76.5 325.773438 77.210938 326.480469 C 77.917969 327.1875 78.6875 327.816406 79.519531 328.375 C 80.351562 328.929688 81.226562 329.398438 82.152344 329.78125 C 83.078125 330.164062 84.03125 330.453125 85.011719 330.652344 C 85.992188 330.847656 86.984375 330.945312 87.984375 330.945312 C 115.054688 330.949219 299.328125 330.945312 299.328125 330.945312 C 300.328125 330.945312 301.320312 330.847656 302.300781 330.648438 C 303.28125 330.453125 304.234375 330.164062 305.160156 329.78125 C 306.082031 329.398438 306.960938 328.929688 307.792969 328.375 C 308.625 327.816406 309.394531 327.1875 310.101562 326.480469 C 310.808594 325.773438 311.441406 325.003906 311.996094 324.171875 C 312.554688 323.339844 313.023438 322.460938 313.40625 321.539062 C 313.789062 320.613281 314.082031 319.664062 314.277344 318.683594 C 314.472656 317.703125 314.570312 316.710938 314.574219 315.710938 L 314.574219 182.339844 L 324.53125 182.339844 C 324.867188 182.339844 325.199219 182.308594 325.523438 182.242188 C 325.851562 182.175781 326.167969 182.082031 326.476562 181.953125 C 326.785156 181.824219 327.078125 181.667969 327.355469 181.484375 C 327.632812 181.300781 327.890625 181.089844 328.125 180.851562 C 328.363281 180.617188 328.574219 180.359375 328.757812 180.082031 C 328.945312 179.804688 329.101562 179.511719 329.226562 179.207031 C 329.355469 178.898438 329.453125 178.578125 329.515625 178.253906 C 329.582031 177.925781 329.613281 177.59375 329.613281 177.261719 L 329.613281 123.566406 C 329.613281 122.566406 329.515625 121.574219 329.320312 120.59375 C 329.125 119.613281 328.832031 118.660156 328.449219 117.738281 C 328.066406 116.816406 327.597656 115.9375 327.039062 115.105469 C 326.484375 114.273438 325.851562 113.503906 325.144531 112.796875 C 324.4375 112.089844 323.667969 111.460938 322.835938 110.902344 C 322.003906 110.347656 321.125 109.878906 320.199219 109.496094 C 319.277344 109.113281 318.324219 108.824219 317.34375 108.625 C 316.359375 108.429688 315.371094 108.332031 314.367188 108.332031 Z M 220.3125 108.332031 C 233.410156 96.296875 265.023438 89.304688 280.339844 87.136719 C 281.378906 95.808594 281.242188 106.566406 274.707031 108.332031 Z M 215.230469 172.183594 C 214.851562 172.144531 172.453125 172.210938 172.082031 172.183594 L 172.082031 118.488281 C 172.082031 118.488281 211.113281 118.496094 215.230469 118.488281 Z M 258.710938 57.296875 C 272.320312 53.894531 276.851562 66.207031 278.566406 77.152344 C 265.433594 79.0625 232.40625 85.183594 213.761719 100.257812 C 214.054688 94.917969 213.847656 89.601562 213.128906 84.304688 C 219.757812 78.339844 226.90625 73.085938 234.578125 68.539062 C 242.25 63.992188 250.292969 60.246094 258.710938 57.296875 Z M 187.6875 84.28125 L 199.625 84.28125 C 200.152344 84.28125 200.65625 84.382812 201.144531 84.585938 C 201.632812 84.789062 202.0625 85.074219 202.433594 85.449219 C 202.804688 85.820312 203.09375 86.25 203.296875 86.734375 C 203.496094 87.222656 203.597656 87.730469 203.597656 88.257812 L 203.597656 108.332031 L 183.710938 108.332031 L 183.710938 88.257812 C 183.714844 87.730469 183.8125 87.222656 184.015625 86.734375 C 184.21875 86.25 184.503906 85.820312 184.878906 85.449219 C 185.25 85.074219 185.679688 84.789062 186.167969 84.585938 C 186.652344 84.382812 187.160156 84.28125 187.6875 84.28125 Z M 111.320312 66.90625 C 111.574219 66.023438 111.914062 65.175781 112.332031 64.359375 C 112.753906 63.542969 113.25 62.777344 113.820312 62.058594 C 114.390625 61.339844 115.027344 60.683594 115.726562 60.09375 C 116.425781 59.5 117.179688 58.980469 117.980469 58.53125 C 118.785156 58.085938 119.621094 57.722656 120.496094 57.441406 C 121.371094 57.160156 122.261719 56.964844 123.175781 56.859375 C 124.085938 56.753906 125 56.738281 125.914062 56.8125 C 126.832031 56.882812 127.730469 57.046875 128.613281 57.296875 C 137.027344 60.246094 145.070312 63.992188 152.738281 68.539062 C 160.40625 73.082031 167.554688 78.335938 174.183594 84.296875 C 173.507812 89.59375 173.292969 94.910156 173.550781 100.246094 C 154.902344 85.179688 121.886719 79.058594 108.753906 77.152344 C 109.480469 73.785156 110.308594 70.351562 111.320312 66.90625 Z M 106.980469 87.136719 C 122.882812 89.386719 152.304688 95.917969 167.382812 108.332031 L 112.609375 108.332031 C 106.078125 106.566406 105.941406 95.808594 106.980469 87.136719 Z M 67.859375 123.566406 C 67.859375 123.230469 67.894531 122.902344 67.960938 122.574219 C 68.023438 122.25 68.121094 121.929688 68.25 121.625 C 68.375 121.316406 68.535156 121.023438 68.71875 120.746094 C 68.902344 120.46875 69.113281 120.210938 69.351562 119.976562 C 69.585938 119.742188 69.84375 119.53125 70.121094 119.34375 C 70.398438 119.160156 70.691406 119.003906 71 118.875 C 71.304688 118.75 71.625 118.652344 71.953125 118.585938 C 72.277344 118.519531 72.609375 118.488281 72.941406 118.488281 L 161.917969 118.488281 L 161.917969 172.183594 C 155.824219 172.171875 71.511719 172.191406 67.859375 172.183594 Z M 82.902344 315.710938 L 82.902344 182.339844 L 168.703125 182.339844 L 168.703125 320.789062 L 87.984375 320.789062 C 87.652344 320.789062 87.320312 320.757812 86.992188 320.691406 C 86.667969 320.625 86.347656 320.527344 86.039062 320.402344 C 85.734375 320.273438 85.441406 320.117188 85.164062 319.929688 C 84.886719 319.746094 84.628906 319.535156 84.394531 319.300781 C 84.15625 319.0625 83.945312 318.808594 83.761719 318.53125 C 83.574219 318.253906 83.417969 317.960938 83.292969 317.652344 C 83.164062 317.34375 83.066406 317.027344 83 316.703125 C 82.9375 316.375 82.902344 316.042969 82.902344 315.710938 Z M 178.867188 320.789062 L 178.867188 182.339844 L 208.445312 182.339844 L 208.445312 320.789062 Z M 304.410156 315.710938 C 304.40625 316.042969 304.375 316.375 304.308594 316.703125 C 304.246094 317.027344 304.148438 317.34375 304.019531 317.652344 C 303.890625 317.960938 303.734375 318.253906 303.550781 318.53125 C 303.363281 318.808594 303.152344 319.0625 302.917969 319.300781 C 302.683594 319.535156 302.425781 319.746094 302.148438 319.929688 C 301.871094 320.117188 301.578125 320.273438 301.269531 320.402344 C 300.960938 320.527344 300.644531 320.625 300.316406 320.691406 C 299.992188 320.757812 299.660156 320.789062 299.328125 320.789062 L 218.609375 320.789062 L 218.609375 182.339844 L 304.410156 182.339844 Z M 319.449219 172.183594 C 316.210938 172.203125 231.078125 172.167969 225.394531 172.183594 L 225.394531 118.488281 L 314.371094 118.488281 C 314.703125 118.488281 315.03125 118.519531 315.359375 118.585938 C 315.6875 118.652344 316.003906 118.75 316.3125 118.875 C 316.621094 119.003906 316.914062 119.160156 317.191406 119.34375 C 317.46875 119.53125 317.726562 119.742188 317.960938 119.976562 C 318.195312 120.210938 318.40625 120.46875 318.59375 120.746094 C 318.777344 121.023438 318.933594 121.316406 319.0625 121.625 C 319.191406 121.929688 319.285156 122.25 319.351562 122.574219 C 319.417969 122.902344 319.449219 123.230469 319.449219 123.566406 Z M 319.449219 172.183594 " fill-opacity="1" fill-rule="nonzero"/></g></svg>