<svg xmlns="http://www.w3.org/2000/svg" xmlns:xlink="http://www.w3.org/1999/xlink" width="500" zoomAndPan="magnify" viewBox="0 0 375 374.999991" height="500" preserveAspectRatio="xMidYMid meet" version="1.0"><defs><clipPath id="ec95a9acf3"><path d="M 108.035156 89 L 293.285156 89 L 293.285156 299.984375 L 108.035156 299.984375 Z M 108.035156 89 " clip-rule="nonzero"/></clipPath></defs><g clip-path="url(#ec95a9acf3)"><path fill="#f49a74" d="M 286.882812 183.210938 L 127.714844 91.320312 C 123.671875 88.988281 118.703125 88.988281 114.664062 91.320312 C 110.625 93.648438 108.136719 97.957031 108.136719 102.625 L 108.136719 286.421875 C 108.136719 291.085938 110.625 295.394531 114.664062 297.722656 C 116.683594 298.902344 118.9375 299.472656 121.191406 299.472656 C 123.441406 299.472656 125.695312 298.886719 127.714844 297.722656 L 286.882812 205.832031 C 290.929688 203.5 293.40625 199.191406 293.40625 194.527344 C 293.40625 189.863281 290.921875 185.550781 286.882812 183.210938 Z M 286.882812 183.210938 " fill-opacity="1" fill-rule="nonzero"/></g></svg>