<svg xmlns="http://www.w3.org/2000/svg" xmlns:xlink="http://www.w3.org/1999/xlink" width="500" zoomAndPan="magnify" viewBox="0 0 375 374.999991" height="500" preserveAspectRatio="xMidYMid meet" version="1.0"><defs><clipPath id="8437fb25b3"><path d="M 49.332031 108.078125 L 324 108.078125 L 324 222.078125 L 49.332031 222.078125 Z M 49.332031 108.078125 " clip-rule="nonzero"/></clipPath></defs><g clip-path="url(#8437fb25b3)"><path fill="#000000" d="M 269.738281 183.816406 L 269.738281 203.046875 C 269.738281 203.925781 269.023438 204.636719 268.144531 204.636719 C 267.265625 204.636719 266.554688 203.925781 266.554688 203.046875 L 266.554688 195.214844 C 266.5 195.269531 266.5 195.269531 266.445312 195.324219 L 251.957031 203.652344 C 250.914062 204.253906 249.59375 203.871094 248.992188 202.882812 C 248.828125 202.554688 248.71875 202.171875 248.71875 201.789062 L 248.71875 185.078125 C 248.71875 183.871094 249.707031 182.941406 250.859375 182.941406 C 251.242188 182.941406 251.625 183.050781 251.957031 183.214844 L 266.445312 191.542969 C 266.5 191.542969 266.5 191.597656 266.554688 191.652344 L 266.554688 183.816406 C 266.554688 182.941406 267.265625 182.230469 268.144531 182.230469 C 269.023438 182.285156 269.738281 182.996094 269.738281 183.816406 Z M 103.609375 183.816406 L 103.609375 203.046875 C 103.554688 203.925781 104.214844 204.691406 105.09375 204.691406 C 105.96875 204.746094 106.738281 204.089844 106.738281 203.210938 C 106.738281 203.15625 106.738281 203.101562 106.738281 203.046875 L 106.738281 195.214844 C 106.792969 195.269531 106.792969 195.269531 106.847656 195.324219 L 121.335938 203.652344 C 122.378906 204.253906 123.695312 203.871094 124.300781 202.882812 C 124.464844 202.554688 124.574219 202.171875 124.574219 201.789062 L 124.574219 185.078125 C 124.574219 183.871094 123.585938 182.941406 122.433594 182.941406 C 122.050781 182.941406 121.667969 183.050781 121.335938 183.214844 L 106.847656 191.542969 C 106.792969 191.542969 106.792969 191.597656 106.738281 191.652344 L 106.738281 183.816406 C 106.683594 182.941406 105.96875 182.285156 105.09375 182.339844 C 104.269531 182.394531 103.664062 183.050781 103.609375 183.816406 Z M 180.882812 182.285156 C 182.199219 182.285156 183.242188 182.996094 183.242188 183.871094 L 183.242188 203.101562 C 183.242188 203.980469 182.199219 204.691406 180.882812 204.691406 C 179.621094 204.691406 178.578125 203.980469 178.578125 203.101562 L 178.578125 183.816406 C 178.578125 182.941406 179.621094 182.230469 180.882812 182.285156 Z M 192.023438 182.285156 C 193.285156 182.285156 194.328125 182.996094 194.328125 183.871094 L 194.328125 203.101562 C 194.328125 203.980469 193.285156 204.691406 192.023438 204.691406 C 190.761719 204.691406 189.664062 203.980469 189.664062 203.101562 L 189.664062 183.816406 C 189.664062 182.941406 190.761719 182.230469 192.023438 182.285156 Z M 186.644531 164.859375 C 170.839844 164.859375 158.054688 177.625 158 193.40625 C 158 209.183594 170.785156 221.949219 186.589844 222.003906 C 202.398438 222.003906 215.183594 209.238281 215.238281 193.460938 C 215.238281 177.679688 202.453125 164.914062 186.644531 164.859375 Z M 186.644531 218.828125 C 172.597656 218.828125 161.179688 207.429688 161.179688 193.40625 C 161.179688 179.378906 172.597656 167.984375 186.644531 167.984375 C 200.695312 167.984375 212.113281 179.378906 212.113281 193.40625 C 212.113281 207.488281 200.695312 218.828125 186.644531 218.828125 Z M 83.25 198.445312 L 76.664062 194.664062 C 76.167969 194.390625 75.566406 194.554688 75.292969 195.050781 C 75.183594 195.214844 75.183594 195.378906 75.183594 195.542969 L 75.183594 198.226562 C 68.046875 198.007812 63.710938 195.378906 63.710938 193.515625 C 63.710938 191.597656 68.046875 189.023438 75.183594 188.804688 L 75.183594 191.433594 C 75.183594 191.980469 75.621094 192.417969 76.167969 192.417969 C 76.335938 192.417969 76.5 192.363281 76.664062 192.308594 L 83.25 188.53125 C 83.742188 188.253906 83.90625 187.652344 83.632812 187.160156 C 83.523438 186.996094 83.414062 186.886719 83.25 186.777344 L 76.664062 182.996094 C 76.167969 182.722656 75.566406 182.886719 75.292969 183.378906 C 75.183594 183.542969 75.183594 183.707031 75.183594 183.871094 L 75.183594 186.613281 C 70.023438 186.777344 64.863281 188.253906 62.777344 190.941406 C 60.746094 188.253906 55.535156 186.777344 50.375 186.613281 C 49.769531 186.722656 49.332031 187.269531 49.441406 187.871094 C 49.496094 188.363281 49.882812 188.75 50.375 188.804688 C 57.511719 189.023438 61.898438 191.652344 61.898438 193.515625 C 61.898438 195.378906 57.566406 198.007812 50.375 198.226562 C 49.828125 198.28125 49.441406 198.773438 49.441406 199.324219 C 49.386719 199.871094 49.828125 200.363281 50.375 200.417969 C 55.535156 200.253906 60.691406 198.773438 62.777344 196.089844 C 64.808594 198.773438 70.023438 200.253906 75.183594 200.417969 L 75.183594 203.15625 C 75.183594 203.707031 75.621094 204.144531 76.167969 204.144531 C 76.335938 204.144531 76.5 204.089844 76.664062 204.035156 L 83.25 200.253906 C 83.742188 199.980469 83.90625 199.378906 83.632812 198.9375 C 83.578125 198.664062 83.414062 198.554688 83.25 198.445312 Z M 322.808594 194.996094 L 315.015625 195.324219 C 314.464844 195.324219 314.027344 195.816406 314.027344 196.363281 C 314.027344 196.527344 314.082031 196.691406 314.191406 196.855469 L 315.671875 199.160156 C 314.027344 199.980469 311.0625 200.746094 307 200.746094 C 300.964844 200.746094 297.453125 199.105469 296.847656 197.953125 C 296.683594 197.570312 296.300781 197.351562 295.914062 197.351562 L 295.695312 197.351562 C 295.367188 197.351562 295.039062 197.515625 294.875 197.789062 C 294.707031 198.0625 294.652344 198.390625 294.761719 198.664062 C 295.96875 201.570312 301.953125 202.882812 307 202.882812 C 310.460938 202.882812 314.355469 202.28125 316.824219 200.964844 L 318.363281 203.378906 C 318.636719 203.871094 319.296875 203.980469 319.734375 203.707031 C 319.898438 203.597656 320.007812 203.488281 320.0625 203.324219 L 323.6875 196.472656 C 323.960938 195.980469 323.742188 195.378906 323.246094 195.105469 C 323.136719 195.050781 322.972656 194.996094 322.808594 194.996094 Z M 323.6875 189.132812 C 323.519531 189.40625 323.191406 189.570312 322.863281 189.570312 L 322.644531 189.570312 C 322.257812 189.570312 321.875 189.351562 321.710938 188.96875 C 321.105469 187.816406 317.539062 186.171875 311.558594 186.171875 C 307.496094 186.171875 304.53125 186.941406 302.886719 187.761719 L 304.367188 190.0625 C 304.640625 190.554688 304.53125 191.160156 304.039062 191.433594 C 303.875 191.542969 303.710938 191.597656 303.542969 191.597656 L 295.75 191.925781 C 295.203125 191.925781 294.707031 191.488281 294.707031 190.941406 C 294.707031 190.777344 294.761719 190.609375 294.816406 190.445312 L 298.441406 183.542969 C 298.714844 183.050781 299.320312 182.886719 299.8125 183.105469 C 299.976562 183.160156 300.085938 183.324219 300.195312 183.433594 L 301.734375 185.84375 C 304.203125 184.53125 308.097656 183.925781 311.558594 183.925781 C 316.605469 183.925781 322.644531 185.242188 323.796875 188.144531 C 323.90625 188.53125 323.851562 188.859375 323.6875 189.132812 Z M 322.421875 143.054688 L 93.457031 143.054688 C 92.632812 139.164062 88.792969 136.699219 84.894531 137.574219 C 82.152344 138.179688 80.011719 140.316406 79.40625 143.054688 L 50.867188 143.054688 C 50.101562 143.054688 49.441406 143.710938 49.441406 144.480469 L 49.441406 144.808594 C 49.441406 145.574219 50.046875 146.230469 50.867188 146.230469 L 79.460938 146.230469 C 80.339844 150.066406 84.238281 152.476562 88.078125 151.601562 C 90.769531 151 92.796875 148.917969 93.457031 146.230469 L 322.421875 146.230469 C 323.191406 146.230469 323.851562 145.574219 323.851562 144.808594 L 323.851562 144.480469 C 323.851562 143.710938 323.191406 143.054688 322.421875 143.054688 Z M 323.519531 114.125 C 322.808594 111.933594 320.285156 108.316406 316.441406 108.207031 C 313.421875 108.152344 310.351562 110.179688 308.867188 113.46875 C 307.386719 110.234375 304.257812 108.152344 301.292969 108.207031 C 297.453125 108.316406 294.929688 111.878906 294.214844 114.125 C 292.347656 119.714844 298.277344 127.164062 308.867188 132.917969 L 308.867188 132.972656 L 308.921875 132.972656 L 308.921875 132.917969 C 319.460938 127.164062 325.332031 119.714844 323.519531 114.125 Z M 323.519531 114.125 " fill-opacity="1" fill-rule="nonzero"/></g></svg>