<svg xmlns="http://www.w3.org/2000/svg" xmlns:xlink="http://www.w3.org/1999/xlink" width="794" zoomAndPan="magnify" viewBox="0 0 594.95996 842.24997" height="1123" preserveAspectRatio="xMidYMid meet" version="1.0"><defs><g/></defs><g fill="#ed9462" fill-opacity="1"><g transform="translate(168.292392, 361.747728)"><g><path d="M 15.21875 -47.75 L 20.09375 -47.75 L 35.515625 -0.421875 L 35.515625 0 L 24.203125 0 L 24.203125 -0.421875 L 30.28125 -2.765625 L 25.609375 -16.84375 L 8.34375 -16.84375 L 7.421875 -14.21875 C 6.523438 -11.675781 5.890625 -9.632812 5.515625 -8.09375 C 5.140625 -6.5625 5.066406 -5.359375 5.296875 -4.484375 C 5.535156 -3.617188 6.140625 -2.890625 7.109375 -2.296875 C 8.078125 -1.710938 9.457031 -1.085938 11.25 -0.421875 L 11.25 0 L 0.78125 0 L 0.78125 -0.421875 L 16.265625 -44.078125 L 15.21875 -47.328125 Z M 17.125 -41.75 L 8.765625 -18.109375 L 25.1875 -18.109375 L 17.40625 -41.75 Z M 17.125 -41.75 "/></g></g></g><g fill="#ed9462" fill-opacity="1"><g transform="translate(204.795148, 361.747728)"><g><path d="M 36.9375 -36.9375 L 36.9375 -34.734375 C 35.945312 -34.734375 34.671875 -34.800781 33.109375 -34.9375 C 31.554688 -35.082031 29.976562 -35.273438 28.375 -35.515625 C 26.769531 -35.753906 25.332031 -35.988281 24.0625 -36.21875 L 23.984375 -36.078125 C 25.828125 -34.898438 27.160156 -33.472656 27.984375 -31.796875 C 28.804688 -30.128906 29.21875 -28.328125 29.21875 -26.390625 C 29.21875 -24.316406 28.78125 -22.414062 27.90625 -20.6875 C 27.039062 -18.96875 25.945312 -17.492188 24.625 -16.265625 C 23.300781 -15.046875 21.988281 -14.101562 20.6875 -13.4375 C 19.394531 -12.78125 18.320312 -12.453125 17.46875 -12.453125 C 14.550781 -12.453125 12.078125 -13.039062 10.046875 -14.21875 C 9.054688 -13.1875 8.132812 -12.1875 7.28125 -11.21875 C 6.4375 -10.25 6.015625 -9.269531 6.015625 -8.28125 C 6.015625 -7.144531 6.4375 -6.164062 7.28125 -5.34375 C 8.132812 -4.519531 9.53125 -4.015625 11.46875 -3.828125 L 23.28125 -2.765625 C 24.21875 -2.671875 25.273438 -2.550781 26.453125 -2.40625 C 27.640625 -2.257812 28.773438 -1.984375 29.859375 -1.578125 C 30.941406 -1.179688 31.847656 -0.535156 32.578125 0.359375 C 33.304688 1.253906 33.671875 2.503906 33.671875 4.109375 C 33.671875 4.390625 33.597656 5.035156 33.453125 6.046875 C 33.316406 7.054688 32.960938 8.242188 32.390625 9.609375 C 31.828125 10.984375 30.921875 12.316406 29.671875 13.609375 C 28.429688 14.910156 26.722656 16 24.546875 16.875 C 22.378906 17.75 19.617188 18.1875 16.265625 18.1875 C 13.578125 18.1875 11.039062 17.816406 8.65625 17.078125 C 6.28125 16.347656 4.359375 15.320312 2.890625 14 C 1.429688 12.6875 0.703125 11.109375 0.703125 9.265625 C 0.703125 9.078125 0.820312 8.84375 1.0625 8.5625 C 1.300781 8.28125 1.757812 7.832031 2.4375 7.21875 C 3.125 6.601562 4.140625 5.707031 5.484375 4.53125 C 6.828125 3.351562 8.628906 1.796875 10.890625 -0.140625 C 9.285156 -0.285156 7.785156 -0.601562 6.390625 -1.09375 C 5.003906 -1.59375 3.863281 -2.3125 2.96875 -3.25 C 2.070312 -4.195312 1.625 -5.378906 1.625 -6.796875 C 1.625 -6.984375 1.988281 -7.429688 2.71875 -8.140625 C 3.457031 -8.847656 4.398438 -9.765625 5.546875 -10.890625 C 6.703125 -12.023438 7.894531 -13.320312 9.125 -14.78125 C 7.800781 -15.726562 6.757812 -16.96875 6 -18.5 C 5.25 -20.03125 4.875 -21.882812 4.875 -24.0625 C 4.875 -26.132812 5.3125 -28.019531 6.1875 -29.71875 C 7.0625 -31.414062 8.160156 -32.875 9.484375 -34.09375 C 10.804688 -35.320312 12.125 -36.265625 13.4375 -36.921875 C 14.757812 -37.585938 15.847656 -37.921875 16.703125 -37.921875 C 17.117188 -37.921875 18.023438 -37.835938 19.421875 -37.671875 C 20.816406 -37.503906 22.410156 -37.335938 24.203125 -37.171875 C 25.992188 -37.015625 27.710938 -36.9375 29.359375 -36.9375 Z M 26.109375 -23.90625 C 26.109375 -26.082031 25.644531 -27.992188 24.71875 -29.640625 C 23.800781 -31.296875 22.539062 -32.59375 20.9375 -33.53125 C 19.332031 -34.476562 17.519531 -34.953125 15.5 -34.953125 C 14.269531 -34.953125 13.066406 -34.679688 11.890625 -34.140625 C 10.710938 -33.597656 9.753906 -32.6875 9.015625 -31.40625 C 8.285156 -30.132812 7.921875 -28.4375 7.921875 -26.3125 C 7.921875 -24.195312 8.378906 -22.3125 9.296875 -20.65625 C 10.222656 -19.007812 11.441406 -17.710938 12.953125 -16.765625 C 14.460938 -15.828125 16.132812 -15.359375 17.96875 -15.359375 C 19.425781 -15.359375 20.769531 -15.628906 22 -16.171875 C 23.226562 -16.710938 24.21875 -17.609375 24.96875 -18.859375 C 25.726562 -20.109375 26.109375 -21.789062 26.109375 -23.90625 Z M 32.1875 7 C 32.1875 5.78125 31.785156 4.769531 30.984375 3.96875 C 30.179688 3.164062 29.144531 2.539062 27.875 2.09375 C 26.601562 1.644531 25.210938 1.3125 23.703125 1.09375 C 22.191406 0.882812 20.726562 0.707031 19.3125 0.5625 L 12.3125 0 C 10.144531 1.550781 8.457031 3 7.25 4.34375 C 6.050781 5.695312 5.453125 6.914062 5.453125 8 C 5.453125 9.832031 6.664062 11.457031 9.09375 12.875 C 11.519531 14.289062 14.878906 15 19.171875 15 C 21.910156 15 24.242188 14.617188 26.171875 13.859375 C 28.109375 13.109375 29.59375 12.117188 30.625 10.890625 C 31.664062 9.671875 32.1875 8.375 32.1875 7 Z M 32.1875 7 "/></g></g></g><g fill="#ed9462" fill-opacity="1"><g transform="translate(238.892689, 361.747728)"><g><path d="M 29.4375 -2.828125 L 37.703125 -7.421875 L 37.921875 -7.078125 C 36.929688 -6.273438 35.878906 -5.257812 34.765625 -4.03125 C 33.660156 -2.800781 32.613281 -1.726562 31.625 -0.8125 C 30.632812 0.101562 29.757812 0.5625 29 0.5625 C 28.71875 0.5625 28.390625 0.441406 28.015625 0.203125 C 27.640625 -0.0234375 27.25 -0.632812 26.84375 -1.625 C 26.445312 -2.613281 26.035156 -4.242188 25.609375 -6.515625 C 23.628906 -4.109375 21.773438 -2.300781 20.046875 -1.09375 C 18.328125 0.101562 17.140625 0.703125 16.484375 0.703125 C 14.734375 0.703125 13.046875 0.375 11.421875 -0.28125 C 9.796875 -0.945312 8.472656 -2.128906 7.453125 -3.828125 C 6.441406 -5.523438 5.9375 -7.953125 5.9375 -11.109375 L 5.9375 -34.671875 L -0.421875 -36.5 L -0.421875 -36.9375 L 9.90625 -36.9375 L 9.90625 -11.109375 C 9.90625 -8.085938 10.679688 -5.890625 12.234375 -4.515625 C 13.796875 -3.148438 15.566406 -2.46875 17.546875 -2.46875 C 19.054688 -2.46875 20.492188 -3.09375 21.859375 -4.34375 C 23.222656 -5.59375 24.425781 -6.90625 25.46875 -8.28125 L 25.46875 -34.671875 L 19.109375 -36.5 L 19.109375 -36.9375 L 29.4375 -36.9375 Z M 29.4375 -2.828125 "/></g></g></g><g fill="#ed9462" fill-opacity="1"><g transform="translate(275.395445, 361.747728)"><g><path d="M 15 -21.359375 L 16.84375 -20.453125 C 18.539062 -19.648438 20.128906 -18.738281 21.609375 -17.71875 C 23.097656 -16.707031 24.300781 -15.515625 25.21875 -14.140625 C 26.144531 -12.773438 26.609375 -11.082031 26.609375 -9.0625 C 26.609375 -6.363281 25.6875 -4.046875 23.84375 -2.109375 C 22 -0.179688 19.191406 0.78125 15.421875 0.78125 C 13.109375 0.78125 11.046875 0.472656 9.234375 -0.140625 C 7.421875 -0.753906 5.6875 -1.203125 4.03125 -1.484375 L 2.046875 -16.625 L 2.625 -16.625 C 3.226562 -13.226562 4.175781 -10.503906 5.46875 -8.453125 C 6.769531 -6.398438 8.210938 -4.851562 9.796875 -3.8125 C 11.378906 -2.78125 12.925781 -2.085938 14.4375 -1.734375 C 15.945312 -1.378906 17.21875 -1.203125 18.25 -1.203125 C 20.132812 -1.203125 21.691406 -1.707031 22.921875 -2.71875 C 24.148438 -3.738281 24.765625 -5.164062 24.765625 -7 C 24.765625 -9.03125 23.851562 -10.773438 22.03125 -12.234375 C 20.21875 -13.703125 17.78125 -15.191406 14.71875 -16.703125 L 12.734375 -17.6875 C 11.179688 -18.488281 9.734375 -19.335938 8.390625 -20.234375 C 7.046875 -21.128906 5.957031 -22.210938 5.125 -23.484375 C 4.300781 -24.765625 3.890625 -26.300781 3.890625 -28.09375 C 3.890625 -31.007812 4.925781 -33.375 7 -35.1875 C 9.082031 -37.007812 11.703125 -37.921875 14.859375 -37.921875 C 16.128906 -37.921875 17.554688 -37.71875 19.140625 -37.3125 C 20.722656 -36.914062 22.101562 -36.175781 23.28125 -35.09375 L 24.6875 -37.359375 L 25.109375 -37.359375 L 25.109375 -21.796875 L 24.546875 -21.796875 C 24.316406 -24.203125 23.71875 -26.476562 22.75 -28.625 C 21.78125 -30.769531 20.429688 -32.523438 18.703125 -33.890625 C 16.984375 -35.253906 14.804688 -35.9375 12.171875 -35.9375 C 10.046875 -35.9375 8.488281 -35.394531 7.5 -34.3125 C 6.507812 -33.226562 6.015625 -31.929688 6.015625 -30.421875 C 6.015625 -29.003906 6.4375 -27.753906 7.28125 -26.671875 C 8.132812 -25.585938 9.242188 -24.628906 10.609375 -23.796875 C 11.984375 -22.972656 13.445312 -22.160156 15 -21.359375 Z M 15 -21.359375 "/></g></g></g><g fill="#ed9462" fill-opacity="1"><g transform="translate(304.753276, 361.747728)"><g><path d="M 19.875 -5.171875 L 20.15625 -4.8125 C 19.164062 -3.820312 18.09375 -2.910156 16.9375 -2.078125 C 15.789062 -1.253906 14.734375 -0.582031 13.765625 -0.0625 C 12.796875 0.445312 12.097656 0.703125 11.671875 0.703125 C 9.929688 0.703125 8.53125 0.09375 7.46875 -1.125 C 6.40625 -2.351562 5.875 -4.171875 5.875 -6.578125 L 5.875 -35.59375 L -0.078125 -36.5 L -0.078125 -36.9375 L 5.9375 -36.9375 L 9.6875 -44.578125 L 9.96875 -44.578125 L 9.828125 -36.9375 L 19.59375 -36.9375 L 19.59375 -34.59375 C 19.070312 -34.59375 17.867188 -34.707031 15.984375 -34.9375 C 14.097656 -35.175781 12.046875 -35.394531 9.828125 -35.59375 L 9.828125 -6.578125 C 9.828125 -3.609375 11.242188 -2.125 14.078125 -2.125 C 14.878906 -2.125 15.679688 -2.300781 16.484375 -2.65625 C 17.285156 -3.007812 18.414062 -3.847656 19.875 -5.171875 Z M 19.875 -5.171875 "/></g></g></g><g fill="#ed9462" fill-opacity="1"><g transform="translate(325.126913, 361.747728)"><g><path d="M 8.984375 -44.640625 C 8.085938 -44.640625 7.320312 -44.957031 6.6875 -45.59375 C 6.050781 -46.226562 5.734375 -46.992188 5.734375 -47.890625 C 5.734375 -48.742188 6.050781 -49.488281 6.6875 -50.125 C 7.320312 -50.757812 8.085938 -51.078125 8.984375 -51.078125 C 9.878906 -51.078125 10.632812 -50.757812 11.25 -50.125 C 11.863281 -49.488281 12.171875 -48.742188 12.171875 -47.890625 C 12.171875 -46.992188 11.863281 -46.226562 11.25 -45.59375 C 10.632812 -44.957031 9.878906 -44.640625 8.984375 -44.640625 Z M 7.28125 -2.125 L 7.28125 -34.671875 L 0.921875 -36.5 L 0.921875 -36.9375 L 11.25 -36.9375 L 11.25 -2.125 L 17.609375 -0.421875 L 17.609375 0 L 0.921875 0 L 0.921875 -0.421875 Z M 7.28125 -2.125 "/></g></g></g><g fill="#ed9462" fill-opacity="1"><g transform="translate(342.600134, 361.747728)"><g><path d="M 30.921875 -25.6875 L 30.984375 -2.125 L 37.359375 -0.421875 L 37.359375 0 L 20.65625 0 L 20.65625 -0.421875 L 27.03125 -2.125 L 27.03125 -25.6875 C 27.03125 -28.695312 26.238281 -30.882812 24.65625 -32.25 C 23.070312 -33.625 21.289062 -34.3125 19.3125 -34.3125 C 17.988281 -34.3125 16.675781 -33.78125 15.375 -32.71875 C 14.082031 -31.65625 12.941406 -30.488281 11.953125 -29.21875 L 11.953125 -2.125 L 18.328125 -0.421875 L 18.328125 0 L 1.625 0 L 1.625 -0.421875 L 8 -2.125 L 8 -34.25 L -0.28125 -29.640625 L -0.5 -30 C 0.539062 -30.84375 1.601562 -31.863281 2.6875 -33.0625 C 3.769531 -34.269531 4.816406 -35.332031 5.828125 -36.25 C 6.847656 -37.175781 7.710938 -37.640625 8.421875 -37.640625 C 8.753906 -37.640625 9.082031 -37.519531 9.40625 -37.28125 C 9.738281 -37.050781 10.101562 -36.460938 10.5 -35.515625 C 10.90625 -34.566406 11.320312 -33.007812 11.75 -30.84375 C 13.675781 -33.0625 15.441406 -34.722656 17.046875 -35.828125 C 18.648438 -36.941406 19.757812 -37.5 20.375 -37.5 C 22.164062 -37.5 23.863281 -37.164062 25.46875 -36.5 C 27.070312 -35.84375 28.378906 -34.664062 29.390625 -32.96875 C 30.410156 -31.269531 30.921875 -28.84375 30.921875 -25.6875 Z M 30.921875 -25.6875 "/></g></g></g><g fill="#ed9462" fill-opacity="1"><g transform="translate(379.527328, 361.747728)"><g><path d="M 25.96875 -2.90625 L 34.25 -7.5 L 34.453125 -7.140625 C 33.460938 -6.335938 32.410156 -5.320312 31.296875 -4.09375 C 30.191406 -2.875 29.144531 -1.800781 28.15625 -0.875 C 27.164062 0.0390625 26.296875 0.5 25.546875 0.5 C 25.210938 0.5 24.851562 0.367188 24.46875 0.109375 C 24.09375 -0.148438 23.703125 -0.832031 23.296875 -1.9375 C 22.898438 -3.050781 22.46875 -4.878906 22 -7.421875 C 19.976562 -4.546875 18.066406 -2.457031 16.265625 -1.15625 C 14.472656 0.132812 12.375 0.78125 9.96875 0.78125 C 7.613281 0.78125 5.867188 0.238281 4.734375 -0.84375 C 3.609375 -1.925781 3.046875 -3.269531 3.046875 -4.875 C 3.046875 -6.769531 3.738281 -8.625 5.125 -10.4375 C 6.519531 -12.25 8.320312 -14.039062 10.53125 -15.8125 C 12.75 -17.582031 15.0625 -19.289062 17.46875 -20.9375 L 22.140625 -24.125 C 22.140625 -25.914062 22.019531 -27.625 21.78125 -29.25 C 21.550781 -30.882812 20.972656 -32.21875 20.046875 -33.25 C 19.128906 -34.289062 17.660156 -34.8125 15.640625 -34.8125 C 12.753906 -34.8125 10.582031 -33.75 9.125 -31.625 C 7.664062 -29.5 7.03125 -26.832031 7.21875 -23.625 L 1.984375 -20.734375 L 1.765625 -20.875 C 3.234375 -24.925781 4.957031 -28.203125 6.9375 -30.703125 C 8.914062 -33.203125 10.835938 -35.03125 12.703125 -36.1875 C 14.566406 -37.34375 16.015625 -37.921875 17.046875 -37.921875 C 19.597656 -37.921875 21.554688 -37.378906 22.921875 -36.296875 C 24.285156 -35.210938 25.226562 -33.878906 25.75 -32.296875 C 26.269531 -30.710938 26.503906 -29.164062 26.453125 -27.65625 L 25.96875 -7.5625 Z M 12.171875 -1.84375 C 13.535156 -1.84375 15.066406 -2.421875 16.765625 -3.578125 C 18.460938 -4.734375 20.207031 -6.5625 22 -9.0625 L 22.140625 -22.421875 C 17.191406 -19.410156 13.570312 -16.65625 11.28125 -14.15625 C 9 -11.65625 7.859375 -9.175781 7.859375 -6.71875 C 7.859375 -5.207031 8.257812 -4.015625 9.0625 -3.140625 C 9.863281 -2.273438 10.898438 -1.84375 12.171875 -1.84375 Z M 12.171875 -1.84375 "/></g></g></g><g fill="#ed9462" fill-opacity="1"><g transform="translate(412.785597, 361.747728)"><g/></g></g><g fill="#ed9462" fill-opacity="1"><g transform="translate(274.3698, 437.430329)"><g><path d="M 34.171875 -13.71875 L 43.515625 -0.421875 L 43.515625 0 L 30.703125 0 L 30.703125 -0.421875 L 37.078125 -2.765625 L 31.765625 -10.328125 C 29.410156 -7.171875 26.769531 -4.53125 23.84375 -2.40625 C 20.914062 -0.28125 17.847656 0.78125 14.640625 0.78125 C 12.804688 0.78125 11.023438 0.414062 9.296875 -0.3125 C 7.578125 -1.050781 6.160156 -2.242188 5.046875 -3.890625 C 3.941406 -5.546875 3.390625 -7.71875 3.390625 -10.40625 C 3.390625 -13.132812 3.921875 -15.570312 4.984375 -17.71875 C 6.046875 -19.863281 7.363281 -21.738281 8.9375 -23.34375 C 10.519531 -24.945312 12.113281 -26.328125 13.71875 -27.484375 C 15.320312 -28.640625 16.644531 -29.597656 17.6875 -30.359375 L 5.734375 -47.328125 L 5.734375 -47.75 L 32.546875 -47.75 L 32.75 -47.609375 L 32.6875 -33.8125 L 32.265625 -33.8125 C 31.742188 -35.75 31.328125 -37.492188 31.015625 -39.046875 C 30.710938 -40.609375 30.273438 -41.941406 29.703125 -43.046875 C 29.140625 -44.160156 28.234375 -45.007812 26.984375 -45.59375 C 25.734375 -46.1875 23.882812 -46.484375 21.4375 -46.484375 L 11.25 -46.484375 L 33.609375 -14.5 C 35.117188 -17.144531 36.273438 -19.867188 37.078125 -22.671875 C 37.878906 -25.484375 38.234375 -27.992188 38.140625 -30.203125 L 42.3125 -32.6875 L 42.375 -32.46875 C 41.757812 -29.875 40.742188 -26.898438 39.328125 -23.546875 C 37.921875 -20.203125 36.203125 -16.925781 34.171875 -13.71875 Z M 17.765625 -2.1875 C 20.359375 -2.1875 22.804688 -3.023438 25.109375 -4.703125 C 27.421875 -6.378906 29.5 -8.46875 31.34375 -10.96875 L 18.390625 -29.359375 C 17.398438 -28.554688 16.269531 -27.679688 15 -26.734375 C 13.726562 -25.796875 12.5 -24.710938 11.3125 -23.484375 C 10.132812 -22.265625 9.15625 -20.804688 8.375 -19.109375 C 7.601562 -17.410156 7.21875 -15.425781 7.21875 -13.15625 C 7.21875 -10.65625 7.710938 -8.59375 8.703125 -6.96875 C 9.691406 -5.34375 10.988281 -4.140625 12.59375 -3.359375 C 14.195312 -2.578125 15.921875 -2.1875 17.765625 -2.1875 Z M 17.765625 -2.1875 "/></g></g></g><g fill="#ed9462" fill-opacity="1"><g transform="translate(216.156017, 513.11293)"><g><path d="M 19.734375 -45.203125 L 19.734375 -10.328125 C 19.734375 -9.671875 19.425781 -8.726562 18.8125 -7.5 C 18.207031 -6.269531 17.40625 -5.003906 16.40625 -3.703125 C 15.414062 -2.410156 14.332031 -1.304688 13.15625 -0.390625 C 11.976562 0.523438 10.820312 0.984375 9.6875 0.984375 C 7.09375 0.984375 5.078125 0.429688 3.640625 -0.671875 C 2.203125 -1.773438 1.082031 -3.0625 0.28125 -4.53125 L 4.109375 -12.734375 L 4.453125 -12.59375 C 3.703125 -10.75 3.570312 -8.96875 4.0625 -7.25 C 4.5625 -5.53125 5.410156 -4.101562 6.609375 -2.96875 C 7.816406 -1.84375 9.148438 -1.28125 10.609375 -1.28125 C 11.179688 -1.28125 11.769531 -1.359375 12.375 -1.515625 C 12.988281 -1.679688 13.539062 -2.128906 14.03125 -2.859375 C 14.53125 -3.597656 14.921875 -4.789062 15.203125 -6.4375 C 15.492188 -8.09375 15.59375 -10.40625 15.5 -13.375 L 15.5 -45.203125 L 9.34375 -47.328125 L 9.34375 -47.75 L 25.890625 -47.75 L 25.890625 -47.328125 Z M 19.734375 -45.203125 "/></g></g></g><g fill="#ed9462" fill-opacity="1"><g transform="translate(242.967151, 513.11293)"><g><path d="M 25.96875 -2.90625 L 34.25 -7.5 L 34.453125 -7.140625 C 33.460938 -6.335938 32.410156 -5.320312 31.296875 -4.09375 C 30.191406 -2.875 29.144531 -1.800781 28.15625 -0.875 C 27.164062 0.0390625 26.296875 0.5 25.546875 0.5 C 25.210938 0.5 24.851562 0.367188 24.46875 0.109375 C 24.09375 -0.148438 23.703125 -0.832031 23.296875 -1.9375 C 22.898438 -3.050781 22.46875 -4.878906 22 -7.421875 C 19.976562 -4.546875 18.066406 -2.457031 16.265625 -1.15625 C 14.472656 0.132812 12.375 0.78125 9.96875 0.78125 C 7.613281 0.78125 5.867188 0.238281 4.734375 -0.84375 C 3.609375 -1.925781 3.046875 -3.269531 3.046875 -4.875 C 3.046875 -6.769531 3.738281 -8.625 5.125 -10.4375 C 6.519531 -12.25 8.320312 -14.039062 10.53125 -15.8125 C 12.75 -17.582031 15.0625 -19.289062 17.46875 -20.9375 L 22.140625 -24.125 C 22.140625 -25.914062 22.019531 -27.625 21.78125 -29.25 C 21.550781 -30.882812 20.972656 -32.21875 20.046875 -33.25 C 19.128906 -34.289062 17.660156 -34.8125 15.640625 -34.8125 C 12.753906 -34.8125 10.582031 -33.75 9.125 -31.625 C 7.664062 -29.5 7.03125 -26.832031 7.21875 -23.625 L 1.984375 -20.734375 L 1.765625 -20.875 C 3.234375 -24.925781 4.957031 -28.203125 6.9375 -30.703125 C 8.914062 -33.203125 10.835938 -35.03125 12.703125 -36.1875 C 14.566406 -37.34375 16.015625 -37.921875 17.046875 -37.921875 C 19.597656 -37.921875 21.554688 -37.378906 22.921875 -36.296875 C 24.285156 -35.210938 25.226562 -33.878906 25.75 -32.296875 C 26.269531 -30.710938 26.503906 -29.164062 26.453125 -27.65625 L 25.96875 -7.5625 Z M 12.171875 -1.84375 C 13.535156 -1.84375 15.066406 -2.421875 16.765625 -3.578125 C 18.460938 -4.734375 20.207031 -6.5625 22 -9.0625 L 22.140625 -22.421875 C 17.191406 -19.410156 13.570312 -16.65625 11.28125 -14.15625 C 9 -11.65625 7.859375 -9.175781 7.859375 -6.71875 C 7.859375 -5.207031 8.257812 -4.015625 9.0625 -3.140625 C 9.863281 -2.273438 10.898438 -1.84375 12.171875 -1.84375 Z M 12.171875 -1.84375 "/></g></g></g><g fill="#ed9462" fill-opacity="1"><g transform="translate(276.215782, 513.11293)"><g><path d="M 18.109375 -36.5 L 18.109375 -36.9375 L 28.234375 -36.9375 L 28.234375 -36.5 L 14.15625 2.046875 L 13.859375 2.046875 L 0.140625 -36.5 L 0.140625 -36.9375 L 11.171875 -36.9375 L 11.171875 -36.5 L 4.875 -34.671875 L 15.21875 -5.734375 L 15.640625 -5.734375 L 21.578125 -22.21875 C 22.660156 -25.144531 23.390625 -27.441406 23.765625 -29.109375 C 24.148438 -30.785156 24.210938 -32.0625 23.953125 -32.9375 C 23.691406 -33.8125 23.078125 -34.492188 22.109375 -34.984375 C 21.140625 -35.484375 19.804688 -35.988281 18.109375 -36.5 Z M 18.109375 -36.5 "/></g></g></g><g fill="#ed9462" fill-opacity="1"><g transform="translate(304.583231, 513.11293)"><g><path d="M 8.984375 -44.640625 C 8.085938 -44.640625 7.320312 -44.957031 6.6875 -45.59375 C 6.050781 -46.226562 5.734375 -46.992188 5.734375 -47.890625 C 5.734375 -48.742188 6.050781 -49.488281 6.6875 -50.125 C 7.320312 -50.757812 8.085938 -51.078125 8.984375 -51.078125 C 9.878906 -51.078125 10.632812 -50.757812 11.25 -50.125 C 11.863281 -49.488281 12.171875 -48.742188 12.171875 -47.890625 C 12.171875 -46.992188 11.863281 -46.226562 11.25 -45.59375 C 10.632812 -44.957031 9.878906 -44.640625 8.984375 -44.640625 Z M 7.28125 -2.125 L 7.28125 -34.671875 L 0.921875 -36.5 L 0.921875 -36.9375 L 11.25 -36.9375 L 11.25 -2.125 L 17.609375 -0.421875 L 17.609375 0 L 0.921875 0 L 0.921875 -0.421875 Z M 7.28125 -2.125 "/></g></g></g><g fill="#ed9462" fill-opacity="1"><g transform="translate(322.056452, 513.11293)"><g><path d="M 26.53125 -5.09375 L 26.8125 -4.59375 C 24.78125 -3.039062 22.90625 -1.769531 21.1875 -0.78125 C 19.46875 0.207031 18.085938 0.703125 17.046875 0.703125 C 14.222656 0.703125 11.640625 0.046875 9.296875 -1.265625 C 6.960938 -2.585938 5.085938 -4.566406 3.671875 -7.203125 C 2.265625 -9.847656 1.5625 -13.175781 1.5625 -17.1875 C 1.5625 -20.300781 1.960938 -23 2.765625 -25.28125 C 3.566406 -27.570312 4.59375 -29.519531 5.84375 -31.125 C 7.09375 -32.726562 8.398438 -34.015625 9.765625 -34.984375 C 11.128906 -35.953125 12.390625 -36.660156 13.546875 -37.109375 C 14.703125 -37.554688 15.585938 -37.78125 16.203125 -37.78125 C 20.023438 -37.78125 22.664062 -36.691406 24.125 -34.515625 C 25.582031 -32.347656 26.3125 -29.519531 26.3125 -26.03125 C 26.3125 -25.65625 25.957031 -25.148438 25.25 -24.515625 C 24.550781 -23.878906 23.8125 -23.3125 23.03125 -22.8125 C 22.25 -22.320312 21.691406 -22.078125 21.359375 -22.078125 L 4.953125 -22.078125 L 4.953125 -20.796875 C 4.953125 -14.953125 6.285156 -10.425781 8.953125 -7.21875 C 11.617188 -4.007812 15.117188 -2.40625 19.453125 -2.40625 C 21.015625 -2.40625 22.320312 -2.6875 23.375 -3.25 C 24.4375 -3.820312 25.488281 -4.4375 26.53125 -5.09375 Z M 15 -34.734375 C 13.726562 -34.734375 12.367188 -34.453125 10.921875 -33.890625 C 9.484375 -33.328125 8.210938 -32.226562 7.109375 -30.59375 C 6.003906 -28.96875 5.304688 -26.550781 5.015625 -23.34375 L 22.5 -23.34375 C 22.738281 -26.082031 22.515625 -28.273438 21.828125 -29.921875 C 21.140625 -31.578125 20.191406 -32.789062 18.984375 -33.5625 C 17.785156 -34.34375 16.457031 -34.734375 15 -34.734375 Z M 15 -34.734375 "/></g></g></g><g fill="#ed9462" fill-opacity="1"><g transform="translate(350.636125, 513.11293)"><g><path d="M 29.578125 -34.53125 L 29.78125 -34.25 C 29.363281 -33.769531 28.894531 -33.195312 28.375 -32.53125 C 27.851562 -31.875 27.304688 -31.285156 26.734375 -30.765625 C 26.171875 -30.253906 25.609375 -30 25.046875 -30 C 24.242188 -30 23.40625 -30.328125 22.53125 -30.984375 C 21.65625 -31.648438 20.78125 -32.3125 19.90625 -32.96875 C 19.039062 -33.625 18.179688 -33.953125 17.328125 -33.953125 C 16.523438 -33.953125 15.628906 -33.316406 14.640625 -32.046875 C 13.648438 -30.773438 12.753906 -29.410156 11.953125 -27.953125 L 11.953125 -2.125 L 18.328125 -0.421875 L 18.328125 0 L 1.625 0 L 1.625 -0.421875 L 8 -2.125 L 8 -34.25 L -0.28125 -29.640625 L -0.5 -30 C 0.539062 -30.84375 1.601562 -31.863281 2.6875 -33.0625 C 3.769531 -34.269531 4.816406 -35.332031 5.828125 -36.25 C 6.847656 -37.175781 7.710938 -37.640625 8.421875 -37.640625 C 8.753906 -37.640625 9.09375 -37.519531 9.4375 -37.28125 C 9.789062 -37.050781 10.179688 -36.40625 10.609375 -35.34375 C 11.035156 -34.28125 11.460938 -32.546875 11.890625 -30.140625 C 12.691406 -31.367188 13.5625 -32.5625 14.5 -33.71875 C 15.445312 -34.875 16.296875 -35.828125 17.046875 -36.578125 C 17.804688 -37.328125 18.300781 -37.703125 18.53125 -37.703125 C 19.050781 -37.703125 19.664062 -37.488281 20.375 -37.0625 C 21.082031 -36.644531 21.835938 -36.140625 22.640625 -35.546875 C 23.441406 -34.960938 24.21875 -34.457031 24.96875 -34.03125 C 25.726562 -33.601562 26.414062 -33.390625 27.03125 -33.390625 C 27.550781 -33.390625 28 -33.503906 28.375 -33.734375 C 28.75 -33.972656 29.148438 -34.238281 29.578125 -34.53125 Z M 29.578125 -34.53125 "/></g></g></g><g fill="#394017" fill-opacity="1"><g transform="translate(158.055614, 216.864157)"><g><path d="M 6.375 -3.34375 L 4.71875 -2.484375 L -2.03125 -15.328125 L -6.5625 -12.9375 L -7.328125 -14.40625 L 3.390625 -20.046875 L 4.15625 -18.578125 L -0.375 -16.1875 Z M 6.375 -3.34375 "/></g></g></g><g fill="#394017" fill-opacity="1"><g transform="translate(168.836689, 211.191705)"><g><path d="M 6.484375 -2.8125 C 4.859375 -2.050781 3.34375 -1.941406 1.9375 -2.484375 C 0.539062 -3.023438 -0.570312 -4.175781 -1.40625 -5.9375 C -2.238281 -7.707031 -2.460938 -9.316406 -2.078125 -10.765625 C -1.691406 -12.210938 -0.765625 -13.28125 0.703125 -13.96875 C 2.078125 -14.625 3.375 -14.6875 4.59375 -14.15625 C 5.820312 -13.632812 6.785156 -12.632812 7.484375 -11.15625 L 7.96875 -10.109375 L 0.421875 -6.546875 C 1.066406 -5.265625 1.851562 -4.4375 2.78125 -4.0625 C 3.71875 -3.6875 4.742188 -3.765625 5.859375 -4.296875 C 7.035156 -4.859375 8.085938 -5.65625 9.015625 -6.6875 L 9.71875 -5.21875 C 9.25 -4.675781 8.773438 -4.226562 8.296875 -3.875 C 7.828125 -3.519531 7.222656 -3.164062 6.484375 -2.8125 Z M 1.328125 -12.59375 C 0.441406 -12.175781 -0.125 -11.550781 -0.375 -10.71875 C -0.625 -9.894531 -0.554688 -8.957031 -0.171875 -7.90625 L 5.5625 -10.609375 C 5.0625 -11.648438 4.445312 -12.34375 3.71875 -12.6875 C 2.988281 -13.03125 2.191406 -13 1.328125 -12.59375 Z M 1.328125 -12.59375 "/></g></g></g><g fill="#394017" fill-opacity="1"><g transform="translate(180.114288, 205.91943)"><g/></g></g><g fill="#394017" fill-opacity="1"><g transform="translate(185.362999, 203.63859)"><g><path d="M 3.5 -1.4375 L 1.8125 -0.75 L -2.796875 -11.96875 L -1.109375 -12.65625 Z M -4.203125 -14.9375 C -4.367188 -15.332031 -4.394531 -15.65625 -4.28125 -15.90625 C -4.164062 -16.164062 -3.960938 -16.351562 -3.671875 -16.46875 C -3.398438 -16.582031 -3.125 -16.585938 -2.84375 -16.484375 C -2.570312 -16.378906 -2.359375 -16.132812 -2.203125 -15.75 C -2.046875 -15.375 -2.023438 -15.050781 -2.140625 -14.78125 C -2.265625 -14.519531 -2.460938 -14.332031 -2.734375 -14.21875 C -3.023438 -14.101562 -3.300781 -14.097656 -3.5625 -14.203125 C -3.832031 -14.316406 -4.046875 -14.5625 -4.203125 -14.9375 Z M -4.203125 -14.9375 "/></g></g></g><g fill="#394017" fill-opacity="1"><g transform="translate(190.385031, 201.494792)"><g><path d="M 9.609375 -3.578125 L 6.859375 -10.921875 C 6.515625 -11.847656 6.046875 -12.457031 5.453125 -12.75 C 4.859375 -13.050781 4.113281 -13.035156 3.21875 -12.703125 C 2.03125 -12.253906 1.28125 -11.609375 0.96875 -10.765625 C 0.65625 -9.929688 0.773438 -8.769531 1.328125 -7.28125 L 3.546875 -1.328125 L 1.828125 -0.6875 L -2.40625 -12.046875 L -1.015625 -12.5625 L -0.15625 -11.125 L -0.0625 -11.15625 C 0.0703125 -11.832031 0.398438 -12.441406 0.921875 -12.984375 C 1.441406 -13.535156 2.09375 -13.957031 2.875 -14.25 C 4.25 -14.757812 5.398438 -14.8125 6.328125 -14.40625 C 7.265625 -14.007812 8.003906 -13.082031 8.546875 -11.625 L 11.3125 -4.21875 Z M 9.609375 -3.578125 "/></g></g></g><g fill="#394017" fill-opacity="1"><g transform="translate(203.089383, 196.772995)"><g><path d="M 4.390625 -1.421875 L -3.75 -11.53125 L -1.875 -12.140625 L 2.828125 -6.109375 C 3.910156 -4.679688 4.578125 -3.75 4.828125 -3.3125 L 4.90625 -3.34375 C 4.863281 -3.738281 4.859375 -4.582031 4.890625 -5.875 C 4.929688 -7.175781 5.023438 -10.03125 5.171875 -14.4375 L 7.03125 -15.046875 L 6.421875 -2.09375 Z M 4.390625 -1.421875 "/></g></g></g><g fill="#394017" fill-opacity="1"><g transform="translate(213.665527, 193.371765)"><g><path d="M 3.625 -1.0625 L 1.875 -0.546875 L -1.546875 -12.1875 L 0.203125 -12.703125 Z M -2.625 -15.28125 C -2.75 -15.6875 -2.738281 -16.007812 -2.59375 -16.25 C -2.445312 -16.5 -2.222656 -16.671875 -1.921875 -16.765625 C -1.648438 -16.847656 -1.378906 -16.820312 -1.109375 -16.6875 C -0.847656 -16.550781 -0.660156 -16.285156 -0.546875 -15.890625 C -0.429688 -15.503906 -0.445312 -15.179688 -0.59375 -14.921875 C -0.75 -14.671875 -0.960938 -14.503906 -1.234375 -14.421875 C -1.535156 -14.328125 -1.8125 -14.347656 -2.0625 -14.484375 C -2.320312 -14.628906 -2.507812 -14.894531 -2.625 -15.28125 Z M -2.625 -15.28125 "/></g></g></g><g fill="#394017" fill-opacity="1"><g transform="translate(218.975831, 191.794328)"><g><path d="M 5.3125 -2.765625 C 5.625 -2.847656 5.921875 -2.953125 6.203125 -3.078125 C 6.484375 -3.203125 6.707031 -3.316406 6.875 -3.421875 L 7.234375 -2.0625 C 7.066406 -1.914062 6.804688 -1.757812 6.453125 -1.59375 C 6.097656 -1.4375 5.769531 -1.316406 5.46875 -1.234375 C 3.195312 -0.628906 1.738281 -1.519531 1.09375 -3.90625 L -0.78125 -10.890625 L -2.453125 -10.4375 L -2.671875 -11.28125 L -1.203125 -12.46875 L -1.109375 -15.171875 L -0.09375 -15.4375 L 0.640625 -12.71875 L 4.046875 -13.640625 L 4.40625 -12.28125 L 1 -11.359375 L 2.859375 -4.453125 C 3.046875 -3.753906 3.351562 -3.257812 3.78125 -2.96875 C 4.21875 -2.675781 4.726562 -2.609375 5.3125 -2.765625 Z M 5.3125 -2.765625 "/></g></g></g><g fill="#394017" fill-opacity="1"><g transform="translate(226.412807, 189.74854)"><g><path d="M 9.15625 -2.125 L 8.40625 -3.71875 L 8.328125 -3.6875 C 7.910156 -2.820312 7.4375 -2.1875 6.90625 -1.78125 C 6.382812 -1.382812 5.6875 -1.085938 4.8125 -0.890625 C 3.644531 -0.617188 2.65625 -0.707031 1.84375 -1.15625 C 1.039062 -1.601562 0.507812 -2.382812 0.25 -3.5 C -0.300781 -5.882812 1.320312 -7.578125 5.125 -8.578125 L 7.09375 -9.109375 L 6.921875 -9.84375 C 6.703125 -10.769531 6.34375 -11.40625 5.84375 -11.75 C 5.351562 -12.101562 4.664062 -12.175781 3.78125 -11.96875 C 2.800781 -11.738281 1.757812 -11.179688 0.65625 -10.296875 L -0.203125 -11.53125 C 0.304688 -11.988281 0.882812 -12.390625 1.53125 -12.734375 C 2.1875 -13.078125 2.859375 -13.328125 3.546875 -13.484375 C 4.960938 -13.804688 6.082031 -13.734375 6.90625 -13.265625 C 7.726562 -12.804688 8.296875 -11.882812 8.609375 -10.5 L 10.484375 -2.4375 Z M 4.8125 -2.453125 C 5.925781 -2.710938 6.726562 -3.21875 7.21875 -3.96875 C 7.71875 -4.726562 7.84375 -5.660156 7.59375 -6.765625 L 7.34375 -7.828125 L 5.578125 -7.34375 C 4.171875 -6.957031 3.195312 -6.492188 2.65625 -5.953125 C 2.113281 -5.421875 1.941406 -4.738281 2.140625 -3.90625 C 2.285156 -3.257812 2.59375 -2.8125 3.0625 -2.5625 C 3.53125 -2.320312 4.113281 -2.285156 4.8125 -2.453125 Z M 4.8125 -2.453125 "/></g></g></g><g fill="#394017" fill-opacity="1"><g transform="translate(238.208358, 186.875237)"><g><path d="M 17.15625 -2.96875 L 15.8125 -10.75 C 15.644531 -11.695312 15.3125 -12.367188 14.8125 -12.765625 C 14.320312 -13.171875 13.648438 -13.300781 12.796875 -13.15625 C 11.671875 -12.957031 10.894531 -12.488281 10.46875 -11.75 C 10.039062 -11.007812 9.941406 -9.96875 10.171875 -8.625 L 11.328125 -1.953125 L 9.53125 -1.640625 L 8.1875 -9.421875 C 8.019531 -10.367188 7.691406 -11.046875 7.203125 -11.453125 C 6.710938 -11.859375 6.03125 -11.984375 5.15625 -11.828125 C 4.03125 -11.640625 3.257812 -11.160156 2.84375 -10.390625 C 2.4375 -9.617188 2.367188 -8.457031 2.640625 -6.90625 L 3.71875 -0.640625 L 1.921875 -0.328125 L -0.140625 -12.28125 L 1.328125 -12.53125 L 1.90625 -10.953125 L 1.984375 -10.96875 C 2.222656 -11.59375 2.625 -12.125 3.1875 -12.5625 C 3.75 -13 4.414062 -13.285156 5.1875 -13.421875 C 7.050781 -13.742188 8.394531 -13.273438 9.21875 -12.015625 L 9.3125 -12.03125 C 9.5625 -12.71875 9.988281 -13.300781 10.59375 -13.78125 C 11.195312 -14.269531 11.9375 -14.585938 12.8125 -14.734375 C 14.15625 -14.960938 15.222656 -14.789062 16.015625 -14.21875 C 16.804688 -13.644531 17.335938 -12.597656 17.609375 -11.078125 L 18.953125 -3.28125 Z M 17.15625 -2.96875 "/></g></g></g><g fill="#394017" fill-opacity="1"><g transform="translate(258.511674, 183.46185)"><g><path d="M 11.640625 -7.4375 C 11.867188 -5.46875 11.550781 -3.875 10.6875 -2.65625 C 9.820312 -1.445312 8.519531 -0.742188 6.78125 -0.546875 C 5.707031 -0.421875 4.722656 -0.5625 3.828125 -0.96875 C 2.929688 -1.382812 2.195312 -2.035156 1.625 -2.921875 C 1.0625 -3.816406 0.707031 -4.90625 0.5625 -6.1875 C 0.34375 -8.132812 0.660156 -9.710938 1.515625 -10.921875 C 2.378906 -12.128906 3.6875 -12.832031 5.4375 -13.03125 C 7.125 -13.226562 8.523438 -12.816406 9.640625 -11.796875 C 10.765625 -10.785156 11.429688 -9.332031 11.640625 -7.4375 Z M 2.46875 -6.40625 C 2.644531 -4.851562 3.085938 -3.707031 3.796875 -2.96875 C 4.503906 -2.226562 5.457031 -1.925781 6.65625 -2.0625 C 7.84375 -2.195312 8.703125 -2.703125 9.234375 -3.578125 C 9.765625 -4.453125 9.941406 -5.671875 9.765625 -7.234375 C 9.597656 -8.765625 9.15625 -9.890625 8.4375 -10.609375 C 7.71875 -11.328125 6.753906 -11.617188 5.546875 -11.484375 C 4.359375 -11.347656 3.503906 -10.851562 2.984375 -10 C 2.460938 -9.15625 2.289062 -7.957031 2.46875 -6.40625 Z M 2.46875 -6.40625 "/></g></g></g><g fill="#394017" fill-opacity="1"><g transform="translate(271.771992, 181.985361)"><g><path d="M 9.5 -4 C 9.582031 -2.875 9.226562 -1.972656 8.4375 -1.296875 C 7.644531 -0.628906 6.488281 -0.242188 4.96875 -0.140625 C 3.375 -0.0234375 2.109375 -0.1875 1.171875 -0.625 L 1.046875 -2.328125 C 1.648438 -2.066406 2.285156 -1.878906 2.953125 -1.765625 C 3.628906 -1.648438 4.28125 -1.613281 4.90625 -1.65625 C 5.863281 -1.71875 6.585938 -1.921875 7.078125 -2.265625 C 7.578125 -2.609375 7.804688 -3.085938 7.765625 -3.703125 C 7.722656 -4.171875 7.484375 -4.5625 7.046875 -4.875 C 6.617188 -5.1875 5.796875 -5.523438 4.578125 -5.890625 C 3.421875 -6.234375 2.597656 -6.546875 2.109375 -6.828125 C 1.617188 -7.109375 1.238281 -7.4375 0.96875 -7.8125 C 0.707031 -8.1875 0.554688 -8.65625 0.515625 -9.21875 C 0.453125 -10.1875 0.796875 -10.984375 1.546875 -11.609375 C 2.304688 -12.242188 3.390625 -12.613281 4.796875 -12.71875 C 6.097656 -12.8125 7.382812 -12.632812 8.65625 -12.1875 L 8.125 -10.65625 C 6.875 -11.070312 5.753906 -11.242188 4.765625 -11.171875 C 3.898438 -11.109375 3.253906 -10.921875 2.828125 -10.609375 C 2.410156 -10.304688 2.222656 -9.914062 2.265625 -9.4375 C 2.285156 -9.125 2.382812 -8.859375 2.5625 -8.640625 C 2.738281 -8.429688 3.019531 -8.238281 3.40625 -8.0625 C 3.789062 -7.882812 4.519531 -7.632812 5.59375 -7.3125 C 7.0625 -6.894531 8.0625 -6.4375 8.59375 -5.9375 C 9.132812 -5.445312 9.4375 -4.800781 9.5 -4 Z M 9.5 -4 "/></g></g></g><g fill="#394017" fill-opacity="1"><g transform="translate(282.320756, 181.263616)"><g/></g></g><g fill="#394017" fill-opacity="1"><g transform="translate(287.943212, 180.964627)"><g><path d="M 9.40625 -0.109375 L 9.015625 -1.828125 L 8.9375 -1.828125 C 8.34375 -1.066406 7.742188 -0.546875 7.140625 -0.265625 C 6.535156 0.00390625 5.785156 0.144531 4.890625 0.15625 C 3.691406 0.175781 2.75 -0.117188 2.0625 -0.734375 C 1.375 -1.347656 1.019531 -2.226562 1 -3.375 C 0.976562 -5.820312 2.921875 -7.125 6.828125 -7.28125 L 8.875 -7.375 L 8.875 -8.125 C 8.863281 -9.082031 8.648438 -9.785156 8.234375 -10.234375 C 7.828125 -10.679688 7.171875 -10.898438 6.265625 -10.890625 C 5.253906 -10.878906 4.113281 -10.550781 2.84375 -9.90625 L 2.265625 -11.3125 C 2.859375 -11.644531 3.507812 -11.90625 4.21875 -12.09375 C 4.9375 -12.289062 5.648438 -12.394531 6.359375 -12.40625 C 7.804688 -12.425781 8.878906 -12.117188 9.578125 -11.484375 C 10.285156 -10.847656 10.648438 -9.820312 10.671875 -8.40625 L 10.765625 -0.125 Z M 5.234375 -1.359375 C 6.378906 -1.367188 7.273438 -1.691406 7.921875 -2.328125 C 8.566406 -2.960938 8.878906 -3.847656 8.859375 -4.984375 L 8.84375 -6.078125 L 7.015625 -5.96875 C 5.566406 -5.90625 4.519531 -5.664062 3.875 -5.25 C 3.226562 -4.84375 2.910156 -4.210938 2.921875 -3.359375 C 2.929688 -2.691406 3.140625 -2.1875 3.546875 -1.84375 C 3.953125 -1.507812 4.515625 -1.347656 5.234375 -1.359375 Z M 5.234375 -1.359375 "/></g></g></g><g fill="#394017" fill-opacity="1"><g transform="translate(300.282745, 180.865122)"><g/></g></g><g fill="#394017" fill-opacity="1"><g transform="translate(305.895793, 180.901173)"><g><path d="M 10.234375 0.53125 L 10.640625 -7.296875 C 10.691406 -8.285156 10.503906 -9.03125 10.078125 -9.53125 C 9.648438 -10.039062 8.957031 -10.320312 8 -10.375 C 6.738281 -10.4375 5.796875 -10.140625 5.171875 -9.484375 C 4.546875 -8.835938 4.191406 -7.722656 4.109375 -6.140625 L 3.78125 0.203125 L 1.953125 0.109375 L 2.59375 -12 L 4.078125 -11.921875 L 4.28125 -10.25 L 4.375 -10.25 C 4.78125 -10.820312 5.328125 -11.253906 6.015625 -11.546875 C 6.703125 -11.835938 7.460938 -11.960938 8.296875 -11.921875 C 9.765625 -11.847656 10.847656 -11.4375 11.546875 -10.6875 C 12.242188 -9.945312 12.554688 -8.800781 12.484375 -7.25 L 12.0625 0.640625 Z M 10.234375 0.53125 "/></g></g></g><g fill="#394017" fill-opacity="1"><g transform="translate(319.396935, 181.602196)"><g><path d="M 4.859375 -11.703125 L 4.078125 -3.890625 C 3.984375 -2.898438 4.128906 -2.140625 4.515625 -1.609375 C 4.910156 -1.078125 5.585938 -0.765625 6.546875 -0.671875 C 7.804688 -0.546875 8.765625 -0.796875 9.421875 -1.421875 C 10.085938 -2.054688 10.5 -3.15625 10.65625 -4.71875 L 11.28125 -11.0625 L 13.09375 -10.875 L 11.890625 1.1875 L 10.390625 1.03125 L 10.28125 -0.59375 L 10.1875 -0.609375 C 9.757812 -0.0664062 9.195312 0.328125 8.5 0.578125 C 7.8125 0.835938 7.039062 0.925781 6.1875 0.84375 C 4.71875 0.695312 3.648438 0.242188 2.984375 -0.515625 C 2.316406 -1.285156 2.0625 -2.441406 2.21875 -3.984375 L 3 -11.875 Z M 4.859375 -11.703125 "/></g></g></g><g fill="#394017" fill-opacity="1"><g transform="translate(332.864605, 182.950951)"><g><path d="M 6.953125 1.234375 C 5.179688 0.972656 3.859375 0.234375 2.984375 -0.984375 C 2.117188 -2.210938 1.828125 -3.789062 2.109375 -5.71875 C 2.390625 -7.644531 3.085938 -9.109375 4.203125 -10.109375 C 5.328125 -11.117188 6.695312 -11.503906 8.3125 -11.265625 C 9.8125 -11.046875 10.925781 -10.378906 11.65625 -9.265625 C 12.382812 -8.148438 12.628906 -6.78125 12.390625 -5.15625 L 12.234375 -4.015625 L 3.96875 -5.21875 C 3.800781 -3.800781 4 -2.675781 4.5625 -1.84375 C 5.132812 -1.019531 6.035156 -0.519531 7.265625 -0.34375 C 8.554688 -0.15625 9.867188 -0.242188 11.203125 -0.609375 L 10.96875 1.015625 C 10.28125 1.203125 9.640625 1.3125 9.046875 1.34375 C 8.460938 1.382812 7.765625 1.347656 6.953125 1.234375 Z M 8.078125 -9.75 C 7.109375 -9.894531 6.289062 -9.691406 5.625 -9.140625 C 4.957031 -8.597656 4.488281 -7.773438 4.21875 -6.671875 L 10.5 -5.765625 C 10.664062 -6.910156 10.539062 -7.828125 10.125 -8.515625 C 9.707031 -9.203125 9.023438 -9.613281 8.078125 -9.75 Z M 8.078125 -9.75 "/></g></g></g><g fill="#394017" fill-opacity="1"><g transform="translate(345.116726, 184.744393)"><g><path d="M 10.203125 -1.46875 C 9.992188 -0.351562 9.421875 0.425781 8.484375 0.875 C 7.546875 1.320312 6.332031 1.40625 4.84375 1.125 C 3.257812 0.832031 2.070312 0.351562 1.28125 -0.3125 L 1.59375 -2 C 2.113281 -1.59375 2.6875 -1.242188 3.3125 -0.953125 C 3.9375 -0.671875 4.554688 -0.472656 5.171875 -0.359375 C 6.109375 -0.179688 6.859375 -0.195312 7.421875 -0.40625 C 7.984375 -0.613281 8.320312 -1.023438 8.4375 -1.640625 C 8.519531 -2.097656 8.390625 -2.53125 8.046875 -2.9375 C 7.710938 -3.351562 7.003906 -3.890625 5.921875 -4.546875 C 4.878906 -5.160156 4.15625 -5.664062 3.75 -6.0625 C 3.34375 -6.457031 3.0625 -6.867188 2.90625 -7.296875 C 2.75 -7.734375 2.722656 -8.226562 2.828125 -8.78125 C 3.003906 -9.75 3.539062 -10.441406 4.4375 -10.859375 C 5.332031 -11.273438 6.472656 -11.351562 7.859375 -11.09375 C 9.140625 -10.863281 10.34375 -10.375 11.46875 -9.625 L 10.546875 -8.265625 C 9.441406 -8.984375 8.40625 -9.429688 7.4375 -9.609375 C 6.582031 -9.765625 5.910156 -9.75 5.421875 -9.5625 C 4.941406 -9.375 4.65625 -9.046875 4.5625 -8.578125 C 4.507812 -8.265625 4.539062 -7.976562 4.65625 -7.71875 C 4.78125 -7.457031 5.003906 -7.191406 5.328125 -6.921875 C 5.660156 -6.660156 6.300781 -6.242188 7.25 -5.671875 C 8.570312 -4.878906 9.429688 -4.175781 9.828125 -3.5625 C 10.222656 -2.957031 10.347656 -2.257812 10.203125 -1.46875 Z M 10.203125 -1.46875 "/></g></g></g><g fill="#394017" fill-opacity="1"><g transform="translate(355.480264, 186.69115)"><g><path d="M 6 -0.015625 C 6.320312 0.0546875 6.632812 0.0976562 6.9375 0.109375 C 7.238281 0.128906 7.484375 0.132812 7.671875 0.125 L 7.359375 1.5 C 7.148438 1.550781 6.847656 1.566406 6.453125 1.546875 C 6.066406 1.523438 5.722656 1.484375 5.421875 1.421875 C 3.128906 0.910156 2.25 -0.550781 2.78125 -2.96875 L 4.328125 -10.015625 L 2.625 -10.375 L 2.8125 -11.234375 L 4.671875 -11.625 L 6 -13.984375 L 7.03125 -13.75 L 6.421875 -11 L 9.859375 -10.25 L 9.5625 -8.859375 L 6.125 -9.609375 L 4.59375 -2.640625 C 4.4375 -1.921875 4.484375 -1.332031 4.734375 -0.875 C 4.992188 -0.425781 5.414062 -0.140625 6 -0.015625 Z M 6 -0.015625 "/></g></g></g><g fill="#394017" fill-opacity="1"><g transform="translate(363.061381, 188.338834)"><g><path d="M 10.25 -10.15625 C 10.757812 -10.03125 11.210938 -9.878906 11.609375 -9.703125 L 10.953125 -8.109375 C 10.492188 -8.328125 10.078125 -8.484375 9.703125 -8.578125 C 8.753906 -8.816406 7.84375 -8.628906 6.96875 -8.015625 C 6.101562 -7.410156 5.53125 -6.535156 5.25 -5.390625 L 3.671875 0.921875 L 1.890625 0.46875 L 4.828125 -11.296875 L 6.296875 -10.921875 L 5.953125 -8.6875 L 6.046875 -8.671875 C 6.679688 -9.328125 7.351562 -9.785156 8.0625 -10.046875 C 8.78125 -10.304688 9.507812 -10.34375 10.25 -10.15625 Z M 10.25 -10.15625 "/></g></g></g><g fill="#394017" fill-opacity="1"><g transform="translate(371.74908, 190.471018)"><g><path d="M 9.03125 2.609375 L 9.15625 0.859375 L 9.078125 0.828125 C 8.296875 1.378906 7.570312 1.703125 6.90625 1.796875 C 6.25 1.890625 5.492188 1.8125 4.640625 1.5625 C 3.484375 1.226562 2.660156 0.671875 2.171875 -0.109375 C 1.691406 -0.890625 1.613281 -1.832031 1.9375 -2.9375 C 2.613281 -5.28125 4.851562 -5.96875 8.65625 -5 L 10.625 -4.5 L 10.84375 -5.21875 C 11.101562 -6.132812 11.097656 -6.863281 10.828125 -7.40625 C 10.566406 -7.957031 10.003906 -8.359375 9.140625 -8.609375 C 8.171875 -8.890625 6.992188 -8.90625 5.609375 -8.65625 L 5.453125 -10.171875 C 6.109375 -10.304688 6.800781 -10.363281 7.53125 -10.34375 C 8.269531 -10.332031 8.984375 -10.226562 9.671875 -10.03125 C 11.054688 -9.632812 11.992188 -9.03125 12.484375 -8.21875 C 12.984375 -7.414062 13.035156 -6.332031 12.640625 -4.96875 L 10.34375 2.984375 Z M 5.40625 0.203125 C 6.5 0.523438 7.445312 0.476562 8.25 0.0625 C 9.050781 -0.351562 9.613281 -1.109375 9.9375 -2.203125 L 10.234375 -3.25 L 8.453125 -3.6875 C 7.035156 -4.039062 5.960938 -4.113281 5.234375 -3.90625 C 4.503906 -3.695312 4.019531 -3.1875 3.78125 -2.375 C 3.59375 -1.726562 3.640625 -1.1875 3.921875 -0.75 C 4.210938 -0.3125 4.707031 0.00390625 5.40625 0.203125 Z M 5.40625 0.203125 "/></g></g></g><g fill="#394017" fill-opacity="1"><g transform="translate(383.589653, 193.945877)"><g/></g></g><g fill="#394017" fill-opacity="1"><g transform="translate(388.952373, 195.604514)"><g><path d="M 11.328125 -9.015625 C 12.828125 -8.472656 13.804688 -7.539062 14.265625 -6.21875 C 14.722656 -4.90625 14.613281 -3.3125 13.9375 -1.4375 C 13.257812 0.4375 12.3125 1.738281 11.09375 2.46875 C 9.882812 3.207031 8.539062 3.3125 7.0625 2.78125 C 6.320312 2.507812 5.691406 2.125 5.171875 1.625 C 4.660156 1.132812 4.300781 0.53125 4.09375 -0.1875 L 3.96875 -0.234375 L 3.078125 1.109375 L 1.84375 0.65625 L 7.6875 -15.546875 L 9.40625 -14.921875 L 7.984375 -10.984375 C 7.660156 -10.097656 7.34375 -9.316406 7.03125 -8.640625 L 7.125 -8.609375 C 8.34375 -9.453125 9.742188 -9.585938 11.328125 -9.015625 Z M 10.546875 -7.65625 C 9.359375 -8.082031 8.382812 -8.050781 7.625 -7.5625 C 6.863281 -7.070312 6.195312 -6.03125 5.625 -4.4375 C 5.039062 -2.832031 4.890625 -1.585938 5.171875 -0.703125 C 5.453125 0.179688 6.1875 0.835938 7.375 1.265625 C 8.4375 1.648438 9.363281 1.546875 10.15625 0.953125 C 10.957031 0.367188 11.617188 -0.644531 12.140625 -2.09375 C 12.679688 -3.582031 12.820312 -4.78125 12.5625 -5.6875 C 12.3125 -6.601562 11.640625 -7.257812 10.546875 -7.65625 Z M 10.546875 -7.65625 "/></g></g></g><g fill="#394017" fill-opacity="1"><g transform="translate(401.65468, 200.177636)"><g><path d="M 13.796875 -0.859375 C 13.035156 0.960938 11.984375 2.195312 10.640625 2.84375 C 9.296875 3.488281 7.816406 3.472656 6.203125 2.796875 C 5.203125 2.390625 4.40625 1.785156 3.8125 0.984375 C 3.226562 0.191406 2.90625 -0.726562 2.84375 -1.78125 C 2.789062 -2.832031 3.007812 -3.945312 3.5 -5.125 C 4.25 -6.945312 5.289062 -8.175781 6.625 -8.8125 C 7.957031 -9.457031 9.441406 -9.445312 11.078125 -8.78125 C 12.640625 -8.125 13.664062 -7.082031 14.15625 -5.65625 C 14.644531 -4.226562 14.523438 -2.628906 13.796875 -0.859375 Z M 5.265625 -4.390625 C 4.671875 -2.960938 4.503906 -1.753906 4.765625 -0.765625 C 5.023438 0.210938 5.710938 0.9375 6.828125 1.40625 C 7.929688 1.863281 8.925781 1.835938 9.8125 1.328125 C 10.695312 0.816406 11.441406 -0.15625 12.046875 -1.59375 C 12.628906 -3.019531 12.785156 -4.21875 12.515625 -5.1875 C 12.242188 -6.164062 11.546875 -6.890625 10.421875 -7.359375 C 9.316406 -7.816406 8.328125 -7.796875 7.453125 -7.296875 C 6.585938 -6.804688 5.859375 -5.835938 5.265625 -4.390625 Z M 5.265625 -4.390625 "/></g></g></g><g fill="#394017" fill-opacity="1"><g transform="translate(413.948846, 205.255356)"><g><path d="M 9.921875 2.875 L 9.828125 2.828125 C 8.535156 3.578125 7.128906 3.59375 5.609375 2.875 C 4.171875 2.207031 3.28125 1.191406 2.9375 -0.171875 C 2.59375 -1.535156 2.847656 -3.117188 3.703125 -4.921875 C 4.554688 -6.734375 5.617188 -7.945312 6.890625 -8.5625 C 8.160156 -9.1875 9.515625 -9.164062 10.953125 -8.5 C 12.441406 -7.800781 13.328125 -6.722656 13.609375 -5.265625 L 13.734375 -5.203125 L 14.03125 -6.03125 L 14.359375 -6.8125 L 16.453125 -11.28125 L 18.125 -10.5 L 10.8125 5.078125 L 9.453125 4.4375 Z M 6.46875 1.59375 C 7.601562 2.125 8.566406 2.195312 9.359375 1.8125 C 10.160156 1.4375 10.882812 0.5625 11.53125 -0.8125 L 11.703125 -1.15625 C 12.429688 -2.71875 12.691406 -3.953125 12.484375 -4.859375 C 12.285156 -5.765625 11.617188 -6.484375 10.484375 -7.015625 C 9.503906 -7.472656 8.578125 -7.445312 7.703125 -6.9375 C 6.835938 -6.425781 6.078125 -5.476562 5.421875 -4.09375 C 4.765625 -2.695312 4.523438 -1.515625 4.703125 -0.546875 C 4.878906 0.410156 5.46875 1.125 6.46875 1.59375 Z M 6.46875 1.59375 "/></g></g></g><g fill="#394017" fill-opacity="1"><g transform="translate(426.179145, 211.006441)"><g><path d="M 8.328125 4.375 L 8.796875 2.6875 L 8.71875 2.640625 C 7.84375 3.015625 7.070312 3.179688 6.40625 3.140625 C 5.738281 3.109375 5.007812 2.882812 4.21875 2.46875 C 3.15625 1.90625 2.46875 1.191406 2.15625 0.328125 C 1.84375 -0.535156 1.953125 -1.472656 2.484375 -2.484375 C 3.617188 -4.648438 5.945312 -4.875 9.46875 -3.15625 L 11.3125 -2.265625 L 11.671875 -2.921875 C 12.109375 -3.773438 12.253906 -4.492188 12.109375 -5.078125 C 11.960938 -5.671875 11.488281 -6.179688 10.6875 -6.609375 C 9.789062 -7.078125 8.632812 -7.332031 7.21875 -7.375 L 7.375 -8.859375 C 8.050781 -8.878906 8.75 -8.804688 9.46875 -8.640625 C 10.1875 -8.472656 10.859375 -8.226562 11.484375 -7.90625 C 12.765625 -7.226562 13.566406 -6.441406 13.890625 -5.546875 C 14.210938 -4.660156 14.039062 -3.585938 13.375 -2.328125 L 9.53125 5 Z M 5.25 1.296875 C 6.269531 1.828125 7.210938 1.96875 8.078125 1.71875 C 8.941406 1.46875 9.640625 0.84375 10.171875 -0.15625 L 10.6875 -1.125 L 9.015625 -1.921875 C 7.703125 -2.546875 6.664062 -2.832031 5.90625 -2.78125 C 5.144531 -2.726562 4.566406 -2.328125 4.171875 -1.578125 C 3.859375 -0.984375 3.800781 -0.441406 4 0.046875 C 4.195312 0.546875 4.613281 0.960938 5.25 1.296875 Z M 5.25 1.296875 "/></g></g></g><g fill="#394017" fill-opacity="1"><g transform="translate(212.916938, 659.582744)"><g><path d="M 12.96875 -5.046875 C 12.34375 -2.398438 11.460938 -0.523438 10.328125 0.578125 C 9.191406 1.691406 7.765625 2.050781 6.046875 1.65625 C 4.410156 1.269531 3.316406 0.3125 2.765625 -1.21875 C 2.222656 -2.757812 2.253906 -4.828125 2.859375 -7.421875 C 3.484375 -10.078125 4.363281 -11.953125 5.5 -13.046875 C 6.632812 -14.140625 8.046875 -14.484375 9.734375 -14.078125 C 11.398438 -13.691406 12.503906 -12.722656 13.046875 -11.171875 C 13.585938 -9.628906 13.5625 -7.585938 12.96875 -5.046875 Z M 4.609375 -7.015625 C 4.085938 -4.773438 3.96875 -3.085938 4.25 -1.953125 C 4.539062 -0.828125 5.253906 -0.128906 6.390625 0.140625 C 7.546875 0.410156 8.507812 0.0976562 9.28125 -0.796875 C 10.050781 -1.703125 10.691406 -3.257812 11.203125 -5.46875 C 11.710938 -7.65625 11.820312 -9.316406 11.53125 -10.453125 C 11.25 -11.597656 10.53125 -12.304688 9.375 -12.578125 C 8.238281 -12.847656 7.289062 -12.539062 6.53125 -11.65625 C 5.769531 -10.78125 5.128906 -9.234375 4.609375 -7.015625 Z M 4.609375 -7.015625 "/></g></g></g><g fill="#394017" fill-opacity="1"><g transform="translate(225.436338, 662.513794)"><g><path d="M 7.53125 1.46875 L 5.828125 1.140625 L 7.96875 -9.84375 C 8.144531 -10.75 8.34375 -11.609375 8.5625 -12.421875 C 8.382812 -12.296875 8.1875 -12.171875 7.96875 -12.046875 C 7.757812 -11.921875 6.789062 -11.40625 5.0625 -10.5 L 4.375 -11.859375 L 9.078125 -14.203125 L 10.546875 -13.921875 Z M 7.53125 1.46875 "/></g></g></g><g fill="#394017" fill-opacity="1"><g transform="translate(237.986926, 664.918475)"><g><path d="M 1.796875 -0.859375 C 1.878906 -1.328125 2.046875 -1.664062 2.296875 -1.875 C 2.546875 -2.082031 2.867188 -2.148438 3.265625 -2.078125 C 3.679688 -2.015625 3.984375 -1.835938 4.171875 -1.546875 C 4.367188 -1.265625 4.425781 -0.890625 4.34375 -0.421875 C 4.269531 0.0351562 4.097656 0.367188 3.828125 0.578125 C 3.554688 0.785156 3.210938 0.859375 2.796875 0.796875 C 2.441406 0.734375 2.164062 0.566406 1.96875 0.296875 C 1.769531 0.0351562 1.710938 -0.347656 1.796875 -0.859375 Z M 1.796875 -0.859375 "/></g></g></g><g fill="#394017" fill-opacity="1"><g transform="translate(243.946777, 665.948785)"><g><path d="M 3.9375 0.5625 L 2.140625 0.296875 L 4.328125 -15.234375 L 12.984375 -14 L 12.765625 -12.40625 L 5.90625 -13.375 L 5.09375 -7.6875 L 11.53125 -6.78125 L 11.3125 -5.171875 L 4.875 -6.078125 Z M 3.9375 0.5625 "/></g></g></g><g fill="#394017" fill-opacity="1"><g transform="translate(255.449891, 667.576073)"><g><path d="M 6.8125 0.9375 C 5.070312 0.757812 3.757812 0.0859375 2.875 -1.078125 C 1.988281 -2.242188 1.644531 -3.757812 1.84375 -5.625 C 2.039062 -7.507812 2.660156 -8.957031 3.703125 -9.96875 C 4.742188 -10.988281 6.046875 -11.414062 7.609375 -11.25 C 9.078125 -11.09375 10.1875 -10.488281 10.9375 -9.4375 C 11.695312 -8.382812 11.992188 -7.066406 11.828125 -5.484375 L 11.703125 -4.359375 L 3.640625 -5.203125 C 3.535156 -3.828125 3.773438 -2.75 4.359375 -1.96875 C 4.941406 -1.195312 5.832031 -0.75 7.03125 -0.625 C 8.289062 -0.488281 9.5625 -0.613281 10.84375 -1 L 10.6875 0.578125 C 10.03125 0.773438 9.414062 0.90625 8.84375 0.96875 C 8.269531 1.03125 7.59375 1.019531 6.8125 0.9375 Z M 7.4375 -9.75 C 6.488281 -9.851562 5.707031 -9.628906 5.09375 -9.078125 C 4.476562 -8.523438 4.0625 -7.71875 3.84375 -6.65625 L 9.96875 -6.015625 C 10.082031 -7.117188 9.914062 -7.992188 9.46875 -8.640625 C 9.03125 -9.285156 8.351562 -9.65625 7.4375 -9.75 Z M 7.4375 -9.75 "/></g></g></g><g fill="#394017" fill-opacity="1"><g transform="translate(268.009573, 668.906365)"><g><path d="M 8.140625 -11.4375 C 9.691406 -11.332031 10.859375 -10.726562 11.640625 -9.625 C 12.421875 -8.519531 12.742188 -7 12.609375 -5.0625 C 12.484375 -3.144531 11.953125 -1.675781 11.015625 -0.65625 C 10.085938 0.351562 8.859375 0.804688 7.328125 0.703125 C 6.566406 0.660156 5.878906 0.472656 5.265625 0.140625 C 4.648438 -0.191406 4.144531 -0.660156 3.75 -1.265625 L 3.625 -1.28125 L 3.171875 0.21875 L 1.890625 0.125 L 3 -16.546875 L 4.765625 -16.421875 L 4.5 -12.359375 C 4.4375 -11.453125 4.351562 -10.648438 4.25 -9.953125 L 4.34375 -9.9375 C 5.25 -11.039062 6.515625 -11.539062 8.140625 -11.4375 Z M 7.796875 -9.96875 C 6.578125 -10.039062 5.675781 -9.75 5.09375 -9.09375 C 4.507812 -8.4375 4.160156 -7.28125 4.046875 -5.625 C 3.941406 -3.976562 4.140625 -2.78125 4.640625 -2.03125 C 5.140625 -1.289062 6 -0.878906 7.21875 -0.796875 C 8.3125 -0.722656 9.15625 -1.066406 9.75 -1.828125 C 10.34375 -2.585938 10.6875 -3.71875 10.78125 -5.21875 C 10.882812 -6.75 10.691406 -7.898438 10.203125 -8.671875 C 9.722656 -9.453125 8.921875 -9.882812 7.796875 -9.96875 Z M 7.796875 -9.96875 "/></g></g></g><g fill="#394017" fill-opacity="1"><g transform="translate(281.708886, 669.78125)"><g><path d="M 7.65625 -11.734375 C 8.1875 -11.722656 8.648438 -11.660156 9.046875 -11.546875 L 8.765625 -9.921875 C 8.273438 -10.046875 7.84375 -10.113281 7.46875 -10.125 C 6.519531 -10.15625 5.691406 -9.796875 4.984375 -9.046875 C 4.285156 -8.296875 3.921875 -7.34375 3.890625 -6.1875 L 3.671875 0.125 L 1.890625 0.0625 L 2.28125 -11.703125 L 3.75 -11.65625 L 3.890625 -9.46875 L 3.984375 -9.46875 C 4.429688 -10.21875 4.972656 -10.789062 5.609375 -11.1875 C 6.242188 -11.582031 6.925781 -11.765625 7.65625 -11.734375 Z M 7.65625 -11.734375 "/></g></g></g><g fill="#394017" fill-opacity="1"><g transform="translate(290.921669, 670.112715)"><g><path d="M 6.859375 0.234375 C 5.117188 0.234375 3.742188 -0.296875 2.734375 -1.359375 C 1.734375 -2.429688 1.238281 -3.90625 1.25 -5.78125 C 1.25 -7.675781 1.710938 -9.179688 2.640625 -10.296875 C 3.578125 -11.421875 4.832031 -11.976562 6.40625 -11.96875 C 7.882812 -11.96875 9.050781 -11.484375 9.90625 -10.515625 C 10.769531 -9.546875 11.203125 -8.265625 11.203125 -6.671875 L 11.203125 -5.546875 L 3.09375 -5.5625 C 3.125 -4.175781 3.46875 -3.125 4.125 -2.40625 C 4.789062 -1.6875 5.722656 -1.328125 6.921875 -1.328125 C 8.191406 -1.328125 9.445312 -1.59375 10.6875 -2.125 L 10.6875 -0.53125 C 10.050781 -0.257812 9.453125 -0.0664062 8.890625 0.046875 C 8.328125 0.171875 7.648438 0.234375 6.859375 0.234375 Z M 6.390625 -10.46875 C 5.441406 -10.46875 4.6875 -10.160156 4.125 -9.546875 C 3.570312 -8.941406 3.242188 -8.097656 3.140625 -7.015625 L 9.296875 -7 C 9.296875 -8.113281 9.039062 -8.96875 8.53125 -9.5625 C 8.03125 -10.164062 7.316406 -10.46875 6.390625 -10.46875 Z M 6.390625 -10.46875 "/></g></g></g><g fill="#394017" fill-opacity="1"><g transform="translate(303.49829, 670.106063)"><g><path d="M 6.890625 -12.203125 C 7.421875 -12.210938 7.890625 -12.175781 8.296875 -12.09375 L 8.125 -10.453125 C 7.625 -10.546875 7.1875 -10.585938 6.8125 -10.578125 C 5.863281 -10.546875 5.0625 -10.132812 4.40625 -9.34375 C 3.757812 -8.550781 3.453125 -7.578125 3.484375 -6.421875 L 3.671875 -0.109375 L 1.890625 -0.0625 L 1.546875 -11.828125 L 3.015625 -11.859375 L 3.28125 -9.703125 L 3.375 -9.703125 C 3.78125 -10.472656 4.285156 -11.078125 4.890625 -11.515625 C 5.492188 -11.953125 6.160156 -12.179688 6.890625 -12.203125 Z M 6.890625 -12.203125 "/></g></g></g><g fill="#394017" fill-opacity="1"><g transform="translate(312.72506, 669.862806)"><g><path d="M 11.640625 -6.625 C 11.765625 -4.71875 11.378906 -3.195312 10.484375 -2.0625 C 9.585938 -0.925781 8.289062 -0.300781 6.59375 -0.1875 C 5.539062 -0.125 4.59375 -0.3125 3.75 -0.75 C 2.90625 -1.195312 2.234375 -1.863281 1.734375 -2.75 C 1.234375 -3.644531 0.941406 -4.710938 0.859375 -5.953125 C 0.742188 -7.867188 1.128906 -9.390625 2.015625 -10.515625 C 2.898438 -11.640625 4.195312 -12.257812 5.90625 -12.375 C 7.550781 -12.476562 8.890625 -12.007812 9.921875 -10.96875 C 10.953125 -9.9375 11.523438 -8.488281 11.640625 -6.625 Z M 2.703125 -6.0625 C 2.796875 -4.570312 3.164062 -3.453125 3.8125 -2.703125 C 4.46875 -1.960938 5.378906 -1.628906 6.546875 -1.703125 C 7.710938 -1.773438 8.570312 -2.21875 9.125 -3.03125 C 9.675781 -3.851562 9.90625 -5.015625 9.8125 -6.515625 C 9.71875 -8.015625 9.34375 -9.132812 8.6875 -9.875 C 8.039062 -10.613281 7.125 -10.945312 5.9375 -10.875 C 4.769531 -10.800781 3.914062 -10.359375 3.375 -9.546875 C 2.832031 -8.742188 2.609375 -7.582031 2.703125 -6.0625 Z M 2.703125 -6.0625 "/></g></g></g><g fill="#394017" fill-opacity="1"><g transform="translate(326.190123, 668.960914)"><g><path d="M 1.515625 -1.28125 C 1.472656 -1.757812 1.546875 -2.128906 1.734375 -2.390625 C 1.929688 -2.648438 2.234375 -2.800781 2.640625 -2.84375 C 3.054688 -2.875 3.390625 -2.78125 3.640625 -2.5625 C 3.898438 -2.351562 4.050781 -2.007812 4.09375 -1.53125 C 4.132812 -1.0625 4.050781 -0.6875 3.84375 -0.40625 C 3.632812 -0.132812 3.320312 0.015625 2.90625 0.046875 C 2.539062 0.078125 2.226562 -0.00390625 1.96875 -0.203125 C 1.71875 -0.398438 1.566406 -0.757812 1.515625 -1.28125 Z M 1.515625 -1.28125 "/></g></g></g><g fill="#394017" fill-opacity="1"><g transform="translate(332.231469, 668.45213)"><g><path d="M 11.3125 -1.34375 L 1.078125 -0.125 L 0.890625 -1.640625 L 4.5 -6.25 C 5.601562 -7.675781 6.316406 -8.679688 6.640625 -9.265625 C 6.972656 -9.859375 7.207031 -10.421875 7.34375 -10.953125 C 7.488281 -11.484375 7.53125 -12.046875 7.46875 -12.640625 C 7.363281 -13.460938 7.03125 -14.085938 6.46875 -14.515625 C 5.90625 -14.953125 5.171875 -15.117188 4.265625 -15.015625 C 3.628906 -14.929688 3.035156 -14.75 2.484375 -14.46875 C 1.929688 -14.1875 1.328125 -13.722656 0.671875 -13.078125 L -0.40625 -14.171875 C 0.894531 -15.535156 2.390625 -16.316406 4.078125 -16.515625 C 5.546875 -16.691406 6.738281 -16.453125 7.65625 -15.796875 C 8.570312 -15.148438 9.101562 -14.195312 9.25 -12.9375 C 9.363281 -11.9375 9.203125 -10.921875 8.765625 -9.890625 C 8.335938 -8.859375 7.445312 -7.515625 6.09375 -5.859375 L 3.09375 -2.109375 L 3.09375 -2.03125 L 11.109375 -2.984375 Z M 11.3125 -1.34375 "/></g></g></g><g fill="#394017" fill-opacity="1"><g transform="translate(344.998666, 666.927039)"><g><path d="M 10.109375 -9.5625 C 10.523438 -6.875 10.414062 -4.800781 9.78125 -3.34375 C 9.144531 -1.882812 7.957031 -1.019531 6.21875 -0.75 C 4.550781 -0.488281 3.175781 -0.96875 2.09375 -2.1875 C 1.007812 -3.40625 0.265625 -5.328125 -0.140625 -7.953125 C -0.566406 -10.648438 -0.460938 -12.71875 0.171875 -14.15625 C 0.816406 -15.59375 2 -16.445312 3.71875 -16.71875 C 5.40625 -16.988281 6.789062 -16.507812 7.875 -15.28125 C 8.957031 -14.050781 9.703125 -12.144531 10.109375 -9.5625 Z M 1.640625 -8.234375 C 1.992188 -5.972656 2.515625 -4.367188 3.203125 -3.421875 C 3.898438 -2.484375 4.828125 -2.101562 5.984375 -2.28125 C 7.160156 -2.46875 7.929688 -3.125 8.296875 -4.25 C 8.660156 -5.375 8.671875 -7.050781 8.328125 -9.28125 C 7.972656 -11.5 7.445312 -13.082031 6.75 -14.03125 C 6.0625 -14.988281 5.128906 -15.375 3.953125 -15.1875 C 2.796875 -15.007812 2.03125 -14.367188 1.65625 -13.265625 C 1.289062 -12.160156 1.285156 -10.484375 1.640625 -8.234375 Z M 1.640625 -8.234375 "/></g></g></g><g fill="#394017" fill-opacity="1"><g transform="translate(357.700099, 664.926885)"><g><path d="M 11.171875 -2.1875 L 1.0625 -0.203125 L 0.765625 -1.703125 L 4.015625 -6.578125 C 5.015625 -8.066406 5.65625 -9.117188 5.9375 -9.734375 C 6.226562 -10.347656 6.421875 -10.925781 6.515625 -11.46875 C 6.617188 -12.007812 6.613281 -12.570312 6.5 -13.15625 C 6.332031 -13.976562 5.953125 -14.582031 5.359375 -14.96875 C 4.765625 -15.351562 4.023438 -15.457031 3.140625 -15.28125 C 2.503906 -15.15625 1.921875 -14.929688 1.390625 -14.609375 C 0.859375 -14.285156 0.296875 -13.78125 -0.296875 -13.09375 L -1.453125 -14.09375 C -0.265625 -15.550781 1.160156 -16.445312 2.828125 -16.78125 C 4.273438 -17.0625 5.476562 -16.910156 6.4375 -16.328125 C 7.40625 -15.753906 8.015625 -14.84375 8.265625 -13.59375 C 8.453125 -12.613281 8.363281 -11.585938 8 -10.515625 C 7.644531 -9.453125 6.859375 -8.046875 5.640625 -6.296875 L 2.921875 -2.34375 L 2.9375 -2.265625 L 10.859375 -3.8125 Z M 11.171875 -2.1875 "/></g></g></g><g fill="#394017" fill-opacity="1"><g transform="translate(370.318097, 662.454211)"><g><path d="M 3.640625 -10.703125 C 5.242188 -11.085938 6.597656 -10.984375 7.703125 -10.390625 C 8.816406 -9.804688 9.535156 -8.820312 9.859375 -7.4375 C 10.234375 -5.863281 10.019531 -4.503906 9.21875 -3.359375 C 8.425781 -2.222656 7.144531 -1.445312 5.375 -1.03125 C 3.65625 -0.625 2.28125 -0.597656 1.25 -0.953125 L 0.859375 -2.609375 C 1.410156 -2.421875 2.070312 -2.320312 2.84375 -2.3125 C 3.613281 -2.300781 4.351562 -2.378906 5.0625 -2.546875 C 6.28125 -2.835938 7.160156 -3.351562 7.703125 -4.09375 C 8.253906 -4.832031 8.398438 -5.742188 8.140625 -6.828125 C 7.640625 -8.960938 6.082031 -9.722656 3.46875 -9.109375 C 2.800781 -8.953125 1.941406 -8.644531 0.890625 -8.1875 L -0.15625 -8.53125 L -1.25 -15.8125 L 6.359375 -17.59375 L 6.734375 -16 L 0.609375 -14.5625 L 1.28125 -9.890625 C 2.050781 -10.242188 2.835938 -10.515625 3.640625 -10.703125 Z M 3.640625 -10.703125 "/></g></g></g></svg>